<svg width="214" height="156" viewBox="0 0 214 156" fill="none" xmlns="http://www.w3.org/2000/svg">
<path d="M151.323 48.7218C168.835 47.3088 175.707 54.1269 178.279 61.5974C179.248 64.4017 180.289 67.2024 180.723 70.0597C181.578 75.4971 182.79 80.9161 181.183 86.5317C178.847 94.6608 171.223 100.285 159.61 101.493C151.559 102.34 102.466 105.289 86.0033 106.218C76.3616 106.768 66.6816 107.27 57.0413 107.846C52.7205 108.095 48.5614 108.007 44.4942 106.93C38.2843 105.281 34.6816 102.108 33.6567 97.5384C32.8231 93.8934 32.0967 90.2428 31.869 86.5412C31.5747 81.5546 31.2408 76.4943 31.9135 71.5082C33.1967 61.7159 38.9224 57.4783 52.1971 54.4661C61.0129 52.4935 102.292 50.8085 106.972 50.566C107.014 50.6901 136.562 49.3101 151.323 48.7218ZM87.025 76.1795C89.4116 75.9295 88.0415 81.2802 88.1337 83.7511C88.1594 84.937 88.1149 86.1519 88.3906 87.3249C88.6676 88.5231 89.7479 89.326 91.5709 89.2568C93.464 89.1587 94.3762 88.1009 94.4603 86.9598C94.6072 84.9565 94.6456 82.9336 94.3281 80.9543C94.0224 79.2019 93.4283 77.4138 92.4848 75.7955C90.9969 73.3464 88.4996 72.8443 84.9389 73.9383C84.3395 74.1209 83.7031 74.2802 82.8563 74.5262C82.7688 72.8382 82.7275 71.3499 82.6147 69.8653C82.5729 69.0591 82.7402 68.141 82.2419 67.51C81.6299 66.7587 80.4808 66.0098 79.3234 65.792C77.7309 65.4703 76.631 66.361 76.2214 67.4432C75.9034 68.2175 75.8023 69.0311 75.7714 69.8159C75.5664 75.5356 75.3985 81.2787 75.265 86.9948C75.2341 87.7795 75.5285 88.6231 75.7794 89.3175C76.2324 90.456 77.571 90.715 78.538 90.7154C79.4693 90.7177 80.7544 89.9438 81.329 89.2824C81.9062 88.6715 81.8936 87.7375 81.9603 86.9509C82.1681 84.7423 82.3045 82.5375 82.441 80.3327C82.5495 78.2808 83.6194 76.8107 87.025 76.1795ZM58.7868 93.1539C65.55 92.3486 69.3172 89.0209 68.0541 84.6908C67.2649 81.9024 64.6122 80.4737 59.4703 80.0834C55.5508 79.7813 54.2027 77.9566 56.4426 75.5669C57.4262 74.5055 58.9535 73.5674 60.4951 72.9065C61.9335 72.3267 63.7961 72.3312 65.3469 71.8466C66.4041 71.514 67.8003 70.81 67.9475 70.1961C68.0935 69.557 67.9036 68.6574 66.1947 68.165C64.4859 67.6726 62.327 67.4813 60.4774 67.7288C54.643 68.4859 50.2075 72.0503 49.3209 76.3655C48.5485 80.119 51.5166 82.7945 56.7974 83.1018C57.9112 83.1704 59.1217 83.0318 60.1641 83.1041C61.819 83.2457 62.5303 83.8404 62.8857 84.4787C63.442 85.5362 62.9331 86.7751 61.1284 87.197C59.6783 87.5501 58.0774 87.7594 56.572 87.7364C54.8879 87.7226 53.2226 87.3795 51.5665 87.2127C50.0545 87.0637 48.6706 87.3123 47.9766 88.4345C47.1847 89.7386 47.855 90.2344 48.7632 91.1725C49.7481 92.2077 53.2503 93.4409 58.7868 93.1539ZM145.805 76.9978C150.558 76.8019 154.638 76.0599 157.204 75.1185C160.086 74.0597 161.554 72.67 160.34 70.6615C159.753 69.7067 158.703 68.8012 157.525 68.1802C152.002 65.2835 144.347 66.8423 140.472 71.5398C137.27 75.4192 138.292 79.2313 143.139 81.5315C147.655 83.672 155.346 82.7934 158.661 79.7417C158.935 79.5001 159.172 79.2352 159.338 78.974C160.028 77.7762 159.088 76.9155 157.35 77.233C156.003 77.5049 154.743 78.0754 153.36 78.3492C150.526 78.9508 146.444 78.9603 145.805 76.9978ZM110.443 76.0772C109.16 76.1942 108.162 76.2964 107.199 76.3716C102.992 76.7413 100.106 78.4066 98.347 81.0997C97.3524 82.6417 97.1132 84.2456 98.6892 85.6291C100.265 87.0125 102.383 87.7869 104.976 87.3747C106.61 87.1131 109.988 85.9528 110.87 85.705C111.183 87.5834 112.761 87.6279 114.11 87.4064C116.169 87.0471 116.046 85.3609 116.122 84.0686C116.233 82.0672 116.487 80.0584 116.348 78.0699C116.196 75.8295 115.229 73.7576 112.997 72.1555C110.208 70.1529 106.535 69.7875 102.878 71.0886C101.998 71.3868 100.226 72.4386 101.355 73.4916C102.073 74.2122 103.92 73.2323 106.212 73.2146C109.361 73.1776 109.993 74.3069 110.443 76.0772ZM128.042 68.7485C127.453 68.4254 127.633 67.7592 126.514 67.5899C123.808 67.1996 122.557 67.9465 122.292 70.4359C121.865 74.6262 121.975 78.8392 121.906 83.0362C121.886 83.3404 121.974 83.639 122.095 83.9106C122.582 85.0221 123.346 85.9425 125.308 85.7902C127.233 85.6147 127.899 84.6455 127.98 83.4288C128.096 81.5281 128.284 79.6237 128.222 77.7323C128.109 74.1763 129.471 71.4279 135.114 70.4281C136.001 70.2811 137.961 70.0785 137.378 68.5172C137.394 67.4301 135.093 67.2715 134.023 67.3522C132.168 67.4989 130.305 68.1765 128.042 68.7485Z" fill="black"/>
<path d="M156.149 72.0411C156.166 72.3686 151.778 72.6971 150.42 72.7675C148.849 72.8489 147.204 72.9089 147.183 72.5058C147.602 71.6 148.547 70.49 151.402 70.2915C153.721 70.1207 155.512 70.811 156.149 72.0411Z" fill="black"/>
<path d="M101.818 83.7997C101.289 82.5892 101.965 81.7964 103.396 81.0906C105.736 79.9336 107.971 79.5147 110.537 79.2806C109.551 81.681 108.219 83.6194 105.225 84.583C104.485 84.8234 102.56 84.999 101.818 83.7997Z" fill="black"/>
<rect width="132" height="34" transform="translate(39.2109 65.9548) rotate(-2.96721)" fill="black"/>
<mask id="path-4-outside-1_189_497" maskUnits="userSpaceOnUse" x="75.2406" y="62.4834" width="61.1101" height="26.075" fill="black">
<rect fill="white" x="75.2406" y="62.4834" width="61.1101" height="26.075"/>
<path d="M91.6067 80.0448C91.6619 81.1111 91.1229 82.191 89.9897 83.2845C88.8737 84.3771 87.4889 85.2766 85.8355 85.9832C84.1984 86.6716 82.6231 87.055 81.1096 87.1335C80.456 87.1674 79.6701 86.8115 78.752 86.0658C77.8329 85.3029 77.36 84.6635 77.3333 84.1475C77.3181 83.8551 77.3663 83.6198 77.4777 83.4416C77.6064 83.2624 77.7568 83.1684 77.9287 83.1595C78.1007 83.1506 78.4867 83.2772 79.0866 83.5392C79.7029 83.7832 80.1572 83.8976 80.4495 83.8825C80.7591 83.8664 81.0588 83.825 81.3485 83.7583C80.9096 83.6086 80.464 83.3299 80.0118 82.9222C79.5595 82.5145 79.3231 82.1129 79.3026 81.7173C79.2937 81.5453 79.5128 80.2836 79.9601 77.9323C80.4064 75.5639 80.604 73.5532 80.5528 71.9003C80.228 71.6239 79.926 71.286 79.6466 70.8866C79.3835 70.4691 79.2466 70.1572 79.2359 69.9508C79.211 69.4692 79.5693 69.0626 80.3109 68.731C81.0525 68.3994 81.9909 68.2042 83.126 68.1454C85.5339 68.0205 87.4767 68.2389 88.9544 68.8004C90.4493 69.361 91.2329 70.3378 91.3051 71.7309C91.3505 72.6081 91.0271 73.5216 90.3348 74.4715C89.6425 75.4214 88.714 76.3059 87.5493 77.1251L87.8113 77.1891C88.8575 77.4108 89.7388 77.779 90.4553 78.2937C91.1881 78.7903 91.5719 79.374 91.6067 80.0448ZM86.5736 71.2778C86.0404 71.3054 84.7947 71.5597 82.8364 72.0406C83.4912 72.6964 83.8307 73.2566 83.8548 73.7209C83.8779 74.1681 83.775 75.0098 83.5459 76.2461C83.8104 76.0255 84.285 75.6991 84.9696 75.267C85.6543 74.8348 86.0795 74.5541 86.2452 74.4248C86.4273 74.2774 86.6664 74.0667 86.9626 73.7927C87.5233 73.298 87.7881 72.7496 87.7569 72.1477C87.7248 71.5285 87.3304 71.2385 86.5736 71.2778ZM88.3507 80.1101C88.3329 79.7661 87.8189 79.4996 86.8089 79.3105C85.8152 79.1033 84.9915 79.0167 84.338 79.0506C83.9768 79.0693 83.576 78.8228 83.1356 78.311C82.5265 81.5329 82.1526 83.3027 82.0139 83.6203C83.4426 83.2358 84.8628 82.688 86.2745 81.9767C87.6863 81.2655 88.3783 80.6433 88.3507 80.1101ZM102.763 73.1806C102.878 72.7435 103.142 72.5143 103.555 72.4929C103.968 72.4715 104.459 72.7995 105.029 73.4771C105.616 74.1537 105.922 74.75 105.949 75.266C105.959 75.4552 105.629 76.7398 104.959 79.1199C104.289 81.5 103.774 83.3805 103.415 84.7615C103.211 85.4964 102.826 85.8785 102.258 85.9079C101.914 85.9258 101.616 85.8205 101.362 85.5922C101.126 85.3458 100.993 84.956 100.966 84.4229C100.938 83.8897 101.002 83.1276 101.158 82.1365C99.5179 84.7738 98.1736 86.1197 97.1244 86.174C96.5741 86.2026 95.8936 85.8843 95.0831 85.2193C94.2717 84.537 93.8486 83.8605 93.8139 83.1898C93.7283 81.5386 94.0834 79.4077 94.8794 76.7969C95.6925 74.1852 96.5118 72.8579 97.3374 72.8151C97.8361 72.7893 98.2863 72.9901 98.6879 73.4177C99.1066 73.8444 99.3298 74.3243 99.3575 74.8575C99.3682 75.0639 99.183 75.6512 98.8021 76.6194C97.6421 79.525 97.0923 81.5626 97.153 82.7321C97.1583 82.8353 97.204 82.8847 97.29 82.8802C97.548 82.8669 98.0086 82.4377 98.6719 81.5928C99.3514 80.7298 100.091 79.5188 100.889 77.9598C101.704 76.3828 102.329 74.7897 102.763 73.1806ZM108.84 68.9854C108.816 68.5383 108.991 68.0722 109.362 67.5873C109.75 67.0844 110.133 66.8231 110.511 66.8035C110.907 66.783 111.395 67.2233 111.977 68.1244C112.558 69.0255 112.86 69.691 112.882 70.121C112.904 70.5338 112.782 70.8591 112.519 71.097C112.255 71.3348 111.977 71.4613 111.685 71.4765C111.186 71.5023 110.593 71.2054 109.906 70.5857C109.218 69.966 108.863 69.4326 108.84 68.9854ZM109.394 72.1902C109.996 72.159 110.547 72.4753 111.047 73.1392C111.564 73.8022 111.839 74.4519 111.872 75.0883C111.889 75.4151 111.649 76.6088 111.152 78.6695C110.672 80.7121 110.186 82.6515 109.695 84.4877C109.523 85.1692 109.119 85.5264 108.483 85.5594C108.105 85.579 107.762 85.4588 107.455 85.1988C107.165 84.9207 107.008 84.558 106.985 84.1108C106.961 83.6465 107.117 82.5002 107.454 80.672C107.806 78.8257 108.061 77.2604 108.219 75.9761C108.393 74.6737 108.559 73.7252 108.718 73.1306C108.893 72.5179 109.119 72.2045 109.394 72.1902ZM116.701 64.5684C117.114 64.547 117.667 64.8977 118.36 65.6206C119.052 66.3435 119.417 67.0489 119.452 67.7369C119.488 68.4249 119.449 69.6599 119.334 71.4422C119.219 73.2072 119.076 74.62 118.907 75.6808C117.802 81.9808 116.966 85.1456 116.398 85.175C116.02 85.1946 115.531 84.9181 114.933 84.3456C114.35 83.755 114.049 83.2618 114.028 82.8663C114.026 82.8319 114.212 81.9255 114.586 80.1471C114.959 78.3687 115.307 76.0916 115.629 73.3156C115.967 70.5216 116.071 67.8691 115.94 65.358C115.915 64.8592 116.168 64.596 116.701 64.5684ZM131.191 63.8174C131.603 63.796 132.165 64.1463 132.875 64.8683C133.584 65.5731 133.955 66.2522 133.989 66.9058C134.006 67.2326 133.776 68.6069 133.297 71.0288C132.819 73.4507 132.533 74.9141 132.439 75.4191C131.37 81.4241 130.518 84.4431 129.881 84.4761C129.52 84.4948 129.105 84.3008 128.636 83.894C128.166 83.4872 127.921 83.0774 127.899 82.6646C127.895 82.5786 127.9 82.5094 127.914 82.4569C126.268 83.9564 125.066 84.7257 124.309 84.765C123.569 84.8033 122.827 84.4452 122.08 83.6906C121.35 82.9179 120.969 82.2047 120.935 81.5512C120.901 80.8976 120.949 80.1708 121.08 79.3707C121.228 78.5525 121.467 77.6865 121.799 76.7725C122.131 75.8585 122.518 75.0021 122.96 74.2032C123.417 73.3862 123.977 72.7104 124.639 72.176C125.318 71.6235 126.027 71.3281 126.766 71.2897C127.867 71.2327 128.799 71.7448 129.562 72.8262C130.28 68.7019 130.586 65.9699 130.482 64.6301C130.456 64.1141 130.692 63.8432 131.191 63.8174ZM124.475 81.4712C124.904 81.4489 125.608 81.0416 126.584 80.2495C127.578 79.4564 128.294 78.4794 128.734 77.3184C128.71 77.1817 128.686 76.8812 128.662 76.4168C128.638 75.9524 128.46 75.5219 128.129 75.1251C127.798 74.7284 127.504 74.5367 127.246 74.5501C126.73 74.5768 126.245 74.8779 125.792 75.4532C125.356 76.0277 125.021 76.7004 124.785 77.4714C124.283 79.1012 124.053 80.3289 124.096 81.1545C124.103 81.2921 124.125 81.3858 124.162 81.4356C124.216 81.4673 124.32 81.4792 124.475 81.4712Z"/>
</mask>
<path d="M91.6067 80.0448C91.6619 81.1111 91.1229 82.191 89.9897 83.2845C88.8737 84.3771 87.4889 85.2766 85.8355 85.9832C84.1984 86.6716 82.6231 87.055 81.1096 87.1335C80.456 87.1674 79.6701 86.8115 78.752 86.0658C77.8329 85.3029 77.36 84.6635 77.3333 84.1475C77.3181 83.8551 77.3663 83.6198 77.4777 83.4416C77.6064 83.2624 77.7568 83.1684 77.9287 83.1595C78.1007 83.1506 78.4867 83.2772 79.0866 83.5392C79.7029 83.7832 80.1572 83.8976 80.4495 83.8825C80.7591 83.8664 81.0588 83.825 81.3485 83.7583C80.9096 83.6086 80.464 83.3299 80.0118 82.9222C79.5595 82.5145 79.3231 82.1129 79.3026 81.7173C79.2937 81.5453 79.5128 80.2836 79.9601 77.9323C80.4064 75.5639 80.604 73.5532 80.5528 71.9003C80.228 71.6239 79.926 71.286 79.6466 70.8866C79.3835 70.4691 79.2466 70.1572 79.2359 69.9508C79.211 69.4692 79.5693 69.0626 80.3109 68.731C81.0525 68.3994 81.9909 68.2042 83.126 68.1454C85.5339 68.0205 87.4767 68.2389 88.9544 68.8004C90.4493 69.361 91.2329 70.3378 91.3051 71.7309C91.3505 72.6081 91.0271 73.5216 90.3348 74.4715C89.6425 75.4214 88.714 76.3059 87.5493 77.1251L87.8113 77.1891C88.8575 77.4108 89.7388 77.779 90.4553 78.2937C91.1881 78.7903 91.5719 79.374 91.6067 80.0448ZM86.5736 71.2778C86.0404 71.3054 84.7947 71.5597 82.8364 72.0406C83.4912 72.6964 83.8307 73.2566 83.8548 73.7209C83.8779 74.1681 83.775 75.0098 83.5459 76.2461C83.8104 76.0255 84.285 75.6991 84.9696 75.267C85.6543 74.8348 86.0795 74.5541 86.2452 74.4248C86.4273 74.2774 86.6664 74.0667 86.9626 73.7927C87.5233 73.298 87.7881 72.7496 87.7569 72.1477C87.7248 71.5285 87.3304 71.2385 86.5736 71.2778ZM88.3507 80.1101C88.3329 79.7661 87.8189 79.4996 86.8089 79.3105C85.8152 79.1033 84.9915 79.0167 84.338 79.0506C83.9768 79.0693 83.576 78.8228 83.1356 78.311C82.5265 81.5329 82.1526 83.3027 82.0139 83.6203C83.4426 83.2358 84.8628 82.688 86.2745 81.9767C87.6863 81.2655 88.3783 80.6433 88.3507 80.1101ZM102.763 73.1806C102.878 72.7435 103.142 72.5143 103.555 72.4929C103.968 72.4715 104.459 72.7995 105.029 73.4771C105.616 74.1537 105.922 74.75 105.949 75.266C105.959 75.4552 105.629 76.7398 104.959 79.1199C104.289 81.5 103.774 83.3805 103.415 84.7615C103.211 85.4964 102.826 85.8785 102.258 85.9079C101.914 85.9258 101.616 85.8205 101.362 85.5922C101.126 85.3458 100.993 84.956 100.966 84.4229C100.938 83.8897 101.002 83.1276 101.158 82.1365C99.5179 84.7738 98.1736 86.1197 97.1244 86.174C96.5741 86.2026 95.8936 85.8843 95.0831 85.2193C94.2717 84.537 93.8486 83.8605 93.8139 83.1898C93.7283 81.5386 94.0834 79.4077 94.8794 76.7969C95.6925 74.1852 96.5118 72.8579 97.3374 72.8151C97.8361 72.7893 98.2863 72.9901 98.6879 73.4177C99.1066 73.8444 99.3298 74.3243 99.3575 74.8575C99.3682 75.0639 99.183 75.6512 98.8021 76.6194C97.6421 79.525 97.0923 81.5626 97.153 82.7321C97.1583 82.8353 97.204 82.8847 97.29 82.8802C97.548 82.8669 98.0086 82.4377 98.6719 81.5928C99.3514 80.7298 100.091 79.5188 100.889 77.9598C101.704 76.3828 102.329 74.7897 102.763 73.1806ZM108.84 68.9854C108.816 68.5383 108.991 68.0722 109.362 67.5873C109.75 67.0844 110.133 66.8231 110.511 66.8035C110.907 66.783 111.395 67.2233 111.977 68.1244C112.558 69.0255 112.86 69.691 112.882 70.121C112.904 70.5338 112.782 70.8591 112.519 71.097C112.255 71.3348 111.977 71.4613 111.685 71.4765C111.186 71.5023 110.593 71.2054 109.906 70.5857C109.218 69.966 108.863 69.4326 108.84 68.9854ZM109.394 72.1902C109.996 72.159 110.547 72.4753 111.047 73.1392C111.564 73.8022 111.839 74.4519 111.872 75.0883C111.889 75.4151 111.649 76.6088 111.152 78.6695C110.672 80.7121 110.186 82.6515 109.695 84.4877C109.523 85.1692 109.119 85.5264 108.483 85.5594C108.105 85.579 107.762 85.4588 107.455 85.1988C107.165 84.9207 107.008 84.558 106.985 84.1108C106.961 83.6465 107.117 82.5002 107.454 80.672C107.806 78.8257 108.061 77.2604 108.219 75.9761C108.393 74.6737 108.559 73.7252 108.718 73.1306C108.893 72.5179 109.119 72.2045 109.394 72.1902ZM116.701 64.5684C117.114 64.547 117.667 64.8977 118.36 65.6206C119.052 66.3435 119.417 67.0489 119.452 67.7369C119.488 68.4249 119.449 69.6599 119.334 71.4422C119.219 73.2072 119.076 74.62 118.907 75.6808C117.802 81.9808 116.966 85.1456 116.398 85.175C116.02 85.1946 115.531 84.9181 114.933 84.3456C114.35 83.755 114.049 83.2618 114.028 82.8663C114.026 82.8319 114.212 81.9255 114.586 80.1471C114.959 78.3687 115.307 76.0916 115.629 73.3156C115.967 70.5216 116.071 67.8691 115.94 65.358C115.915 64.8592 116.168 64.596 116.701 64.5684ZM131.191 63.8174C131.603 63.796 132.165 64.1463 132.875 64.8683C133.584 65.5731 133.955 66.2522 133.989 66.9058C134.006 67.2326 133.776 68.6069 133.297 71.0288C132.819 73.4507 132.533 74.9141 132.439 75.4191C131.37 81.4241 130.518 84.4431 129.881 84.4761C129.52 84.4948 129.105 84.3008 128.636 83.894C128.166 83.4872 127.921 83.0774 127.899 82.6646C127.895 82.5786 127.9 82.5094 127.914 82.4569C126.268 83.9564 125.066 84.7257 124.309 84.765C123.569 84.8033 122.827 84.4452 122.08 83.6906C121.35 82.9179 120.969 82.2047 120.935 81.5512C120.901 80.8976 120.949 80.1708 121.08 79.3707C121.228 78.5525 121.467 77.6865 121.799 76.7725C122.131 75.8585 122.518 75.0021 122.96 74.2032C123.417 73.3862 123.977 72.7104 124.639 72.176C125.318 71.6235 126.027 71.3281 126.766 71.2897C127.867 71.2327 128.799 71.7448 129.562 72.8262C130.28 68.7019 130.586 65.9699 130.482 64.6301C130.456 64.1141 130.692 63.8432 131.191 63.8174ZM124.475 81.4712C124.904 81.4489 125.608 81.0416 126.584 80.2495C127.578 79.4564 128.294 78.4794 128.734 77.3184C128.71 77.1817 128.686 76.8812 128.662 76.4168C128.638 75.9524 128.46 75.5219 128.129 75.1251C127.798 74.7284 127.504 74.5367 127.246 74.5501C126.73 74.5768 126.245 74.8779 125.792 75.4532C125.356 76.0277 125.021 76.7004 124.785 77.4714C124.283 79.1012 124.053 80.3289 124.096 81.1545C124.103 81.2921 124.125 81.3858 124.162 81.4356C124.216 81.4673 124.32 81.4792 124.475 81.4712Z" fill="white"/>
<path d="M89.9897 83.2845L89.5412 82.8197L89.5379 82.823L89.9897 83.2845ZM85.8355 85.9832L86.0859 86.5785L86.0893 86.577L85.8355 85.9832ZM78.752 86.0658L78.3394 86.5627L78.3448 86.5671L78.752 86.0658ZM77.4777 83.4416L76.9532 83.0648L76.9412 83.0815L76.9302 83.0991L77.4777 83.4416ZM79.0866 83.5392L78.8281 84.1311L78.8384 84.1356L78.8489 84.1397L79.0866 83.5392ZM81.3485 83.7583L81.4935 84.3876L83.7021 83.8787L81.557 83.147L81.3485 83.7583ZM80.0118 82.9222L80.4442 82.4425L80.4442 82.4425L80.0118 82.9222ZM79.9601 77.9323L80.5945 78.053L80.5947 78.0519L79.9601 77.9323ZM80.5528 71.9003L81.1983 71.8803L81.1894 71.594L80.9713 71.4084L80.5528 71.9003ZM79.6466 70.8866L79.1002 71.2309L79.1085 71.2441L79.1174 71.2568L79.6466 70.8866ZM88.9544 68.8004L88.725 69.4041L88.7276 69.4051L88.9544 68.8004ZM90.3348 74.4715L89.8129 74.0911V74.0911L90.3348 74.4715ZM87.5493 77.1251L87.1777 76.5968L86.0146 77.4149L87.396 77.7525L87.5493 77.1251ZM87.8113 77.1891L87.658 77.8165L87.6676 77.8188L87.6774 77.8209L87.8113 77.1891ZM90.4553 78.2937L90.0785 78.8182L90.0857 78.8234L90.093 78.8283L90.4553 78.2937ZM82.8364 72.0406L82.6824 71.4134L81.5703 71.6865L82.3794 72.4969L82.8364 72.0406ZM83.5459 76.2461L82.9109 76.1285L82.5846 77.8892L83.9596 76.7421L83.5459 76.2461ZM86.2452 74.4248L86.6426 74.9341L86.6516 74.9267L86.2452 74.4248ZM86.9626 73.7927L86.5354 73.3084L86.5297 73.3134L86.5241 73.3186L86.9626 73.7927ZM86.8089 79.3105L86.6771 79.9429L86.6901 79.9453L86.8089 79.3105ZM83.1356 78.311L83.6251 77.8897L82.7501 76.873L82.501 78.191L83.1356 78.311ZM82.0139 83.6203L81.4221 83.3618L80.8842 84.5931L82.1817 84.244L82.0139 83.6203ZM91.6067 80.0448L90.9617 80.0782C91.0034 80.8835 90.605 81.7934 89.5413 82.8197L89.9897 83.2845L90.4381 83.7493C91.6409 82.5887 92.3204 81.3388 92.2516 80.0114L91.6067 80.0448ZM89.9897 83.2845L89.5379 82.823C88.4871 83.8517 87.1725 84.7095 85.5817 85.3893L85.8355 85.9832L86.0893 86.577C87.8053 85.8437 89.2602 84.9024 90.4415 83.746L89.9897 83.2845ZM85.8355 85.9832L85.5851 85.3878C84.0053 86.0522 82.5034 86.4146 81.0761 86.4885L81.1096 87.1335L81.143 87.7785C82.7427 87.6955 84.3914 87.291 86.0859 86.5785L85.8355 85.9832ZM81.1096 87.1335L81.0761 86.4885C80.6688 86.5096 80.0432 86.2825 79.1591 85.5645L78.752 86.0658L78.3448 86.5671C79.297 87.3405 80.2431 87.8251 81.143 87.7785L81.1096 87.1335ZM78.752 86.0658L79.1645 85.5688C78.7271 85.2058 78.4215 84.8927 78.2272 84.63C78.0285 84.3612 77.9824 84.1941 77.9782 84.114L77.3333 84.1475L76.6883 84.1809C76.7109 84.6168 76.9146 85.0274 77.1887 85.3981C77.4674 85.7748 77.8578 86.1629 78.3395 86.5627L78.752 86.0658ZM77.3333 84.1475L77.9782 84.114C77.9673 83.9036 78.0068 83.8136 78.0253 83.784L77.4777 83.4416L76.9302 83.0991C76.7257 83.426 76.6689 83.8066 76.6883 84.1809L77.3333 84.1475ZM77.4777 83.4416L78.0023 83.8184C78.0291 83.7809 78.0406 83.7773 78.0294 83.7843C78.0236 83.7879 78.0137 83.7931 78.0003 83.7974C77.9868 83.8017 77.9736 83.8039 77.9622 83.8045L77.9287 83.1595L77.8953 82.5145C77.4745 82.5363 77.1614 82.7749 76.9532 83.0648L77.4777 83.4416ZM77.9287 83.1595L77.9622 83.8045C77.9248 83.8064 77.9189 83.8005 77.9646 83.8101C78.004 83.8185 78.0633 83.8343 78.1459 83.8614C78.3115 83.9157 78.537 84.0039 78.8281 84.1311L79.0866 83.5392L79.3452 82.9474C79.0363 82.8125 78.7689 82.7064 78.5485 82.6341C78.3551 82.5707 78.1133 82.5032 77.8953 82.5145L77.9287 83.1595ZM79.0866 83.5392L78.8489 84.1397C79.4691 84.3853 80.0384 84.5505 80.483 84.5274L80.4495 83.8825L80.4161 83.2375C80.2759 83.2448 79.9366 83.1812 79.3244 82.9388L79.0866 83.5392ZM80.4495 83.8825L80.483 84.5274C80.8285 84.5095 81.1656 84.4632 81.4935 84.3876L81.3485 83.7583L81.2035 83.1289C80.952 83.1869 80.6897 83.2233 80.4161 83.2375L80.4495 83.8825ZM81.3485 83.7583L81.557 83.147C81.2224 83.0329 80.8508 82.8091 80.4442 82.4425L80.0118 82.9222L79.5793 83.4019C80.0772 83.8507 80.5968 84.1842 81.14 84.3695L81.3485 83.7583ZM80.0118 82.9222L80.4442 82.4425C80.0523 82.0892 79.9554 81.8356 79.9476 81.6839L79.3026 81.7173L78.6576 81.7507C78.6908 82.3901 79.0667 82.9398 79.5793 83.4019L80.0118 82.9222ZM79.3026 81.7173L79.9476 81.6839C79.9495 81.7205 79.9457 81.7298 79.952 81.6712C79.9568 81.6271 79.9651 81.5635 79.9777 81.4777C80.0027 81.3068 80.0421 81.0659 80.0966 80.7526C80.2053 80.1269 80.3711 79.2277 80.5945 78.053L79.9601 77.9323L79.3256 77.8117C79.1018 78.9883 78.9344 79.8956 78.824 80.5315C78.7688 80.849 78.7272 81.1028 78.6997 81.2903C78.686 81.3837 78.6751 81.4652 78.6679 81.5322C78.6622 81.5847 78.6535 81.6711 78.6576 81.7507L79.3026 81.7173ZM79.9601 77.9323L80.5947 78.0519C81.0462 75.6563 81.2514 73.5959 81.1983 71.8803L80.5528 71.9003L79.9072 71.9202C79.9565 73.5104 79.7666 75.4714 79.3254 77.8128L79.9601 77.9323ZM80.5528 71.9003L80.9713 71.4084C80.694 71.1724 80.428 70.8771 80.1758 70.5165L79.6466 70.8866L79.1174 71.2568C79.4239 71.695 79.7621 72.0754 80.1342 72.3921L80.5528 71.9003ZM79.6466 70.8866L80.193 70.5423C80.0717 70.3498 79.9893 70.1969 79.938 70.08C79.8833 69.9553 79.8804 69.9083 79.8809 69.9174L79.2359 69.9508L78.591 69.9842C78.6021 70.1997 78.6731 70.4118 78.7552 70.5991C78.8408 70.7942 78.9584 71.006 79.1002 71.2309L79.6466 70.8866ZM79.2359 69.9508L79.8809 69.9174C79.8779 69.8592 79.8916 69.626 80.5745 69.3206L80.3109 68.731L80.0473 68.1415C79.247 68.4993 78.544 69.0793 78.591 69.9842L79.2359 69.9508ZM80.3109 68.731L80.5745 69.3206C81.2207 69.0317 82.0744 68.8466 83.1594 68.7903L83.126 68.1454L83.0926 67.5004C81.9073 67.5618 80.8843 67.7672 80.0473 68.1415L80.3109 68.731ZM83.126 68.1454L83.1594 68.7903C85.5202 68.668 87.3633 68.8867 88.725 69.4041L88.9544 68.8004L89.1838 68.1966C87.59 67.5911 85.5475 67.3731 83.0926 67.5004L83.126 68.1454ZM88.9544 68.8004L88.7276 69.4051C89.3958 69.6556 89.8577 69.9814 90.1594 70.3576C90.4569 70.7283 90.6302 71.187 90.6601 71.7644L91.3051 71.7309L91.95 71.6975C91.9078 70.8818 91.6532 70.1554 91.167 69.5494C90.6852 68.9487 90.0079 68.5057 89.1812 68.1957L88.9544 68.8004ZM91.3051 71.7309L90.6601 71.7644C90.6956 72.4502 90.4475 73.2204 89.8129 74.0911L90.3348 74.4715L90.8567 74.8519C91.6067 73.8228 92.0054 72.766 91.95 71.6975L91.3051 71.7309ZM90.3348 74.4715L89.8129 74.0911C89.17 74.9732 88.2964 75.81 87.1777 76.5968L87.5493 77.1251L87.9208 77.6533C89.1316 76.8018 90.115 75.8696 90.8567 74.8519L90.3348 74.4715ZM87.5493 77.1251L87.396 77.7525L87.658 77.8165L87.8113 77.1891L87.9646 76.5617L87.7026 76.4977L87.5493 77.1251ZM87.8113 77.1891L87.6774 77.8209C88.6542 78.0279 89.4484 78.3656 90.0785 78.8182L90.4553 78.2937L90.8321 77.7692C90.0292 77.1924 89.0607 76.7937 87.9451 76.5573L87.8113 77.1891ZM90.4553 78.2937L90.093 78.8283C90.7162 79.2507 90.9406 79.6705 90.9617 80.0782L91.6067 80.0448L92.2516 80.0114C92.2032 79.0775 91.66 78.33 90.8176 77.7591L90.4553 78.2937ZM86.5736 71.2778L86.5402 70.6328C85.9326 70.6643 84.6206 70.9374 82.6824 71.4134L82.8364 72.0406L82.9904 72.6678C84.9688 72.1819 86.1483 71.9465 86.607 71.9227L86.5736 71.2778ZM82.8364 72.0406L82.3794 72.4969C83.0174 73.1359 83.199 73.5464 83.2098 73.7544L83.8548 73.7209L84.4997 73.6875C84.4624 72.9667 83.9651 72.257 83.2935 71.5843L82.8364 72.0406ZM83.8548 73.7209L83.2098 73.7544C83.2284 74.114 83.1417 74.8829 82.9109 76.1285L83.5459 76.2461L84.1809 76.3638C84.4083 75.1367 84.5275 74.2222 84.4997 73.6875L83.8548 73.7209ZM83.5459 76.2461L83.9596 76.7421C84.1881 76.5514 84.6304 76.2448 85.3143 75.8131L84.9696 75.267L84.6249 74.7208C83.9396 75.1534 83.4327 75.4995 83.1322 75.7502L83.5459 76.2461ZM84.9696 75.267L85.3143 75.8131C85.9895 75.387 86.4458 75.0874 86.6425 74.934L86.2452 74.4248L85.848 73.9156C85.7132 74.0208 85.319 74.2827 84.6249 74.7208L84.9696 75.267ZM86.2452 74.4248L86.6516 74.9267C86.8498 74.7663 87.1009 74.5446 87.4012 74.2667L86.9626 73.7927L86.5241 73.3186C86.232 73.5888 86.0048 73.7885 85.8388 73.9229L86.2452 74.4248ZM86.9626 73.7927L87.3899 74.2769C88.0592 73.6864 88.4457 72.9597 88.4019 72.1142L87.7569 72.1477L87.1119 72.1811C87.1305 72.5396 86.9874 72.9095 86.5354 73.3084L86.9626 73.7927ZM87.7569 72.1477L88.4019 72.1142C88.3787 71.6673 88.213 71.2347 87.8195 70.9455C87.4519 70.6752 86.99 70.6095 86.5402 70.6328L86.5736 71.2778L86.607 71.9227C86.9139 71.9068 87.0277 71.9665 87.0545 71.9862C87.0554 71.9869 87.103 72.0089 87.1119 72.1811L87.7569 72.1477ZM88.3507 80.1101L88.9957 80.0767C88.9684 79.5511 88.5668 79.2436 88.2492 79.0789C87.9087 78.9023 87.4547 78.7744 86.9277 78.6757L86.8089 79.3105L86.6901 79.9453C87.1731 80.0357 87.4811 80.1356 87.6545 80.2255C87.8509 80.3274 87.7151 80.3251 87.7057 80.1435L88.3507 80.1101ZM86.8089 79.3105L86.9407 78.6783C85.919 78.4653 85.0351 78.3677 84.3045 78.4056L84.338 79.0506L84.3714 79.6955C84.948 79.6656 85.7114 79.7414 86.6771 79.9427L86.8089 79.3105ZM84.338 79.0506L84.3045 78.4056C84.2623 78.4078 84.0408 78.3727 83.6251 77.8897L83.1356 78.311L82.646 78.7322C83.1112 79.2728 83.6913 79.7308 84.3714 79.6955L84.338 79.0506ZM83.1356 78.311L82.501 78.191C82.1967 79.8005 81.952 81.0431 81.7665 81.9213C81.6736 82.3608 81.5965 82.7047 81.5349 82.9558C81.504 83.0815 81.478 83.1798 81.4567 83.2531C81.4335 83.333 81.4219 83.3622 81.4221 83.3618L82.0139 83.6203L82.6057 83.8789C82.6665 83.7398 82.7277 83.5143 82.7892 83.2639C82.8557 82.9931 82.9362 82.6336 83.0303 82.1883C83.2186 81.2967 83.4654 80.0434 83.7702 78.4309L83.1356 78.311ZM82.0139 83.6203L82.1817 84.244C83.6556 83.8473 85.1168 83.2832 86.5651 82.5535L86.2745 81.9767L85.9839 81.4C84.6088 82.0928 83.2296 82.6244 81.8461 82.9967L82.0139 83.6203ZM86.2745 81.9767L86.5651 82.5535C87.2918 82.1874 87.8761 81.8238 88.2842 81.4569C88.6719 81.1083 89.025 80.6435 88.9957 80.0767L88.3507 80.1101L87.7057 80.1435C87.704 80.1098 87.7249 80.2228 87.4206 80.4964C87.1366 80.7517 86.669 81.0548 85.9839 81.4L86.2745 81.9767ZM102.763 73.1806L103.386 73.3488L103.387 73.3453L102.763 73.1806ZM105.029 73.4771L104.534 73.8928L104.541 73.9002L105.029 73.4771ZM104.959 79.1199L104.337 78.9449V78.9449L104.959 79.1199ZM103.415 84.7615L104.037 84.9338L104.04 84.9243L103.415 84.7615ZM101.362 85.5922L100.897 86.0399L100.913 86.0565L100.93 86.0719L101.362 85.5922ZM101.158 82.1365L101.796 82.2367L100.609 81.7956L101.158 82.1365ZM95.0831 85.2193L94.6674 85.7136L94.6734 85.7185L95.0831 85.2193ZM94.8794 76.7969L94.2627 76.6049L94.2616 76.6085L94.8794 76.7969ZM98.6879 73.4177L98.2171 73.8598L98.222 73.865L98.2269 73.8701L98.6879 73.4177ZM98.8021 76.6194L99.4019 76.8589L99.4031 76.8559L98.8021 76.6194ZM98.6719 81.5928L98.1645 81.1933L98.1639 81.194L98.6719 81.5928ZM100.889 77.9598L100.316 77.6633L100.314 77.6654L100.889 77.9598ZM102.763 73.1806L103.387 73.3453C103.421 73.2157 103.462 73.1764 103.471 73.1685C103.475 73.1648 103.499 73.1425 103.588 73.1378L103.555 72.4929L103.521 71.8479C103.198 71.8646 102.884 71.9677 102.624 72.1932C102.369 72.4146 102.219 72.7084 102.138 73.0159L102.763 73.1806ZM103.555 72.4929L103.588 73.1378C103.607 73.1368 103.696 73.1411 103.874 73.2599C104.051 73.3778 104.271 73.5798 104.534 73.8927L105.029 73.4771L105.523 73.0614C105.216 72.6968 104.906 72.396 104.592 72.1858C104.278 71.9766 103.915 71.8275 103.521 71.8479L103.555 72.4929ZM105.029 73.4771L104.541 73.9002C105.096 74.5398 105.289 74.9996 105.304 75.2994L105.949 75.266L106.594 75.2325C106.556 74.5003 106.136 73.7676 105.516 73.0539L105.029 73.4771ZM105.949 75.266L105.304 75.2994C105.301 75.2464 105.309 75.2252 105.299 75.2848C105.293 75.3268 105.28 75.3894 105.262 75.4761C105.224 75.6487 105.165 75.8924 105.083 76.2106C104.92 76.8457 104.672 77.7563 104.337 78.9449L104.959 79.1199L105.581 79.2949C105.916 78.1034 106.168 77.1816 106.334 76.5321C106.418 76.208 106.481 75.9463 106.524 75.7504C106.545 75.6529 106.562 75.5655 106.574 75.4917C106.583 75.4355 106.599 75.3328 106.594 75.2325L105.949 75.266ZM104.959 79.1199L104.337 78.9449C103.667 81.3266 103.151 83.2118 102.79 84.5988L103.415 84.7615L104.04 84.9243C104.398 83.5492 104.911 81.6734 105.581 79.2949L104.959 79.1199ZM103.415 84.7615L102.792 84.5893C102.709 84.8899 102.605 85.0545 102.518 85.1406C102.444 85.2143 102.358 85.2561 102.225 85.263L102.258 85.9079L102.292 86.5529C102.726 86.5304 103.117 86.3664 103.428 86.0579C103.726 85.7619 103.917 85.368 104.037 84.9338L103.415 84.7615ZM102.258 85.9079L102.225 85.263C102.05 85.272 101.92 85.2248 101.795 85.1125L101.362 85.5922L100.93 86.0719C101.312 86.4162 101.779 86.5795 102.292 86.5529L102.258 85.9079ZM101.362 85.5922L101.828 85.1445C101.745 85.0582 101.634 84.8505 101.611 84.3894L100.966 84.4229L100.321 84.4563C100.352 85.0616 100.506 85.6334 100.897 86.0399L101.362 85.5922ZM100.966 84.4229L101.611 84.3894C101.586 83.9242 101.642 83.2149 101.796 82.2367L101.158 82.1365L100.519 82.0364C100.362 83.0403 100.289 83.8552 100.321 84.4563L100.966 84.4229ZM101.158 82.1365L100.609 81.7956C99.8011 83.0951 99.0851 84.0443 98.4626 84.6675C97.8212 85.3096 97.369 85.5147 97.091 85.5291L97.1244 86.174L97.1579 86.819C97.929 86.779 98.6735 86.284 99.3765 85.5803C100.098 84.8576 100.874 83.8153 101.706 82.4775L101.158 82.1365ZM97.1244 86.174L97.091 85.5291C96.7945 85.5445 96.2774 85.3638 95.4928 84.72L95.0831 85.2193L94.6734 85.7185C95.5098 86.4048 96.3536 86.8607 97.1579 86.819L97.1244 86.174ZM95.0831 85.2193L95.4987 84.725C94.7468 84.0927 94.4801 83.5675 94.4588 83.1563L93.8139 83.1898L93.1689 83.2232C93.2171 84.1535 93.7966 84.9813 94.6675 85.7136L95.0831 85.2193ZM93.8139 83.1898L94.4588 83.1563C94.3788 81.6131 94.7108 79.5647 95.4971 76.9852L94.8794 76.7969L94.2616 76.6085C93.4561 79.2507 93.0777 81.4641 93.1689 83.2232L93.8139 83.1898ZM94.8794 76.7969L95.496 76.9889C95.8966 75.7022 96.2856 74.7774 96.6533 74.1819C97.0451 73.5471 97.3007 73.4637 97.3708 73.4601L97.3374 72.8151L97.3039 72.1702C96.5485 72.2093 95.9816 72.811 95.5541 73.5034C95.1024 74.2351 94.6752 75.2799 94.2627 76.6049L94.8794 76.7969ZM97.3374 72.8151L97.3708 73.4601C97.646 73.4458 97.9205 73.544 98.2171 73.8598L98.6879 73.4177L99.1586 72.9756C98.6522 72.4363 98.0263 72.1327 97.3039 72.1702L97.3374 72.8151ZM98.6879 73.4177L98.2269 73.8701C98.5495 74.1987 98.694 74.5343 98.7125 74.8909L99.3575 74.8575L100.002 74.824C99.9656 74.1143 99.6638 73.49 99.1488 72.9653L98.6879 73.4177ZM99.3575 74.8575L98.7125 74.8909C98.7105 74.8529 98.7169 74.859 98.698 74.9451C98.6818 75.0187 98.6538 75.1218 98.6107 75.2586C98.5246 75.5316 98.3893 75.9047 98.2011 76.383L98.8021 76.6194L99.4031 76.8559C99.5959 76.3659 99.7435 75.9612 99.8426 75.6469C99.892 75.4901 99.9321 75.3471 99.9595 75.2223C99.9842 75.1099 100.01 74.9652 100.002 74.824L99.3575 74.8575ZM98.8021 76.6194L98.2023 76.3799C97.617 77.8461 97.1799 79.1071 96.8962 80.1586C96.6155 81.1993 96.4724 82.0789 96.508 82.7656L97.153 82.7321L97.7979 82.6987C97.7729 82.2158 97.8744 81.4919 98.1433 80.495C98.4094 79.5089 98.8272 78.2984 99.4019 76.8589L98.8021 76.6194ZM97.153 82.7321L96.508 82.7656C96.5145 82.8908 96.5493 83.1036 96.7172 83.2851C96.905 83.4882 97.147 83.5343 97.3234 83.5252L97.29 82.8802L97.2566 82.2353C97.347 82.2306 97.5231 82.2543 97.6653 82.408C97.7875 82.5401 97.7968 82.6766 97.7979 82.6987L97.153 82.7321ZM97.29 82.8802L97.3234 83.5252C97.5439 83.5138 97.7301 83.4222 97.8601 83.3422C97.9993 83.2565 98.1364 83.1446 98.2692 83.0209C98.5351 82.7731 98.8398 82.4248 99.1799 81.9916L98.6719 81.5928L98.1639 81.194C97.8406 81.6058 97.5834 81.8944 97.3887 82.0758C97.2911 82.1667 97.2233 82.2174 97.1828 82.2423C97.1332 82.2729 97.1651 82.24 97.2566 82.2353L97.29 82.8802ZM98.6719 81.5928L99.1793 81.9924C99.8952 81.0832 100.656 79.8313 101.464 78.2543L100.889 77.9598L100.314 77.6654C99.525 79.2063 98.8077 80.3764 98.1645 81.1933L98.6719 81.5928ZM100.889 77.9598L101.463 78.2563C102.298 76.641 102.94 75.0051 103.386 73.3488L102.763 73.1806L102.139 73.0124C101.718 74.5743 101.111 76.1245 100.316 77.6633L100.889 77.9598ZM109.362 67.5873L108.851 67.193L108.85 67.1946L109.362 67.5873ZM111.977 68.1244L111.434 68.4745V68.4745L111.977 68.1244ZM109.906 70.5857L110.338 70.106V70.106L109.906 70.5857ZM111.047 73.1392L110.531 73.5278L110.538 73.5365L111.047 73.1392ZM111.152 78.6695L110.525 78.5182L110.524 78.5216L111.152 78.6695ZM109.695 84.4878L109.071 84.3208L109.069 84.33L109.695 84.4878ZM107.455 85.1988L107.009 85.6652L107.023 85.6787L107.038 85.6914L107.455 85.1988ZM107.454 80.672L106.819 80.5508L106.818 80.5551L107.454 80.672ZM108.219 75.9761L107.579 75.8906L107.578 75.8974L108.219 75.9761ZM108.718 73.1306L108.097 72.953L108.094 72.9639L108.718 73.1306ZM108.84 68.9854L109.485 68.952C109.472 68.706 109.563 68.3876 109.875 67.9801L109.362 67.5873L108.85 67.1946C108.419 67.7569 108.161 68.3705 108.195 69.0189L108.84 68.9854ZM109.362 67.5873L109.874 67.9817C110.222 67.5305 110.45 67.4533 110.545 67.4484L110.511 66.8035L110.478 66.1585C109.816 66.1928 109.278 66.6383 108.851 67.193L109.362 67.5873ZM110.511 66.8035L110.545 67.4484C110.488 67.4514 110.546 67.4208 110.742 67.598C110.926 67.7637 111.158 68.0458 111.434 68.4745L111.977 68.1244L112.52 67.7743C112.215 67.3019 111.912 66.9132 111.607 66.6386C111.315 66.3755 110.93 66.1351 110.478 66.1585L110.511 66.8035ZM111.977 68.1244L111.434 68.4745C111.715 68.9095 111.918 69.2721 112.051 69.5661C112.188 69.8694 112.232 70.0573 112.237 70.1545L112.882 70.121L113.527 70.0876C113.51 69.7547 113.392 69.3949 113.227 69.0327C113.059 68.6611 112.82 68.2404 112.52 67.7743L111.977 68.1244ZM112.882 70.121L112.237 70.1545C112.25 70.4087 112.181 70.5321 112.086 70.6175L112.519 71.097L112.952 71.5765C113.384 71.1861 113.557 70.6589 113.527 70.0876L112.882 70.121ZM112.519 71.097L112.086 70.6175C111.909 70.7779 111.766 70.8256 111.651 70.8315L111.685 71.4765L111.718 72.1215C112.189 72.0971 112.602 71.8918 112.952 71.5765L112.519 71.097ZM111.685 71.4765L111.651 70.8315C111.421 70.8435 110.996 70.6992 110.338 70.106L109.906 70.5857L109.473 71.0654C110.19 71.7117 110.951 72.1612 111.718 72.1215L111.685 71.4765ZM109.906 70.5857L110.338 70.106C110.018 69.8178 109.799 69.5698 109.661 69.3629C109.522 69.1534 109.488 69.0202 109.485 68.952L108.84 68.9854L108.195 69.0189C108.214 69.3979 108.37 69.755 108.586 70.0789C108.803 70.4054 109.106 70.734 109.473 71.0654L109.906 70.5857ZM109.394 72.1902L109.427 72.8352C109.739 72.819 110.107 72.9644 110.531 73.5278L111.047 73.1392L111.563 72.7507C110.987 71.9863 110.252 71.499 109.36 71.5452L109.394 72.1902ZM111.047 73.1392L110.538 73.5365C110.999 74.128 111.203 74.6541 111.227 75.1217L111.872 75.0883L112.517 75.0549C112.475 74.2497 112.129 73.4764 111.556 72.742L111.047 73.1392ZM111.872 75.0883L111.227 75.1217C111.227 75.1197 111.228 75.1405 111.223 75.1955C111.219 75.2469 111.21 75.3151 111.198 75.4022C111.172 75.5766 111.131 75.8085 111.072 76.1014C110.954 76.6865 110.772 77.4909 110.525 78.5182L111.152 78.6695L111.78 78.8209C112.029 77.7874 112.216 76.9647 112.338 76.3559C112.399 76.052 112.446 75.7954 112.476 75.5896C112.504 75.3985 112.525 75.2065 112.517 75.0549L111.872 75.0883ZM111.152 78.6695L110.524 78.5216C110.045 80.5585 109.56 82.4916 109.071 84.3209L109.695 84.4878L110.319 84.6546C110.812 82.8115 111.299 80.8657 111.781 78.8174L111.152 78.6695ZM109.695 84.4878L109.069 84.33C109.005 84.5824 108.914 84.7132 108.835 84.7829C108.762 84.8479 108.649 84.9041 108.45 84.9145L108.483 85.5594L108.516 86.2044C108.953 86.1818 109.361 86.0428 109.691 85.7506C110.016 85.4631 110.213 85.0745 110.321 84.6455L109.695 84.4878ZM108.483 85.5594L108.45 84.9145C108.246 84.925 108.063 84.867 107.873 84.7062L107.455 85.1988L107.038 85.6914C107.461 86.0507 107.963 86.2331 108.516 86.2044L108.483 85.5594ZM107.455 85.1988L107.902 84.7324C107.745 84.5814 107.646 84.3806 107.63 84.0774L106.985 84.1109L106.34 84.1443C106.371 84.7355 106.586 85.26 107.009 85.6652L107.455 85.1988ZM106.985 84.1109L107.63 84.0774C107.622 83.9127 107.646 83.5648 107.724 82.99C107.8 82.4309 107.921 81.6982 108.089 80.7889L107.454 80.672L106.818 80.5551C106.649 81.474 106.524 82.2285 106.444 82.8157C106.366 83.3872 106.325 83.8446 106.34 84.1443L106.985 84.1109ZM107.454 80.672L108.088 80.7932C108.442 78.9385 108.7 77.3581 108.86 76.0548L108.219 75.9761L107.578 75.8974C107.423 77.1627 107.17 78.7129 106.819 80.5508L107.454 80.672ZM108.219 75.9761L108.859 76.0616C109.033 74.7631 109.195 73.8493 109.342 73.2973L108.718 73.1306L108.094 72.9639C107.924 73.601 107.753 74.5843 107.579 75.8906L108.219 75.9761ZM108.718 73.1306L109.339 73.3082C109.418 73.033 109.493 72.8826 109.543 72.8128C109.589 72.7482 109.556 72.8285 109.427 72.8352L109.394 72.1902L109.36 71.5452C108.957 71.5662 108.673 71.8103 108.494 72.0592C108.319 72.3029 108.194 72.6155 108.097 72.953L108.718 73.1306ZM118.36 65.6206L118.826 65.1738V65.1738L118.36 65.6206ZM119.334 71.4422L119.978 71.4843L119.979 71.4836L119.334 71.4422ZM118.907 75.6808L119.543 75.7923L119.545 75.7825L118.907 75.6808ZM114.933 84.3456L114.473 84.7991L114.48 84.8058L114.486 84.8124L114.933 84.3456ZM114.586 80.1471L113.954 80.0144L114.586 80.1471ZM115.629 73.3156L114.987 73.2381L114.987 73.2413L115.629 73.3156ZM116.701 64.5684L116.735 65.2134C116.75 65.2126 116.855 65.2184 117.079 65.3607C117.295 65.4977 117.566 65.726 117.893 66.0675L118.36 65.6206L118.826 65.1738C118.46 64.7923 118.108 64.4839 117.772 64.2701C117.443 64.0617 117.066 63.9028 116.668 63.9234L116.701 64.5684ZM118.36 65.6206L117.893 66.0675C118.527 66.7282 118.783 67.2943 118.807 67.7703L119.452 67.7369L120.097 67.7035C120.051 66.8036 119.578 65.9588 118.826 65.1738L118.36 65.6206ZM119.452 67.7369L118.807 67.7703C118.841 68.4161 118.804 69.6164 118.69 71.4007L119.334 71.4422L119.979 71.4836C120.093 69.7035 120.135 68.4336 120.097 67.7035L119.452 67.7369ZM119.334 71.4422L118.69 71.4C118.575 73.156 118.434 74.5465 118.269 75.579L118.907 75.6808L119.545 75.7825C119.718 74.6935 119.862 73.2583 119.978 71.4843L119.334 71.4422ZM118.907 75.6808L118.271 75.5692C117.719 78.7148 117.238 81.0592 116.827 82.6144C116.62 83.396 116.438 83.9526 116.283 84.3052C116.204 84.4845 116.146 84.5794 116.115 84.6196C116.063 84.6856 116.143 84.5415 116.365 84.53L116.398 85.175L116.432 85.82C116.796 85.8011 117.026 85.5517 117.133 85.4144C117.26 85.2513 117.369 85.0449 117.466 84.8249C117.662 84.379 117.864 83.7451 118.076 82.9444C118.501 81.3348 118.99 78.9468 119.543 75.7923L118.907 75.6808ZM116.398 85.175L116.365 84.53C116.344 84.5311 116.252 84.5254 116.066 84.4203C115.885 84.3176 115.656 84.1439 115.379 83.8788L114.933 84.3456L114.486 84.8124C114.808 85.1199 115.123 85.3706 115.43 85.5444C115.733 85.7158 116.074 85.8385 116.432 85.82L116.398 85.175ZM114.933 84.3456L115.393 83.8921C115.122 83.6182 114.937 83.3863 114.821 83.1959C114.702 83.0019 114.676 82.8852 114.673 82.8328L114.028 82.8663L113.383 82.8997C113.401 83.2429 113.536 83.5706 113.719 83.8697C113.904 84.1723 114.161 84.4824 114.473 84.7991L114.933 84.3456ZM114.028 82.8663L114.673 82.8328C114.675 82.87 114.673 82.8988 114.673 82.9067C114.672 82.9187 114.671 82.9278 114.67 82.9323C114.67 82.9373 114.669 82.9409 114.669 82.9428C114.669 82.9447 114.669 82.9459 114.669 82.9461C114.669 82.9464 114.669 82.9449 114.67 82.9411C114.67 82.9374 114.671 82.9325 114.672 82.9261C114.677 82.8998 114.685 82.8587 114.696 82.801C114.718 82.6863 114.753 82.5165 114.799 82.2904C114.892 81.8387 115.031 81.1688 115.218 80.2798L114.586 80.1471L113.954 80.0144C113.767 80.9038 113.627 81.5762 113.534 82.031C113.487 82.2581 113.452 82.4325 113.428 82.553C113.417 82.6128 113.407 82.6621 113.401 82.6988C113.397 82.7167 113.394 82.7357 113.392 82.7531C113.39 82.7614 113.388 82.7742 113.387 82.7887C113.386 82.7959 113.385 82.8074 113.384 82.8214C113.383 82.8312 113.381 82.8614 113.383 82.8997L114.028 82.8663ZM114.586 80.1471L115.218 80.2798C115.597 78.4748 115.947 76.1763 116.27 73.39L115.629 73.3156L114.987 73.2413C114.666 76.0068 114.322 78.2626 113.954 80.0144L114.586 80.1471ZM115.629 73.3156L116.27 73.3932C116.612 70.5667 116.718 67.8768 116.585 65.3246L115.94 65.358L115.295 65.3914C115.423 67.8614 115.321 70.4766 114.987 73.2381L115.629 73.3156ZM115.94 65.358L116.585 65.3246C116.582 65.2556 116.589 65.2221 116.592 65.2131C116.594 65.2077 116.59 65.2199 116.576 65.2347C116.546 65.2656 116.557 65.2226 116.735 65.2134L116.701 64.5684L116.668 63.9234C116.312 63.9419 115.93 64.0443 115.646 64.3384C115.355 64.6405 115.277 65.0312 115.295 65.3914L115.94 65.358ZM132.875 64.8683L132.414 65.3211L132.419 65.3263L132.875 64.8683ZM133.297 71.0288L133.931 71.1539V71.1539L133.297 71.0288ZM132.439 75.4191L131.804 75.3003L131.803 75.306L132.439 75.4191ZM128.636 83.894L129.058 83.4059V83.4059L128.636 83.894ZM127.914 82.4569L128.537 82.6292L129.133 80.4736L127.48 81.9794L127.914 82.4569ZM122.08 83.6906L121.611 84.134L121.616 84.1394L121.621 84.1447L122.08 83.6906ZM121.08 79.3707L120.445 79.2563L120.443 79.2664L121.08 79.3707ZM121.799 76.7725L122.406 76.993V76.993L121.799 76.7725ZM122.96 74.2032L122.396 73.8875L122.394 73.8908L122.96 74.2032ZM124.639 72.176L125.045 72.6786L125.047 72.6768L124.639 72.176ZM129.562 72.8262L129.034 73.1986L129.932 74.4701L130.198 72.9369L129.562 72.8262ZM130.482 64.6301L129.837 64.6635L129.838 64.6718L129.839 64.6801L130.482 64.6301ZM126.584 80.2495L126.181 79.7447L126.177 79.7479L126.584 80.2495ZM128.734 77.3184L129.338 77.5473L129.401 77.3807L129.37 77.2052L128.734 77.3184ZM128.129 75.1251L127.633 75.5389L127.633 75.5389L128.129 75.1251ZM125.792 75.4532L125.285 75.0536L125.278 75.0628L125.792 75.4532ZM124.785 77.4714L125.402 77.6615L125.402 77.6604L124.785 77.4714ZM124.162 81.4356L123.644 81.8212L123.721 81.9248L123.832 81.9908L124.162 81.4356ZM131.191 63.8174L131.224 64.4623C131.24 64.4615 131.349 64.4682 131.579 64.612C131.8 64.75 132.078 64.9794 132.414 65.3211L132.875 64.8683L133.335 64.4154C132.961 64.0351 132.603 63.7284 132.263 63.5161C131.932 63.3096 131.553 63.1519 131.157 63.1724L131.191 63.8174ZM132.875 64.8683L132.419 65.3263C133.073 65.9757 133.322 66.5122 133.344 66.9392L133.989 66.9058L134.634 66.8724C134.588 65.9923 134.095 65.1704 133.33 64.4102L132.875 64.8683ZM133.989 66.9058L133.344 66.9392C133.344 66.939 133.345 66.9641 133.34 67.0283C133.335 67.0879 133.327 67.1667 133.315 67.2668C133.289 67.4669 133.249 67.7353 133.192 68.0748C133.078 68.7529 132.902 69.695 132.664 70.9037L133.297 71.0288L133.931 71.1539C134.171 69.9407 134.349 68.9847 134.466 68.2885C134.524 67.9408 134.568 67.6529 134.596 67.4278C134.622 67.2189 134.642 67.0186 134.634 66.8724L133.989 66.9058ZM133.297 71.0288L132.664 70.9037C132.186 73.3241 131.899 74.7914 131.804 75.3003L132.439 75.4191L133.073 75.538C133.167 75.0369 133.453 73.5773 133.931 71.1539L133.297 71.0288ZM132.439 75.4191L131.803 75.306C131.269 78.3032 130.794 80.5338 130.376 82.0117C130.167 82.7548 129.979 83.2791 129.819 83.6084C129.737 83.7752 129.678 83.8606 129.647 83.8956C129.606 83.942 129.672 83.8403 129.848 83.8312L129.881 84.4761L129.915 85.1211C130.25 85.1037 130.482 84.9005 130.614 84.752C130.755 84.5921 130.875 84.3893 130.98 84.1746C131.191 83.7409 131.403 83.1289 131.62 82.3626C132.055 80.8215 132.539 78.5401 133.074 75.5323L132.439 75.4191ZM129.881 84.4761L129.848 83.8312C129.739 83.8368 129.486 83.7762 129.058 83.4059L128.636 83.894L128.213 84.3821C128.724 84.8254 129.302 85.1529 129.915 85.1211L129.881 84.4761ZM128.636 83.894L129.058 83.4059C128.655 83.0567 128.553 82.7969 128.544 82.6312L127.899 82.6646L127.254 82.6981C127.288 83.358 127.677 83.9177 128.213 84.3821L128.636 83.894ZM127.899 82.6646L128.544 82.6312C128.544 82.6204 128.543 82.6119 128.543 82.6057C128.544 82.5994 128.544 82.596 128.544 82.595C128.544 82.5941 128.544 82.5965 128.543 82.6019C128.542 82.6072 128.54 82.6166 128.537 82.6292L127.914 82.4569L127.292 82.2847C127.251 82.4313 127.248 82.5781 127.254 82.6981L127.899 82.6646ZM127.914 82.4569L127.48 81.9794C126.67 82.7166 125.988 83.2573 125.43 83.6146C124.853 83.9836 124.481 84.1093 124.276 84.12L124.309 84.765L124.342 85.4099C124.894 85.3814 125.501 85.1028 126.126 84.7025C126.77 84.2904 127.512 83.6967 128.349 82.9344L127.914 82.4569ZM124.309 84.765L124.276 84.12C123.788 84.1453 123.214 83.9182 122.54 83.2365L122.08 83.6906L121.621 84.1447C122.439 84.9721 123.351 85.4613 124.342 85.4099L124.309 84.765ZM122.08 83.6906L122.55 83.2471C121.864 82.5208 121.602 81.9477 121.58 81.5177L120.935 81.5512L120.29 81.5846C120.335 82.4617 120.837 83.3149 121.611 84.134L122.08 83.6906ZM120.935 81.5512L121.58 81.5177C121.549 80.9196 121.593 80.2399 121.718 79.475L121.08 79.3707L120.443 79.2664C120.306 80.1016 120.253 80.8756 120.29 81.5846L120.935 81.5512ZM121.08 79.3707L121.716 79.4851C121.856 78.7085 122.085 77.8781 122.406 76.993L121.799 76.7725L121.192 76.552C120.85 77.4948 120.6 78.3965 120.445 79.2563L121.08 79.3707ZM121.799 76.7725L122.406 76.993C122.728 76.1087 123.101 75.2831 123.525 74.5155L122.96 74.2032L122.394 73.8908C121.936 74.7211 121.535 75.6084 121.192 76.552L121.799 76.7725ZM122.96 74.2032L123.523 74.5189C123.945 73.7664 124.453 73.1564 125.045 72.6786L124.639 72.176L124.234 71.6735C123.501 72.2645 122.89 73.0059 122.396 73.8875L122.96 74.2032ZM124.639 72.176L125.047 72.6768C125.639 72.1947 126.221 71.9647 126.8 71.9347L126.766 71.2897L126.733 70.6448C125.833 70.6914 124.996 71.0523 124.232 71.6752L124.639 72.176ZM126.766 71.2897L126.8 71.9347C127.632 71.8915 128.369 72.2561 129.034 73.1986L129.562 72.8262L130.09 72.4539C129.229 71.2335 128.102 70.5738 126.733 70.6448L126.766 71.2897ZM129.562 72.8262L130.198 72.9369C130.913 68.8287 131.238 66.0149 131.126 64.5802L130.482 64.6301L129.839 64.6801C129.935 65.9248 129.646 68.5751 128.926 72.7155L129.562 72.8262ZM130.482 64.6301L131.127 64.5967C131.119 64.4327 131.159 64.4271 131.126 64.4642C131.112 64.4808 131.1 64.4845 131.108 64.4815C131.118 64.4772 131.153 64.466 131.224 64.4623L131.191 63.8174L131.157 63.1724C130.803 63.1908 130.424 63.3035 130.152 63.6157C129.884 63.9236 129.819 64.3115 129.837 64.6635L130.482 64.6301ZM124.475 81.4712L124.508 82.1161C124.88 82.0968 125.273 81.925 125.648 81.7079C126.04 81.4809 126.489 81.1582 126.991 80.751L126.584 80.2495L126.177 79.7479C125.703 80.1329 125.312 80.41 125.001 80.5901C124.672 80.7803 124.499 80.8232 124.441 80.8262L124.475 81.4712ZM126.584 80.2495L126.987 80.7542C128.069 79.8907 128.856 78.8193 129.338 77.5473L128.734 77.3184L128.13 77.0896C127.733 78.1395 127.087 79.0221 126.181 79.7447L126.584 80.2495ZM128.734 77.3184L129.37 77.2052C129.354 77.1157 129.331 76.8578 129.307 76.3834L128.662 76.4168L128.017 76.4502C128.04 76.9046 128.066 77.2477 128.099 77.4316L128.734 77.3184ZM128.662 76.4168L129.307 76.3834C129.275 75.764 129.035 75.2029 128.625 74.7114L128.129 75.1251L127.633 75.5389C127.885 75.8408 128.001 76.1409 128.017 76.4502L128.662 76.4168ZM128.129 75.1251L128.625 74.7114C128.436 74.4846 128.233 74.2858 128.012 74.1426C127.791 73.9986 127.519 73.8892 127.212 73.9051L127.246 74.5501L127.279 75.1951C127.231 75.1976 127.235 75.1774 127.308 75.2251C127.382 75.2735 127.492 75.369 127.633 75.5389L128.129 75.1251ZM127.246 74.5501L127.212 73.9051C126.443 73.945 125.803 74.395 125.285 75.0537L125.792 75.4532L126.3 75.8528C126.687 75.3607 127.017 75.2087 127.279 75.1951L127.246 74.5501ZM125.792 75.4532L125.278 75.0628C124.791 75.7046 124.423 76.4473 124.167 77.2824L124.785 77.4714L125.402 77.6604C125.618 76.9535 125.922 76.3508 126.307 75.8436L125.792 75.4532ZM124.785 77.4714L124.167 77.2814C123.662 78.9233 123.402 80.2425 123.451 81.1879L124.096 81.1545L124.741 81.1211C124.704 80.4153 124.904 79.2791 125.402 77.6615L124.785 77.4714ZM124.096 81.1545L123.451 81.1879C123.456 81.2804 123.466 81.3794 123.489 81.4762C123.511 81.5666 123.552 81.6975 123.644 81.8212L124.162 81.4356L124.68 81.05C124.71 81.0897 124.726 81.124 124.734 81.1438C124.743 81.1641 124.746 81.1773 124.746 81.1797C124.747 81.1828 124.743 81.1662 124.741 81.1211L124.096 81.1545ZM124.162 81.4356L123.832 81.9908C123.974 82.0748 124.119 82.0999 124.207 82.11C124.307 82.1213 124.41 82.1212 124.508 82.1161L124.475 81.4712L124.441 80.8262C124.414 80.8276 124.393 80.8279 124.377 80.8277C124.362 80.8274 124.354 80.8267 124.353 80.8266C124.352 80.8264 124.364 80.8276 124.384 80.8332C124.403 80.8386 124.444 80.8515 124.492 80.8804L124.162 81.4356Z" fill="black" mask="url(#path-4-outside-1_189_497)"/>
<rect x="14.751" y="51.0637" width="24" height="24" rx="12" transform="rotate(-8.30325 14.751 51.0637)" fill="#FFF200"/>
<path d="M29.0088 64.809C27.376 65.0472 26.1265 64.31 25.8336 62.857L27.0507 62.6794C27.2369 63.4708 27.9311 63.8647 28.8513 63.7304C29.7023 63.6062 30.1746 63.1027 30.0793 62.4496C29.9854 61.8064 29.4032 61.4872 28.5324 61.6143L27.4538 61.7717L27.3109 60.792L28.3894 60.6346C29.092 60.5321 29.4525 60.0247 29.3731 59.4805C29.2893 58.9066 28.7621 58.549 28.0695 58.65C27.3669 58.7526 26.8976 59.2758 26.9082 59.9716L25.6812 60.1507C25.6262 58.8045 26.5282 57.7835 27.9531 57.5756C29.2988 57.3792 30.3713 58.0109 30.5287 59.0895C30.6486 59.9108 30.177 60.6264 29.3718 60.9258C30.4184 60.9651 31.1272 61.5286 31.2615 62.4489C31.4334 63.6264 30.5425 64.5851 29.0088 64.809Z" fill="black"/>
</svg>
