<svg width="1101" height="325" viewBox="0 0 1101 325" fill="none" xmlns="http://www.w3.org/2000/svg">
<path d="M673.843 3.6132C656.993 4.48441 634.99 5.67809 618.223 6.70277C612.98 7.02221 615.628 6.74213 612.005 6.9619C604.909 7.39592 598.321 7.91001 591.322 8.37368C589.001 8.5275 591.877 8.14738 589.443 8.31304C576.102 9.2262 563.502 10.2784 550.028 11.4119C483.583 17.0299 418.469 24.7718 351.911 35.935C329.971 39.6036 303.344 44.4243 280.861 49.1961C278.238 49.7515 279.833 49.5693 279.336 49.6855C271.547 51.5138 274.089 50.6757 268.965 51.7326C248.664 55.9331 226.173 61.2118 206.86 66.2403C198.64 68.3886 206.955 66.5326 198.643 68.5312C198.066 68.6713 200.109 67.9728 197.854 68.548C192.754 69.8419 183.054 72.4994 179.12 73.5861C171.53 75.6748 170.252 76.0407 163.084 78.1076C153.304 80.9348 141.64 84.378 131.227 87.7225C128.999 88.4388 131.999 87.6519 128.453 88.8109C124.895 89.9662 115.553 93.0095 112.369 94.0453C109.198 95.0683 110.503 94.4986 109.935 94.6588C105.248 95.9627 94.6113 100.019 93.2168 100.533C81.26 104.829 70.1429 108.959 59.3308 113.141C45.2494 118.765 36.9326 122.293 24.1265 130.53C16.977 135.26 8.40073 142.531 4.7953 150.616C0.414813 159.405 3.20419 169.62 8.11547 176.386C21.0268 193.516 38.0515 202.259 56.6438 211.714C58.5808 212.651 56.3856 211.383 58.7665 212.525C85.4888 225.123 111.24 233.986 139.558 242.803C142.2 243.617 138.739 242.743 141.38 243.565C157.471 248.654 185.121 256.324 195.059 257.998C206.607 260.925 221.036 264.341 231.101 266.738C237.747 268.315 231.211 267.053 239.464 268.793C241.332 269.183 238.939 268.499 241.742 269.096C253.65 271.632 266.529 274.34 278.065 276.525C280.431 276.973 279.814 276.707 280.49 276.813C286.155 277.718 295.597 279.852 297.684 280.263C313.582 283.409 324.538 285.256 339.345 287.745C342.763 288.316 338.752 287.456 342.044 287.997C359.342 290.839 376.369 293.483 393.226 295.999C396.953 296.554 393.5 296.222 395.28 296.495C403.157 297.694 404.896 297.627 412.33 298.713C413.899 298.941 412.995 298.958 413.28 299.012C417.732 299.859 421.689 300.042 422.847 300.187C437.486 302.011 447.007 303.552 461.141 305.169C462.835 305.361 459.036 304.74 463.799 305.289C495.577 308.946 529.366 312.296 560.955 314.918C565.88 315.326 562.353 315.182 562.661 315.223C567.695 315.87 570.989 315.773 572.594 315.88C585.266 316.729 597.049 317.784 605.635 317.899C659.297 321.29 712.916 322.596 766.054 322.016C766.74 322.008 765.514 322.198 766.882 322.18C783.293 321.93 780.118 321.722 790.806 321.07C793.497 320.905 801.619 320.973 802.328 320.966C804.933 320.96 802.246 321.324 803.118 321.307C810.574 321.135 809.393 320.379 819.41 319.851C819.723 319.835 818.417 320.058 819.258 320.028C821.869 319.933 824.442 319.725 826.974 319.625C832.759 319.388 834.858 319.667 843.519 318.803C844.664 318.682 842.734 318.382 851.707 317.69C855.375 317.432 871.126 315.978 875.401 315.527C879.717 315.102 876.772 315.564 877.08 315.539C888.659 314.475 884.275 315.03 890.03 314.653C896.083 314.211 894.346 313.711 896.787 313.323C899.255 312.941 907.965 311.912 910.06 311.652C912.171 311.401 909.562 311.88 911.436 311.638C923.772 309.985 916.776 310.473 920.78 309.736C929.817 308.014 938.112 307.045 946.789 305.332C949.156 304.861 947.206 305.142 949.301 304.696C957.721 302.865 961.853 302.124 971.876 299.416C973.472 298.993 981.08 296.631 985.881 295.416C986.563 295.245 984.693 295.947 988.098 294.949C992.958 293.548 1002.56 290.367 1008.06 288.183C1012.08 286.597 1007.41 288.194 1012.45 286.275C1014.66 285.411 1010.64 287.183 1014.77 285.543C1016.83 284.719 1020.35 283.231 1023.8 281.624C1027.66 279.84 1031.28 277.974 1033.23 276.926C1037.09 274.827 1034.89 275.83 1035.2 275.652C1037.11 274.593 1043.97 270.325 1044.48 269.922C1044.95 269.62 1045.41 269.317 1045.86 269.012C1054.31 263.355 1061.53 257.976 1067.72 252.805C1074.83 246.86 1081.28 240.571 1086.33 234.215C1097.73 220.741 1103.57 201.231 1093.2 186.068C1091.65 183.679 1092.53 185.368 1092.3 185.004C1086.34 177.103 1091.25 182.681 1087.13 177.69C1087.44 178.609 1085.24 175.768 1079.74 171.281C1077.03 169.13 1078.41 170.416 1078.16 170.229C1077.11 169.471 1076.12 168.757 1075.21 168.102C1074.45 167.553 1073.77 167.053 1073.17 166.613C1071.99 165.735 1071.17 165.102 1070.83 164.848C1068.33 162.964 1065.14 161.333 1063.21 160.088C1061.25 158.845 1066.04 161.267 1059.95 157.916C1058.15 157.093 1062.62 159.844 1057.86 157.371C1042.24 148.783 1007.06 136.648 993.458 133.043C978.641 128.854 973.791 127.759 965.455 125.668C949.979 121.931 955.591 123.508 945.634 121.408C935.827 119.411 940.78 119.877 939.393 119.449C938.088 119.043 936.6 118.866 934.94 118.451C933.283 118.039 936.922 118.699 932.992 117.864C929.089 117.022 918.006 115.089 916.503 114.95C913.368 114.649 918.427 115.88 907.497 113.751C906.865 113.629 908.948 113.852 906.525 113.393C888.64 109.996 868.019 106.653 850.001 103.901C847.445 103.51 849.759 103.675 848.27 103.446C832.676 101.08 838.199 102.179 829.486 101.292C831.601 101.152 826.394 100.143 814.892 98.6287C807.845 97.708 809.028 98.0546 804.42 97.6007C803.039 97.4645 798.001 96.7033 797.069 96.6783C793.992 96.5936 798.777 97.4938 786.415 95.8672C785.872 95.7958 787.624 95.8464 785.744 95.6111C773.43 94.0863 772.324 94.2629 759.329 92.8462C749.278 91.7492 730.669 89.6087 719.36 88.468C719.658 88.0071 708.732 87.0454 704.232 86.9574C696.695 86.2249 688.448 85.4826 681.12 84.7791C678.637 84.5408 680.281 84.5472 679.969 84.504C675.184 83.837 671.892 83.8762 670.271 83.7474C652.755 82.3461 638.04 80.8976 621.345 79.8438C620.748 79.8066 619.758 80.0665 615.28 79.4775C614.99 79.4385 620.56 79.7092 612.644 79.0943C604.739 78.4791 589.713 77.1941 578.683 76.5816C576.023 76.4323 569.276 76.2381 563.881 75.659C563.163 75.5812 563.958 75.5382 562.921 75.4141C559.569 75.016 557.71 75.2325 553.772 74.6812C549.834 74.1305 541.608 73.3703 530.46 72.8683C530.105 72.8519 527.458 72.9554 523.962 72.7341C518.383 72.38 510.462 71.8418 504.633 71.497C501.843 71.3319 503.619 71.6055 503.134 71.5797C484.384 70.5648 470.986 69.6599 450.885 68.5176C447.2 68.3075 436.613 67.9791 429.517 67.4364C421.651 66.8392 429.768 66.419 411.688 65.7132C404.405 65.4316 395.148 66.024 382.2 64.8747C356.601 63.8099 333.662 62.5275 307.912 61.646C306.767 61.6068 303.142 61.748 300.465 61.634C296.491 61.464 294.324 61.2393 291.501 61.1154C279.868 60.6013 268.483 60.2657 257.059 59.802C252.7 59.6257 254.225 59.5439 249.048 59.3355C243.865 59.1275 240.502 59.1836 233.472 58.8259C228.039 58.5507 222.646 57.9671 215.549 57.6562C215.269 58.0199 210.369 57.8277 201.821 57.608C200.179 57.566 201.934 57.7616 201.157 57.7484C197.997 57.6979 195.093 57.4821 192.121 57.445C191.398 57.4357 191.359 57.5621 190.769 57.5617C185.563 57.5569 176.943 56.9513 175.502 56.8482C169.9 56.4515 167.3 56.5219 163.061 56.2908C158.839 56.0604 165.156 56.1997 160.227 55.9726C150.273 55.5119 136.551 55.0262 126.112 54.6302C121.944 54.4729 124.781 54.7495 124.185 54.7309C115.491 54.4492 107.399 53.961 102.169 54.1004C96.0744 52.9876 96.7292 53.9796 84.4164 53.3212C83.4542 53.2691 82.2381 52.8059 85.9504 52.8909C89.6653 52.976 95.365 53.3274 100.695 53.4366C101.949 53.4627 109.248 53.3515 110.049 53.358C117.364 53.4506 118.431 54.1106 118.814 54.1592C123.228 54.6933 131.864 54.5958 134.168 54.6522C144.807 54.9145 153.443 55.3199 161.995 55.5404C167.621 55.6865 168.197 55.3011 172.661 55.4781C187.636 56.0718 192.79 56.8292 206.564 56.8511C209.549 56.858 206.57 56.3013 217.29 57.0532C217.96 57.1003 225.957 57.7214 230.648 57.6977C231.236 57.6945 231.222 57.5645 231.997 57.5831C237.234 57.7121 240.406 57.9367 245.941 58.1005C251.439 58.2629 258.097 58.4479 264.466 58.7424C268.302 58.9193 273.245 59.3568 275.096 59.4897C280.371 59.8698 285.836 59.8111 288.992 60.1451C292.179 60.4818 285.913 60.5413 294.297 61.0165C294.621 60.6932 295.35 60.3776 295.865 60.0602C314.28 60.8254 332.821 61.7214 351.228 62.5254C353.53 62.6258 351.183 62.3402 353.653 62.4434C364.051 62.8795 373.326 63.4327 384.084 63.8873C392.403 64.2382 401.57 64.4875 410.337 64.8722C415.645 65.518 428.783 66.0469 438.127 66.5705C441.422 66.7544 441.196 66.8457 443.539 67.0023C452.383 67.5936 448.255 67.0356 450.684 67.1109C461.119 67.4421 461.97 68.2571 474.283 68.923C474.936 68.9578 482.935 68.9986 484.024 69.0361C490.993 69.2683 485.168 69.2441 489.522 69.525C497.471 70.0404 502.995 70.4629 512.337 70.907C515.061 71.0358 521.606 71.1795 526.877 71.7075C527.571 71.7768 527.178 71.8881 527.737 71.931C537.859 72.6999 538.166 72.2965 543.968 72.5261C549.776 72.7564 558.697 73.6456 560.509 73.8535C565.251 74.3926 556.857 73.7017 556.597 73.707C553.552 73.7611 560.077 74.1497 565.051 74.5102C565.744 74.9751 572.699 75.4273 570.206 74.8834C569.922 74.8229 566.049 74.5968 565.051 74.5102C569.456 74.3985 577.063 74.868 585.513 75.8538C589.474 76.3182 585.712 76.2511 597.771 77.0519C603.239 77.4191 601.149 76.9764 605.972 77.2565C617.032 77.9004 631.061 79.2602 642.568 80.1577C646.703 80.48 642.689 79.9939 645.515 80.2093C653.01 80.782 659.582 81.454 667.048 82.039C667.724 82.0919 666.088 81.7845 668.407 81.9836C685.773 83.4757 701.631 85.042 719.83 86.8485C728.505 87.7027 744.75 89.2966 753.913 90.3238C769.739 92.0706 789.455 94.6335 803.085 96.3064C811.922 97.3913 809.993 96.9851 813.768 97.3608C820.855 98.0546 834.15 100.276 835.856 100.585C835.917 100.592 828.179 99.5589 832.294 100.214C834.668 100.722 835.769 100.573 835.856 100.585C837.044 100.777 852.263 103.01 855.204 103.436C856.824 103.662 855.943 103.371 856.786 103.492C877.192 106.433 897.128 109.701 918.056 113.773C918.421 113.846 917.838 113.912 918.696 114.082C930.775 116.493 937.714 117.713 947.767 119.774C957.846 121.856 965.44 123.724 970.944 125.396C977.643 126.994 989.01 130.16 994.745 131.912C1000.64 133.696 1001.49 133.623 1002.01 133.767C1018.39 138.59 1027.29 141.704 1044.14 148.875C1048.14 150.62 1053.58 153.102 1059.09 155.989C1065.21 159.182 1070.67 162.554 1074.21 164.994C1079.99 168.991 1083.95 172.387 1088.26 176.863C1088.85 177.485 1088.37 176.748 1088.56 176.936C1093.61 182.435 1090.99 180.104 1091.94 181.334C1095.13 186.369 1097.21 188.66 1099.57 198.401C1100.15 200.563 1100.95 207.24 1100.08 211.145C1098.91 216.382 1099.36 214.337 1097.3 219.905C1097.09 220.364 1097.26 220.448 1095.89 223.25C1088.78 237.346 1075.1 249.781 1063.22 259.089C1061.52 260.408 1063.83 258.863 1061.35 260.777C1057.1 264.025 1052.34 267.434 1047.14 270.917C1039.47 276.091 1029.77 281.163 1021.32 284.834C1018.15 286.206 1020.08 285.213 1019.37 285.479C1015.08 287.116 1008.84 289.897 1007.75 290.298C982.405 299.756 962.707 304.084 935.735 309.344C934.075 309.679 923.105 311.958 918.14 312.388C917.8 312.422 912.853 312.866 908.461 313.712C908.186 313.763 911.334 313.487 905.882 314.24C900.525 314.981 891.148 316.294 884.103 316.9C881.784 317.105 876.278 317.401 869.236 318.347C868.799 318.42 857.854 320.02 853.805 319.939C853.21 319.917 853.608 319.485 845.323 320.339C843.749 320.499 846.623 320.381 842.466 320.747C836.091 321.306 827.516 321.751 819.443 322.376C818.039 322.487 812.038 323.09 807.145 323.09C806.38 323.09 807.826 322.885 805.247 322.984C793.418 323.429 781.012 323.912 768.683 324.056C764.318 324.104 766.549 323.837 761.985 323.851C757.282 323.868 748.522 323.898 743.808 324.021C739.131 324.144 744.25 324.492 737.227 324.537C706.324 324.697 676.187 323.762 645.558 322.397C641.039 322.191 644.783 322.493 638.116 322.187C613.397 321.126 570.978 318.388 549.623 316.254C532.566 314.588 554.068 316.248 541.029 315.044C534.737 314.458 527.889 314.255 526.368 314.127C511.516 312.885 501.223 311.661 487.847 310.294C485.088 310.01 487.774 310.471 485.427 310.226C477.407 309.391 469.009 308.368 461.387 307.488C457.969 307.093 458.583 307.297 455.442 306.913C447.893 305.988 441.158 305.099 433.817 304.038C433.147 303.941 437.693 304.358 432.106 303.637C423.057 302.467 411.939 300.857 401.6 299.527C398.488 299.125 398.317 299.408 391.688 298.244C390.301 297.998 392.122 297.908 384.349 297.079C383.035 296.944 370.038 295.417 363.8 294.159C362.15 293.83 357.965 292.875 354.316 292.336C353.815 292.263 355.794 292.743 352.736 292.267C341.788 290.558 330.449 288.633 319.474 286.752C316.545 286.249 320.873 287.182 316.512 286.426C304.784 284.397 289.128 281.431 277.515 279.082C273.2 278.21 276.212 278.664 275.9 278.588C270.9 277.35 267.884 277.072 266.221 276.755C256.082 274.81 247.538 272.847 238 270.797C235.342 270.223 237.192 270.79 236.66 270.688C231.163 269.611 235.293 270.239 231.85 269.44C222.293 267.217 211.552 264.73 201.536 262.3C197.912 261.419 201.937 262.594 198.69 261.8C179.946 257.222 159.467 251.691 141.721 246.247C138.386 245.223 140.529 245.722 139.842 245.482C135.049 243.81 127.25 241.671 125.627 241.174C117.924 238.831 115.078 237.743 108.634 235.55C76.0808 224.147 35.554 208.54 12.1164 185.311C8.29232 181.362 5.40748 177.465 3.40487 173.593C1.01045 168.983 -0.160573 164.229 0.0177234 159.623C0.13948 155.088 1.81517 150.248 4.19201 146.393C6.28579 142.935 9.12923 139.579 12.7178 136.286C18.919 130.64 26.0856 126.078 34.1693 121.766C40.9774 118.156 48.9225 114.537 58.4302 110.829C61.3508 109.691 64.3166 108.548 67.3366 107.399C69.7273 106.491 67.2494 107.23 69.3107 106.446C95.9286 96.3587 122.537 87.5275 149.828 79.2709C152.072 78.5941 148.784 79.3937 152.386 78.3041C159.742 76.0782 169.145 73.3784 176.654 71.3496C180.317 70.3596 175.453 71.8671 179.141 70.8694C187.734 68.5491 196.958 66.1016 205.807 63.8008C209.576 62.8223 203.838 64.1041 208.743 62.8485C242.138 54.3304 275.177 47.0324 309.413 40.7064C311.761 40.2741 313.887 40.239 318.857 39.2398C319.214 39.0698 319.172 38.956 319.316 38.8186C368.606 29.5945 417.746 22.5131 467.675 16.6775C469.781 16.4323 466.12 16.6637 470.196 16.1894C493.789 13.4556 516.728 11.051 540.932 9.06538C543.338 8.86985 542.137 9.31424 549.211 8.64268C550.465 8.5194 561.095 7.56985 563.857 7.27396C564.231 7.2322 562.27 7.23248 565.71 6.94642C585.652 5.29365 606.632 3.83034 626.576 2.68372C629.803 2.49884 626.378 2.88193 628.676 2.75221C644.931 1.83334 662.653 0.740945 678.217 0.151499C688.614 -0.236532 684.801 0.239125 690.347 0.275953C691.135 0.280057 697.578 0.0048722 697.916 0.159965C698.789 0.545581 695.692 1.14203 696.99 1.53715C697.268 1.62034 705.865 1.15501 700.782 1.6029C700.429 1.63234 694.187 1.97805 692.646 2.12723C691.576 2.22974 693.517 2.3147 691.33 2.48232C689.143 2.65035 686.728 2.61555 683.088 2.8682C679.47 3.12301 681.079 3.2373 673.843 3.6132ZM1021.32 140.674C1026.67 142.738 1027.65 142.462 1021.77 140.524C1021.48 140.431 1021.04 140.568 1021.32 140.674ZM332.613 62.1762C340.025 62.7605 345.155 62.5988 339.905 62.1647C334.66 61.7318 330.357 61.999 332.613 62.1762ZM254.71 59.185C263.457 59.7342 264.877 58.9411 255.484 58.7459C254.939 58.7344 254.2 59.153 254.71 59.185ZM664.68 1.59532C664.761 1.59841 669.405 1.36928 669.514 1.35659C671.977 1.04091 662.692 1.49851 664.68 1.59532ZM177.546 56.4868C180.298 56.703 188.347 56.8681 184.882 56.5972C182.082 56.3788 174.105 56.2169 177.546 56.4868ZM947.084 305.57C946.996 305.581 943.714 306.232 943.787 306.267C944.049 306.385 948.594 305.416 947.084 305.57ZM46.3423 51.4341C65.5064 52.2912 78.0434 53.4904 56.2959 52.514C52.4172 52.3371 64.6818 52.641 59.7317 52.371C50.6846 51.8774 44.8315 52.0657 36.1943 51.4414C34.6042 51.3281 45.2089 51.3839 46.3761 51.4346C46.3646 51.4344 46.3535 51.4343 46.3423 51.4341ZM1024.18 142.451C1024.3 142.494 1028.53 144.05 1028.62 144.083C1030.98 144.745 1022.46 141.606 1024.18 142.451ZM753.649 322.357C753.409 322.35 742.834 322.413 742.478 322.423C736.961 322.773 758.351 322.653 753.649 322.357ZM719.18 88.4371C714.199 88.1344 708.227 87.5786 704.255 86.9599C709.232 87.4468 714.221 87.9335 719.18 88.4371Z" fill="#FFF200"/>
</svg>
