<svg width="72" height="72" viewBox="0 0 72 72" fill="none" xmlns="http://www.w3.org/2000/svg">
<path d="M62.0223 32.8182C61.1995 24.9403 57.754 18.4016 51.7819 13.3826C46.5228 8.96282 40.4928 7.0136 33.8598 7.58537C27.6756 8.11892 22.36 10.7163 18.058 15.3027C12.8692 20.837 10.2587 27.7487 10.0801 36.4353C10.1152 36.7518 10.1472 37.1172 10.1839 37.5391C10.2785 38.6139 10.3946 39.95 10.6419 41.2633C12.0173 48.5617 15.4674 54.4568 20.9005 58.7864C26.5291 63.2718 32.927 65.0116 39.9173 63.9567C46.2465 63.0012 51.5545 59.9085 55.6931 54.7641C60.7568 48.4685 62.8848 41.0859 62.0208 32.8182H62.0223ZM55.9587 51.4435C52.2842 57.094 47.2586 60.6362 41.0225 61.9693C39.4242 62.3118 37.8442 62.4815 36.2855 62.4815C31.7851 62.4815 27.4649 61.0581 23.3919 58.2268C17.8077 54.3437 14.1729 48.7666 12.5898 41.6531C12.1181 39.5357 11.9273 37.4764 11.9288 34.5442V34.5411C12.0937 26.9812 15.101 20.3264 20.6273 15.2966C25.7429 10.643 31.6691 8.63107 38.2396 9.31903C44.8833 10.0131 50.3943 13.1441 54.6229 18.6233C57.9127 22.8856 59.8271 27.8679 60.3125 33.4297C60.8896 40.054 59.4256 46.1141 55.9602 51.4435H55.9587Z" fill="black"/>
<path d="M54.2118 37.266C54.0753 37.2036 53.9219 37.1564 53.7701 37.1275C53.4618 37.0696 53.1536 37.0118 52.8469 36.9524C52.0079 36.791 51.1414 36.6251 50.2841 36.4972C48.117 36.173 45.9868 35.5747 43.9255 34.9962C42.7186 34.6567 41.4702 34.3066 40.231 34.0158C39.573 33.8621 38.889 33.7509 38.228 33.6459L38.0317 33.6139C37.5425 33.5348 37.0425 33.4708 36.5578 33.4099L36.1346 33.3551C35.768 33.3079 35.6162 33.1222 35.6285 32.7355C35.6607 31.6881 35.6729 30.6225 35.6852 29.5904C35.6898 29.2448 35.6929 28.8992 35.6975 28.5536C35.7005 28.3603 35.7005 28.1654 35.7021 27.9721C35.7021 27.5915 35.7051 27.1972 35.722 26.809C35.745 26.2853 35.7818 25.7556 35.8171 25.2425C35.8324 25.0248 35.8478 24.8087 35.8616 24.591C35.8294 24.2089 35.7987 23.8268 35.768 23.4462C35.6913 22.4795 35.6116 21.4793 35.4981 20.5035C35.4505 20.0894 35.265 19.6662 35.0794 19.2689C34.9828 19.0633 34.8156 18.9507 34.6162 18.9507C34.5656 18.9507 34.5135 18.9583 34.4598 18.972C34.3662 18.9979 34.0795 19.074 34.0779 19.5611C34.0749 20.0818 34.0779 20.6009 34.0825 21.12C34.0871 21.6681 34.0902 22.2359 34.0871 22.7946C34.0795 23.8435 34.061 24.9502 34.0273 26.2777C34.0181 26.6614 33.9997 27.0511 33.9813 27.4271C33.9629 27.8107 33.9445 28.2065 33.9353 28.5947C33.923 29.1093 33.9169 29.6238 33.9092 30.1384C33.8954 31.1279 33.8816 32.1509 33.8279 33.1557C33.8019 33.6231 33.9108 33.9062 34.2282 34.197C35.0211 34.9262 36.0333 35.3494 37.3201 35.4925C38.6099 35.6356 39.8614 35.9873 41.0729 36.3267C41.6818 36.4972 42.3106 36.6738 42.9348 36.8215C43.763 37.0164 44.5942 37.2508 45.3994 37.4761C46.2276 37.709 47.0818 37.9496 47.9315 38.1475C49.028 38.4032 50.1599 38.595 51.2549 38.7808C51.5939 38.8386 51.9343 38.8965 52.2733 38.9558C52.7671 39.0426 53.2962 39.1248 53.8253 39.1461C54.3176 39.1644 54.7256 38.8493 54.8191 38.3773C54.9127 37.91 54.6734 37.4715 54.2103 37.263L54.2118 37.266Z" fill="black"/>
</svg>
