<svg width="211" height="152" viewBox="0 0 211 152" fill="none" xmlns="http://www.w3.org/2000/svg">
<path d="M152.02 50.2184C169.589 50.232 175.884 57.5856 177.841 65.2402C178.579 68.114 179.389 70.9899 179.59 73.8731C180.001 79.362 180.769 84.8615 178.711 90.328C175.722 98.2406 167.667 103.227 155.994 103.489C147.902 103.679 98.7309 102.632 82.2471 102.221C72.5926 101.987 62.9038 101.701 53.2486 101.492C48.9218 101.389 44.7836 100.964 40.8173 99.56C34.7618 97.4127 31.4285 93.9576 30.7782 89.3197C30.2433 85.6191 29.8156 81.9216 29.8892 78.2137C30.0008 73.2197 30.0789 68.149 31.1543 63.2339C33.2283 53.5782 39.2792 49.8194 52.7546 47.8951C61.7015 46.6448 102.982 48.3171 107.665 48.4553C107.697 48.5825 137.259 49.6062 152.02 50.2184ZM85.7044 72.3647C88.1035 72.3093 86.3034 77.5311 86.1947 80.0013C86.124 81.1854 85.9811 82.3926 86.1606 83.5842C86.3394 84.8009 87.3509 85.6889 89.1735 85.7679C91.0684 85.8238 92.0634 84.8436 92.2399 83.7131C92.5489 81.7283 92.7515 79.7152 92.5958 77.7167C92.4333 75.9452 91.9864 74.1148 91.1774 72.4252C89.8933 69.8634 87.445 69.1602 83.8073 69.9615C83.195 70.0949 82.5478 70.202 81.6838 70.3784C81.7336 68.6888 81.8133 67.2021 81.8214 65.7133C81.8452 64.9063 82.0865 64.0048 81.6411 63.3355C81.0921 62.5369 80.0076 61.6972 78.8718 61.3861C77.3106 60.9362 76.142 61.7346 75.6459 62.78C75.2661 63.526 75.0993 64.3287 75.0047 65.1083C74.336 70.7925 73.7024 76.503 73.1052 82.1894C73.0106 82.969 73.2356 83.8338 73.4292 84.5462C73.7883 85.7177 75.1014 86.0846 76.0652 86.1635C76.9933 86.2414 78.337 85.5743 78.9633 84.9618C79.5882 84.3998 79.6515 83.4678 79.7818 82.6893C80.1683 80.5049 80.4833 78.3184 80.7983 76.1319C81.0731 74.0957 82.2589 72.7173 85.7044 72.3647ZM56.1813 86.9902C62.9875 86.7367 67.0125 83.7259 66.1052 79.3075C65.545 76.4643 63.017 74.8249 57.9238 74.0184C54.0417 73.399 52.8462 71.4708 55.2728 69.271C56.3394 68.2929 57.9377 67.4819 59.5279 66.9483C61.0087 66.4873 62.8648 66.643 64.4498 66.2859C65.5305 66.0402 66.9792 65.452 67.1758 64.852C67.3732 64.2269 67.2569 63.3149 65.5937 62.6853C63.9305 62.0557 61.7943 61.6898 59.9307 61.7863C54.054 62.0672 49.3438 65.2597 48.1098 69.4887C47.0351 73.167 49.7762 76.0747 55.0146 76.8097C56.1192 76.9685 57.337 76.9287 58.37 77.0854C60.0079 77.3609 60.6686 78.0114 60.971 78.6765C61.4396 79.7756 60.8318 80.9691 58.9988 81.2431C57.5248 81.4773 55.9122 81.5559 54.4136 81.4107C52.7363 81.2603 51.1043 80.783 49.4672 80.4823C47.9723 80.2111 46.5728 80.3465 45.79 81.4086C44.8947 82.6442 45.5226 83.1927 46.3517 84.2015C47.2492 85.3132 50.6397 86.8266 56.1813 86.9902ZM144.224 77.953C148.977 78.1437 153.104 77.7355 155.738 77.0055C158.696 76.1842 160.272 74.9183 159.225 72.8178C158.718 71.8186 157.745 70.8308 156.621 70.1162C151.352 66.7806 143.595 67.7127 139.352 72.08C135.846 75.6866 136.554 79.5691 141.198 82.2552C145.526 84.7554 153.262 84.5041 156.815 81.7317C157.108 81.5132 157.366 81.2684 157.552 81.0215C158.337 79.8837 157.47 78.9495 155.711 79.1248C154.347 79.2865 153.045 79.7528 151.644 79.9134C148.771 80.2829 144.701 79.9609 144.224 77.953ZM109.053 74.1642C107.765 74.1766 106.762 74.1975 105.796 74.1942C101.573 74.2211 98.561 75.6465 96.5896 78.1879C95.4731 79.6441 95.1044 81.2232 96.5629 82.7301C98.0213 84.237 100.069 85.1808 102.687 84.9804C104.337 84.8524 107.798 83.9702 108.698 83.7949C108.856 85.6925 110.426 85.865 111.789 85.7538C113.87 85.5628 113.884 83.8722 114.065 82.5904C114.338 80.6046 114.754 78.623 114.778 76.6298C114.808 74.3844 114.012 72.2409 111.918 70.4629C109.3 68.2403 105.669 67.5779 101.919 68.5778C101.017 68.8036 99.1657 69.708 100.205 70.8492C100.862 71.6257 102.783 70.7991 105.068 70.9674C108.211 71.1864 108.749 72.3632 109.053 74.1642ZM127.19 68.2887C126.628 67.9187 126.862 67.2694 125.76 67.0098C123.095 66.4011 121.788 67.044 121.321 69.5036C120.555 73.6454 120.324 77.8535 119.914 82.031C119.869 82.3326 119.932 82.6373 120.031 82.9178C120.427 84.0652 121.113 85.0446 123.081 85.0522C125.014 85.0335 125.757 84.1216 125.935 82.9154C126.206 81.0304 126.547 79.1476 126.639 77.2574C126.815 73.7039 128.396 71.0753 134.101 70.5369C134.998 70.4624 136.967 70.4196 136.514 68.8162C136.617 67.7339 134.337 67.389 133.264 67.3826C131.403 67.3782 129.491 67.9023 127.19 68.2887Z" fill="black"/>
<path d="M154.936 73.8527C154.927 74.1805 150.526 74.1517 149.168 74.1116C147.595 74.0652 145.951 73.9914 145.963 73.5879C146.453 72.7191 147.486 71.6895 150.347 71.7235C152.673 71.7416 154.402 72.575 154.936 73.8527Z" fill="black"/>
<path d="M99.8296 81.1607C99.4013 79.9114 100.139 79.176 101.623 78.5888C104.049 77.6256 106.31 77.3895 108.887 77.3646C107.71 79.677 106.225 81.5009 103.162 82.2182C102.405 82.3977 100.472 82.4164 99.8296 81.1607Z" fill="black"/>
<rect width="132" height="34" transform="translate(38.8779 58.2915) rotate(1.69015)" fill="black"/>
<mask id="path-4-outside-1_189_496" maskUnits="userSpaceOnUse" x="68.1419" y="60.6757" width="72.647" height="25.1136" fill="black">
<rect fill="white" x="68.1419" y="60.6757" width="72.647" height="25.1136"/>
<path d="M71.581 63.4608C72.9238 63.5005 74.3789 63.8191 75.9464 64.4167C77.5311 65.0148 78.9902 65.7815 80.3238 66.7168C81.6745 67.6526 82.7876 68.7623 83.6629 70.0459C84.5554 71.33 84.9826 72.6176 84.9445 73.9087C84.916 74.8727 84.0972 76.0546 82.488 77.4544C80.8965 78.8375 79.061 80.0239 76.9815 81.0136C74.902 82.0032 73.208 82.4787 71.8997 82.4401C71.6071 82.4315 71.1448 82.0388 70.513 81.2621C69.8989 80.4686 69.5972 79.8911 69.6079 79.5296C69.6287 78.8238 70.1514 76.8751 71.176 73.6833C72.2183 70.4749 72.8691 68.2715 73.1285 67.0731C72.5209 66.6416 72.019 66.1358 71.6226 65.5555C71.2267 64.958 71.0346 64.4613 71.0463 64.0653C71.0585 63.6522 71.2367 63.4507 71.581 63.4608ZM81.2475 73.076C81.2637 72.5251 80.7772 71.7871 79.788 70.8619C78.7992 69.9196 77.6423 69.1274 76.3174 68.4852C76.176 69.7733 75.3628 72.5146 73.8779 76.7093C73.8025 76.9311 73.6796 77.2979 73.5095 77.8098C73.357 78.3049 73.2438 78.6376 73.1699 78.8077C74.8737 78.2894 76.6406 77.3853 78.4705 76.0954C80.301 74.7882 81.2266 73.7818 81.2475 73.076ZM98.1012 74.7363C98.0763 75.5798 97.4773 76.3202 96.3041 76.9576C95.1481 77.5954 93.9676 77.8966 92.7625 77.861C91.5575 77.8254 90.5702 77.7102 89.8006 77.5152C89.632 77.9754 89.5408 78.4379 89.5271 78.9027C89.5134 79.3675 89.5809 79.7055 89.7298 79.9166C89.8791 80.1105 90.2637 80.2166 90.8834 80.2349C92.1745 80.273 93.2798 80.185 94.1993 79.971C95.136 79.7574 95.6215 79.6511 95.656 79.6521C96.3618 79.6729 96.7078 79.9157 96.6941 80.3805C96.6743 81.0519 96.096 81.6724 94.9593 82.2419C93.8398 82.8119 92.5484 83.0753 91.0851 83.0321C89.6391 82.9894 88.4906 82.4989 87.6395 81.5607C86.7885 80.6224 86.3813 79.5335 86.4179 78.294C86.4549 77.0374 86.8551 75.7397 87.6182 74.4011C88.3986 73.063 89.3531 71.954 90.4817 71.0741C91.6109 70.177 92.7178 69.7445 93.8023 69.7765C94.904 69.809 95.9037 70.3812 96.8013 71.4932C97.6994 72.5879 98.1327 73.669 98.1012 74.7363ZM95.118 74.2347C95.1231 74.0626 94.9497 73.8076 94.5979 73.4699C94.246 73.1321 93.9065 72.9584 93.5794 72.9488C93.2696 72.9396 92.8582 73.1601 92.3452 73.6102C91.8328 74.043 91.3421 74.6144 90.8732 75.3242C91.0276 75.346 91.2512 75.3612 91.5438 75.3698C93.9022 75.4394 95.0936 75.061 95.118 74.2347ZM108.248 66.5587C107.835 66.5465 107.451 67.009 107.096 67.9461C106.741 68.8833 106.349 70.1898 105.921 71.8657C107.507 71.8091 109.05 71.8029 110.547 71.8471C111.838 71.8852 112.47 72.3777 112.442 73.3245C112.43 73.7376 112.293 74.3021 112.03 75.0181C111.769 75.7167 111.349 76.7898 110.772 78.2373C110.213 79.6854 109.697 81.1174 109.224 82.5335C109.091 82.9431 108.928 83.214 108.735 83.3461C108.542 83.4611 108.248 83.5127 107.852 83.501C107.473 83.4898 107.159 83.3169 106.911 82.9822C106.662 82.6475 106.545 82.2305 106.56 81.7313C106.575 81.2148 106.853 79.9911 107.392 78.0601C107.949 76.1295 108.267 74.9587 108.348 74.5476C107.9 74.5688 106.819 74.692 105.107 74.9171C104.119 78.6268 103.43 80.9583 103.04 81.9117C102.667 82.8656 102.266 83.3362 101.835 83.3235C101.542 83.3148 101.18 83.0457 100.748 82.516C100.316 81.9692 100.104 81.5494 100.113 81.2568C100.122 80.9469 100.192 80.613 100.323 80.255C100.883 78.7898 101.353 77.1755 101.733 75.412C101.093 75.4965 100.575 75.5329 100.179 75.5212C99.8 75.51 99.4274 75.2923 99.0608 74.868C98.6943 74.4436 98.5181 73.9905 98.5324 73.5085C98.542 73.1814 98.843 72.906 99.4354 72.6822C100.045 72.459 101.033 72.2642 102.399 72.0977C103.063 68.8609 103.836 66.5922 104.719 65.2915C105.602 63.9909 106.869 63.3649 108.522 63.4137C109.452 63.4411 110.473 63.859 111.586 64.6671C112.717 65.4758 113.267 66.388 113.237 67.4037C113.216 68.1095 113.088 68.6743 112.851 69.098C112.615 69.5046 112.316 69.7025 111.955 69.6919C111.593 69.6812 111.228 69.5153 110.858 69.1943C110.489 68.856 110.172 68.5021 109.908 68.1325C109.163 67.0939 108.61 66.5693 108.248 66.5587ZM122.668 70.6282C123.563 70.6546 124.334 71.0823 124.982 71.9112C125.647 72.7234 125.966 73.5857 125.939 74.4981C125.896 75.9613 125.61 77.4863 125.081 79.0731C124.569 80.6431 124.016 81.8501 123.423 82.6941C122.847 83.5385 122.266 83.9522 121.681 83.9349C121.113 83.9181 120.84 83.5052 120.864 82.6961C120.883 82.0764 121.203 80.8367 121.827 78.977C122.303 77.4404 122.551 76.3364 122.571 75.6651C122.591 74.9937 122.514 74.6555 122.342 74.6504C122.118 74.6438 121.891 74.7491 121.661 74.9662C121.448 75.1839 121.27 75.3768 121.127 75.5449C120.984 75.713 120.814 75.932 120.617 76.2018C120.437 76.455 120.275 76.6914 120.13 76.9111C120.004 77.1141 119.832 77.3847 119.615 77.7229C119.416 78.0444 119.253 78.3153 119.126 78.5355C119 78.7386 118.837 79.0094 118.637 79.3481C116.948 82.2962 115.647 83.7568 114.735 83.7299C114.373 83.7193 113.926 83.3959 113.393 82.7599C112.861 82.1067 112.6 81.6338 112.608 81.3412C112.614 81.1518 112.746 80.7508 113.006 80.1382C113.283 79.5089 113.478 79.0322 113.59 78.7082C113.721 78.3674 113.826 78.0087 113.906 77.632C114.004 77.2558 114.085 76.8533 114.149 76.4245C114.214 75.9784 114.258 75.6351 114.283 75.3946C114.324 75.1547 114.37 74.777 114.419 74.2615C114.64 72.0282 114.806 70.7925 114.917 70.5546C115.044 70.3171 115.177 70.2004 115.315 70.2045C115.969 70.2238 116.589 70.5178 117.175 71.0864C117.762 71.6379 118.049 72.1374 118.035 72.585C118.004 73.6523 117.683 75.1762 117.074 77.1569C118.25 75.2274 119.313 73.6564 120.262 72.4439C121.229 71.2147 122.031 70.6094 122.668 70.6282ZM139.147 75.9474C139.122 76.7909 138.523 77.5314 137.35 78.1687C136.194 78.8066 135.014 79.1077 133.809 79.0721C132.603 79.0366 131.616 78.9213 130.847 78.7263C130.678 79.1865 130.587 79.649 130.573 80.1138C130.559 80.5786 130.627 80.9166 130.776 81.1278C130.925 81.3217 131.31 81.4278 131.929 81.4461C133.22 81.4842 134.326 81.3962 135.245 81.1821C136.182 80.9685 136.668 80.8622 136.702 80.8633C137.408 80.8841 137.754 81.1269 137.74 81.5917C137.72 82.2631 137.142 82.8835 136.005 83.453C134.886 84.023 133.594 84.2864 132.131 84.2432C130.685 84.2006 129.537 83.7101 128.686 82.7718C127.834 81.8335 127.427 80.7447 127.464 79.5052C127.501 78.2485 127.901 76.9509 128.664 75.6123C129.445 74.2741 130.399 73.1651 131.528 72.2853C132.657 71.3882 133.764 70.9556 134.848 70.9876C135.95 71.0202 136.95 71.5924 137.847 72.7043C138.745 73.7991 139.179 74.8801 139.147 75.9474ZM136.164 75.4459C136.169 75.2737 135.996 75.0188 135.644 74.681C135.292 74.3433 134.952 74.1696 134.625 74.1599C134.316 74.1508 133.904 74.3713 133.391 74.8213C132.879 75.2542 132.388 75.8255 131.919 76.5353C132.074 76.5571 132.297 76.5723 132.59 76.581C134.948 76.6505 136.14 76.2722 136.164 75.4459Z"/>
</mask>
<path d="M71.581 63.4608C72.9238 63.5005 74.3789 63.8191 75.9464 64.4167C77.5311 65.0148 78.9902 65.7815 80.3238 66.7168C81.6745 67.6526 82.7876 68.7623 83.6629 70.0459C84.5554 71.33 84.9826 72.6176 84.9445 73.9087C84.916 74.8727 84.0972 76.0546 82.488 77.4544C80.8965 78.8375 79.061 80.0239 76.9815 81.0136C74.902 82.0032 73.208 82.4787 71.8997 82.4401C71.6071 82.4315 71.1448 82.0388 70.513 81.2621C69.8989 80.4686 69.5972 79.8911 69.6079 79.5296C69.6287 78.8238 70.1514 76.8751 71.176 73.6833C72.2183 70.4749 72.8691 68.2715 73.1285 67.0731C72.5209 66.6416 72.019 66.1358 71.6226 65.5555C71.2267 64.958 71.0346 64.4613 71.0463 64.0653C71.0585 63.6522 71.2367 63.4507 71.581 63.4608ZM81.2475 73.076C81.2637 72.5251 80.7772 71.7871 79.788 70.8619C78.7992 69.9196 77.6423 69.1274 76.3174 68.4852C76.176 69.7733 75.3628 72.5146 73.8779 76.7093C73.8025 76.9311 73.6796 77.2979 73.5095 77.8098C73.357 78.3049 73.2438 78.6376 73.1699 78.8077C74.8737 78.2894 76.6406 77.3853 78.4705 76.0954C80.301 74.7882 81.2266 73.7818 81.2475 73.076ZM98.1012 74.7363C98.0763 75.5798 97.4773 76.3202 96.3041 76.9576C95.1481 77.5954 93.9676 77.8966 92.7625 77.861C91.5575 77.8254 90.5702 77.7102 89.8006 77.5152C89.632 77.9754 89.5408 78.4379 89.5271 78.9027C89.5134 79.3675 89.5809 79.7055 89.7298 79.9166C89.8791 80.1105 90.2637 80.2166 90.8834 80.2349C92.1745 80.273 93.2798 80.185 94.1993 79.971C95.136 79.7574 95.6215 79.6511 95.656 79.6521C96.3618 79.6729 96.7078 79.9157 96.6941 80.3805C96.6743 81.0519 96.096 81.6724 94.9593 82.2419C93.8398 82.8119 92.5484 83.0753 91.0851 83.0321C89.6391 82.9894 88.4906 82.4989 87.6395 81.5607C86.7885 80.6224 86.3813 79.5335 86.4179 78.294C86.4549 77.0374 86.8551 75.7397 87.6182 74.4011C88.3986 73.063 89.3531 71.954 90.4817 71.0741C91.6109 70.177 92.7178 69.7445 93.8023 69.7765C94.904 69.809 95.9037 70.3812 96.8013 71.4932C97.6994 72.5879 98.1327 73.669 98.1012 74.7363ZM95.118 74.2347C95.1231 74.0626 94.9497 73.8076 94.5979 73.4699C94.246 73.1321 93.9065 72.9584 93.5794 72.9488C93.2696 72.9396 92.8582 73.1601 92.3452 73.6102C91.8328 74.043 91.3421 74.6144 90.8732 75.3242C91.0276 75.346 91.2512 75.3612 91.5438 75.3698C93.9022 75.4394 95.0936 75.061 95.118 74.2347ZM108.248 66.5587C107.835 66.5465 107.451 67.009 107.096 67.9461C106.741 68.8833 106.349 70.1898 105.921 71.8657C107.507 71.8091 109.05 71.8029 110.547 71.8471C111.838 71.8852 112.47 72.3777 112.442 73.3245C112.43 73.7376 112.293 74.3021 112.03 75.0181C111.769 75.7167 111.349 76.7898 110.772 78.2373C110.213 79.6854 109.697 81.1174 109.224 82.5335C109.091 82.9431 108.928 83.214 108.735 83.3461C108.542 83.4611 108.248 83.5127 107.852 83.501C107.473 83.4898 107.159 83.3169 106.911 82.9822C106.662 82.6475 106.545 82.2305 106.56 81.7313C106.575 81.2148 106.853 79.9911 107.392 78.0601C107.949 76.1295 108.267 74.9587 108.348 74.5476C107.9 74.5688 106.819 74.692 105.107 74.9171C104.119 78.6268 103.43 80.9583 103.04 81.9117C102.667 82.8656 102.266 83.3362 101.835 83.3235C101.542 83.3148 101.18 83.0457 100.748 82.516C100.316 81.9692 100.104 81.5494 100.113 81.2568C100.122 80.9469 100.192 80.613 100.323 80.255C100.883 78.7898 101.353 77.1755 101.733 75.412C101.093 75.4965 100.575 75.5329 100.179 75.5212C99.8 75.51 99.4274 75.2923 99.0608 74.868C98.6943 74.4436 98.5181 73.9905 98.5324 73.5085C98.542 73.1814 98.843 72.906 99.4354 72.6822C100.045 72.459 101.033 72.2642 102.399 72.0977C103.063 68.8609 103.836 66.5922 104.719 65.2915C105.602 63.9909 106.869 63.3649 108.522 63.4137C109.452 63.4411 110.473 63.859 111.586 64.6671C112.717 65.4758 113.267 66.388 113.237 67.4037C113.216 68.1095 113.088 68.6743 112.851 69.098C112.615 69.5046 112.316 69.7025 111.955 69.6919C111.593 69.6812 111.228 69.5153 110.858 69.1943C110.489 68.856 110.172 68.5021 109.908 68.1325C109.163 67.0939 108.61 66.5693 108.248 66.5587ZM122.668 70.6282C123.563 70.6546 124.334 71.0823 124.982 71.9112C125.647 72.7234 125.966 73.5857 125.939 74.4981C125.896 75.9613 125.61 77.4863 125.081 79.0731C124.569 80.6431 124.016 81.8501 123.423 82.6941C122.847 83.5385 122.266 83.9522 121.681 83.9349C121.113 83.9181 120.84 83.5052 120.864 82.6961C120.883 82.0764 121.203 80.8367 121.827 78.977C122.303 77.4404 122.551 76.3364 122.571 75.6651C122.591 74.9937 122.514 74.6555 122.342 74.6504C122.118 74.6438 121.891 74.7491 121.661 74.9662C121.448 75.1839 121.27 75.3768 121.127 75.5449C120.984 75.713 120.814 75.932 120.617 76.2018C120.437 76.455 120.275 76.6914 120.13 76.9111C120.004 77.1141 119.832 77.3847 119.615 77.7229C119.416 78.0444 119.253 78.3153 119.126 78.5355C119 78.7386 118.837 79.0094 118.637 79.3481C116.948 82.2962 115.647 83.7568 114.735 83.7299C114.373 83.7193 113.926 83.3959 113.393 82.7599C112.861 82.1067 112.6 81.6338 112.608 81.3412C112.614 81.1518 112.746 80.7508 113.006 80.1382C113.283 79.5089 113.478 79.0322 113.59 78.7082C113.721 78.3674 113.826 78.0087 113.906 77.632C114.004 77.2558 114.085 76.8533 114.149 76.4245C114.214 75.9784 114.258 75.6351 114.283 75.3946C114.324 75.1547 114.37 74.777 114.419 74.2615C114.64 72.0282 114.806 70.7925 114.917 70.5546C115.044 70.3171 115.177 70.2004 115.315 70.2045C115.969 70.2238 116.589 70.5178 117.175 71.0864C117.762 71.6379 118.049 72.1374 118.035 72.585C118.004 73.6523 117.683 75.1762 117.074 77.1569C118.25 75.2274 119.313 73.6564 120.262 72.4439C121.229 71.2147 122.031 70.6094 122.668 70.6282ZM139.147 75.9474C139.122 76.7909 138.523 77.5314 137.35 78.1687C136.194 78.8066 135.014 79.1077 133.809 79.0721C132.603 79.0366 131.616 78.9213 130.847 78.7263C130.678 79.1865 130.587 79.649 130.573 80.1138C130.559 80.5786 130.627 80.9166 130.776 81.1278C130.925 81.3217 131.31 81.4278 131.929 81.4461C133.22 81.4842 134.326 81.3962 135.245 81.1821C136.182 80.9685 136.668 80.8622 136.702 80.8633C137.408 80.8841 137.754 81.1269 137.74 81.5917C137.72 82.2631 137.142 82.8835 136.005 83.453C134.886 84.023 133.594 84.2864 132.131 84.2432C130.685 84.2006 129.537 83.7101 128.686 82.7718C127.834 81.8335 127.427 80.7447 127.464 79.5052C127.501 78.2485 127.901 76.9509 128.664 75.6123C129.445 74.2741 130.399 73.1651 131.528 72.2853C132.657 71.3882 133.764 70.9556 134.848 70.9876C135.95 71.0202 136.95 71.5924 137.847 72.7043C138.745 73.7991 139.179 74.8801 139.147 75.9474ZM136.164 75.4459C136.169 75.2737 135.996 75.0188 135.644 74.681C135.292 74.3433 134.952 74.1696 134.625 74.1599C134.316 74.1508 133.904 74.3713 133.391 74.8213C132.879 75.2542 132.388 75.8255 131.919 76.5353C132.074 76.5571 132.297 76.5723 132.59 76.581C134.948 76.6505 136.14 76.2722 136.164 75.4459Z" fill="white"/>
<path d="M75.9464 64.4167L75.7163 65.0201L75.7183 65.0209L75.9464 64.4167ZM80.3238 66.7168L79.9529 67.2455L79.956 67.2477L80.3238 66.7168ZM83.6629 70.0459L83.1293 70.4098L83.1326 70.4145L83.6629 70.0459ZM82.488 77.4544L82.9117 77.9419L82.9119 77.9417L82.488 77.4544ZM76.9815 81.0136L76.704 80.4304V80.4304L76.9815 81.0136ZM70.513 81.2621L70.0023 81.6573L70.0071 81.6635L70.012 81.6696L70.513 81.2621ZM71.176 73.6833L70.5618 73.4838L70.5611 73.4859L71.176 73.6833ZM73.1285 67.0731L73.7597 67.2097L73.8498 66.7932L73.5024 66.5465L73.1285 67.0731ZM71.6226 65.5555L71.0842 65.9122L71.0893 65.9198L71.6226 65.5555ZM79.788 70.8619L79.3424 71.3295L79.3468 71.3337L79.788 70.8619ZM76.3174 68.4852L76.599 67.904L75.7753 67.5048L75.6754 68.4148L76.3174 68.4852ZM73.8779 76.7093L73.2691 76.4938L73.2665 76.5013L73.8779 76.7093ZM73.5095 77.8098L72.8966 77.606L72.8944 77.6129L72.8922 77.6197L73.5095 77.8098ZM73.1699 78.8077L72.5776 78.5503L72.0203 79.8325L73.3579 79.4256L73.1699 78.8077ZM78.4705 76.0954L78.8426 76.6232L78.8458 76.6209L78.4705 76.0954ZM71.581 63.4608L71.562 64.1064C72.8171 64.1434 74.2002 64.4421 75.7163 65.0201L75.9464 64.4167L76.1765 63.8132C74.5576 63.196 73.0304 62.8575 71.6001 62.8153L71.581 63.4608ZM75.9464 64.4167L75.7183 65.0209C77.2545 65.6007 78.6654 66.3425 79.9529 67.2455L80.3238 66.7168L80.6946 66.188C79.3151 65.2205 77.8077 64.4289 76.1744 63.8125L75.9464 64.4167ZM80.3238 66.7168L79.956 67.2477C81.2455 68.141 82.3011 69.1952 83.1293 70.4097L83.6629 70.0459L84.1964 69.682C83.2741 68.3294 82.1036 67.1641 80.6916 66.1859L80.3238 66.7168ZM83.6629 70.0459L83.1326 70.4145C83.9632 71.6095 84.3322 72.7639 84.2989 73.8896L84.9445 73.9087L85.59 73.9277C85.633 72.4713 85.1476 71.0504 84.1932 69.6773L83.6629 70.0459ZM84.9445 73.9087L84.2989 73.8896C84.2898 74.1996 84.1492 74.6148 83.7782 75.1504C83.4102 75.6815 82.8457 76.2873 82.0641 76.9672L82.488 77.4544L82.9119 77.9417C83.7395 77.2218 84.3891 76.5367 84.8399 75.8859C85.2877 75.2396 85.5707 74.5818 85.59 73.9277L84.9445 73.9087ZM82.488 77.4544L82.0644 76.967C80.5209 78.3084 78.7355 79.4636 76.704 80.4304L76.9815 81.0136L77.259 81.5967C79.3865 80.5842 81.2722 79.3667 82.9117 77.9419L82.488 77.4544ZM76.9815 81.0136L76.704 80.4304C74.6566 81.4047 73.074 81.8287 71.9188 81.7946L71.8997 82.4401L71.8807 83.0857C73.342 83.1288 75.1473 82.6017 77.259 81.5967L76.9815 81.0136ZM71.8997 82.4401L71.9188 81.7946C72.0106 81.7973 71.9702 81.8326 71.7517 81.647C71.5638 81.4873 71.3188 81.2292 71.014 80.8545L70.513 81.2621L70.012 81.6696C70.339 82.0716 70.6411 82.3983 70.9154 82.6313C71.1591 82.8384 71.4962 83.0743 71.8807 83.0857L71.8997 82.4401ZM70.513 81.2621L71.0238 80.8668C70.729 80.486 70.525 80.1768 70.3986 79.9348C70.3358 79.8146 70.2972 79.7204 70.2753 79.65C70.253 79.578 70.2535 79.5474 70.2534 79.5487L69.6079 79.5296L68.9623 79.5106C68.9521 79.8587 69.0868 80.2133 69.2538 80.5329C69.429 80.8684 69.6829 81.2447 70.0023 81.6573L70.513 81.2621ZM69.6079 79.5296L70.2534 79.5487C70.2613 79.2828 70.3753 78.6903 70.6393 77.706C70.8968 76.7461 71.28 75.4722 71.7909 73.8807L71.176 73.6833L70.5611 73.4859C70.0474 75.0862 69.657 76.3825 69.3918 77.3714C69.1331 78.3358 68.9753 79.0706 68.9623 79.5106L69.6079 79.5296ZM71.176 73.6833L71.7902 73.8829C72.8315 70.6776 73.4925 68.4446 73.7597 67.2097L73.1285 67.0731L72.4973 66.9365C72.2458 68.0984 71.6051 70.2722 70.5618 73.4838L71.176 73.6833ZM73.1285 67.0731L73.5024 66.5465C72.9534 66.1566 72.5066 65.7046 72.1559 65.1912L71.6226 65.5555L71.0893 65.9198C71.5313 66.5669 72.0885 67.1266 72.7545 67.5996L73.1285 67.0731ZM71.6226 65.5555L72.161 65.1988C71.7868 64.634 71.6862 64.2766 71.6918 64.0844L71.0463 64.0653L70.4007 64.0463C70.383 64.646 70.6666 65.282 71.0842 65.9122L71.6226 65.5555ZM71.0463 64.0653L71.6918 64.0844C71.6936 64.0238 71.7011 63.9941 71.7035 63.9863C71.7054 63.9801 71.6997 64.0019 71.6728 64.0323C71.6439 64.065 71.6078 64.0877 71.576 64.0994C71.5482 64.1095 71.5391 64.1057 71.562 64.1064L71.581 63.4608L71.6001 62.8153C71.2943 62.8063 70.9555 62.8937 70.7054 63.1764C70.4747 63.4372 70.409 63.766 70.4007 64.0463L71.0463 64.0653ZM81.2475 73.076L81.893 73.095C81.9068 72.6284 81.7098 72.1723 81.434 71.7538C81.1521 71.3262 80.7434 70.8713 80.2291 70.3902L79.788 70.8619L79.3468 71.3337C79.8217 71.7778 80.1509 72.1544 80.3556 72.4648C80.5662 72.7843 80.6044 72.9726 80.6019 73.0569L81.2475 73.076ZM79.788 70.8619L80.2335 70.3944C79.1927 69.4025 77.9795 68.5731 76.599 67.904L76.3174 68.4852L76.0357 69.0664C77.3052 69.6816 78.4057 70.4367 79.3424 71.3295L79.788 70.8619ZM76.3174 68.4852L75.6754 68.4148C75.5438 69.6136 74.7608 72.2799 73.2691 76.4938L73.8779 76.7093L74.4867 76.9249C75.9648 72.7494 76.8082 69.9329 76.9594 68.5557L76.3174 68.4852ZM73.8779 76.7093L73.2665 76.5013C73.1903 76.7254 73.0668 77.0941 72.8966 77.606L73.5095 77.8098L74.1223 78.0135C74.2925 77.5017 74.4147 77.1368 74.4893 76.9174L73.8779 76.7093ZM73.5095 77.8098L72.8922 77.6197C72.7386 78.1188 72.6351 78.418 72.5776 78.5503L73.1699 78.8077L73.7622 79.0651C73.8526 78.8571 73.9755 78.4911 74.1267 77.9998L73.5095 77.8098ZM73.1699 78.8077L73.3579 79.4256C75.1418 78.8829 76.9703 77.943 78.8426 76.6232L78.4705 76.0954L78.0984 75.5675C76.3109 76.8275 74.6056 77.6959 72.9819 78.1898L73.1699 78.8077ZM78.4705 76.0954L78.8458 76.6209C79.7774 75.9557 80.5069 75.3476 81.013 74.7973C81.4958 74.2724 81.8753 73.6945 81.893 73.095L81.2475 73.076L80.6019 73.0569C80.5988 73.1632 80.5051 73.4415 80.0622 73.923C79.6427 74.3792 78.9941 74.9278 78.0952 75.5698L78.4705 76.0954ZM96.3041 76.9576L95.9958 76.39L95.992 76.3921L96.3041 76.9576ZM89.8006 77.5152L89.9593 76.8891L89.3946 76.746L89.1942 77.2929L89.8006 77.5152ZM89.7298 79.9166L89.2019 80.2887L89.2098 80.2998L89.2181 80.3106L89.7298 79.9166ZM94.1993 79.971L94.0557 79.3413L94.0528 79.3419L94.1993 79.971ZM94.9593 82.2419L94.67 81.6644L94.6663 81.6663L94.9593 82.2419ZM87.6395 81.5607L88.1179 81.1268V81.1268L87.6395 81.5607ZM87.6182 74.4011L87.0603 74.0757L87.0571 74.0812L87.6182 74.4011ZM90.4817 71.0741L90.8788 71.5835L90.8835 71.5798L90.4817 71.0741ZM96.8013 71.4932L96.2987 71.8989L96.302 71.9028L96.8013 71.4932ZM94.5979 73.4699L94.1506 73.9358L94.1506 73.9358L94.5979 73.4699ZM92.3452 73.6102L92.7621 74.1036L92.7712 74.0956L92.3452 73.6102ZM90.8732 75.3242L90.3344 74.9682L89.771 75.8209L90.783 75.9637L90.8732 75.3242ZM98.1012 74.7363L97.4556 74.7172C97.4409 75.2176 97.0917 75.7947 95.9958 76.3901L96.3041 76.9576L96.6124 77.5251C97.8628 76.8458 98.7117 75.942 98.7467 74.7553L98.1012 74.7363ZM96.3041 76.9576L95.992 76.3921C94.9273 76.9796 93.8603 77.2473 92.7816 77.2154L92.7625 77.861L92.7435 78.5065C94.0749 78.5458 95.3688 78.2112 96.6161 77.523L96.3041 76.9576ZM92.7625 77.861L92.7816 77.2154C91.6021 77.1806 90.6661 77.0682 89.9593 76.8891L89.8006 77.5152L89.642 78.1412C90.4743 78.3521 91.5129 78.4702 92.7435 78.5065L92.7625 77.861ZM89.8006 77.5152L89.1942 77.2929C89.003 77.8148 88.8974 78.3458 88.8815 78.8836L89.5271 78.9027L90.1726 78.9217C90.1842 78.53 90.261 78.136 90.407 77.7374L89.8006 77.5152ZM89.5271 78.9027L88.8815 78.8836C88.8666 79.3898 88.93 79.903 89.2019 80.2887L89.7298 79.9166L90.2576 79.5445C90.2318 79.5079 90.1601 79.3451 90.1726 78.9217L89.5271 78.9027ZM89.7298 79.9166L89.2181 80.3106C89.4172 80.5692 89.7092 80.6954 89.9584 80.7642C90.2199 80.8364 90.5279 80.8706 90.8643 80.8805L90.8834 80.2349L90.9024 79.5894C90.6191 79.581 90.425 79.553 90.302 79.5191C90.1666 79.4817 90.1917 79.4579 90.2415 79.5226L89.7298 79.9166ZM90.8834 80.2349L90.8643 80.8805C92.1922 80.9197 93.3563 80.8303 94.3457 80.6L94.1993 79.971L94.0528 79.3419C93.2033 79.5397 92.1568 79.6264 90.9024 79.5894L90.8834 80.2349ZM94.1993 79.971L94.3428 80.6006C94.8107 80.4939 95.1641 80.4145 95.4041 80.362C95.5245 80.3356 95.6137 80.3166 95.6737 80.3045C95.7042 80.2983 95.7233 80.2947 95.7334 80.2929C95.7389 80.2919 95.7374 80.2923 95.7316 80.2931C95.7287 80.2935 95.7208 80.2945 95.7099 80.2955C95.7034 80.2961 95.6746 80.2988 95.6369 80.2977L95.656 79.6521L95.675 79.0066C95.6123 79.0047 95.5584 79.0131 95.5569 79.0133C95.5397 79.0156 95.5233 79.0184 95.5104 79.0206C95.4838 79.0253 95.4519 79.0315 95.4174 79.0385C95.3474 79.0527 95.2503 79.0734 95.1279 79.1002C94.8823 79.1539 94.5245 79.2344 94.0557 79.3413L94.1993 79.971ZM95.656 79.6521L95.6369 80.2977C95.78 80.3019 95.8857 80.317 95.9609 80.3358C96.0363 80.3547 96.0675 80.374 96.0739 80.3785C96.076 80.38 96.0625 80.3698 96.0524 80.3481C96.0434 80.329 96.0496 80.3275 96.0486 80.3615L96.6941 80.3805L97.3397 80.3996C97.3522 79.9757 97.1867 79.5814 96.8158 79.3212C96.4911 79.0934 96.0783 79.0185 95.675 79.0066L95.656 79.6521ZM96.6941 80.3805L96.0486 80.3615C96.0403 80.6414 95.7818 81.1074 94.67 81.6644L94.9593 82.2419L95.2486 82.8193C96.4103 82.2373 97.3083 81.4624 97.3397 80.3996L96.6941 80.3805ZM94.9593 82.2419L94.6663 81.6663C93.6581 82.1796 92.4772 82.4271 91.1042 82.3865L91.0851 83.0321L91.0661 83.6776C92.6196 83.7235 94.0214 83.4441 95.2523 82.8174L94.9593 82.2419ZM91.0851 83.0321L91.1042 82.3865C89.8064 82.3483 88.8338 81.9161 88.1179 81.1268L87.6395 81.5607L87.1612 81.9946C88.1473 83.0818 89.4718 83.6306 91.0661 83.6776L91.0851 83.0321ZM87.6395 81.5607L88.1179 81.1268C87.3764 80.3092 87.0319 79.3817 87.0634 78.3131L86.4179 78.294L85.7723 78.275C85.7307 79.6853 86.2006 80.9355 87.1612 81.9946L87.6395 81.5607ZM86.4179 78.294L87.0634 78.3131C87.0967 77.1834 87.4568 75.9882 88.1793 74.721L87.6182 74.4011L87.0571 74.0812C86.2533 75.4912 85.8131 76.8914 85.7723 78.275L86.4179 78.294ZM87.6182 74.4011L88.1761 74.7265C88.9185 73.4534 89.8201 72.4088 90.8788 71.5835L90.4817 71.0741L90.0847 70.5648C88.886 71.4992 87.8786 72.6725 87.0603 74.0757L87.6182 74.4011ZM90.4817 71.0741L90.8835 71.5798C91.9329 70.746 92.895 70.3958 93.7832 70.422L93.8023 69.7765L93.8213 69.1309C92.5405 69.0931 91.2889 69.608 90.08 70.5684L90.4817 71.0741ZM93.8023 69.7765L93.7832 70.422C94.644 70.4474 95.482 70.8871 96.2987 71.8988L96.8013 71.4932L97.3038 71.0875C96.3254 69.8754 95.1641 69.1706 93.8213 69.1309L93.8023 69.7765ZM96.8013 71.4932L96.302 71.9028C97.1339 72.9169 97.4812 73.8506 97.4556 74.7172L98.1012 74.7363L98.7467 74.7553C98.7842 73.4873 98.2649 72.259 97.3006 71.0836L96.8013 71.4932ZM95.118 74.2347L95.7636 74.2538C95.7722 73.9607 95.6359 73.7131 95.5258 73.5512C95.4037 73.3716 95.2371 73.1882 95.0451 73.004L94.5979 73.4699L94.1506 73.9358C94.3105 74.0893 94.4065 74.2023 94.4578 74.2776C94.4828 74.3144 94.4888 74.3302 94.4875 74.3269C94.4866 74.3245 94.4705 74.284 94.4725 74.2157L95.118 74.2347ZM94.5979 73.4699L95.0451 73.004C94.633 72.6084 94.1486 72.3195 93.5985 72.3032L93.5794 72.9488L93.5604 73.5943C93.6645 73.5974 93.859 73.6559 94.1506 73.9358L94.5979 73.4699ZM93.5794 72.9488L93.5985 72.3032C93.2877 72.2941 92.9922 72.3994 92.7334 72.538C92.4695 72.6795 92.1974 72.8807 91.9193 73.1247L92.3452 73.6102L92.7712 74.0956C93.006 73.8896 93.1961 73.7555 93.3435 73.6765C93.4962 73.5947 93.5614 73.5944 93.5604 73.5943L93.5794 72.9488ZM92.3452 73.6102L91.9285 73.1168C91.3584 73.5984 90.8286 74.2201 90.3344 74.9682L90.8732 75.3242L91.4121 75.6802C91.8557 75.0087 92.3072 74.4877 92.762 74.1035L92.3452 73.6102ZM90.8732 75.3242L90.783 75.9637C90.9732 75.9905 91.2251 76.0065 91.5248 76.0154L91.5438 75.3698L91.5629 74.7243C91.2773 74.7158 91.082 74.7014 90.9634 74.6847L90.8732 75.3242ZM91.5438 75.3698L91.5248 76.0154C92.7241 76.0507 93.6999 75.9766 94.4017 75.7538C94.7554 75.6414 95.0851 75.4774 95.3355 75.2292C95.6006 74.9666 95.7524 74.6324 95.7636 74.2538L95.118 74.2347L94.4725 74.2157C94.4715 74.2503 94.4652 74.2732 94.4263 74.3117C94.3728 74.3647 94.2526 74.4459 94.0107 74.5227C93.5211 74.6782 92.722 74.7585 91.5629 74.7243L91.5438 75.3698ZM107.096 67.9461L107.7 68.1749V68.1749L107.096 67.9461ZM105.921 71.8657L105.295 71.7057L105.081 72.5418L105.944 72.5111L105.921 71.8657ZM112.03 75.0181L112.635 75.2447L112.637 75.2403L112.03 75.0181ZM110.772 78.2373L110.172 77.9983L110.17 78.0045L110.772 78.2373ZM109.224 82.5335L108.611 82.3291L108.61 82.3345L109.224 82.5335ZM108.735 83.3461L109.065 83.901L109.083 83.8907L109.099 83.8794L108.735 83.3461ZM106.911 82.9822L107.429 82.5971V82.5971L106.911 82.9822ZM107.392 78.0601L106.771 77.8811L106.77 77.8863L107.392 78.0601ZM108.348 74.5476L108.982 74.6725L109.142 73.8635L108.318 73.9025L108.348 74.5476ZM105.107 74.9171L105.023 74.2768L104.594 74.3332L104.483 74.7509L105.107 74.9171ZM103.04 81.9117L102.442 81.6672L102.438 81.6766L103.04 81.9117ZM100.748 82.516L100.241 82.9163L100.247 82.9244L100.748 82.516ZM100.323 80.255L99.72 80.0244L99.7169 80.0328L100.323 80.255ZM101.733 75.412L102.364 75.5478L102.557 74.6518L101.648 74.7717L101.733 75.412ZM99.0608 74.868L98.5721 75.2901V75.2901L99.0608 74.868ZM99.4354 72.6822L99.2134 72.0757L99.2073 72.078L99.4354 72.6822ZM102.399 72.0977L102.477 72.7388L102.938 72.6826L103.032 72.2275L102.399 72.0977ZM104.719 65.2915L104.185 64.9289L104.185 64.9289L104.719 65.2915ZM111.586 64.6671L111.207 65.1898L111.211 65.1924L111.586 64.6671ZM112.851 69.098L113.41 69.4223L113.415 69.4128L112.851 69.098ZM110.858 69.1943L110.422 69.6704L110.428 69.6762L110.435 69.6819L110.858 69.1943ZM109.908 68.1325L110.433 67.7564L110.432 67.7561L109.908 68.1325ZM108.248 66.5587L108.267 65.9131C107.784 65.8989 107.412 66.172 107.153 66.4838C106.895 66.7945 106.68 67.2203 106.492 67.7173L107.096 67.9461L107.7 68.1749C107.867 67.7348 108.021 67.4608 108.147 67.309C108.272 67.1583 108.299 67.2063 108.229 67.2042L108.248 66.5587ZM107.096 67.9461L106.492 67.7173C106.125 68.6874 105.726 70.0206 105.295 71.7057L105.921 71.8657L106.546 72.0256C106.973 70.359 107.357 69.0791 107.7 68.1749L107.096 67.9461ZM105.921 71.8657L105.944 72.5111C107.517 72.455 109.045 72.4489 110.528 72.4927L110.547 71.8471L110.566 71.2016C109.054 71.1569 107.498 71.1632 105.898 71.2202L105.921 71.8657ZM110.547 71.8471L110.528 72.4927C111.114 72.5099 111.433 72.6302 111.592 72.7543C111.715 72.85 111.806 72.995 111.797 73.3054L112.442 73.3245L113.088 73.3435C113.106 72.7071 112.895 72.1325 112.387 71.7357C111.914 71.3674 111.272 71.2224 110.566 71.2016L110.547 71.8471ZM112.442 73.3245L111.797 73.3054C111.788 73.6134 111.679 74.0998 111.424 74.7958L112.03 75.0181L112.637 75.2403C112.906 74.5045 113.072 73.8618 113.088 73.3435L112.442 73.3245ZM112.03 75.0181L111.426 74.7914C111.166 75.4835 110.749 76.5515 110.172 77.9983L110.772 78.2373L111.372 78.4764C111.949 77.0282 112.371 75.95 112.635 75.2447L112.03 75.0181ZM110.772 78.2373L110.17 78.0045C109.607 79.4616 109.087 80.9031 108.612 82.3291L109.224 82.5335L109.837 82.738C110.306 81.3318 110.819 79.9092 111.375 78.4702L110.772 78.2373ZM109.224 82.5335L108.61 82.3345C108.554 82.508 108.498 82.6296 108.449 82.7108C108.4 82.793 108.369 82.8141 108.371 82.8129L108.735 83.3461L109.099 83.8794C109.475 83.6227 109.694 83.1786 109.839 82.7326L109.224 82.5335ZM108.735 83.3461L108.404 82.7913C108.37 82.8116 108.226 82.8659 107.871 82.8554L107.852 83.501L107.833 84.1465C108.269 84.1594 108.714 84.1105 109.065 83.901L108.735 83.3461ZM107.852 83.501L107.871 82.8554C107.711 82.8507 107.573 82.7913 107.429 82.5971L106.911 82.9822L106.392 83.3672C106.745 83.8424 107.235 84.1289 107.833 84.1465L107.852 83.501ZM106.911 82.9822L107.429 82.5971C107.283 82.4008 107.194 82.1342 107.206 81.7503L106.56 81.7313L105.914 81.7122C105.896 82.3269 106.041 82.8941 106.392 83.3672L106.911 82.9822ZM106.56 81.7313L107.206 81.7503C107.211 81.5614 107.27 81.1813 107.409 80.5689C107.545 79.9717 107.746 79.1943 108.014 78.2338L107.392 78.0601L106.77 77.8863C106.499 78.8568 106.292 79.6569 106.15 80.2834C106.011 80.8947 105.924 81.3847 105.914 81.7122L106.56 81.7313ZM107.392 78.0601L108.013 78.239C108.565 76.3216 108.894 75.1178 108.982 74.6725L108.348 74.5476L107.715 74.4227C107.641 74.7996 107.332 75.9374 106.771 77.8811L107.392 78.0601ZM108.348 74.5476L108.318 73.9025C107.836 73.9253 106.726 74.0529 105.023 74.2768L105.107 74.9171L105.191 75.5575C106.913 75.3311 107.963 75.2124 108.379 75.1927L108.348 74.5476ZM105.107 74.9171L104.483 74.7509C103.491 78.4736 102.813 80.7603 102.442 81.6672L103.04 81.9117L103.638 82.1562C104.047 81.1564 104.746 78.78 105.731 75.0834L105.107 74.9171ZM103.04 81.9117L102.438 81.6766C102.263 82.1244 102.101 82.4045 101.968 82.5608C101.836 82.715 101.799 82.6763 101.854 82.6779L101.835 83.3235L101.816 83.969C102.301 83.9833 102.68 83.7157 102.95 83.3993C103.219 83.085 103.444 82.6528 103.641 82.1468L103.04 81.9117ZM101.835 83.3235L101.854 82.6779C101.894 82.6791 101.858 82.6922 101.729 82.5966C101.606 82.5056 101.446 82.35 101.248 82.1076L100.748 82.516L100.247 82.9244C100.482 83.2117 100.719 83.4555 100.959 83.6337C101.192 83.8072 101.484 83.9592 101.816 83.969L101.835 83.3235ZM100.748 82.516L101.254 82.1158C101.054 81.8618 100.921 81.6578 100.842 81.5003C100.758 81.3343 100.759 81.2686 100.758 81.2758L100.113 81.2568L99.4673 81.2377C99.4584 81.5376 99.5605 81.828 99.6884 82.0818C99.8206 82.3441 100.01 82.6234 100.241 82.9163L100.748 82.516ZM100.113 81.2568L100.758 81.2758C100.765 81.0492 100.817 80.7844 100.93 80.4772L100.323 80.255L99.7169 80.0328C99.5671 80.4415 99.4789 80.8446 99.4673 81.2377L100.113 81.2568ZM100.323 80.255L100.927 80.4856C101.5 78.9854 101.979 77.3389 102.364 75.5478L101.733 75.412L101.101 75.2762C100.728 77.012 100.267 78.5942 99.7201 80.0244L100.323 80.255ZM101.733 75.412L101.648 74.7717C101.024 74.8541 100.544 74.8859 100.198 74.8757L100.179 75.5212L100.16 76.1668C100.605 76.1799 101.161 76.1389 101.817 76.0523L101.733 75.412ZM100.179 75.5212L100.198 74.8757C100.072 74.872 99.855 74.7993 99.5496 74.4458L99.0608 74.868L98.5721 75.2901C98.9997 75.7852 99.5279 76.1481 100.16 76.1668L100.179 75.5212ZM99.0608 74.868L99.5496 74.4458C99.2703 74.1225 99.1692 73.822 99.1779 73.5275L98.5324 73.5085L97.8868 73.4894C97.867 74.1589 98.1183 74.7648 98.5721 75.2901L99.0608 74.868ZM98.5324 73.5085L99.1779 73.5275C99.1764 73.5795 99.1459 73.5838 99.2013 73.5331C99.2673 73.4727 99.4064 73.3836 99.6636 73.2864L99.4354 72.6822L99.2073 72.078C98.8721 72.2046 98.5644 72.3651 98.3294 72.5801C98.0839 72.8048 97.898 73.1103 97.8868 73.4894L98.5324 73.5085ZM99.4354 72.6822L99.6575 73.2887C100.193 73.0926 101.118 72.9044 102.477 72.7388L102.399 72.0977L102.321 71.4566C100.948 71.6239 99.8971 71.8254 99.2134 72.0758L99.4354 72.6822ZM102.399 72.0977L103.032 72.2275C103.693 69.0024 104.447 66.8422 105.253 65.6542L104.719 65.2915L104.185 64.9289C103.226 66.3422 102.433 68.7194 101.766 71.9679L102.399 72.0977ZM104.719 65.2915L105.253 65.6542C106.005 64.5474 107.057 64.0166 108.503 64.0593L108.522 63.4137L108.541 62.7682C106.681 62.7133 105.199 63.4344 104.185 64.9289L104.719 65.2915ZM108.522 63.4137L108.503 64.0593C109.254 64.0814 110.151 64.4233 111.207 65.1898L111.586 64.6671L111.966 64.1445C110.795 63.2946 109.649 62.8008 108.541 62.7682L108.522 63.4137ZM111.586 64.6671L111.211 65.1924C112.237 65.9264 112.613 66.6583 112.592 67.3846L113.237 67.4037L113.883 67.4227C113.921 66.1177 113.197 65.0252 111.962 64.1419L111.586 64.6671ZM113.237 67.4037L112.592 67.3846C112.573 68.0306 112.455 68.4819 112.287 68.7833L112.851 69.098L113.415 69.4128C113.72 68.8666 113.86 68.1884 113.883 67.4227L113.237 67.4037ZM112.851 69.098L112.293 68.7738C112.134 69.0468 112.026 69.0478 111.974 69.0463L111.955 69.6919L111.936 70.3374C112.607 70.3572 113.096 69.9623 113.41 69.4222L112.851 69.098ZM111.955 69.6919L111.974 69.0463C111.807 69.0414 111.579 68.9645 111.282 68.7067L110.858 69.1943L110.435 69.6819C110.877 70.0661 111.38 70.321 111.936 70.3374L111.955 69.6919ZM110.858 69.1943L111.295 68.7182C110.955 68.4071 110.669 68.0863 110.433 67.7564L109.908 68.1325L109.382 68.5085C109.676 68.9179 110.023 69.305 110.422 69.6704L110.858 69.1943ZM109.908 68.1325L110.432 67.7561C110.05 67.2227 109.698 66.7945 109.379 66.4915C109.219 66.3398 109.053 66.2058 108.881 66.1056C108.714 66.0077 108.505 65.9201 108.267 65.9131L108.248 66.5587L108.229 67.2042C108.173 67.2026 108.168 67.1845 108.229 67.2204C108.287 67.2541 108.373 67.3181 108.49 67.4287C108.723 67.6504 109.02 68.0037 109.383 68.5088L109.908 68.1325ZM124.982 71.9112L124.473 72.3088L124.477 72.3147L124.482 72.3204L124.982 71.9112ZM125.081 79.0731L124.468 78.8687L124.466 78.873L125.081 79.0731ZM123.423 82.6941L122.895 82.3225L122.89 82.33L123.423 82.6941ZM121.827 78.977L122.439 79.1823L122.442 79.1753L122.444 79.1682L121.827 78.977ZM121.661 74.9662L121.218 74.4963L121.209 74.5052L121.2 74.5144L121.661 74.9662ZM121.127 75.5449L120.635 75.1268V75.1268L121.127 75.5449ZM120.617 76.2018L120.095 75.8204L120.09 75.8279L120.617 76.2018ZM120.13 76.9111L119.591 76.5566L119.586 76.5629L119.582 76.5694L120.13 76.9111ZM119.615 77.7229L119.072 77.3744L119.066 77.383L119.615 77.7229ZM119.126 78.5355L119.674 78.8773L119.68 78.8679L119.686 78.8584L119.126 78.5355ZM118.637 79.3481L118.081 79.0203L118.077 79.027L118.637 79.3481ZM113.393 82.7599L112.893 83.1679L112.898 83.1746L113.393 82.7599ZM113.006 80.1382L112.414 79.878L112.411 79.8865L113.006 80.1382ZM113.59 78.7082L112.987 78.4769L112.984 78.4862L112.981 78.4956L113.59 78.7082ZM113.906 77.632L113.281 77.4704L113.278 77.484L113.275 77.4978L113.906 77.632ZM114.149 76.4245L114.788 76.5203L114.788 76.5174L114.149 76.4245ZM114.283 75.3946L113.646 75.2845L113.642 75.307L113.64 75.3297L114.283 75.3946ZM114.419 74.2615L113.777 74.1979L113.777 74.1996L114.419 74.2615ZM114.917 70.5546L114.348 70.2488L114.339 70.2656L114.331 70.2828L114.917 70.5546ZM117.175 71.0864L116.725 71.5501L116.733 71.557L117.175 71.0864ZM117.074 77.1569L116.456 76.9669L117.625 77.4932L117.074 77.1569ZM120.262 72.4439L119.755 72.0447L119.754 72.0459L120.262 72.4439ZM122.668 70.6282L122.649 71.2738C123.317 71.2935 123.921 71.6019 124.473 72.3088L124.982 71.9112L125.491 71.5136C124.748 70.5627 123.808 70.0158 122.687 69.9827L122.668 70.6282ZM124.982 71.9112L124.482 72.3204C125.064 73.0313 125.315 73.7455 125.294 74.479L125.939 74.4981L126.585 74.5171C126.617 73.4259 126.23 72.4154 125.481 71.502L124.982 71.9112ZM125.939 74.4981L125.294 74.479C125.253 75.871 124.98 77.3334 124.468 78.8687L125.081 79.0731L125.693 79.2774C126.24 77.6392 126.539 76.0516 126.585 74.5171L125.939 74.4981ZM125.081 79.0731L124.466 78.873C123.964 80.4139 123.436 81.553 122.895 82.3226L123.423 82.6941L123.951 83.0656C124.597 82.1472 125.174 80.8723 125.695 79.2731L125.081 79.0731ZM123.423 82.6941L122.89 82.33C122.345 83.128 121.94 83.2964 121.7 83.2893L121.681 83.9349L121.662 84.5804C122.592 84.6079 123.348 83.9491 123.956 83.0581L123.423 82.6941ZM121.681 83.9349L121.7 83.2893C121.634 83.2874 121.608 83.2751 121.604 83.273C121.603 83.2726 121.599 83.272 121.59 83.2573C121.56 83.2122 121.5 83.0639 121.51 82.7152L120.864 82.6961L120.219 82.6771C120.205 83.1374 120.269 83.6001 120.511 83.968C120.782 84.3784 121.203 84.5669 121.662 84.5804L121.681 83.9349ZM120.864 82.6961L121.51 82.7152C121.517 82.4814 121.586 82.0749 121.744 81.4634C121.899 80.8637 122.13 80.1045 122.439 79.1823L121.827 78.977L121.215 78.7718C120.9 79.7093 120.659 80.4997 120.493 81.1397C120.331 81.7678 120.23 82.2911 120.219 82.6771L120.864 82.6961ZM121.827 78.977L122.444 79.1682C122.92 77.6317 123.194 76.4525 123.216 75.6841L122.571 75.6651L121.925 75.646C121.908 76.2204 121.686 77.2491 121.21 78.7859L121.827 78.977ZM122.571 75.6651L123.216 75.6841C123.227 75.3348 123.215 75.0165 123.159 74.766C123.131 74.6437 123.081 74.4829 122.977 74.3381C122.858 74.1743 122.651 74.0134 122.361 74.0048L122.342 74.6504L122.323 75.2959C122.235 75.2933 122.147 75.2678 122.071 75.2226C121.999 75.1796 121.955 75.1291 121.93 75.0951C121.887 75.0362 121.888 75.0029 121.898 75.0497C121.918 75.1374 121.935 75.3239 121.925 75.646L122.571 75.6651ZM122.342 74.6504L122.361 74.0048C121.906 73.9914 121.521 74.2108 121.218 74.4963L121.661 74.9662L122.104 75.4362C122.181 75.3632 122.239 75.3272 122.276 75.3103C122.309 75.2948 122.323 75.2959 122.323 75.2959L122.342 74.6504ZM121.661 74.9662L121.2 74.5144C120.979 74.7392 120.79 74.9437 120.635 75.1268L121.127 75.5449L121.619 75.9631C121.749 75.81 121.916 75.6287 122.122 75.4181L121.661 74.9662ZM121.127 75.5449L120.635 75.1268C120.478 75.3111 120.298 75.5437 120.095 75.8204L120.617 76.2018L121.138 76.5832C121.33 76.3203 121.49 76.1149 121.619 75.9631L121.127 75.5449ZM120.617 76.2018L120.09 75.8279C119.907 76.0863 119.74 76.3293 119.591 76.5566L120.13 76.9111L120.67 77.2657C120.81 77.0535 120.967 76.8236 121.143 76.5758L120.617 76.2018ZM120.13 76.9111L119.582 76.5694C119.458 76.7692 119.288 77.0372 119.072 77.3745L119.615 77.7229L120.159 78.0714C120.377 77.7323 120.55 77.4591 120.678 77.2528L120.13 76.9111ZM119.615 77.7229L119.066 77.383C118.865 77.7077 118.699 77.9847 118.567 78.2127L119.126 78.5355L119.686 78.8584C119.808 78.6459 119.968 78.3811 120.165 78.0629L119.615 77.7229ZM119.126 78.5355L118.578 78.1938C118.448 78.4034 118.281 78.6795 118.081 79.0203L118.637 79.3481L119.194 79.6759C119.392 79.3393 119.552 79.0737 119.674 78.8773L119.126 78.5355ZM118.637 79.3481L118.077 79.027C117.241 80.4862 116.519 81.5438 115.912 82.2251C115.609 82.5658 115.351 82.7926 115.141 82.9292C114.927 83.0674 114.804 83.0859 114.754 83.0844L114.735 83.7299L114.715 84.3755C115.121 84.3874 115.503 84.2335 115.843 84.0132C116.185 83.7914 116.53 83.4739 116.877 83.0842C117.571 82.3049 118.344 81.1582 119.197 79.6692L118.637 79.3481ZM114.735 83.7299L114.754 83.0844C114.754 83.0844 114.677 83.0792 114.507 82.9561C114.342 82.8372 114.136 82.6407 113.889 82.3453L113.393 82.7599L112.898 83.1746C113.183 83.5152 113.467 83.7984 113.75 84.0027C114.027 84.203 114.354 84.3648 114.715 84.3755L114.735 83.7299ZM113.393 82.7599L113.894 82.3521C113.64 82.0407 113.468 81.7924 113.363 81.6026C113.248 81.3947 113.255 81.329 113.254 81.3602L112.608 81.3412L111.963 81.3221C111.953 81.646 112.086 81.9631 112.233 82.2281C112.39 82.5112 112.614 82.826 112.893 83.1678L113.393 82.7599ZM112.608 81.3412L113.254 81.3602C113.254 81.367 113.26 81.2967 113.325 81.101C113.384 80.9237 113.474 80.6881 113.6 80.3899L113.006 80.1382L112.411 79.8865C112.278 80.2009 112.172 80.4721 112.098 80.6959C112.031 80.9012 111.968 81.126 111.963 81.3221L112.608 81.3412ZM113.006 80.1382L113.597 80.3984C113.875 79.7656 114.079 79.2699 114.2 78.9207L113.59 78.7082L112.981 78.4956C112.876 78.7945 112.69 79.2521 112.414 79.878L113.006 80.1382ZM113.59 78.7082L114.193 78.9394C114.337 78.5654 114.452 78.1742 114.538 77.7662L113.906 77.632L113.275 77.4978C113.201 77.8433 113.105 78.1694 112.987 78.4769L113.59 78.7082ZM113.906 77.632L114.532 77.7937C114.635 77.3935 114.72 76.9688 114.788 76.5203L114.149 76.4245L113.51 76.3287C113.449 76.7378 113.372 77.1182 113.281 77.4704L113.906 77.632ZM114.149 76.4245L114.788 76.5174C114.853 76.0685 114.899 75.7143 114.925 75.4596L114.283 75.3946L113.64 75.3297C113.617 75.556 113.574 75.8883 113.51 76.3316L114.149 76.4245ZM114.283 75.3946L114.919 75.5048C114.965 75.2394 115.012 74.8413 115.062 74.3235L114.419 74.2615L113.777 74.1996C113.727 74.7126 113.683 75.0699 113.646 75.2845L114.283 75.3946ZM114.419 74.2615L115.062 74.3251C115.172 73.211 115.268 72.3524 115.35 71.7456C115.39 71.4416 115.427 71.2075 115.458 71.039C115.495 70.8439 115.514 70.8012 115.502 70.8264L114.917 70.5546L114.331 70.2828C114.264 70.427 114.221 70.6279 114.189 70.8012C114.151 71.0012 114.111 71.2602 114.069 71.574C113.985 72.2028 113.888 73.0787 113.777 74.1979L114.419 74.2615ZM114.917 70.5546L115.485 70.8603C115.506 70.8219 115.522 70.7967 115.534 70.7816C115.545 70.7661 115.547 70.766 115.538 70.7739C115.529 70.782 115.504 70.8023 115.461 70.8203C115.415 70.8392 115.358 70.8519 115.295 70.8501L115.315 70.2045L115.334 69.5589C115.059 69.5508 114.838 69.6693 114.685 69.804C114.539 69.9326 114.431 70.0942 114.348 70.2488L114.917 70.5546ZM115.315 70.2045L115.295 70.8501C115.751 70.8635 116.225 71.0646 116.725 71.55L117.175 71.0864L117.625 70.6228C116.953 69.9709 116.186 69.5841 115.334 69.5589L115.315 70.2045ZM117.175 71.0864L116.733 71.557C117.285 72.0759 117.395 72.4063 117.39 72.5659L118.035 72.585L118.681 72.604C118.703 71.8685 118.239 71.1998 117.617 70.6158L117.175 71.0864ZM118.035 72.585L117.39 72.5659C117.361 73.5436 117.062 75 116.456 76.9669L117.074 77.1569L117.691 77.3469C118.305 75.3525 118.647 73.7609 118.681 72.604L118.035 72.585ZM117.074 77.1569L117.625 77.4932C118.794 75.5762 119.843 74.028 120.771 72.8419L120.262 72.4439L119.754 72.0459C118.784 73.2849 117.707 74.8786 116.522 76.8206L117.074 77.1569ZM120.262 72.4439L120.77 72.8431C121.236 72.2508 121.639 71.8395 121.978 71.5835C122.325 71.3215 122.541 71.2706 122.649 71.2738L122.668 70.6282L122.687 69.9827C122.158 69.9671 121.654 70.2094 121.2 70.5526C120.737 70.9018 120.256 71.4077 119.755 72.0447L120.262 72.4439ZM137.35 78.1687L137.042 77.6012L137.038 77.6032L137.35 78.1687ZM130.847 78.7263L131.005 78.1003L130.441 77.9572L130.24 78.5041L130.847 78.7263ZM130.776 81.1278L130.248 81.4998L130.256 81.511L130.264 81.5218L130.776 81.1278ZM135.245 81.1821L135.102 80.5524L135.099 80.5531L135.245 81.1821ZM136.005 83.453L135.716 82.8756L135.712 82.8775L136.005 83.453ZM128.686 82.7718L129.164 82.3379V82.3379L128.686 82.7718ZM128.664 75.6123L128.106 75.2869L128.103 75.2924L128.664 75.6123ZM131.528 72.2853L131.925 72.7946L131.929 72.7909L131.528 72.2853ZM137.847 72.7043L137.345 73.11L137.348 73.114L137.847 72.7043ZM135.644 74.681L135.197 75.147V75.147L135.644 74.681ZM133.391 74.8213L133.808 75.3148L133.817 75.3068L133.391 74.8213ZM131.919 76.5353L131.38 76.1793L130.817 77.0321L131.829 77.1748L131.919 76.5353ZM139.147 75.9474L138.502 75.9284C138.487 76.4288 138.138 77.0058 137.042 77.6012L137.35 78.1687L137.658 78.7362C138.909 78.0569 139.758 77.1531 139.793 75.9665L139.147 75.9474ZM137.35 78.1687L137.038 77.6032C135.973 78.1907 134.906 78.4584 133.828 78.4266L133.809 79.0721L133.789 79.7177C135.121 79.757 136.415 79.4224 137.662 78.7342L137.35 78.1687ZM133.809 79.0721L133.828 78.4266C132.648 78.3918 131.712 78.2794 131.005 78.1003L130.847 78.7263L130.688 79.3524C131.52 79.5632 132.559 79.6814 133.789 79.7177L133.809 79.0721ZM130.847 78.7263L130.24 78.5041C130.049 79.0259 129.943 79.5569 129.928 80.0948L130.573 80.1138L131.219 80.1329C131.23 79.7411 131.307 79.3471 131.453 78.9485L130.847 78.7263ZM130.573 80.1138L129.928 80.0948C129.913 80.601 129.976 81.1142 130.248 81.4998L130.776 81.1278L131.304 80.7557C131.278 80.719 131.206 80.5563 131.219 80.1329L130.573 80.1138ZM130.776 81.1278L130.264 81.5218C130.463 81.7803 130.755 81.9066 131.004 81.9754C131.266 82.0475 131.574 82.0817 131.91 82.0916L131.929 81.4461L131.948 80.8005C131.665 80.7922 131.471 80.7642 131.348 80.7302C131.213 80.6929 131.238 80.6691 131.287 80.7337L130.776 81.1278ZM131.929 81.4461L131.91 82.0916C133.238 82.1308 134.402 82.0415 135.392 81.8111L135.245 81.1821L135.099 80.5531C134.249 80.7509 133.203 80.8375 131.948 80.8005L131.929 81.4461ZM135.245 81.1821L135.389 81.8118C135.857 81.7051 136.21 81.6256 136.45 81.5731C136.57 81.5468 136.66 81.5278 136.72 81.5156C136.75 81.5094 136.769 81.5058 136.779 81.504C136.785 81.5031 136.783 81.5034 136.778 81.5042C136.775 81.5046 136.767 81.5057 136.756 81.5067C136.749 81.5073 136.721 81.5099 136.683 81.5088L136.702 80.8633L136.721 80.2177C136.658 80.2159 136.604 80.2242 136.603 80.2244C136.586 80.2268 136.569 80.2295 136.556 80.2318C136.53 80.2364 136.498 80.2426 136.463 80.2496C136.393 80.2638 136.296 80.2845 136.174 80.3113C135.928 80.3651 135.571 80.4455 135.102 80.5524L135.245 81.1821ZM136.702 80.8633L136.683 81.5088C136.826 81.513 136.932 81.5281 137.007 81.547C137.082 81.5659 137.114 81.5852 137.12 81.5897C137.122 81.5911 137.108 81.5809 137.098 81.5593C137.089 81.5402 137.096 81.5387 137.095 81.5726L137.74 81.5917L138.386 81.6107C138.398 81.1869 138.233 80.7926 137.862 80.5323C137.537 80.3045 137.124 80.2296 136.721 80.2177L136.702 80.8633ZM137.74 81.5917L137.095 81.5726C137.086 81.8526 136.828 82.3186 135.716 82.8756L136.005 83.453L136.295 84.0304C137.456 83.4484 138.354 82.6736 138.386 81.6107L137.74 81.5917ZM136.005 83.453L135.712 82.8775C134.704 83.3908 133.523 83.6382 132.15 83.5977L132.131 84.2432L132.112 84.8888C133.666 84.9346 135.067 84.6552 136.298 84.0285L136.005 83.453ZM132.131 84.2432L132.15 83.5977C130.852 83.5594 129.88 83.1272 129.164 82.3379L128.686 82.7718L128.207 83.2057C129.193 84.293 130.518 84.8418 132.112 84.8888L132.131 84.2432ZM128.686 82.7718L129.164 82.3379C128.422 81.5204 128.078 80.5928 128.109 79.5243L127.464 79.5052L126.818 79.4862C126.777 80.8965 127.247 82.1467 128.207 83.2057L128.686 82.7718ZM127.464 79.5052L128.109 79.5243C128.143 78.3945 128.503 77.1994 129.225 75.9321L128.664 75.6123L128.103 75.2924C127.299 76.7024 126.859 78.1025 126.818 79.4862L127.464 79.5052ZM128.664 75.6123L129.222 75.9376C129.964 74.6646 130.866 73.6199 131.925 72.7946L131.528 72.2853L131.131 71.7759C129.932 72.7104 128.925 73.8837 128.106 75.2869L128.664 75.6123ZM131.528 72.2853L131.929 72.7909C132.979 71.9572 133.941 71.607 134.829 71.6332L134.848 70.9876L134.867 70.3421C133.586 70.3043 132.335 70.8192 131.126 71.7796L131.528 72.2853ZM134.848 70.9876L134.829 71.6332C135.69 71.6586 136.528 72.0982 137.345 73.11L137.847 72.7043L138.35 72.2987C137.371 71.0866 136.21 70.3817 134.867 70.3421L134.848 70.9876ZM137.847 72.7043L137.348 73.114C138.18 74.128 138.527 75.0617 138.502 75.9284L139.147 75.9474L139.793 75.9665C139.83 74.6985 139.311 73.4701 138.347 72.2947L137.847 72.7043ZM136.164 75.4459L136.81 75.4649C136.818 75.1719 136.682 74.9243 136.572 74.7624C136.45 74.5827 136.283 74.3994 136.091 74.2151L135.644 74.681L135.197 75.147C135.356 75.3004 135.453 75.4134 135.504 75.4888C135.529 75.5255 135.535 75.5413 135.533 75.538C135.533 75.5357 135.516 75.4951 135.518 75.4268L136.164 75.4459ZM135.644 74.681L136.091 74.2151C135.679 73.8196 135.195 73.5306 134.644 73.5144L134.625 74.1599L134.606 74.8055C134.71 74.8086 134.905 74.867 135.197 75.147L135.644 74.681ZM134.625 74.1599L134.644 73.5144C134.334 73.5052 134.038 73.6105 133.779 73.7492C133.515 73.8906 133.243 74.0918 132.965 74.3359L133.391 74.8213L133.817 75.3068C134.052 75.1007 134.242 74.9667 134.39 74.8877C134.542 74.8059 134.607 74.8055 134.606 74.8055L134.625 74.1599ZM133.391 74.8213L132.974 74.328C132.404 74.8095 131.875 75.4312 131.38 76.1793L131.919 76.5353L132.458 76.8913C132.902 76.2198 133.353 75.6988 133.808 75.3147L133.391 74.8213ZM131.919 76.5353L131.829 77.1748C132.019 77.2017 132.271 77.2177 132.571 77.2265L132.59 76.581L132.609 75.9354C132.323 75.927 132.128 75.9126 132.009 75.8958L131.919 76.5353ZM132.59 76.581L132.571 77.2265C133.77 77.2619 134.746 77.1878 135.448 76.9649C135.801 76.8526 136.131 76.6885 136.381 76.4404C136.647 76.1777 136.798 75.8435 136.81 75.4649L136.164 75.4459L135.518 75.4268C135.517 75.4614 135.511 75.4844 135.472 75.5229C135.419 75.5759 135.299 75.657 135.057 75.7338C134.567 75.8893 133.768 75.9696 132.609 75.9354L132.59 76.581Z" fill="black" mask="url(#path-4-outside-1_189_496)"/>
<rect x="15.708" y="41.4635" width="24" height="24" rx="12" transform="rotate(-3.6459 15.708 41.4635)" fill="#FFF200"/>
<path d="M30.8193 51.0019C30.9662 53.3072 27.8425 53.5062 27.6567 55.1514L30.9401 54.9421L31.0088 56.02L26.3682 56.3157L26.3262 55.657C26.1558 52.9824 29.7168 52.8858 29.6043 51.1194C29.5629 50.4707 29.0859 50.0602 28.3973 50.1041C27.6687 50.1505 27.1311 50.6757 27.1683 51.5752L25.9109 51.6553C25.9202 50.0715 26.9414 49.1146 28.3486 49.025C29.7457 48.9359 30.7385 49.7344 30.8193 51.0019Z" fill="black"/>
</svg>
