<svg width="211" height="152" viewBox="0 0 211 152" fill="none" xmlns="http://www.w3.org/2000/svg">
<path d="M150.528 47.6176C168.065 46.557 174.798 53.5119 177.219 61.0326C178.132 63.8558 179.116 66.6768 179.493 69.5423C180.238 74.9959 181.341 80.4381 179.622 86.0203C177.122 94.1007 169.387 99.5706 157.752 100.545C149.686 101.23 100.543 103.191 84.065 103.789C74.4143 104.145 64.7262 104.452 55.0762 104.834C50.7513 104.996 46.5948 104.825 42.5501 103.666C36.3746 101.893 32.8364 98.648 31.9036 94.0586C31.1435 90.3975 30.4906 86.7331 30.3374 83.0276C30.1434 78.0361 29.9113 72.9702 30.6841 67.9985C32.164 58.234 37.9737 54.1124 51.3063 51.3678C60.1599 49.5728 101.465 48.7181 106.148 48.5697C106.188 48.6946 135.758 47.909 150.528 47.6176ZM85.6905 73.777C88.0817 73.575 86.6042 78.8971 86.6468 81.3693C86.6486 82.5556 86.5797 83.7693 86.8318 84.9476C87.0846 86.1511 88.1485 86.9756 89.9726 86.943C91.8673 86.883 92.8006 85.8438 92.9076 84.7046C93.0947 82.7046 93.1738 80.6829 92.8962 78.6977C92.6257 76.9394 92.0677 75.1398 91.157 73.5028C89.7186 71.0243 87.2319 70.4721 83.65 71.4943C83.047 71.6649 82.4075 71.8113 81.5559 72.0402C81.5024 70.3508 81.491 68.862 81.4081 67.3754C81.3825 66.5685 81.5682 65.654 81.0827 65.0131C80.486 64.2496 79.3522 63.4778 78.1994 63.2367C76.6136 62.8831 75.496 63.7515 75.0648 64.8252C74.7313 65.593 74.6139 66.4044 74.5671 67.1884C74.2472 72.9029 73.9639 78.6414 73.7155 84.3537C73.6688 85.1376 73.9462 85.987 74.1831 86.6862C74.6131 87.8336 75.9462 88.1195 76.913 88.1394C77.8441 88.1603 79.1445 87.4124 79.7322 86.7628C80.3216 86.1635 80.3278 85.2294 80.4102 84.4444C80.6625 82.2405 80.8432 80.0388 81.0239 77.8372C81.1737 75.7879 82.2729 74.3396 85.6905 73.777ZM57.1168 90.1802C63.8948 89.5111 67.7282 86.2598 66.5524 81.9052C65.8194 79.1015 63.1959 77.6197 58.0629 77.1261C54.1503 76.7453 52.8391 74.8938 55.1267 72.5497C56.1314 71.5082 57.6772 70.601 59.2318 69.9712C60.6816 69.4205 62.5438 69.4624 64.1039 69.0091C65.1676 68.6978 66.5776 68.0221 66.7372 67.4113C66.896 66.7752 66.7242 65.872 65.0256 65.3453C63.327 64.8186 61.1724 64.584 59.3183 64.7942C53.4697 65.4339 48.9635 68.9084 47.9903 73.2049C47.1426 76.9421 50.0563 79.6767 55.3298 80.0901C56.4421 80.1811 57.6551 80.0669 58.6959 80.1601C60.3475 80.335 61.0468 80.9438 61.3893 81.5892C61.9241 82.6576 61.3905 83.8861 59.5777 84.2716C58.1207 84.5955 56.516 84.7725 55.0113 84.7192C53.3279 84.6716 51.6698 84.2951 50.0174 84.095C48.5087 83.9157 47.1201 84.1364 46.4037 85.2444C45.5856 86.5324 46.2459 87.0415 47.1351 87.9977C48.0989 89.0525 51.5756 90.3558 57.1168 90.1802ZM144.442 75.7769C149.198 75.6767 153.293 75.0169 155.877 74.1273C158.779 73.1266 160.275 71.7667 159.101 69.7342C158.534 68.7678 157.503 67.8413 156.337 67.1968C150.874 64.1896 143.189 65.5942 139.22 70.2128C135.941 74.0271 136.886 77.8589 141.685 80.2561C146.158 82.487 153.864 81.7632 157.241 78.7788C157.52 78.5428 157.762 78.2827 157.933 78.0249C158.647 76.8412 157.724 75.9618 155.98 76.2442C154.628 76.489 153.357 77.0341 151.969 77.28C149.123 77.8245 145.041 77.7519 144.442 75.7769ZM109.106 74.1455C107.82 74.2367 106.821 74.3189 105.857 74.3747C101.643 74.6597 98.7237 76.2666 96.9113 78.9238C95.886 80.4455 95.6145 82.0443 97.1624 83.4592C98.7102 84.8741 100.812 85.6909 103.413 85.3308C105.051 85.1022 108.452 84.01 109.34 83.78C109.614 85.6643 111.191 85.7406 112.545 85.5462C114.61 85.2284 114.521 83.5401 114.623 82.2496C114.774 80.2508 115.069 78.2474 114.97 76.2566C114.863 74.0136 113.938 71.9227 111.739 70.276C108.99 68.2177 105.326 67.7785 101.643 69.0058C100.757 69.2863 98.9641 70.3022 100.072 71.3777C100.775 72.1127 102.642 71.1701 104.933 71.1984C108.083 71.2248 108.692 72.3666 109.106 74.1455ZM126.849 67.1721C126.266 66.8373 126.46 66.1749 125.344 65.983C122.646 65.5385 121.381 66.2601 121.066 68.7436C120.554 72.9245 120.58 77.1389 120.427 81.3337C120.401 81.6374 120.482 81.9377 120.598 82.2117C121.063 83.3327 121.808 84.2683 123.773 84.1555C125.701 84.0187 126.387 83.0631 126.491 81.8482C126.646 79.9503 126.872 78.0501 126.848 76.1578C126.806 72.6002 128.223 69.8798 133.885 68.9937C134.776 68.8645 136.739 68.7013 136.188 67.1286C136.225 66.0421 133.928 65.8372 132.856 65.8964C130.999 66.0058 129.123 66.6458 126.849 67.1721Z" fill="black"/>
<path d="M154.884 71.0293C154.894 71.3571 150.5 71.5973 149.142 71.6404C147.569 71.6902 145.924 71.7171 145.911 71.3137C146.348 70.4164 147.315 69.3257 150.173 69.1846C152.496 69.0605 154.272 69.7867 154.884 71.0293Z" fill="black"/>
<path d="M100.327 81.693C99.8232 80.4722 100.514 79.6931 101.96 79.0163C104.322 77.9066 106.565 77.5326 109.136 77.3502C108.102 79.7303 106.731 81.6415 103.718 82.5447C102.974 82.7702 101.045 82.9071 100.327 81.693Z" fill="black"/>
<rect width="132" height="34" transform="translate(38.0908 62.5932) rotate(-1.81514)" fill="black"/>
<mask id="path-4-outside-1_189_495" maskUnits="userSpaceOnUse" x="56.1924" y="62.4488" width="97.6165" height="24.0619" fill="black">
<rect fill="white" x="56.1924" y="62.4488" width="97.6165" height="24.0619"/>
<path d="M59.0549 66.1335C60.3976 66.0909 61.8695 66.32 63.4706 66.8206C65.0889 67.3207 66.5922 67.9968 67.9804 68.8488C69.3858 69.7003 70.5646 70.7398 71.5168 71.9675C72.4861 73.1946 72.9913 74.4537 73.0322 75.7447C73.0627 76.7087 72.3177 77.9385 70.7971 79.434C69.2931 80.9119 67.5336 82.2082 65.5185 83.3232C63.5033 84.4381 61.8416 85.0163 60.5334 85.0578C60.2408 85.0671 59.7554 84.7034 59.0773 83.9667C58.4158 83.2123 58.0794 82.6543 58.0679 82.2928C58.0456 81.5871 58.4481 79.61 59.2757 76.3616C60.1199 73.0954 60.6347 70.8564 60.8203 69.6443C60.1876 69.2508 59.6556 68.7766 59.2245 68.2217C58.7928 67.6495 58.5707 67.1654 58.5581 66.7695C58.5451 66.3564 58.7106 66.1444 59.0549 66.1335ZM69.2911 75.1396C69.2737 74.5888 68.743 73.8819 67.699 73.019C66.6545 72.1388 65.4514 71.4188 64.0896 70.8589C64.0272 72.1532 63.3832 74.9391 62.1575 79.2167C62.0958 79.4427 61.9956 79.8163 61.8571 80.3377C61.7352 80.8412 61.6425 81.1802 61.5791 81.3545C63.2481 80.733 64.9564 79.7225 66.704 78.3231C68.4511 76.9065 69.3135 75.8453 69.2911 75.1396ZM76.9224 67.9968C76.9083 67.5492 77.0918 67.0868 77.4729 66.6095C77.8708 66.1144 78.2591 65.8609 78.6378 65.8489C79.0337 65.8363 79.5132 66.2864 80.0763 67.199C80.6393 68.1116 80.9277 68.7831 80.9413 69.2134C80.9544 69.6266 80.8268 69.9494 80.5585 70.1819C80.2902 70.4144 80.0097 70.5353 79.717 70.5445C79.2178 70.5604 78.6308 70.2516 77.956 69.6182C77.2811 68.9848 76.9366 68.4443 76.9224 67.9968ZM77.412 71.2121C78.0145 71.193 78.559 71.5203 79.0456 72.1941C79.5494 72.8674 79.8114 73.5225 79.8316 74.1594C79.842 74.4864 79.5781 75.6751 79.04 77.7254C78.5186 79.7579 77.9938 81.6872 77.4659 83.5132C77.2806 84.191 76.8695 84.5401 76.2326 84.5603C75.8539 84.5723 75.5139 84.4452 75.2125 84.179C74.9278 83.8951 74.7784 83.5294 74.7642 83.0819C74.7495 82.6171 74.9286 81.4742 75.3017 79.6531C75.6914 77.8143 75.978 76.2544 76.1614 74.9736C76.3615 73.6749 76.5469 72.7299 76.7177 72.1387C76.9052 71.5297 77.1366 71.2208 77.412 71.2121ZM89.6973 70.8486C90.3514 70.8278 91.0092 71.1947 91.6706 71.9491C92.3321 72.7035 92.6726 73.3906 92.6923 74.0103C92.7053 74.4234 92.5312 74.6357 92.1697 74.6472C91.9631 74.6537 91.6594 74.5858 91.2586 74.4434C90.8572 74.2838 90.45 74.2106 90.0369 74.2237C89.6409 74.2362 89.0514 74.3927 88.2683 74.6933C87.5025 74.9932 87.1266 75.367 87.1408 75.8145C87.1462 75.9867 87.3865 76.2289 87.8617 76.5412C88.3368 76.8536 88.8552 77.1731 89.417 77.4999C89.9787 77.8268 90.5018 78.2926 90.9862 78.8976C91.4701 79.4854 91.7234 80.1407 91.7464 80.8637C91.7687 81.5694 91.2664 82.3004 90.2392 83.0567C89.2293 83.8124 88.0186 84.2126 86.6071 84.2573C85.2128 84.3015 84.0064 84.021 82.9878 83.4157C81.9692 82.8105 81.4493 82.1722 81.428 81.5008C81.4068 80.8295 81.6716 80.4851 82.2224 80.4677C82.4462 80.4606 82.7157 80.5382 83.031 80.7005C83.9075 81.1724 84.9826 81.3882 86.2565 81.3478C87.5475 81.3069 88.1875 81.1143 88.1766 80.77C88.1657 80.4258 87.9041 80.055 87.3918 79.6577C86.8962 79.2426 86.35 78.8636 85.7533 78.5207C85.1738 78.1772 84.6263 77.7552 84.1107 77.2546C83.6118 76.7362 83.3545 76.2275 83.3387 75.7283C83.3092 74.7987 84.1208 73.765 85.7733 72.6271C87.4253 71.472 88.7333 70.8791 89.6973 70.8486ZM94.0646 79.9631C94.0264 78.7582 94.3631 77.4207 95.0747 75.9508C95.7862 74.4809 96.7367 73.2101 97.9262 72.1386C99.1328 71.0665 100.33 70.5116 101.518 70.474C102.12 70.4549 102.752 70.8312 103.414 71.6028C104.076 72.3572 104.416 73.0443 104.436 73.664C104.45 74.1115 104.251 74.3418 103.838 74.3549C103.631 74.3615 103.344 74.2758 102.977 74.0979C102.609 73.92 102.236 73.8371 101.857 73.8491C101.479 73.8611 100.947 74.2053 100.262 74.8818C99.5934 75.5405 98.9982 76.3348 98.4763 77.2645C97.9711 78.1766 97.7266 78.8908 97.743 79.4072C97.7593 79.9236 97.8647 80.2562 98.0589 80.4052C98.2704 80.5535 98.7548 80.6157 99.5122 80.5917C100.287 80.5672 100.982 80.4762 101.597 80.3189C102.23 80.161 102.69 80.0086 102.978 79.8616C103.283 79.6968 103.556 79.6106 103.797 79.603C104.279 79.5877 104.527 79.7867 104.54 80.1998C104.564 80.9572 103.926 81.7528 102.625 82.5866C101.324 83.4032 100.011 83.8325 98.6858 83.8745C97.8423 83.9013 96.8636 83.4671 95.7497 82.5719C94.6525 81.659 94.0908 80.7894 94.0646 79.9631ZM110.641 80.8593C111.558 80.4168 112.34 79.5563 112.989 78.2779C113.638 76.9995 113.945 75.8094 113.91 74.7077C113.875 73.6061 113.696 72.8536 113.373 72.4503C112.646 72.9041 111.935 73.8312 111.238 75.2318C110.559 76.6318 110.236 77.8568 110.269 78.9068C110.302 79.9396 110.426 80.5905 110.641 80.8593ZM106.817 79.2747C106.749 77.123 107.347 75.0622 108.612 73.0922C109.893 71.1218 111.188 70.1158 112.496 70.0744C113.805 70.0329 114.921 70.4628 115.846 71.3639C116.77 72.2479 117.252 73.344 117.294 74.6522C117.335 75.9432 117.067 77.2699 116.489 78.6322C115.912 79.9945 115.079 81.1409 113.988 82.0714C112.897 82.9848 111.714 83.4617 110.441 83.502C109.494 83.532 108.663 83.1362 107.948 82.3146C107.232 81.4929 106.856 80.4796 106.817 79.2747ZM127.733 69.6174C128.18 69.6032 128.616 69.7531 129.039 70.067C129.479 70.3632 129.705 70.6835 129.716 71.0277C129.735 71.6474 129.265 73.1011 128.303 75.3888C127.359 77.676 126.47 79.522 125.636 80.9269C124.819 82.3313 124.169 83.0411 123.687 83.0564C123.429 83.0646 123.045 82.9044 122.535 82.576C122.042 82.247 121.721 81.9125 121.572 81.5726C121.128 80.5873 120.57 78.7613 119.9 76.0945C119.229 73.4106 118.882 71.7071 118.859 70.9841C118.836 70.2611 119.066 69.892 119.548 69.8767C120.133 69.8582 120.743 70.0715 121.377 70.5166C122.435 71.2757 123.045 72.3161 123.208 73.6377C123.279 74.2557 123.346 75.0204 123.41 75.9316C123.472 76.8256 123.574 77.5978 123.716 78.2481C124.104 77.4432 124.574 76.2565 125.128 74.6882C125.681 73.1027 126.158 71.8642 126.561 70.9727C126.981 70.0806 127.371 69.6288 127.733 69.6174ZM141.567 74.0122C141.594 74.8556 141.041 75.6313 139.909 76.3392C138.794 77.0465 137.635 77.4193 136.43 77.4575C135.225 77.4957 134.232 77.441 133.452 77.2934C133.312 77.763 133.249 78.2303 133.264 78.695C133.279 79.1598 133.367 79.493 133.528 79.6947C133.689 79.8791 134.079 79.9615 134.699 79.9419C135.99 79.9009 137.088 79.7455 137.993 79.4756C138.915 79.2052 139.393 79.0694 139.427 79.0683C140.133 79.046 140.493 79.2672 140.508 79.7319C140.529 80.4033 139.99 81.0579 138.89 81.6958C137.807 82.3332 136.535 82.6751 135.071 82.7215C133.626 82.7673 132.449 82.3479 131.542 81.4634C130.636 80.5789 130.163 79.517 130.123 78.2776C130.083 77.021 130.403 75.7014 131.083 74.3186C131.78 72.9352 132.665 71.77 133.738 70.8227C134.81 69.8583 135.889 69.3589 136.973 69.3245C138.075 69.2896 139.108 69.7997 140.071 70.8546C141.035 71.8924 141.533 72.9449 141.567 74.0122ZM138.559 73.694C138.553 73.5218 138.365 73.278 137.993 72.9624C137.621 72.6468 137.272 72.4941 136.945 72.5045C136.635 72.5143 136.238 72.7595 135.753 73.2401C135.268 73.7035 134.813 74.3038 134.389 75.0409C134.544 75.0532 134.768 75.0547 135.061 75.0455C137.419 74.9707 138.585 74.5202 138.559 73.694ZM144.271 73.4613L144.023 70.5485C143.993 69.5845 144.279 69.093 144.881 69.0739C145.226 69.063 145.565 69.1815 145.901 69.4293C146.253 69.6766 146.524 70.0729 146.714 70.6183C147.283 70.0833 147.906 69.65 148.585 69.3184C149.281 68.969 149.895 68.7858 150.429 68.7689C151.685 68.729 152.323 69.0104 152.342 69.6129C152.352 69.9227 152.299 70.157 152.184 70.3157C152.085 70.4567 152.002 70.5627 151.935 70.6338C151.886 70.7042 151.785 70.8022 151.634 70.9276C151.5 71.0352 151.399 71.116 151.332 71.1698C150.944 71.4405 150.666 71.6303 150.497 71.739C149.738 72.2456 149.093 72.8518 148.564 73.5578C148.035 74.2466 147.651 75.1978 147.414 76.4115C147.012 78.4058 146.603 79.9006 146.186 80.896C145.787 81.8736 145.311 82.3711 144.761 82.3886C144.227 82.4055 143.814 82.1601 143.522 81.6524C143.248 81.1442 143.103 80.6663 143.089 80.2187C143.075 79.754 143.216 79.0602 143.514 78.1376C143.83 77.2143 144.037 76.4238 144.137 75.7658C144.254 75.0901 144.298 74.3219 144.271 73.4613Z"/>
</mask>
<path d="M59.0549 66.1335C60.3976 66.0909 61.8695 66.32 63.4706 66.8206C65.0889 67.3207 66.5922 67.9968 67.9804 68.8488C69.3858 69.7003 70.5646 70.7398 71.5168 71.9675C72.4861 73.1946 72.9913 74.4537 73.0322 75.7447C73.0627 76.7087 72.3177 77.9385 70.7971 79.434C69.2931 80.9119 67.5336 82.2082 65.5185 83.3232C63.5033 84.4381 61.8416 85.0163 60.5334 85.0578C60.2408 85.0671 59.7554 84.7034 59.0773 83.9667C58.4158 83.2123 58.0794 82.6543 58.0679 82.2928C58.0456 81.5871 58.4481 79.61 59.2757 76.3616C60.1199 73.0954 60.6347 70.8564 60.8203 69.6443C60.1876 69.2508 59.6556 68.7766 59.2245 68.2217C58.7928 67.6495 58.5707 67.1654 58.5581 66.7695C58.5451 66.3564 58.7106 66.1444 59.0549 66.1335ZM69.2911 75.1396C69.2737 74.5888 68.743 73.8819 67.699 73.019C66.6545 72.1388 65.4514 71.4188 64.0896 70.8589C64.0272 72.1532 63.3832 74.9391 62.1575 79.2167C62.0958 79.4427 61.9956 79.8163 61.8571 80.3377C61.7352 80.8412 61.6425 81.1802 61.5791 81.3545C63.2481 80.733 64.9564 79.7225 66.704 78.3231C68.4511 76.9065 69.3135 75.8453 69.2911 75.1396ZM76.9224 67.9968C76.9083 67.5492 77.0918 67.0868 77.4729 66.6095C77.8708 66.1144 78.2591 65.8609 78.6378 65.8489C79.0337 65.8363 79.5132 66.2864 80.0763 67.199C80.6393 68.1116 80.9277 68.7831 80.9413 69.2134C80.9544 69.6266 80.8268 69.9494 80.5585 70.1819C80.2902 70.4144 80.0097 70.5353 79.717 70.5445C79.2178 70.5604 78.6308 70.2516 77.956 69.6182C77.2811 68.9848 76.9366 68.4443 76.9224 67.9968ZM77.412 71.2121C78.0145 71.193 78.559 71.5203 79.0456 72.1941C79.5494 72.8674 79.8114 73.5225 79.8316 74.1594C79.842 74.4864 79.5781 75.6751 79.04 77.7254C78.5186 79.7579 77.9938 81.6872 77.4659 83.5132C77.2806 84.191 76.8695 84.5401 76.2326 84.5603C75.8539 84.5723 75.5139 84.4452 75.2125 84.179C74.9278 83.8951 74.7784 83.5294 74.7642 83.0819C74.7495 82.6171 74.9286 81.4742 75.3017 79.6531C75.6914 77.8143 75.978 76.2544 76.1614 74.9736C76.3615 73.6749 76.5469 72.7299 76.7177 72.1387C76.9052 71.5297 77.1366 71.2208 77.412 71.2121ZM89.6973 70.8486C90.3514 70.8278 91.0092 71.1947 91.6706 71.9491C92.3321 72.7035 92.6726 73.3906 92.6923 74.0103C92.7053 74.4234 92.5312 74.6357 92.1697 74.6472C91.9631 74.6537 91.6594 74.5858 91.2586 74.4434C90.8572 74.2838 90.45 74.2106 90.0369 74.2237C89.6409 74.2362 89.0514 74.3927 88.2683 74.6933C87.5025 74.9932 87.1266 75.367 87.1408 75.8145C87.1462 75.9867 87.3865 76.2289 87.8617 76.5412C88.3368 76.8536 88.8552 77.1731 89.417 77.4999C89.9787 77.8268 90.5018 78.2926 90.9862 78.8976C91.4701 79.4854 91.7234 80.1407 91.7464 80.8637C91.7687 81.5694 91.2664 82.3004 90.2392 83.0567C89.2293 83.8124 88.0186 84.2126 86.6071 84.2573C85.2128 84.3015 84.0064 84.021 82.9878 83.4157C81.9692 82.8105 81.4493 82.1722 81.428 81.5008C81.4068 80.8295 81.6716 80.4851 82.2224 80.4677C82.4462 80.4606 82.7157 80.5382 83.031 80.7005C83.9075 81.1724 84.9826 81.3882 86.2565 81.3478C87.5475 81.3069 88.1875 81.1143 88.1766 80.77C88.1657 80.4258 87.9041 80.055 87.3918 79.6577C86.8962 79.2426 86.35 78.8636 85.7533 78.5207C85.1738 78.1772 84.6263 77.7552 84.1107 77.2546C83.6118 76.7362 83.3545 76.2275 83.3387 75.7283C83.3092 74.7987 84.1208 73.765 85.7733 72.6271C87.4253 71.472 88.7333 70.8791 89.6973 70.8486ZM94.0646 79.9631C94.0264 78.7582 94.3631 77.4207 95.0747 75.9508C95.7862 74.4809 96.7367 73.2101 97.9262 72.1386C99.1328 71.0665 100.33 70.5116 101.518 70.474C102.12 70.4549 102.752 70.8312 103.414 71.6028C104.076 72.3572 104.416 73.0443 104.436 73.664C104.45 74.1115 104.251 74.3418 103.838 74.3549C103.631 74.3615 103.344 74.2758 102.977 74.0979C102.609 73.92 102.236 73.8371 101.857 73.8491C101.479 73.8611 100.947 74.2053 100.262 74.8818C99.5934 75.5405 98.9982 76.3348 98.4763 77.2645C97.9711 78.1766 97.7266 78.8908 97.743 79.4072C97.7593 79.9236 97.8647 80.2562 98.0589 80.4052C98.2704 80.5535 98.7548 80.6157 99.5122 80.5917C100.287 80.5672 100.982 80.4762 101.597 80.3189C102.23 80.161 102.69 80.0086 102.978 79.8616C103.283 79.6968 103.556 79.6106 103.797 79.603C104.279 79.5877 104.527 79.7867 104.54 80.1998C104.564 80.9572 103.926 81.7528 102.625 82.5866C101.324 83.4032 100.011 83.8325 98.6858 83.8745C97.8423 83.9013 96.8636 83.4671 95.7497 82.5719C94.6525 81.659 94.0908 80.7894 94.0646 79.9631ZM110.641 80.8593C111.558 80.4168 112.34 79.5563 112.989 78.2779C113.638 76.9995 113.945 75.8094 113.91 74.7077C113.875 73.6061 113.696 72.8536 113.373 72.4503C112.646 72.9041 111.935 73.8312 111.238 75.2318C110.559 76.6318 110.236 77.8568 110.269 78.9068C110.302 79.9396 110.426 80.5905 110.641 80.8593ZM106.817 79.2747C106.749 77.123 107.347 75.0622 108.612 73.0922C109.893 71.1218 111.188 70.1158 112.496 70.0744C113.805 70.0329 114.921 70.4628 115.846 71.3639C116.77 72.2479 117.252 73.344 117.294 74.6522C117.335 75.9432 117.067 77.2699 116.489 78.6322C115.912 79.9945 115.079 81.1409 113.988 82.0714C112.897 82.9848 111.714 83.4617 110.441 83.502C109.494 83.532 108.663 83.1362 107.948 82.3146C107.232 81.4929 106.856 80.4796 106.817 79.2747ZM127.733 69.6174C128.18 69.6032 128.616 69.7531 129.039 70.067C129.479 70.3632 129.705 70.6835 129.716 71.0277C129.735 71.6474 129.265 73.1011 128.303 75.3888C127.359 77.676 126.47 79.522 125.636 80.9269C124.819 82.3313 124.169 83.0411 123.687 83.0564C123.429 83.0646 123.045 82.9044 122.535 82.576C122.042 82.247 121.721 81.9125 121.572 81.5726C121.128 80.5873 120.57 78.7613 119.9 76.0945C119.229 73.4106 118.882 71.7071 118.859 70.9841C118.836 70.2611 119.066 69.892 119.548 69.8767C120.133 69.8582 120.743 70.0715 121.377 70.5166C122.435 71.2757 123.045 72.3161 123.208 73.6377C123.279 74.2557 123.346 75.0204 123.41 75.9316C123.472 76.8256 123.574 77.5978 123.716 78.2481C124.104 77.4432 124.574 76.2565 125.128 74.6882C125.681 73.1027 126.158 71.8642 126.561 70.9727C126.981 70.0806 127.371 69.6288 127.733 69.6174ZM141.567 74.0122C141.594 74.8556 141.041 75.6313 139.909 76.3392C138.794 77.0465 137.635 77.4193 136.43 77.4575C135.225 77.4957 134.232 77.441 133.452 77.2934C133.312 77.763 133.249 78.2303 133.264 78.695C133.279 79.1598 133.367 79.493 133.528 79.6947C133.689 79.8791 134.079 79.9615 134.699 79.9419C135.99 79.9009 137.088 79.7455 137.993 79.4756C138.915 79.2052 139.393 79.0694 139.427 79.0683C140.133 79.046 140.493 79.2672 140.508 79.7319C140.529 80.4033 139.99 81.0579 138.89 81.6958C137.807 82.3332 136.535 82.6751 135.071 82.7215C133.626 82.7673 132.449 82.3479 131.542 81.4634C130.636 80.5789 130.163 79.517 130.123 78.2776C130.083 77.021 130.403 75.7014 131.083 74.3186C131.78 72.9352 132.665 71.77 133.738 70.8227C134.81 69.8583 135.889 69.3589 136.973 69.3245C138.075 69.2896 139.108 69.7997 140.071 70.8546C141.035 71.8924 141.533 72.9449 141.567 74.0122ZM138.559 73.694C138.553 73.5218 138.365 73.278 137.993 72.9624C137.621 72.6468 137.272 72.4941 136.945 72.5045C136.635 72.5143 136.238 72.7595 135.753 73.2401C135.268 73.7035 134.813 74.3038 134.389 75.0409C134.544 75.0532 134.768 75.0547 135.061 75.0455C137.419 74.9707 138.585 74.5202 138.559 73.694ZM144.271 73.4613L144.023 70.5485C143.993 69.5845 144.279 69.093 144.881 69.0739C145.226 69.063 145.565 69.1815 145.901 69.4293C146.253 69.6766 146.524 70.0729 146.714 70.6183C147.283 70.0833 147.906 69.65 148.585 69.3184C149.281 68.969 149.895 68.7858 150.429 68.7689C151.685 68.729 152.323 69.0104 152.342 69.6129C152.352 69.9227 152.299 70.157 152.184 70.3157C152.085 70.4567 152.002 70.5627 151.935 70.6338C151.886 70.7042 151.785 70.8022 151.634 70.9276C151.5 71.0352 151.399 71.116 151.332 71.1698C150.944 71.4405 150.666 71.6303 150.497 71.739C149.738 72.2456 149.093 72.8518 148.564 73.5578C148.035 74.2466 147.651 75.1978 147.414 76.4115C147.012 78.4058 146.603 79.9006 146.186 80.896C145.787 81.8736 145.311 82.3711 144.761 82.3886C144.227 82.4055 143.814 82.1601 143.522 81.6524C143.248 81.1442 143.103 80.6663 143.089 80.2187C143.075 79.754 143.216 79.0602 143.514 78.1376C143.83 77.2143 144.037 76.4238 144.137 75.7658C144.254 75.0901 144.298 74.3219 144.271 73.4613Z" fill="white"/>
<path d="M63.4706 66.8206L63.2778 67.437L63.2799 67.4377L63.4706 66.8206ZM67.9804 68.8488L67.6426 69.3992L67.6457 69.4012L67.9804 68.8488ZM71.5168 71.9675L71.0064 72.3633L71.01 72.3678L71.5168 71.9675ZM70.7971 79.434L71.2497 79.8947L71.25 79.8945L70.7971 79.434ZM65.5185 83.3232L65.2058 82.7581V82.7581L65.5185 83.3232ZM59.0773 83.9667L58.5917 84.3925L58.5968 84.3983L58.6021 84.4041L59.0773 83.9667ZM59.2757 76.3616L58.6504 76.2L58.6498 76.2022L59.2757 76.3616ZM60.8203 69.6443L61.4587 69.7421L61.5232 69.3209L61.1614 69.0959L60.8203 69.6443ZM59.2245 68.2217L58.7089 68.6107L58.7145 68.6179L59.2245 68.2217ZM67.699 73.019L67.2828 73.5129L67.2875 73.5167L67.699 73.019ZM64.0896 70.8589L64.3352 70.2616L63.4886 69.9134L63.4445 70.8278L64.0896 70.8589ZM62.1575 79.2167L61.5367 79.0388L61.5346 79.0465L62.1575 79.2167ZM61.8571 80.3377L61.2329 80.1718L61.2311 80.1787L61.2294 80.1857L61.8571 80.3377ZM61.5791 81.3545L60.9722 81.1337L60.4943 82.4476L61.8045 81.9597L61.5791 81.3545ZM66.704 78.3231L67.1077 78.8273L67.1108 78.8248L66.704 78.3231ZM59.0549 66.1335L59.0754 66.779C60.3304 66.7392 61.7292 66.9528 63.2778 67.437L63.4706 66.8206L63.6633 66.2042C62.0097 65.6872 60.4647 65.4426 59.0345 65.488L59.0549 66.1335ZM63.4706 66.8206L63.2799 67.4377C64.8486 67.9224 66.3022 68.5766 67.6426 69.3992L67.9804 68.8488L68.3182 68.2984C66.8821 67.417 65.3291 66.719 63.6612 66.2036L63.4706 66.8206ZM67.9804 68.8488L67.6457 69.4012C68.9875 70.214 70.1055 71.2017 71.0064 72.3633L71.5168 71.9675L72.0271 71.5717C71.0237 70.278 69.7842 69.1865 68.315 68.2964L67.9804 68.8488ZM71.5168 71.9675L71.01 72.3678C71.9121 73.5099 72.351 74.6395 72.3867 75.7652L73.0322 75.7447L73.6777 75.7243C73.6315 74.2679 73.0601 72.8794 72.0236 71.5672L71.5168 71.9675ZM73.0322 75.7447L72.3867 75.7652C72.3965 76.0751 72.2815 76.4981 71.9439 77.0554C71.6091 77.608 71.0828 78.2472 70.3442 78.9736L70.7971 79.434L71.25 79.8945C72.032 79.1253 72.6385 78.4018 73.0487 77.7247C73.4561 77.0521 73.6984 76.3783 73.6777 75.7243L73.0322 75.7447ZM70.7971 79.434L70.3444 78.9734C68.8859 80.4066 67.1744 81.6689 65.2058 82.7581L65.5185 83.3232L65.8311 83.8883C67.8928 82.7476 69.7004 81.4171 71.2497 79.8947L70.7971 79.434ZM65.5185 83.3232L65.2058 82.7581C63.2219 83.8558 61.6682 84.3757 60.513 84.4123L60.5334 85.0578L60.5539 85.7033C62.0151 85.657 63.7848 85.0205 65.8311 83.8883L65.5185 83.3232ZM60.5334 85.0578L60.513 84.4123C60.6048 84.4094 60.5666 84.4471 60.3372 84.2751C60.1399 84.1273 59.8796 83.8847 59.5525 83.5293L59.0773 83.9667L58.6021 84.4041C58.9531 84.7854 59.2746 85.0929 59.5626 85.3088C59.8186 85.5006 60.1694 85.7155 60.5539 85.7033L60.5334 85.0578ZM59.0773 83.9667L59.5629 83.5409C59.2454 83.1788 59.0229 82.8827 58.8819 82.6489C58.8119 82.5327 58.7676 82.4411 58.7415 82.3722C58.7148 82.3016 58.7134 82.2711 58.7134 82.2724L58.0679 82.2928L57.4224 82.3133C57.4335 82.6614 57.5896 83.0071 57.7758 83.3159C57.9713 83.6401 58.2477 84.0001 58.5917 84.3925L59.0773 83.9667ZM58.0679 82.2928L58.7134 82.2724C58.705 82.0065 58.7826 81.4082 58.9859 80.4096C59.1842 79.4357 59.4889 78.1408 59.9015 76.521L59.2757 76.3616L58.6498 76.2022C58.2349 77.8308 57.9245 79.1486 57.7202 80.1518C57.521 81.1303 57.4085 81.8734 57.4224 82.3133L58.0679 82.2928ZM59.2757 76.3616L59.901 76.5232C60.7443 73.2603 61.2675 70.991 61.4587 69.7421L60.8203 69.6443L60.1819 69.5466C60.002 70.7217 59.4954 72.9306 58.6504 76.2L59.2757 76.3616ZM60.8203 69.6443L61.1614 69.0959C60.5895 68.7403 60.116 68.3165 59.7345 67.8254L59.2245 68.2217L58.7145 68.6179C59.1952 69.2367 59.7856 69.7614 60.4793 70.1928L60.8203 69.6443ZM59.2245 68.2217L59.74 67.8327C59.332 67.2919 59.2097 66.9413 59.2037 66.7491L58.5581 66.7695L57.9126 66.79C57.9316 67.3896 58.2536 68.0071 58.7089 68.6106L59.2245 68.2217ZM58.5581 66.7695L59.2037 66.7491C59.2017 66.6885 59.2073 66.6584 59.2093 66.6505C59.2108 66.6441 59.2064 66.6663 59.1815 66.6982C59.1546 66.7327 59.12 66.7575 59.0889 66.7711C59.0618 66.783 59.0525 66.7797 59.0754 66.779L59.0549 66.1335L59.0345 65.488C58.7287 65.4977 58.3959 65.6056 58.1635 65.9031C57.9492 66.1775 57.9038 66.5097 57.9126 66.79L58.5581 66.7695ZM69.2911 75.1396L69.9366 75.1191C69.9219 74.6526 69.6974 74.2093 69.3965 73.8085C69.089 73.399 68.6533 72.9698 68.1105 72.5212L67.699 73.019L67.2875 73.5167C67.7887 73.931 68.1403 74.2868 68.3635 74.5841C68.5934 74.8902 68.643 75.0758 68.6456 75.16L69.2911 75.1396ZM67.699 73.019L68.1152 72.5251C67.0157 71.5986 65.754 70.8449 64.3352 70.2616L64.0896 70.8589L63.844 71.4562C65.1487 71.9926 66.2933 72.679 67.2829 73.5128L67.699 73.019ZM64.0896 70.8589L63.4445 70.8278C63.3865 72.0324 62.768 74.7416 61.5367 79.0389L62.1575 79.2167L62.7784 79.3946C63.9984 75.1366 64.668 72.2739 64.7347 70.89L64.0896 70.8589ZM62.1575 79.2167L61.5346 79.0465C61.4722 79.2748 61.3715 79.6504 61.2329 80.1718L61.8571 80.3377L62.4812 80.5035C62.6198 79.9823 62.7194 79.6106 62.7805 79.387L62.1575 79.2167ZM61.8571 80.3377L61.2294 80.1857C61.1065 80.6933 61.0215 80.9982 60.9722 81.1337L61.5791 81.3545L62.1861 81.5752C62.2636 81.3621 62.3638 80.9892 62.4848 80.4896L61.8571 80.3377ZM61.5791 81.3545L61.8045 81.9597C63.552 81.3089 65.3195 80.2591 67.1077 78.8273L66.704 78.3231L66.3003 77.819C64.5932 79.186 62.9441 80.157 61.3537 80.7492L61.5791 81.3545ZM66.704 78.3231L67.1108 78.8248C67.9999 78.1039 68.6909 77.4523 69.1623 76.8721C69.6122 76.3186 69.9556 75.7186 69.9366 75.1191L69.2911 75.1396L68.6456 75.16C68.649 75.2663 68.5725 75.5498 68.1599 76.0575C67.769 76.5385 67.1553 77.1258 66.2973 77.8215L66.704 78.3231ZM77.4729 66.6095L76.9695 66.2049L76.9683 66.2065L77.4729 66.6095ZM80.0763 67.199L79.5266 67.5381V67.5381L80.0763 67.199ZM77.956 69.6182L78.398 69.1473V69.1473L77.956 69.6182ZM79.0456 72.1941L78.522 72.5723L78.5285 72.5811L79.0456 72.1941ZM79.04 77.7254L78.4153 77.5615L78.4144 77.5649L79.04 77.7254ZM77.4659 83.5132L76.8454 83.3338L76.8429 83.3429L77.4659 83.5132ZM75.2125 84.179L74.7565 84.6364L74.7703 84.6502L74.785 84.6631L75.2125 84.179ZM75.3017 79.6531L74.6699 79.5192L74.669 79.5235L75.3017 79.6531ZM76.1614 74.9736L75.523 74.8752L75.5221 74.882L76.1614 74.9736ZM76.7177 72.1387L76.1004 71.9486L76.0972 71.9594L76.7177 72.1387ZM76.9224 67.9968L77.568 67.9763C77.5602 67.7301 77.6573 67.4136 77.9776 67.0125L77.4729 66.6095L76.9683 66.2065C76.5262 66.76 76.2564 67.3683 76.2769 68.0172L76.9224 67.9968ZM77.4729 66.6095L77.9764 67.0141C78.3333 66.5699 78.5636 66.4974 78.6582 66.4944L78.6378 65.8489L78.6173 65.2034C77.9546 65.2244 77.4083 65.6589 76.9695 66.2049L77.4729 66.6095ZM78.6378 65.8489L78.6582 66.4944C78.6015 66.4962 78.6594 66.4668 78.8523 66.6479C79.0328 66.8173 79.2587 67.1039 79.5266 67.5381L80.0763 67.199L80.6259 66.8599C80.3307 66.3814 80.0353 65.9868 79.7363 65.7061C79.4498 65.4372 79.0699 65.189 78.6173 65.2034L78.6378 65.8489ZM80.0763 67.199L79.5266 67.5381C79.7984 67.9787 79.994 68.3453 80.1214 68.6419C80.2528 68.9479 80.2927 69.1367 80.2958 69.2339L80.9413 69.2134L81.5868 69.193C81.5763 68.8599 81.4652 68.4977 81.3083 68.1322C81.1473 67.7573 80.9171 67.3319 80.6259 66.8599L80.0763 67.199ZM80.9413 69.2134L80.2958 69.2339C80.3039 69.4883 80.2319 69.6103 80.1355 69.6938L80.5585 70.1819L80.9814 70.67C81.4217 70.2884 81.605 69.7648 81.5868 69.193L80.9413 69.2134ZM80.5585 70.1819L80.1355 69.6938C79.9546 69.8506 79.8113 69.8954 79.6966 69.899L79.717 70.5445L79.7375 71.1901C80.208 71.1751 80.6257 70.9782 80.9814 70.67L80.5585 70.1819ZM79.717 70.5445L79.6966 69.899C79.466 69.9063 79.0439 69.7535 78.398 69.1473L77.956 69.6182L77.514 70.0891C78.2178 70.7496 78.9697 71.2144 79.7375 71.1901L79.717 70.5445ZM77.956 69.6182L78.398 69.1473C78.084 68.8527 77.8697 68.6004 77.7361 68.3907C77.6008 68.1784 77.5701 68.0446 77.568 67.9763L76.9224 67.9968L76.2769 68.0172C76.289 68.3966 76.4377 68.7567 76.6469 69.085C76.8577 69.4157 77.1531 69.7504 77.514 70.0891L77.956 69.6182ZM77.412 71.2121L77.4325 71.8576C77.7448 71.8477 78.1091 72.0004 78.522 72.5722L79.0456 72.1941L79.5692 71.816C79.009 71.0402 78.2842 70.5383 77.3916 70.5665L77.412 71.2121ZM79.0456 72.1941L78.5285 72.5811C78.978 73.1818 79.1713 73.7119 79.1861 74.1798L79.8316 74.1594L80.4771 74.1389C80.4516 73.3331 80.1208 72.553 79.5627 71.8072L79.0456 72.1941ZM79.8316 74.1594L79.1861 74.1798C79.186 74.1778 79.1864 74.1986 79.1805 74.2535C79.175 74.3048 79.1655 74.3729 79.151 74.4597C79.1219 74.6335 79.0757 74.8646 79.011 75.1562C78.8817 75.7388 78.6836 76.5394 78.4153 77.5615L79.04 77.7254L79.6647 77.8894C79.9345 76.8611 80.1374 76.0423 80.272 75.4362C80.3391 75.1335 80.3906 74.8779 80.4249 74.6728C80.4568 74.4822 80.4819 74.2907 80.4771 74.1389L79.8316 74.1594ZM79.04 77.7254L78.4144 77.5649C77.8944 79.5918 77.3714 81.5147 76.8454 83.3338L77.4659 83.5132L78.0863 83.6926C78.6163 81.8597 79.1427 79.9241 79.6656 77.8859L79.04 77.7254ZM77.4659 83.5132L76.8429 83.3429C76.7743 83.594 76.6808 83.7229 76.6006 83.791C76.5258 83.8545 76.4122 83.9084 76.2121 83.9148L76.2326 84.5603L76.253 85.2058C76.6899 85.1919 77.1003 85.0612 77.4366 84.7757C77.7674 84.4947 77.9722 84.1102 78.0888 83.6835L77.4659 83.5132ZM76.2326 84.5603L76.2121 83.9148C76.0086 83.9212 75.8263 83.8595 75.64 83.695L75.2125 84.179L74.785 84.6631C75.2014 85.0309 75.6992 85.2233 76.253 85.2058L76.2326 84.5603ZM75.2125 84.179L75.6685 83.7217C75.5139 83.5676 75.4193 83.3648 75.4097 83.0614L74.7642 83.0819L74.1187 83.1023C74.1374 83.694 74.3417 84.2227 74.7565 84.6364L75.2125 84.179ZM74.7642 83.0819L75.4097 83.0614C75.4045 82.8965 75.4357 82.5492 75.5256 81.9761C75.6129 81.4186 75.7488 80.6886 75.9344 79.7827L75.3017 79.6531L74.669 79.5235C74.4815 80.4388 74.3412 81.1906 74.2495 81.7761C74.1601 82.3459 74.1092 82.8024 74.1187 83.1023L74.7642 83.0819ZM75.3017 79.6531L75.9335 79.787C76.325 77.9398 76.6146 76.365 76.8007 75.0651L76.1614 74.9736L75.5221 74.882C75.3414 76.1439 75.0578 77.6888 74.6699 79.5192L75.3017 79.6531ZM76.1614 74.9736L76.7997 75.0719C76.9992 73.7771 77.1796 72.8668 77.3382 72.3179L76.7177 72.1387L76.0972 71.9594C75.9142 72.5931 75.7238 73.5727 75.5231 74.8752L76.1614 74.9736ZM76.7177 72.1387L77.335 72.3287C77.4191 72.0552 77.4972 71.9063 77.5487 71.8375C77.5964 71.7739 77.5609 71.8535 77.4325 71.8576L77.412 71.2121L77.3916 70.5665C76.9878 70.5793 76.6988 70.8178 76.5151 71.063C76.3351 71.3031 76.2037 71.6131 76.1005 71.9487L76.7177 72.1387ZM91.6706 71.9491L92.1562 71.5234V71.5234L91.6706 71.9491ZM91.2586 74.4434L91.02 75.0436L91.0311 75.048L91.0424 75.052L91.2586 74.4434ZM88.2683 74.6933L88.037 74.0903L88.0328 74.0919L88.2683 74.6933ZM87.8617 76.5412L87.5069 77.0809V77.0809L87.8617 76.5412ZM90.9862 78.8976L90.482 79.3013L90.4876 79.3081L90.9862 78.8976ZM90.2392 83.0567L89.8563 82.5366L89.8523 82.5396L90.2392 83.0567ZM82.9878 83.4157L83.3177 82.8605V82.8605L82.9878 83.4157ZM83.031 80.7005L83.3372 80.1317L83.3266 80.1263L83.031 80.7005ZM87.3918 79.6577L86.9772 80.1528L86.9864 80.1606L86.996 80.168L87.3918 79.6577ZM85.7533 78.5207L85.424 79.0763L85.4315 79.0806L85.7533 78.5207ZM84.1107 77.2546L83.6454 77.7024L83.653 77.7103L83.6608 77.7179L84.1107 77.2546ZM85.7733 72.6271L86.1396 73.159L86.1434 73.1564L85.7733 72.6271ZM89.6973 70.8486L89.7177 71.4941C90.0945 71.4821 90.5823 71.6874 91.185 72.3749L91.6706 71.9491L92.1562 71.5234C91.4361 70.702 90.6083 70.1735 89.6768 70.2031L89.6973 70.8486ZM91.6706 71.9491L91.185 72.3749C91.8047 73.0816 92.034 73.6286 92.0467 74.0307L92.6923 74.0103L93.3378 73.9898C93.3112 73.1526 92.8595 72.3255 92.1562 71.5234L91.6706 71.9491ZM92.6923 74.0103L92.0467 74.0307C92.0486 74.089 92.0428 74.1163 92.0415 74.1214C92.0408 74.1244 92.0465 74.101 92.0722 74.0697C92.0846 74.0545 92.0993 74.0405 92.1154 74.0287C92.1313 74.0171 92.1458 74.0095 92.1567 74.005C92.1777 73.9962 92.1796 74.0007 92.1492 74.0017L92.1697 74.6472L92.1901 75.2927C92.4944 75.283 92.8308 75.1813 93.0707 74.889C93.2967 74.6136 93.3468 74.2763 93.3378 73.9898L92.6923 74.0103ZM92.1697 74.6472L92.1492 74.0017C92.0703 74.0042 91.8628 73.9727 91.4748 73.8348L91.2586 74.4434L91.0424 75.052C91.456 75.1989 91.8559 75.3033 92.1901 75.2927L92.1697 74.6472ZM91.2586 74.4434L91.4972 73.8433C91.0173 73.6525 90.5221 73.5621 90.0164 73.5782L90.0369 74.2237L90.0573 74.8692C90.3779 74.859 90.6972 74.9152 91.02 75.0436L91.2586 74.4434ZM90.0369 74.2237L90.0164 73.5782C89.505 73.5944 88.8294 73.7862 88.037 74.0903L88.2683 74.6933L88.4997 75.2962C89.2735 74.9993 89.7769 74.8781 90.0573 74.8692L90.0369 74.2237ZM88.2683 74.6933L88.0328 74.0919C87.2417 74.4017 86.4666 74.9309 86.4953 75.835L87.1408 75.8145L87.7863 75.7941C87.7859 75.7821 87.7811 75.7424 87.8674 75.6565C87.9677 75.5568 88.1626 75.4283 88.5039 75.2946L88.2683 74.6933ZM87.1408 75.8145L86.4953 75.835C86.5063 76.1836 86.7288 76.4413 86.8666 76.5801C87.0322 76.7471 87.2531 76.9141 87.5069 77.0809L87.8617 76.5412L88.2164 76.0016C87.9951 75.8561 87.8583 75.7458 87.7836 75.6705C87.7467 75.6333 87.7394 75.619 87.7444 75.6273C87.7483 75.6339 87.7831 75.6934 87.7863 75.7941L87.1408 75.8145ZM87.8617 76.5412L87.5069 77.0809C87.9931 77.4005 88.5217 77.7263 89.0922 78.0582L89.417 77.4999L89.7418 76.9417C89.1888 76.62 88.6805 76.3066 88.2164 76.0016L87.8617 76.5412ZM89.417 77.4999L89.0922 78.0582C89.5733 78.3381 90.0381 78.7468 90.4821 79.3013L90.9862 78.8976L91.4903 78.4939C90.9655 77.8385 90.3841 77.3155 89.7418 76.9417L89.417 77.4999ZM90.9862 78.8976L90.4876 79.3081C90.8858 79.7918 91.0827 80.3117 91.1009 80.8841L91.7464 80.8637L92.3919 80.8432C92.3642 79.9698 92.0543 79.1789 91.4848 78.4871L90.9862 78.8976ZM91.7464 80.8637L91.1009 80.8841C91.1125 81.253 90.846 81.8079 89.8563 82.5366L90.2392 83.0567L90.6222 83.5768C91.6867 82.7929 92.4249 81.8858 92.3919 80.8432L91.7464 80.8637ZM90.2392 83.0567L89.8523 82.5396C88.961 83.2066 87.8822 83.5708 86.5867 83.6118L86.6071 84.2573L86.6276 84.9028C88.155 84.8544 89.4977 84.4182 90.6262 83.5738L90.2392 83.0567ZM86.6071 84.2573L86.5867 83.6118C85.2932 83.6528 84.2129 83.3925 83.3177 82.8605L82.9878 83.4157L82.6579 83.9709C83.7999 84.6495 85.1324 84.9502 86.6276 84.9028L86.6071 84.2573ZM82.9878 83.4157L83.3177 82.8605C82.3449 82.2824 82.0838 81.8044 82.0736 81.4804L81.428 81.5008L80.7825 81.5213C80.8148 82.5399 81.5936 83.3385 82.6579 83.9709L82.9878 83.4157ZM81.428 81.5008L82.0736 81.4804C82.0652 81.2166 82.1194 81.1369 82.1227 81.1327C82.1232 81.132 82.1225 81.133 82.1209 81.1342C82.1194 81.1354 82.12 81.1345 82.1248 81.1324C82.135 81.1279 82.1694 81.1155 82.2428 81.1132L82.2224 80.4677L82.2019 79.8221C81.7896 79.8352 81.3795 79.9802 81.0987 80.3454C80.8371 80.6856 80.7696 81.1137 80.7825 81.5213L81.428 81.5008ZM82.2224 80.4677L82.2428 81.1132C82.3108 81.111 82.4662 81.1361 82.7354 81.2747L83.031 80.7005L83.3266 80.1263C82.9652 79.9402 82.5815 79.8101 82.2019 79.8221L82.2224 80.4677ZM83.031 80.7005L82.7248 81.2691C83.7259 81.8081 84.9206 82.0363 86.2769 81.9933L86.2565 81.3478L86.236 80.7023C85.0447 80.7401 84.0891 80.5367 83.3372 80.1318L83.031 80.7005ZM86.2565 81.3478L86.2769 81.9933C86.9367 81.9724 87.4879 81.9124 87.8908 81.7911C88.09 81.7312 88.3061 81.6412 88.482 81.4911C88.6766 81.325 88.8323 81.0716 88.8221 80.7496L88.1766 80.77L87.5311 80.7905C87.5263 80.6406 87.6062 80.5404 87.6435 80.5085C87.6621 80.4926 87.6395 80.5179 87.5187 80.5542C87.2816 80.6256 86.8672 80.6823 86.236 80.7023L86.2565 81.3478ZM88.1766 80.77L88.8221 80.7496C88.8015 80.098 88.3285 79.5668 87.7876 79.1473L87.3918 79.6577L86.996 80.168C87.4797 80.5432 87.5299 80.7535 87.5311 80.7905L88.1766 80.77ZM87.3918 79.6577L87.8065 79.1625C87.2801 78.7217 86.7025 78.3213 86.0751 77.9607L85.7533 78.5207L85.4315 79.0806C85.9975 79.4059 86.5123 79.7635 86.9772 80.1528L87.3918 79.6577ZM85.7533 78.5207L86.0826 77.9651C85.5496 77.6492 85.0422 77.2588 84.5606 76.7912L84.1107 77.2546L83.6608 77.7179C84.2104 78.2515 84.798 78.7052 85.424 79.0762L85.7533 78.5207ZM84.1107 77.2546L84.576 76.8067C84.1398 76.3534 83.9931 75.989 83.9842 75.7078L83.3387 75.7283L82.6932 75.7487C82.7159 76.4659 83.0839 77.119 83.6454 77.7024L84.1107 77.2546ZM83.3387 75.7283L83.9842 75.7078C83.9759 75.4466 84.0829 75.1008 84.4332 74.6546C84.7835 74.2085 85.3419 73.7083 86.1396 73.159L85.7733 72.6271L85.407 72.0952C84.5522 72.6838 83.8786 73.2694 83.4172 73.857C82.956 74.4446 82.672 75.0804 82.6932 75.7487L83.3387 75.7283ZM85.7733 72.6271L86.1434 73.1564C87.783 72.0099 88.9564 71.5182 89.7177 71.4941L89.6973 70.8486L89.6768 70.2031C88.5102 70.24 87.0676 70.934 85.4032 72.0978L85.7733 72.6271ZM95.0747 75.9508L94.4934 75.6694V75.6694L95.0747 75.9508ZM97.9262 72.1386L97.4972 71.6558L97.4939 71.6587L97.9262 72.1386ZM103.414 71.6028L102.924 72.0233L102.929 72.0286L103.414 71.6028ZM102.977 74.0979L102.695 74.6792V74.6792L102.977 74.0979ZM100.262 74.8818L100.715 75.3418L100.716 75.3413L100.262 74.8818ZM98.4763 77.2645L97.9131 76.9484L97.9114 76.9516L98.4763 77.2645ZM98.0589 80.4052L97.666 80.9177L97.6768 80.926L97.688 80.9338L98.0589 80.4052ZM101.597 80.3189L101.441 79.6923L101.437 79.6932L101.597 80.3189ZM102.978 79.8616L103.272 80.4369L103.279 80.4334L103.285 80.4298L102.978 79.8616ZM102.625 82.5866L102.969 83.1336L102.974 83.1303L102.625 82.5866ZM95.7497 82.5719L95.3366 83.0684L95.3452 83.0753L95.7497 82.5719ZM94.0646 79.9631L94.7101 79.9427C94.6762 78.8724 94.9745 77.64 95.656 76.2322L95.0747 75.9508L94.4934 75.6694C93.7517 77.2015 93.3766 78.644 93.4191 79.9836L94.0646 79.9631ZM95.0747 75.9508L95.656 76.2322C96.3319 74.8359 97.2323 73.6329 98.3584 72.6184L97.9262 72.1386L97.4939 71.6587C96.2412 72.7873 95.2406 74.1258 94.4934 75.6694L95.0747 75.9508ZM97.9262 72.1386L98.3551 72.6214C99.4893 71.6137 100.548 71.1509 101.538 71.1195L101.518 70.474L101.497 69.8285C100.112 69.8724 98.7763 70.5193 97.4972 71.6558L97.9262 72.1386ZM101.518 70.474L101.538 71.1195C101.844 71.1098 102.304 71.3009 102.924 72.0233L103.414 71.6028L103.905 71.1823C103.2 70.3615 102.396 69.8 101.497 69.8285L101.518 70.474ZM103.414 71.6028L102.929 72.0286C103.548 72.7353 103.778 73.2823 103.791 73.6844L104.436 73.664L105.082 73.6435C105.055 72.8063 104.603 71.9791 103.9 71.177L103.414 71.6028ZM104.436 73.664L103.791 73.6844C103.792 73.7158 103.79 73.7399 103.789 73.7575C103.787 73.7751 103.785 73.785 103.784 73.7886C103.783 73.7921 103.783 73.7888 103.787 73.781C103.791 73.7729 103.798 73.7617 103.809 73.7496C103.82 73.7373 103.831 73.7268 103.843 73.7185C103.855 73.7103 103.864 73.706 103.869 73.7042C103.877 73.701 103.864 73.7079 103.817 73.7094L103.838 74.3549L103.858 75.0004C104.178 74.9903 104.53 74.89 104.785 74.5952C105.032 74.3104 105.091 73.9545 105.082 73.6435L104.436 73.664ZM103.838 74.3549L103.817 73.7094C103.775 73.7108 103.606 73.6852 103.258 73.5166L102.977 74.0979L102.695 74.6792C103.082 74.8664 103.488 75.0122 103.858 75.0004L103.838 74.3549ZM102.977 74.0979L103.258 73.5166C102.804 73.2969 102.328 73.188 101.837 73.2036L101.857 73.8491L101.878 74.4946C102.144 74.4861 102.414 74.5432 102.695 74.6792L102.977 74.0979ZM101.857 73.8491L101.837 73.2036C101.475 73.215 101.129 73.3762 100.823 73.5741C100.507 73.7791 100.167 74.0672 99.8079 74.4223L100.262 74.8818L100.716 75.3413C101.041 75.0199 101.31 74.7977 101.525 74.6584C101.752 74.512 101.86 74.4951 101.878 74.4946L101.857 73.8491ZM100.262 74.8818L99.8084 74.4218C99.0914 75.1284 98.4608 75.9728 97.9131 76.9484L98.4763 77.2645L99.0395 77.5807C99.5357 76.6967 100.095 75.9526 100.715 75.3418L100.262 74.8818ZM98.4763 77.2645L97.9114 76.9516C97.3965 77.881 97.0752 78.7262 97.0975 79.4276L97.743 79.4072L98.3885 79.3867C98.378 79.0554 98.5456 78.4721 99.0412 77.5775L98.4763 77.2645ZM97.743 79.4072L97.0975 79.4276C97.1067 79.7195 97.1416 79.996 97.2185 80.2389C97.2948 80.4798 97.4277 80.7351 97.666 80.9177L98.0589 80.4052L98.4518 79.8926C98.4958 79.9263 98.479 79.9408 98.45 79.8491C98.4215 79.7593 98.3956 79.6112 98.3885 79.3867L97.743 79.4072ZM98.0589 80.4052L97.688 80.9338C97.9261 81.1009 98.2295 81.1691 98.4986 81.2037C98.7881 81.2408 99.1362 81.2498 99.5327 81.2372L99.5122 80.5917L99.4918 79.9462C99.1309 79.9577 98.8581 79.9475 98.6631 79.9225C98.4477 79.8949 98.4032 79.8578 98.4299 79.8765L98.0589 80.4052ZM99.5122 80.5917L99.5327 81.2372C100.344 81.2115 101.087 81.1158 101.757 80.9446L101.597 80.3189L101.437 79.6932C100.876 79.8366 100.229 79.9229 99.4918 79.9462L99.5122 80.5917ZM101.597 80.3189L101.754 80.9455C102.396 80.7852 102.915 80.6187 103.272 80.4369L102.978 79.8616L102.685 79.2862C102.465 79.3984 102.063 79.5368 101.441 79.6923L101.597 80.3189ZM102.978 79.8616L103.285 80.4298C103.538 80.2933 103.711 80.2519 103.818 80.2485L103.797 79.603L103.777 78.9575C103.401 78.9694 103.029 79.1004 102.671 79.2934L102.978 79.8616ZM103.797 79.603L103.818 80.2485C103.894 80.2461 103.938 80.2531 103.957 80.258C103.975 80.2624 103.963 80.2624 103.94 80.2442C103.929 80.2353 103.918 80.2245 103.909 80.2123C103.9 80.2003 103.895 80.1898 103.892 80.1831C103.886 80.1705 103.893 80.1783 103.894 80.2202L104.54 80.1998L105.185 80.1793C105.175 79.845 105.061 79.4883 104.749 79.2373C104.456 79.0021 104.095 78.9474 103.777 78.9575L103.797 79.603ZM104.54 80.1998L103.894 80.2202C103.9 80.3988 103.832 80.6409 103.575 80.9604C103.317 81.2832 102.895 81.6465 102.277 82.043L102.625 82.5866L102.974 83.1303C103.656 82.693 104.204 82.2415 104.583 81.7686C104.965 81.2926 105.204 80.7581 105.185 80.1793L104.54 80.1998ZM102.625 82.5866L102.282 82.0396C101.062 82.8051 99.8593 83.1912 98.6653 83.229L98.6858 83.8745L98.7062 84.5201C100.163 84.4739 101.586 84.0014 102.969 83.1336L102.625 82.5866ZM98.6858 83.8745L98.6653 83.229C98.0518 83.2485 97.2246 82.9286 96.1543 82.0685L95.7497 82.5719L95.3452 83.0753C96.5027 84.0055 97.6329 84.5541 98.7062 84.5201L98.6858 83.8745ZM95.7497 82.5719L96.1628 82.0754C95.1097 81.1992 94.7273 80.4869 94.7101 79.9427L94.0646 79.9631L93.4191 79.9836C93.4542 81.0918 94.1953 82.1187 95.3367 83.0684L95.7497 82.5719ZM110.641 80.8593L110.137 81.263L110.459 81.6647L110.922 81.4409L110.641 80.8593ZM112.989 78.2779L113.565 78.5701V78.5701L112.989 78.2779ZM113.373 72.4503L113.877 72.0466L113.518 71.5982L113.031 71.9025L113.373 72.4503ZM111.238 75.2318L110.66 74.9442L110.657 74.9498L111.238 75.2318ZM108.612 73.0922L108.07 72.7401L108.068 72.7434L108.612 73.0922ZM115.846 71.3639L115.395 71.8264L115.399 71.8306L115.846 71.3639ZM116.489 78.6322L115.895 78.3802V78.3802L116.489 78.6322ZM113.988 82.0714L114.403 82.5667L114.407 82.5627L113.988 82.0714ZM107.948 82.3146L108.435 81.8905V81.8905L107.948 82.3146ZM110.641 80.8593L110.922 81.4409C112.009 80.9161 112.878 79.9244 113.565 78.5701L112.989 78.2779L112.413 77.9856C111.803 79.1882 111.107 79.9174 110.36 80.2778L110.641 80.8593ZM112.989 78.2779L113.565 78.5701C114.248 77.2232 114.594 75.9251 114.555 74.6873L113.91 74.7077L113.264 74.7282C113.295 75.6937 113.027 76.7757 112.413 77.9856L112.989 78.2779ZM113.91 74.7077L114.555 74.6873C114.52 73.5741 114.343 72.6285 113.877 72.0466L113.373 72.4503L112.869 72.854C113.049 73.0787 113.23 73.638 113.264 74.7282L113.91 74.7077ZM113.373 72.4503L113.031 71.9025C112.15 72.4529 111.372 73.5124 110.66 74.9442L111.238 75.2318L111.817 75.5194C112.498 74.1501 113.143 73.3553 113.715 72.998L113.373 72.4503ZM111.238 75.2318L110.657 74.9498C109.953 76.4021 109.586 77.7345 109.624 78.9273L110.269 78.9068L110.915 78.8864C110.886 77.9791 111.165 76.8614 111.819 75.5137L111.238 75.2318ZM110.269 78.9068L109.624 78.9273C109.641 79.461 109.682 79.9189 109.752 80.2904C109.819 80.6404 109.927 81.0007 110.137 81.263L110.641 80.8593L111.145 80.4557C111.149 80.4602 111.131 80.4376 111.103 80.3625C111.076 80.2902 111.048 80.1877 111.021 80.0487C110.968 79.7694 110.931 79.3855 110.915 78.8864L110.269 78.9068ZM106.817 79.2747L107.463 79.2542C107.399 77.2446 107.955 75.3111 109.155 73.4411L108.612 73.0922L108.068 72.7434C106.74 74.8132 106.099 77.0014 106.172 79.2951L106.817 79.2747ZM108.612 73.0922L109.153 73.4444C110.408 71.5143 111.542 70.7507 112.517 70.7199L112.496 70.0744L112.476 69.4289C110.834 69.4809 109.378 70.7292 108.07 72.7401L108.612 73.0922ZM112.496 70.0744L112.517 70.7199C113.652 70.6839 114.598 71.0496 115.395 71.8264L115.846 71.3639L116.296 70.9014C115.244 69.8759 113.957 69.3819 112.476 69.4289L112.496 70.0744ZM115.846 71.3639L115.399 71.8306C116.198 72.5946 116.612 73.529 116.648 74.6726L117.294 74.6522L117.939 74.6317C117.893 73.1589 117.341 71.9012 116.292 70.8972L115.846 71.3639ZM117.294 74.6522L116.648 74.6726C116.686 75.8576 116.441 77.0915 115.895 78.3802L116.489 78.6322L117.084 78.8841C117.692 77.4482 117.984 76.0288 117.939 74.6317L117.294 74.6522ZM116.489 78.6322L115.895 78.3802C115.355 79.6533 114.581 80.7168 113.569 81.5802L113.988 82.0714L114.407 82.5627C115.576 81.565 116.469 80.3357 117.084 78.8841L116.489 78.6322ZM113.988 82.0714L113.573 81.5762C112.58 82.4082 111.533 82.8213 110.42 82.8565L110.441 83.502L110.461 84.1475C111.896 84.1021 113.214 83.5614 114.403 82.5667L113.988 82.0714ZM110.441 83.502L110.42 82.8565C109.698 82.8794 109.044 82.5905 108.435 81.8905L107.948 82.3146L107.461 82.7386C108.282 83.6819 109.29 84.1846 110.461 84.1475L110.441 83.502ZM107.948 82.3146L108.435 81.8905C107.828 81.1933 107.497 80.3273 107.463 79.2542L106.817 79.2747L106.172 79.2951C106.214 80.6319 106.637 81.7926 107.461 82.7386L107.948 82.3146ZM129.039 70.067L128.655 70.5858L128.666 70.5946L128.679 70.6028L129.039 70.067ZM128.303 75.3888L127.708 75.1386L127.706 75.1424L128.303 75.3888ZM125.636 80.9269L125.08 80.5972L125.077 80.6022L125.636 80.9269ZM122.535 82.576L122.176 83.1132L122.185 83.119L122.535 82.576ZM121.572 81.5726L122.164 81.3139L122.161 81.3069L121.572 81.5726ZM119.9 76.0945L119.273 76.2512L119.273 76.252L119.9 76.0945ZM121.377 70.5166L121.754 69.9919L121.748 69.9879L121.377 70.5166ZM123.208 73.6377L123.849 73.5637L123.849 73.5589L123.208 73.6377ZM123.41 75.9316L122.765 75.9764L122.765 75.9769L123.41 75.9316ZM123.716 78.2481L123.085 78.3851L123.483 80.2186L124.297 78.5285L123.716 78.2481ZM125.128 74.6882L125.737 74.9031L125.738 74.9009L125.128 74.6882ZM126.561 70.9727L125.976 70.6977L125.972 70.7069L126.561 70.9727ZM127.733 69.6174L127.753 70.2629C128.03 70.2541 128.326 70.3425 128.655 70.5858L129.039 70.067L129.424 69.5482C128.905 69.1636 128.33 68.9523 127.712 68.9719L127.733 69.6174ZM129.039 70.067L128.679 70.6028C129.043 70.8478 129.069 71.0052 129.07 71.0482L129.716 71.0277L130.361 71.0073C130.341 70.3618 129.916 69.8787 129.4 69.5312L129.039 70.067ZM129.716 71.0277L129.07 71.0482C129.076 71.233 128.999 71.6538 128.763 72.3838C128.536 73.086 128.185 74.0026 127.708 75.1386L128.303 75.3888L128.899 75.639C129.383 74.4873 129.748 73.5332 129.992 72.7818C130.226 72.0581 130.375 71.4422 130.361 71.0073L129.716 71.0277ZM128.303 75.3888L127.706 75.1424C126.769 77.4138 125.893 79.2289 125.08 80.5972L125.636 80.9269L126.191 81.2567C127.047 79.8152 127.95 77.9382 128.9 75.6353L128.303 75.3888ZM125.636 80.9269L125.077 80.6022C124.679 81.2877 124.339 81.7711 124.059 82.0766C123.75 82.4145 123.625 82.4122 123.667 82.4109L123.687 83.0564L123.708 83.7019C124.231 83.6853 124.672 83.3204 125.012 82.9486C125.382 82.5443 125.776 81.9705 126.194 81.2517L125.636 80.9269ZM123.687 83.0564L123.667 82.4109C123.669 82.4108 123.607 82.4101 123.454 82.3463C123.309 82.2859 123.12 82.185 122.884 82.033L122.535 82.576L122.185 83.119C122.459 83.2954 122.718 83.4388 122.957 83.5385C123.188 83.6349 123.447 83.7102 123.708 83.7019L123.687 83.0564ZM122.535 82.576L122.893 82.0388C122.447 81.7411 122.242 81.4917 122.164 81.3139L121.572 81.5726L120.981 81.8314C121.2 82.3334 121.636 82.7529 122.176 83.1131L122.535 82.576ZM121.572 81.5726L122.161 81.3069C121.743 80.3804 121.197 78.6063 120.526 75.9371L119.9 76.0945L119.273 76.252C119.943 78.9163 120.512 80.7942 120.984 81.8383L121.572 81.5726ZM119.9 76.0945L120.526 75.9379C120.192 74.6005 119.94 73.5138 119.769 72.6751C119.596 71.8234 119.514 71.2647 119.504 70.9637L118.859 70.9841L118.213 71.0046C118.227 71.4265 118.33 72.0811 118.504 72.9328C118.68 73.7976 118.937 74.9046 119.273 76.2512L119.9 76.0945ZM118.859 70.9841L119.504 70.9637C119.5 70.8167 119.509 70.7071 119.524 70.6283C119.539 70.5493 119.557 70.5147 119.562 70.5061C119.565 70.5019 119.558 70.5134 119.54 70.5228C119.526 70.5307 119.529 70.5235 119.568 70.5223L119.548 69.8767L119.527 69.2312C119.098 69.2448 118.708 69.4337 118.466 69.824C118.252 70.1672 118.2 70.5917 118.213 71.0046L118.859 70.9841ZM119.548 69.8767L119.568 70.5223C119.974 70.5094 120.449 70.6546 121.006 71.0453L121.377 70.5166L121.748 69.9879C121.036 69.4884 120.291 69.207 119.527 69.2312L119.548 69.8767ZM121.377 70.5166L121.001 71.0413C121.908 71.6926 122.426 72.5693 122.567 73.7165L123.208 73.6377L123.849 73.5589C123.665 72.0628 122.962 70.8588 121.754 69.9919L121.377 70.5166ZM123.208 73.6377L122.566 73.7117C122.636 74.3167 122.702 75.0709 122.765 75.9764L123.41 75.9316L124.054 75.8868C123.99 74.9699 123.922 74.1948 123.849 73.5637L123.208 73.6377ZM123.41 75.9316L122.765 75.9769C122.83 76.8919 122.935 77.6963 123.085 78.3851L123.716 78.2481L124.347 78.111C124.214 77.4993 124.115 76.7593 124.054 75.8864L123.41 75.9316ZM123.716 78.2481L124.297 78.5285C124.701 77.6913 125.181 76.4783 125.737 74.9031L125.128 74.6882L124.519 74.4733C123.968 76.0348 123.506 77.195 123.134 77.9676L123.716 78.2481ZM125.128 74.6882L125.738 74.9009C126.288 73.3226 126.758 72.1046 127.149 71.2384L126.561 70.9727L125.972 70.7069C125.558 71.6238 125.073 72.8828 124.518 74.4756L125.128 74.6882ZM126.561 70.9727L127.145 71.2476C127.344 70.8251 127.517 70.5491 127.657 70.3872C127.808 70.2123 127.841 70.2601 127.753 70.2629L127.733 69.6174L127.712 68.9719C127.263 68.9861 126.919 69.2655 126.68 69.5424C126.429 69.8323 126.197 70.2281 125.976 70.6977L126.561 70.9727ZM139.909 76.3392L139.567 75.7916L139.563 75.7939L139.909 76.3392ZM133.452 77.2934L133.572 76.6588L133 76.5505L132.833 77.1086L133.452 77.2934ZM133.528 79.6947L133.024 80.0983L133.033 80.109L133.042 80.1193L133.528 79.6947ZM137.993 79.4756L137.811 78.8559L137.808 78.8568L137.993 79.4756ZM138.89 81.6958L138.566 81.1372L138.562 81.1393L138.89 81.6958ZM131.542 81.4634L131.993 81.0011V81.0011L131.542 81.4634ZM131.083 74.3186L130.507 74.0279L130.504 74.0336L131.083 74.3186ZM133.738 70.8227L134.166 71.3069L134.17 71.3029L133.738 70.8227ZM140.071 70.8546L139.595 71.2903L139.598 71.294L140.071 70.8546ZM137.993 72.9624L137.575 73.4548V73.4548L137.993 72.9624ZM135.753 73.2401L136.199 73.7072L136.208 73.6986L135.753 73.2401ZM134.389 75.0409L133.829 74.7185L133.319 75.6041L134.338 75.6847L134.389 75.0409ZM141.567 74.0122L140.922 74.0326C140.938 74.533 140.624 75.1303 139.567 75.7916L139.909 76.3392L140.252 76.8868C141.458 76.1323 142.25 75.1783 142.213 73.9917L141.567 74.0122ZM139.909 76.3392L139.563 75.7939C138.536 76.4453 137.488 76.7778 136.409 76.812L136.43 77.4575L136.45 78.103C137.781 78.0608 139.052 77.6477 140.255 76.8845L139.909 76.3392ZM136.43 77.4575L136.409 76.812C135.23 76.8493 134.289 76.7944 133.572 76.6588L133.452 77.2934L133.332 77.9279C134.176 78.0876 135.22 78.142 136.45 78.103L136.43 77.4575ZM133.452 77.2934L132.833 77.1086C132.674 77.6412 132.601 78.1777 132.618 78.7155L133.264 78.695L133.909 78.6746C133.897 78.2829 133.949 77.8849 134.071 77.4781L133.452 77.2934ZM133.264 78.695L132.618 78.7155C132.634 79.2216 132.729 79.73 133.024 80.0983L133.528 79.6947L134.032 79.291C134.004 79.256 133.923 79.0979 133.909 78.6746L133.264 78.695ZM133.528 79.6947L133.042 80.1193C133.256 80.3651 133.555 80.4733 133.808 80.5267C134.074 80.5827 134.383 80.598 134.72 80.5874L134.699 79.9419L134.679 79.2964C134.395 79.3053 134.2 79.2892 134.075 79.2629C133.938 79.2339 133.961 79.2086 134.015 79.2701L133.528 79.6947ZM134.699 79.9419L134.72 80.5874C136.047 80.5453 137.204 80.385 138.177 80.0945L137.993 79.4756L137.808 78.8568C136.972 79.1061 135.933 79.2566 134.679 79.2964L134.699 79.9419ZM137.993 79.4756L138.174 80.0954C138.635 79.9603 138.983 79.8594 139.219 79.7922C139.338 79.7586 139.426 79.7342 139.485 79.7184C139.515 79.7104 139.534 79.7056 139.544 79.7032C139.549 79.7019 139.548 79.7023 139.542 79.7035C139.539 79.704 139.531 79.7056 139.52 79.7072C139.514 79.7082 139.485 79.7126 139.448 79.7138L139.427 79.0683L139.407 78.4228C139.344 78.4248 139.291 78.4365 139.289 78.4368C139.272 78.4401 139.256 78.4439 139.243 78.4469C139.217 78.4532 139.185 78.4613 139.151 78.4704C139.082 78.4889 138.987 78.5155 138.866 78.5497C138.624 78.6184 138.272 78.7206 137.811 78.8559L137.993 79.4756ZM139.427 79.0683L139.448 79.7138C139.591 79.7093 139.697 79.7179 139.773 79.7321C139.85 79.7464 139.882 79.7637 139.889 79.7678C139.891 79.7692 139.877 79.7598 139.865 79.7388C139.855 79.7203 139.861 79.7184 139.862 79.7524L140.508 79.7319L141.153 79.7115C141.14 79.2876 140.951 78.9042 140.565 78.6671C140.227 78.4596 139.81 78.41 139.407 78.4228L139.427 79.0683ZM140.508 79.7319L139.862 79.7524C139.871 80.0323 139.642 80.5132 138.566 81.1372L138.89 81.6958L139.214 82.2545C140.338 81.6025 141.187 80.7742 141.153 79.7115L140.508 79.7319ZM138.89 81.6958L138.562 81.1393C137.588 81.7133 136.424 82.0324 135.051 82.0759L135.071 82.7215L135.092 83.367C136.645 83.3177 138.027 82.9532 139.218 82.2524L138.89 81.6958ZM135.071 82.7215L135.051 82.0759C133.753 82.1171 132.756 81.7452 131.993 81.0011L131.542 81.4634L131.091 81.9258C132.142 82.9507 133.498 83.4175 135.092 83.367L135.071 82.7215ZM131.542 81.4634L131.993 81.0011C131.203 80.2304 130.803 79.3257 130.769 78.2572L130.123 78.2776L129.478 78.2981C129.522 79.7083 130.068 80.9275 131.091 81.9258L131.542 81.4634ZM130.123 78.2776L130.769 78.2572C130.733 77.1275 131.019 75.9126 131.663 74.6035L131.083 74.3186L130.504 74.0336C129.788 75.4901 129.434 76.9146 129.478 78.2981L130.123 78.2776ZM131.083 74.3186L131.66 74.6092C132.323 73.2932 133.159 72.1953 134.166 71.3069L133.738 70.8227L133.311 70.3386C132.171 71.3446 131.238 72.5773 130.507 74.0279L131.083 74.3186ZM133.738 70.8227L134.17 71.3029C135.167 70.4065 136.105 69.9982 136.994 69.97L136.973 69.3245L136.953 68.679C135.672 68.7196 134.454 69.31 133.306 70.3426L133.738 70.8227ZM136.973 69.3245L136.994 69.97C137.854 69.9428 138.718 70.3303 139.595 71.2903L140.071 70.8546L140.548 70.419C139.497 69.269 138.295 68.6365 136.953 68.679L136.973 69.3245ZM140.071 70.8546L139.598 71.294C140.49 72.2553 140.894 73.166 140.922 74.0326L141.567 74.0122L142.213 73.9917C142.173 72.7238 141.579 71.5295 140.545 70.4153L140.071 70.8546ZM138.559 73.694L139.204 73.6735C139.195 73.3805 139.044 73.1417 138.924 72.9868C138.791 72.815 138.614 72.6422 138.411 72.47L137.993 72.9624L137.575 73.4548C137.744 73.5982 137.847 73.7051 137.903 73.7771C137.93 73.8123 137.937 73.8277 137.935 73.8245C137.934 73.8222 137.916 73.7827 137.913 73.7144L138.559 73.694ZM137.993 72.9624L138.411 72.47C137.975 72.1004 137.474 71.8416 136.924 71.859L136.945 72.5045L136.965 73.15C137.069 73.1467 137.267 73.1932 137.575 73.4548L137.993 72.9624ZM136.945 72.5045L136.924 71.859C136.613 71.8689 136.325 71.992 136.075 72.1462C135.82 72.3036 135.561 72.521 135.298 72.7816L135.753 73.2401L136.208 73.6986C136.43 73.4786 136.611 73.3332 136.754 73.2453C136.901 73.1543 136.966 73.15 136.965 73.15L136.945 72.5045ZM135.753 73.2401L135.307 72.7732C134.767 73.2887 134.277 73.9416 133.829 74.7185L134.389 75.0409L134.948 75.3633C135.35 74.6659 135.769 74.1183 136.199 73.7071L135.753 73.2401ZM134.389 75.0409L134.338 75.6847C134.529 75.6999 134.782 75.7005 135.081 75.691L135.061 75.0455L135.04 74.3999C134.755 74.409 134.559 74.4065 134.44 74.3971L134.389 75.0409ZM135.061 75.0455L135.081 75.691C136.281 75.653 137.25 75.5193 137.937 75.254C138.283 75.1202 138.602 74.9363 138.837 74.6733C139.085 74.3949 139.216 74.0521 139.204 73.6735L138.559 73.694L137.913 73.7144C137.915 73.749 137.91 73.7723 137.873 73.8131C137.823 73.8693 137.708 73.9576 137.471 74.0491C136.992 74.2342 136.199 74.3632 135.04 74.3999L135.061 75.0455ZM144.271 73.4613L144.916 73.4408L144.916 73.4237L144.914 73.4066L144.271 73.4613ZM144.023 70.5485L143.378 70.5689L143.379 70.5861L143.38 70.6031L144.023 70.5485ZM145.901 69.4293L145.517 69.9486L145.523 69.9534L145.53 69.958L145.901 69.4293ZM146.714 70.6183L146.104 70.8304L146.431 71.771L147.156 71.0888L146.714 70.6183ZM148.585 69.3184L148.869 69.8987L148.875 69.8954L148.585 69.3184ZM152.184 70.3157L151.661 69.9355L151.655 69.9448L152.184 70.3157ZM151.935 70.6338L151.464 70.1918L151.433 70.2252L151.406 70.2628L151.935 70.6338ZM151.634 70.9276L152.038 71.4318L152.047 71.4246L151.634 70.9276ZM151.332 71.1698L151.702 71.6993L151.719 71.6872L151.735 71.6739L151.332 71.1698ZM150.497 71.739L150.147 71.196L150.139 71.2018L150.497 71.739ZM148.564 73.5578L149.076 73.9515L149.081 73.9451L148.564 73.5578ZM147.414 76.4115L148.047 76.5391L148.048 76.5354L147.414 76.4115ZM146.186 80.896L145.591 80.6467L145.589 80.6515L146.186 80.896ZM143.522 81.6524L142.954 81.9594L142.958 81.9669L142.962 81.9742L143.522 81.6524ZM143.514 78.1376L142.903 77.9288L142.9 77.939L143.514 78.1376ZM144.137 75.7658L143.501 75.6561L143.499 75.669L144.137 75.7658ZM144.271 73.4613L144.914 73.4066L144.667 70.4938L144.023 70.5485L143.38 70.6031L143.627 73.5159L144.271 73.4613ZM144.023 70.5485L144.669 70.528C144.655 70.0924 144.72 69.873 144.773 69.7816C144.794 69.7455 144.808 69.7382 144.811 69.7367C144.815 69.7343 144.838 69.7214 144.902 69.7194L144.881 69.0739L144.861 68.4284C144.353 68.4445 143.92 68.6803 143.657 69.1321C143.424 69.5323 143.361 70.0406 143.378 70.5689L144.023 70.5485ZM144.881 69.0739L144.902 69.7194C145.072 69.714 145.273 69.7684 145.517 69.9486L145.901 69.4293L146.285 68.91C145.858 68.5945 145.379 68.412 144.861 68.4284L144.881 69.0739ZM145.901 69.4293L145.53 69.958C145.739 70.1048 145.944 70.3699 146.104 70.8304L146.714 70.6183L147.324 70.4062C147.105 69.7759 146.767 69.2484 146.272 68.9006L145.901 69.4293ZM146.714 70.6183L147.156 71.0888C147.679 70.5967 148.25 70.2009 148.869 69.8986L148.585 69.3184L148.302 68.7381C147.563 69.0992 146.886 69.57 146.271 70.1478L146.714 70.6183ZM148.585 69.3184L148.875 69.8954C149.522 69.5704 150.042 69.4273 150.449 69.4144L150.429 68.7689L150.408 68.1234C149.748 68.1443 149.039 68.3675 148.295 68.7413L148.585 69.3184ZM150.429 68.7689L150.449 69.4144C151.046 69.3955 151.403 69.4591 151.589 69.5409C151.631 69.5593 151.657 69.5758 151.673 69.5876C151.688 69.599 151.693 69.6058 151.694 69.6065C151.694 69.6067 151.693 69.6057 151.693 69.6059C151.693 69.6066 151.696 69.6145 151.697 69.6333L152.342 69.6129L152.988 69.5924C152.979 69.3231 152.898 69.0622 152.73 68.8359C152.566 68.6149 152.345 68.4627 152.11 68.3591C151.658 68.1596 151.067 68.1025 150.408 68.1234L150.429 68.7689ZM152.342 69.6129L151.697 69.6333C151.7 69.7485 151.691 69.8278 151.68 69.8788C151.669 69.9287 151.657 69.9413 151.661 69.9356L152.184 70.3157L152.706 70.6959C152.942 70.3709 153 69.9681 152.988 69.5924L152.342 69.6129ZM152.184 70.3157L151.655 69.9448C151.562 70.0766 151.5 70.1537 151.464 70.1918L151.935 70.6338L152.406 71.0757C152.504 70.9717 152.607 70.8368 152.712 70.6867L152.184 70.3157ZM151.935 70.6338L151.406 70.2628C151.414 70.2515 151.409 70.262 151.372 70.2981C151.338 70.3311 151.289 70.375 151.222 70.4306L151.634 70.9276L152.047 71.4246C152.2 71.2971 152.36 71.1521 152.464 71.0047L151.935 70.6338ZM151.634 70.9276L151.231 70.4235C151.096 70.5311 150.995 70.6118 150.928 70.6657L151.332 71.1698L151.735 71.6739C151.803 71.6201 151.904 71.5394 152.038 71.4317L151.634 70.9276ZM151.332 71.1698L150.962 70.6403C150.575 70.9109 150.305 71.0945 150.147 71.196L150.497 71.739L150.847 72.282C151.027 72.1661 151.314 71.9702 151.702 71.6993L151.332 71.1698ZM150.497 71.739L150.139 71.2018C149.32 71.7475 148.622 72.4039 148.048 73.1705L148.564 73.5578L149.081 73.9451C149.565 73.2997 150.155 72.7436 150.855 72.2763L150.497 71.739ZM148.564 73.5578L148.052 73.1642C147.442 73.9585 147.029 75.0146 146.78 76.2876L147.414 76.4115L148.048 76.5354C148.274 75.3811 148.628 74.5347 149.076 73.9515L148.564 73.5578ZM147.414 76.4115L146.781 76.2839C146.381 78.2662 145.982 79.7111 145.591 80.6467L146.186 80.896L146.782 81.1453C147.224 80.0902 147.643 78.5454 148.047 76.5391L147.414 76.4115ZM146.186 80.896L145.589 80.6515C145.196 81.6125 144.863 81.7391 144.74 81.743L144.761 82.3886L144.781 83.0341C145.76 83.0031 146.378 82.1346 146.784 81.1404L146.186 80.896ZM144.761 82.3886L144.74 81.743C144.582 81.7481 144.47 81.7149 144.381 81.6621C144.289 81.6073 144.185 81.5092 144.082 81.3306L143.522 81.6524L142.962 81.9742C143.152 82.3033 143.4 82.5817 143.721 82.7723C144.045 82.9648 144.405 83.046 144.781 83.0341L144.761 82.3886ZM143.522 81.6524L144.091 81.3454C143.85 80.9007 143.745 80.5209 143.735 80.1983L143.089 80.2187L142.444 80.2392C142.462 80.8117 142.645 81.3877 142.954 81.9594L143.522 81.6524ZM143.089 80.2187L143.735 80.1983C143.724 79.8517 143.834 79.2478 144.129 78.3361L143.514 78.1376L142.9 77.939C142.598 78.8727 142.425 79.6562 142.444 80.2392L143.089 80.2187ZM143.514 78.1376L144.126 78.3463C144.448 77.4018 144.668 76.5717 144.776 75.8626L144.137 75.7658L143.499 75.669C143.407 76.2758 143.211 77.0268 142.903 77.9288L143.514 78.1376ZM144.137 75.7658L144.774 75.8755C144.899 75.1476 144.945 74.3345 144.916 73.4408L144.271 73.4613L143.625 73.4817C143.652 74.3094 143.608 75.0327 143.501 75.6562L144.137 75.7658Z" fill="black" mask="url(#path-4-outside-1_189_495)"/>
<rect x="13.9346" y="47.2132" width="24" height="24" rx="12" transform="rotate(-7.15119 13.9346 47.2132)" fill="#FFF200"/>
<path d="M28.9425 60.9518L27.7518 61.1012L27.1032 55.9317C26.8331 56.4292 26.3371 56.7333 25.6227 56.823L25.5433 56.8329L25.4001 55.6919L25.4795 55.6819C26.5114 55.5524 27.0036 55.0573 26.9028 54.2536L26.8903 54.1544L28.0711 54.0063L28.9425 60.9518Z" fill="black"/>
</svg>
