<svg width="57" height="57" viewBox="0 0 57 57" fill="none" xmlns="http://www.w3.org/2000/svg">
<g clip-path="url(#clip0_176_1069)">
<path d="M24.0524 6.41587C29.7546 5.30771 34.8397 6.66149 39.9282 9.49597C50.414 15.3387 54.9604 33.8499 42.7496 45.1916C34.3238 53.0167 20.9409 52.9396 12.5443 43.6543C3.26303 33.3962 5.42866 16.6901 17.0012 9.29625C19.1707 7.90571 21.5105 6.92226 24.0524 6.41587ZM47.2211 22.5796C46.4811 18.3924 43.376 14.0105 38.9281 10.9823C33.2306 7.10891 26.8465 6.70808 20.5214 9.64083C8.87706 15.0234 5.1308 30.2384 12.7861 40.7005C18.1995 48.0985 27.8603 50.8531 35.7926 47.2605C44.7276 43.2111 49.5646 33.5743 47.2211 22.5796Z" fill="black"/>
<path d="M43.5103 30.1501C42.3161 37.0153 38.5968 41.6589 31.8194 43.1624C26.0092 44.4464 21.1244 42.4632 17.3975 37.6325C17.2498 37.7401 17.0745 37.8789 16.9006 37.9834C16.6519 38.1376 16.5105 38.2353 16.201 37.9766C16.0561 37.8536 15.822 37.6302 16.1001 37.291C16.7822 36.4416 17.5484 35.6683 18.3279 34.9177C18.4477 34.799 18.7723 34.7225 19.0197 34.9688C19.2901 35.2442 19.2023 35.4754 19.1141 35.6642C18.9489 36.0138 18.6704 36.3104 18.4039 36.6642C22.5183 40.7838 27.2708 42.7861 33.0843 40.948C38.2116 39.3301 41.298 34.6316 41.7678 29.7571C41.7904 29.5395 41.5313 29.4405 41.2547 29.2174C40.7972 28.8619 40.529 28.8414 40.7999 28.061C41.0112 27.5656 41.529 27.7211 41.8272 27.8035C42.7776 28.0728 43.73 28.3929 44.6067 28.8394C44.9498 29.0145 45.5616 29.2526 45.3423 29.9541C45.1491 30.6586 44.6135 30.3365 44.0509 30.2924C43.8904 30.2579 43.7248 30.1989 43.5103 30.1501Z" fill="black"/>
<path d="M17.3896 22.1389C17.6975 21.2912 18.0786 20.5899 19.0395 20.5846C19.958 20.5797 20.4774 21.2713 20.634 21.9793C20.9521 23.3771 21.2297 24.8259 21.2048 26.253C21.1803 27.7225 20.8077 29.1967 20.5068 30.6474C20.2953 31.6708 19.6902 31.9932 18.8453 31.4549C16.1298 29.7074 14.2112 27.3334 13.6787 24.0563C13.5266 23.1261 13.8654 22.2634 14.7222 21.7606C15.6473 21.2179 16.5096 21.5142 17.3896 22.1389ZM19.2328 21.9149C19.2328 21.9149 18.9987 21.6915 18.7157 21.8443C18.4839 21.8758 18.4342 22.8994 18.3949 23.444C18.3569 23.9542 18.4548 24.2998 18.1242 24.4286C17.5879 24.5919 17.5314 24.1185 17.2552 23.9379C17.1253 23.8459 16.3076 22.5015 15.6298 22.9243C15.1926 23.1946 15.3132 23.893 15.4247 24.3039C15.981 26.3926 17.3224 28.0019 18.8706 29.7043C19.3906 26.9817 20.2453 23.2951 19.2328 21.9149Z" fill="black"/>
<path d="M35.8784 17.5627C36.4039 17.1037 36.9069 16.7004 37.4855 16.6986C38.3451 16.6974 38.6892 17.5279 38.9196 18.263C39.6563 20.6033 39.0437 22.843 38.3428 25.067C38.1838 25.5686 37.9068 26.0352 37.7676 26.5496C37.3671 28.0127 36.1495 28.0121 35.2679 27.0131C33.4219 24.9049 32.1055 22.4389 31.7648 19.59C31.6309 18.5027 31.8172 17.3995 32.9419 16.8746C34.0713 16.3318 35.2642 16.8654 35.8784 17.5627ZM36.0403 25.6596C36.2839 26.2131 36.3123 25.7389 36.4026 25.6008C36.9623 24.2066 37.53 22.8107 37.7296 21.3641C37.8846 20.2334 38.3134 17.3596 37.3339 17.8456C37.0844 17.9148 36.9856 18.7443 36.8473 19.1819C36.7327 19.5294 36.4698 20.1038 36.3199 20.1607C35.7279 20.3016 35.6886 19.7479 35.5096 19.4619C35.0936 18.8167 34.8877 17.7105 33.9117 18.0509C32.9439 18.3897 33.2885 19.4669 33.5692 20.1574C34.3164 22.0188 35.2069 23.8332 36.0403 25.6596Z" fill="black"/>
</g>
<defs>
<clipPath id="clip0_176_1069">
<rect width="48" height="48" fill="white" transform="translate(0 9.83203) rotate(-11.8196)"/>
</clipPath>
</defs>
</svg>
