<svg width="75" height="75" viewBox="0 0 75 75" fill="none" xmlns="http://www.w3.org/2000/svg">
<g clip-path="url(#clip0_171_401)">
<path d="M16.8258 36.0933C16.448 35.7797 16.4405 34.9471 16.8926 34.592C17.2743 34.253 18.0085 34.3765 18.6066 34.4226C19.5494 34.5083 19.7167 34.5491 20.7302 34.6632C22.206 34.8345 22.0835 35.2921 22.0045 35.6162C21.8822 36.1181 21.5647 36.2845 21.1449 36.3705C20.0369 36.5989 19.9785 36.4296 19.8242 36.8351C19.6958 37.1805 18.3195 40.6003 17.6088 41.7897C16.1716 44.1866 13.8047 45.1717 11.7797 44.3902C9.33865 43.4519 7.87537 41.0017 8.42826 38.2784C9.4474 33.1874 11.8049 29.2867 16.226 26.5091C17.7552 25.5525 19.1223 25.4426 20.2169 25.5875C21.1182 25.7074 21.1487 26.446 20.9792 26.9142C20.748 27.5447 20.1548 27.4334 19.607 27.4993C18.4541 27.6392 17.7273 27.8941 17.0414 28.4359C13.9341 30.9133 11.9828 34.193 10.9037 37.9844C10.7248 38.6276 10.7135 39.356 10.8087 40.0106C10.9773 41.1373 11.5984 41.9976 12.7568 42.3353C13.9231 42.686 14.8413 42.1454 15.405 41.2415C16.3358 39.7403 17.0911 38.1409 17.9171 36.5698C17.9327 36.5514 17.909 36.5124 17.888 36.5073C17.023 36.3297 16.9911 36.2333 16.8258 36.0933Z" fill="#FFF200"/>
<path d="M29.1299 39.7896C29.4625 38.6522 29.5571 37.4456 29.9132 36.3028C30.1617 35.5104 30.7206 35.126 31.58 35.2357C32.8391 35.3875 33.8359 34.8882 34.6291 33.9516C35.5442 32.8786 35.7709 31.4937 35.1883 30.5209C34.6398 29.5897 32.9514 28.7905 31.8286 29.1704C31.1877 29.3909 30.4916 29.9745 30.1768 30.5846C28.019 34.7113 25.9582 38.8949 23.8372 43.0527C23.4553 43.8015 23.1074 45.0017 21.9556 44.4551C20.8327 43.9267 21.5784 42.912 21.9162 42.2079C24.0283 37.8596 26.1796 33.5319 28.3807 29.2275C28.6542 28.6959 29.0146 27.8533 29.5654 27.4115C30.0045 27.0643 30.4619 27.5967 30.8319 27.4875C31.8325 27.1996 32.9574 27.1747 33.8781 27.4877C35.9888 28.1904 37.1534 30.0029 36.8059 32.1558C36.3978 34.6485 35.1973 36.4385 32.5222 36.9608C32.2067 37.0279 31.9858 36.7525 31.7315 37.8869C31.3577 39.5572 30.8898 41.2044 30.4612 42.8724C30.3618 43.2802 30.2025 43.7066 30.0166 44.0601C29.712 44.6284 29.3174 44.5654 28.9701 44.5362C28.7533 44.5166 28.3243 44.3677 28.4091 43.7016C28.5736 42.3902 28.9473 41.1298 29.1299 39.7896Z" fill="#FFF200"/>
<path d="M51.1242 39.3566C50.3295 39.1629 49.4068 38.9491 48.633 38.7606C47.7379 40.1154 46.8351 41.5017 45.9114 42.8828C45.7018 43.1973 45.5175 43.3628 45.2921 43.6513C45.02 43.9949 44.6465 44.3912 44.0839 44.1544C43.5523 43.8809 43.7864 43.2843 43.9388 43.0224C44.6544 41.7678 45.4119 40.5234 46.2795 39.3723C48.2399 36.7373 50.237 34.1334 52.2997 31.5787C52.665 31.1249 53.2415 30.6229 53.9238 30.7781C54.6269 30.9384 54.8385 31.8429 54.8182 32.3807C54.7515 34.3363 54.1979 36.0624 53.7353 37.7331C53.2088 39.6209 52.6991 41.258 51.9188 43.0507C51.7411 43.4616 51.4689 44.215 50.6137 43.9512C50.02 43.7511 50.1905 43.0062 50.3094 42.3816C50.5392 41.0751 50.849 40.4859 51.1242 39.3566ZM52.7415 33.4476C52.8561 32.9771 52.9826 32.731 52.6172 33.1847C51.6175 34.5141 50.4623 36.0271 49.3953 37.4509C50.0885 37.6974 50.6763 37.7852 51.5388 37.9733C52.0121 36.3494 52.2883 34.9434 52.7415 33.4476Z" fill="#FFF200"/>
<path d="M37.7331 41.4875C37.7099 41.5372 37.7416 41.5892 37.7808 41.6099C38.8061 41.9483 39.711 42.2353 40.5978 42.5511C41.4113 42.8491 41.4568 43.0263 41.4612 43.3265C41.3106 43.8991 40.7202 43.8216 40.4144 43.7582C39.2983 43.5195 38.1818 43.192 37.1014 42.8068C36.0211 42.4217 35.5981 41.521 36.0569 40.5472C37.8024 36.885 39.6055 33.259 41.5185 29.6819C41.7844 29.1818 42.8679 28.7812 43.5002 28.8688C44.519 29.0063 45.5063 29.546 46.4592 29.9998C46.6765 30.1081 47.1894 30.3217 46.8895 30.8247C46.6522 31.2986 46.2992 31.2015 46.0378 31.1378C44.6497 30.7884 43.4244 30.1796 43.1786 30.5518C42.6223 31.3799 42.3769 32.2506 41.9308 33.1721C41.6884 33.6669 41.2784 34.5308 40.9353 35.2115C41.7405 35.4077 42.4696 35.5522 43.1783 35.7803C43.691 35.9495 44.0694 35.942 43.9576 36.4465C43.8248 36.9459 43.3522 36.9304 43.0416 36.9322C42.1123 36.9273 41.1797 36.7997 40.1481 36.7145L37.7331 41.4875Z" fill="#FFF200"/>
<path d="M60.0786 32.3881C59.5557 32.2607 59.5557 32.2607 58.672 32.0232C58.3504 31.9337 57.8021 31.9109 57.9703 31.2208C58.1462 30.4993 58.6062 30.6114 58.8597 30.6621C60.3206 30.9406 61.761 31.3027 63.1913 31.7066C63.4397 31.7782 63.923 31.8406 63.7802 32.4262C63.6758 32.8549 63.5638 32.9052 62.8245 32.8025C62.5554 32.7702 62.2576 32.7197 62.1086 32.6945C60.5093 36.348 58.9643 39.9151 57.372 43.4485C57.0371 44.1866 56.6731 45.3164 55.603 44.8895C54.4099 44.4215 55.1605 43.3416 55.4462 42.669C56.7771 39.5261 58.2309 36.4242 59.6429 33.3122C59.751 33.0505 59.88 32.7939 60.0786 32.3881Z" fill="#FFF200"/>
<path d="M67.0697 33.8374C65.7627 36.6095 64.603 39.1405 63.2384 41.8764C63.0475 42.2508 62.6436 42.8171 61.977 42.6435C61.3863 42.5217 61.7047 41.6245 61.8642 41.2424C63.1125 38.2566 64.421 35.2966 65.7609 32.3442C65.9464 31.9463 66.3549 31.2704 66.781 31.3854C67.9853 31.5348 67.4508 32.9554 67.0697 33.8374Z" fill="#FFF200"/>
<path d="M61.1084 45.8438C61.556 46.0526 61.6513 46.7072 61.568 47.1854C61.4215 48.0138 60.7713 48.4092 59.8618 48.2319C59.3653 48.133 58.8931 47.7521 58.9947 46.8353C59.0996 46.0411 59.9117 45.2088 61.1084 45.8438Z" fill="#FFF200"/>
</g>
<defs>
<clipPath id="clip0_171_401">
<rect width="61.992" height="61.992" fill="white" transform="translate(14.678) rotate(13.6962)"/>
</clipPath>
</defs>
</svg>
