<svg height="72" viewBox="0 0 138 72" width="138" xmlns="http://www.w3.org/2000/svg" xmlns:xlink="http://www.w3.org/1999/xlink"><mask id="a" fill="#fff"><path d="m0 0h102.532437v35.4171854h-102.532437z" fill="#fff" fill-rule="evenodd"/></mask><g fill="none" fill-rule="evenodd"><path d="m136.860433 22.943445c-.023286-.0921325-.067834-.3254001-.067834-.7510324v-7.1064601c0-5.50153067-3.503063-9.3438647-8.519734-9.3438647-1.456909 0-2.959379.36356938-4.417302 1.05314639-1.237209-.68329984-2.66172-1.05314639-4.180389-1.05314639-1.284794 0-2.548327.2759928-3.780474.82402985-.969923-.49407368-2.074502-.76054948-3.261089-.76054948h-1.839614c-1.107616 0-2.169672.42998584-2.968492 1.19407888-1.507532-.86412271-3.315761-1.35272917-5.34369-1.35272917-2.7721789 0-6.3380139.68633718-8.8722676 1.707794-.0447501.01822403-.0871716.03989038-.1314155.05953183-1.6252797-1.12482757-3.6695095-1.76732583-6.001679-1.76732583-2.1104438 0-4.7658873.42279747-7.0172636 1.0781538-.6822874-.44355262-1.4899156-.69787907-2.3429014-.69787907h-11.0385981c-.0405991 0-.080692.00394854-.1208861.00516348-.5934959-.11430516-1.3297466-.22678792-2.3857279-.22678792-1.4798924 0-2.8437585.34463664-4.0378373.99715812-1.0817986-.56575485-2.3082758-.91079647-3.6523992-1.01578713-.7729013-.05932933-1.5404367.09355002-2.2270776.42978336-.1695847-.05133102-.3425105-.0966886-.5212072-.12746696-.9440047-.16209262-2.0813866-.2514916-3.2027719-.2514916-.673884 0-1.9903677.03330947-3.2354738.25736378-.6308551.11339396-1.2090631.36113951-1.7068828.71012967-1.1760574-.72086159-2.5607798-1.03148004-3.9083455-1.03148004-1.1156143 0-2.2157382.19692075-3.2308166.56281876-.2743729-.10934418-.5620088-.19530085-.8632115-.24703684-.9430935-.16239635-2.0808804-.25179533-3.2037843-.25179533-.6735804 0-1.989659.03330947-3.2349677.25736378-.6310576.11339396-1.2092655.36093702-1.7070853.71012967-1.1761586-.72116533-2.5605773-1.03148004-3.9083455-1.03148004-.6313613 0-1.2561418.06955504-1.8653306.1904411-.7444516-1.23791779-1.7339151-2.41488633-3.0684203-3.46529912-2.3558607-1.84234808-5.911875-2.49891935-8.4542283-2.49891935-3.06477541 0-5.57645158.03989037-8.14441976.12949185-1.09101187.03796673-2.12684543.48972016-2.89721563 1.26333019l-.22162444.22263689c-.80256599.80580581-1.25310448 1.89702017-1.25310448 3.03430082v21.34843755c0 .7546773.20228672 1.4870808.5704121 2.1311989-.37136521.6464468-.57577807 1.3820901-.57577807 2.1406147v17.4628721c0 1.1445702.45610695 2.2415555 1.26758246 3.0487788l.18193656.1810253c.78130462.7774574 1.83121118 1.2249585 2.93315747 1.2505734l.53538147.0121494c2.04443232.0474837 3.97547068.0928413 6.10261982.0928413 1.0668144 0 4.7336916-.1596628 7.3458024-2.1721018 1.7050604 1.5505611 4.0121212 2.4053693 6.7959429 2.4053693 1.665575 0 3.35474-.3149719 4.8725991-.8744496.3722764.1931747.7759387.3374483 1.2064307.4158116 1.1168293.2034004 2.3262973.2253705 2.7945536.2253705.5815491 0 1.7180198-.029361 2.7949586-.2253705.4572207-.0835268.8864978-.2371149 1.2775045-.4489186 1.0021191.5054131 2.1156072.7260251 3.1674374.7260251 1.975586 0 3.9206974-.7054724 5.3364007-1.9349869.0405991-.0355369.0766422-.0737061.1159251-.1101542.623363.8917625 1.5802258 1.5425628 2.7130517 1.7601375 1.055475.2028942 2.2621082.2332676 2.8875974.2332676 1.111767 0 2.083209-.0784646 2.8879011-.2332676.745869-.1433624 1.4155008-.4746347 1.9639429-.9384363.5560353.4703825 1.2359941.8039835 1.9939112.9440048.8160315.1511581 1.7954719.2276991 2.9106812.2276991 1.0605372 0 1.9784208-.0747186 2.8061967-.2276991.3965751-.0733011.7712814-.2011731 1.1188542-.3723777 1.0713704.5221184 2.3218425.8333443 3.7548586.8333443 1.3116239 0 2.5482255-.242582 3.7010978-.7242026.8684763.337347 1.8118735.5221184 2.8047794.5418611.769459.0143767 1.5276798-.1812278 2.194983-.5567441 1.0297589.4680538 2.2224203.7390856 3.5728209.7390856 1.3116239 0 2.5481242-.242582 3.701199-.7242026.2266867.088184.4591443.1647249.6961579.2319514-.0191352.2286103-.0317908.4568156-.0317908.6821861 0 1.7791715 1.0956692 3.3749889 2.7567894 4.0138424 1.8593572.7151919 4.2601705 1.1421404 6.4215404 1.1421404 3.5027596 0 6.4283241-1.2467261 8.2375651-3.5107579.012149-.0163004.025311-.0326008.038473-.0490024.317908-.4091295.595318-.8408365.839317-1.3013982 1.219998 1.2137203 2.72348 2.1502329 4.207726 2.5117774.308796.0751235.621642.1119766.931451.1119766 1.045856 0 2.064377-.4179378 2.813587-1.1846632l2.815613-2.8809152c1.322254 1.8902368 3.391694 3.4585157 5.425698 3.9536018.308796.0751235.62063.1119766.930438.1119766 1.046869 0 2.06539-.4179378 2.813588-1.1846632l8.341543-8.5357302c.316895-.3241852.575069-.7008151.763384-1.1132857.966886-2.1137848.966886-5.1807877-.001012-7.2922439-.196415-.4274547-.466738-.8165378-.799833-1.1483163l-6.628484-6.6045906c.021261-.0142755.04556-.0259186.066821-.0403966 1.154189.6784401 2.498717.9715432 3.808822.9715432 2.187896 0 4.338332-.7780648 5.897499-2.13454 1.63915-1.4252203 1.953008-3.8418278.754272-5.6343636" fill="#010508"/><path d="m111.61914 41.3378687-5.687922-6.9533782c.451551-1.4894094 2.348875-3.206518 3.882731-3.5667463l8.386091 8.3551099c.497111 1.0825073.497111 2.9327525 0 4.0169809l-8.341543 8.5357302c-1.489309-.3625569-3.295512-2.1220869-3.748076-3.5685686z" fill="#f8eb17"/><path d="m123.605489 41.3378687-5.689947-6.9533782c.451551-1.4894094 2.34685-3.206518 3.882731-3.5667463l8.387103 8.3551099c.495086 1.0825073.495086 2.9327525 0 4.0169809l-8.341543 8.5357302c-1.489308-.3625569-3.296524-2.1220869-3.748075-3.5685686z" fill="#f8eb17"/><path d="m12.5114034 8.2656096c-1.0788625 0-1.9982648 0-3.14081018-.03179081v14.18072441c1.14254538-.0316895 2.06194768-.0316895 3.14081018-.0316895 3.6479444 0 4.1866669-3.8398029 4.1866669-7.0742644 0-3.2037843-.5387225-7.0429797-4.1866669-7.0429797zm5.8363465 16.4964923c-1.458631 1.1413304-4.0602124 1.5859967-5.8048595 1.5859967-2.76002914 0-5.2344473-.0634803-7.9944765-.1269607l-.22162444-.2229406v-21.34843755l.22162444-.22253564c2.72854212-.09516993 5.23444736-.12696073 7.9944765-.12696073 1.7446471 0 4.3462285.44517253 5.8048595 1.58609799 2.9825648 2.34745742 3.5531794 5.74107533 3.5531794 9.42222793 0 3.7118298-.5386213 7.1059539-3.5531794 9.4535126z" fill="#fffffe"/><path d="m23.6157092 14.2942196c0-1.2389302-.1907448-2.3480649-.7611569-3.1739171.6979803-.6024054 1.8396145-1.0461605 3.077026-1.0461605 1.9986698 0 2.6643531 1.0783563 2.6643531 3.0763173v6.7257804c0 1.459036.2855098 2.125428 1.3645748 2.125428.6024054 0 1.5221114-.285206 2.3472549-1.0783563v-10.5958554c.6975753-.1254421 1.6177876-.1894287 2.4744182-.1894287.8240298 0 1.7441408.0639866 2.4740131.1894287v11.2938357c0 1.0139648.3489902 1.9350882.8884215 2.3148567-.1903399.8572381-.8884215 1.9985685-1.5230226 2.4759368-1.7763366-.0639866-3.045134-.9207184-3.7431144-2.2211041-1.332379 1.2052158-2.8866862 2.2522875-4.8215718 2.2522875-2.8868887 0-4.4411959-2.3475587-4.4411959-5.6464117z" fill="#fffffe"/><path d="m39.7633126 14.2942196c0-1.2389302-.1904411-2.3480649-.7610557-3.1739171.6970691-.6024054 1.839412-1.0461605 3.0768236-1.0461605 1.9984672 0 2.6648592 1.0783563 2.6648592 3.0763173v6.7257804c0 1.459036.2850036 2.125428 1.3638661 2.125428.6028104 0 1.5230226-.285206 2.3474574-1.0783563v-10.5958554c.6980816-.1254421 1.6177876-.1894287 2.4745194-.1894287.8249411 0 1.7441409.0639866 2.4744182.1894287v11.2938357c0 1.0139648.3484839 1.9350882.8884214 2.3148567-.1908461.8572381-.8884214 1.9985685-1.5235288 2.4759368-1.7758304-.0639866-3.0450328-.9207184-3.7426081-2.2211041-1.3321765 1.2052158-2.8869899 2.2522875-4.8215718 2.2522875-2.8872937 0-4.4416009-2.3475587-4.4416009-5.6464117z" fill="#fffffe"/><path d="m56.5458209 10.074142c2.0307643.1586503 3.3316563 1.2052158 4.0609211 2.8859775.6980816-1.6489709 1.9032974-2.854288 3.965245-2.854288.9513956 0 1.459036.1269608 2.0936372.2538203 0 1.1735262-.4123693 3.2676696-1.2363991 4.6325481-.5399375-.190846-1.0788625-.2542252-1.619205-.3182117-1.1413304 0-1.9345819.5706145-2.6003664 1.6186987v9.8645657c-.6985878.1273657-1.6177876.190846-2.4745194.190846-.8249411 0-1.7450521-.0634803-2.4744182-.190846v-10.2467641c0-1.8711015-.6975753-2.9181732-1.205722-3.298853.1909473-.8562256.8889276-2.0624538 1.4908268-2.5374935" fill="#fffffe"/><path d="m70.8851956 16.8950923c.761562-1.0162933 1.8389058-2.2211041 2.5696894-2.983071l-.0956762-.1582454c-1.1735262.1264545-2.7916175.2543265-3.9335554.2543265h-1.4870808c-.1268594-.5076405-.1903398-1.0479829-.1903398-1.5234276 0-.7615619.1268595-1.4908268.2855098-2.1572188h10.0834565c.4134829 1.205722.666392 1.9985685.666392 2.6961438 0 .4768621-.1582454 1.0479829-.4754447 1.4912318l-3.9022708 5.1719795c-.6976766.9186935-1.5539022 2.0296506-2.3784383 2.8536804l.0952712.1587516c.9186935-.1265558 1.711945-.1904411 2.5046903-.1904411h1.1110583c.9508893 0 2.0619476-.0942588 2.949964-.5389251.3494964.8567319.5076405 1.3326828.5076405 1.9984673 0 1.2999807-.6653796 2.1889084-2.6331697 2.1889084h-9.5798658c-.4124706-1.1735263-.5389251-1.8393108-.5389251-2.4100266 0-.5407475.1581441-1.1745387.6974741-1.8412344z" fill="#fffffe"/><path d="m88.1437561 22.0650468v-2.536886c-.6350062-.0321958-1.2696074-.0634804-1.7129575-.0634804-1.4282576 0-1.9984673.8240298-1.9984673 2.0297518 0 .8562257.5702097 1.4907256 1.4586311 1.4907256.7292649 0 1.5225164-.3171993 2.2527937-.920111zm4.3455197 4.3470384c-1.6177875-.032297-2.7277322-.7620681-3.4258137-1.6826853-1.1101471 1.0480841-2.5696893 1.9032973-4.6311308 1.9032973-3.2676696 0-4.8223818-2.5369873-4.8223818-4.8214706 0-3.8065947 3.0138495-5.4872551 6.2810129-5.4872551.5707158 0 1.4269414 0 2.2527937.0624679v-.6029116c0-1.3325815-.6350062-1.9984673-2.0629601-1.9984673-1.3638661 0-3.012432.5091591-4.6623141 1.0162934-.6984865-.8258523-1.0787613-2.2211042-1.2062282-3.4580095 2.1259342-.8567319 5.2027578-1.39616315 7.2652116-1.39616315 2.759523 0 5.6460067 1.39616315 5.6460067 5.42488845v6.4391569c0 .9202122.2542252 1.6181926.8888264 2.0615427-.1908461.8566306-.8888264 2.0619476-1.5230226 2.5393159z" fill="#fffffe"/><path d="m103.149017 22.0650468v-2.536886c-.634804-.0321958-1.268595-.0634804-1.713059-.0634804-1.428157 0-1.9983662.8240298-1.9983662 2.0297518 0 .8562257.5702092 1.4907256 1.4590362 1.4907256.728657 0 1.522415-.3171993 2.252389-.920111zm4.346431 4.3470384c-1.618902-.032297-2.728543-.7620681-3.426118-1.6826853-1.110653 1.0480841-2.5706 1.9032973-4.6317382 1.9032973-3.2672646 0-4.8223818-2.5369873-4.8223818-4.8214706 0-3.8065947 3.0138495-5.4872551 6.281418-5.4872551.570716 0 1.427245 0 2.252389.0624679v-.6029116c0-1.3325815-.634804-1.9984673-2.061948-1.9984673-1.3644736 0-3.0134445.5091591-4.6638328 1.0162934-.6974741-.8258523-1.078255-2.2211042-1.2052158-3.4580095 2.1253268-.8567319 5.2027576-1.39616315 7.2658196-1.39616315 2.758915 0 5.645399 1.39616315 5.645399 5.42488845v6.4391569c0 .9202122.253111 1.6181926.887915 2.0615427-.19034.8566306-.887915 2.0619476-1.521706 2.5393159z" fill="#fffffe"/><path d="m117.614846 14.4831421c-.667202.0316895-1.427549.4450713-2.093739 1.0792675v10.594843c-.697575.1273657-1.618901.190846-2.474418.190846-.824131 0-1.776843-.0634803-2.474418-.190846v-15.8297966l.222738-.2216245h1.839615c1.363765 0 2.252692.7298724 2.664758 1.9989735 1.236196-1.1431528 2.727529-2.0623526 4.376804-2.0623526 1.744445 0 3.014052.8571369 3.711627 2.1893134 1.364778-1.2062283 3.140608-2.1893134 4.886065-2.1893134 2.791314 0 4.218863 2.1580288 4.218863 5.0435001v7.1064601c0 1.2370066.221725 2.3466474.793757 3.1404051-.729973.6345-1.840627 1.0792675-3.077836 1.0792675-1.998568 0-2.664758-1.0792675-2.664758-3.077836v-6.7569637c0-1.6811667-.824131-2.0941434-1.491333-2.0941434-.602405 0-1.363765.4450713-2.028942 1.1110583v10.5630522c-.698587.1273657-1.650287.190846-2.506816.190846-.825144 0-1.745457-.0634803-2.474418-.190846v-9.5482775c0-1.6807617-.729974-2.125833-1.427549-2.125833" fill="#fffffe"/><path d="m11.0159193 33.2282771c-.882448 0-1.63479664 0-2.56867688-.0257162v11.5976708c.93388024-.0257161 1.68622888-.0257161 2.56867688-.0257161 2.9841848 0 3.4253075-3.1397977 3.4253075-5.7845093 0-2.6215266-.4411227-5.7617292-3.4253075-5.7617292zm4.7742906 13.4929698c-1.1933701.9336777-3.3213293 1.2966396-4.748372 1.2966396-2.25704596 0-4.28143185-.0518372-6.53847784-.1039782l-.18193656-.1810253v-17.4628721l.18193656-.1815316c2.23112737-.0774521 4.28143188-.1036744 6.53847784-.1036744 1.4270427 0 3.5550019.3630631 4.748372 1.2976521 2.4392863 1.9201039 2.9065302 4.6964335 2.9065302 7.7075493 0 3.0333896-.4413253 5.8102254-2.9065302 7.7312406z" fill="#fffffe"/><path d="m23.4711319 39.897563h3.4249025v-.2855098c0-1.1950914-.4932637-2.2062212-1.7124512-2.2062212-1.1413305 0-1.6085743.8039834-1.7124513 2.491731zm.0259186 2.8024506c.1296944 1.4003142.6228569 2.46318 2.3353081 2.46318 1.1674516 0 2.308782-.3629619 3.3731665-.7778623.5963308.5963308.9600014 1.5841744 1.0636759 2.3881578-1.2976521.9332728-3.2693908 1.4777663-5.0856178 1.4777663-4.5669417 0-5.7862305-3.3470455-5.7862305-6.7723529 0-3.9172551 1.6866339-6.9529733 5.8121491-6.9529733 3.425105 0 5.3967425 2.3614291 5.3967425 5.5013281 0 1.1408242-.0776547 1.8146071-.3370433 2.6727563z" fill="#fffffe"/><path d="m43.1905438 44.6187002c0 1.0135597.1563216 1.9210151.622958 2.569588-.5968369.5184737-1.5048998.8814356-2.5164347.8814356-1.6349991 0-2.1801001-.8814356-2.1801001-2.5150173v-5.5274492c0-1.1670466-.2332675-1.7138687-1.1156143-1.7138687-.5193848 0-1.2453086.2594899-1.9201039.8837642v8.6649183c-.5711208.1039782-1.323267.1558154-2.0240822.1558154-.6737828 0-1.4526576-.0518372-2.0235759-.1558154v-12.9469577l.1815316-.1815315h1.5312234c1.0890882 0 1.7899034.5702096 2.1267442 1.557547 1.0126485-.9094803 2.1801001-1.6093843 3.6853036-1.6093843 2.3611255 0 3.6321503 1.920104 3.6321503 4.6193864z" fill="#fffffe"/><path d="m59.9782155 42.3630716c0-.7283537.0261211-1.2211112.0261211-1.9210152-.3629619 0-.9341839.0257162-1.2971458.0257162h-3.0096984c-.3638731 0-.9084679-.0257162-1.2980571-.0257162 0 .699904.0261211 1.1926615.0261211 1.9210152v5.4989995c-.6742891.1296943-1.5042924.1558154-2.0755144.1558154-.4931625 0-1.4011241-.0261211-2.0763244-.1558154v-17.7213495c.6752003-.1296944 1.5831619-.1559167 2.0763244-.1559167.571222 0 1.4012253.0262223 2.0755144.1559167v4.9558222c0 .7270375-.0261211 1.2201999-.0261211 1.9201039.3895892 0 .934184-.0256149 1.2980571-.0256149h3.0096984c.3629619 0 .9341839.0256149 1.2971458.0256149 0-.699904-.0261211-1.1930664-.0261211-1.9201039v-4.9558222c.6747953-.1296944 1.5314259-.1559167 2.0764257-.1559167.5183723 0 1.4269414.0262223 2.0755144.1559167v17.7213495c-.7009164.1296943-1.4530626.1558154-2.0236772.1558154-.5712221 0-1.4273465-.0261211-2.1282629-.1558154z" fill="#fffffe"/><path d="m72.8231186 44.5150257v-2.074502c-.5188786-.0256149-1.0377572-.0518372-1.4008203-.0518372-1.1683628 0-1.6349992.6743903-1.6349992 1.659804 0 .699904.4666364 1.2187826 1.1936739 1.2187826.5962295 0 1.2452074-.2593887 1.8421456-.7522474zm3.5545969 3.5546981c-1.323267-.0261211-2.2313299-.6224518-2.8024507-1.374193-.9080628.8558206-2.1016355 1.5557246-3.7879657 1.5557246-2.6727563 0-3.9442873-2.074097-3.9442873-3.9433762 0-3.1140816 2.4651037-4.4883758 5.1379612-4.4883758.4670414 0 1.1674516 0 1.8421456.0518372v-.4926562c0-1.0914169-.5188786-1.6359104-1.6868363-1.6359104-1.1157156 0-2.4651037.4152041-3.8140868.8301045-.5706146-.674289-.8823467-1.8152145-.98592-2.8272556 1.7385724-.7008151 4.2555133-1.1418366 5.9417422-1.1418366 2.2575522 0 4.6185764 1.1418366 4.6185764 4.437956v5.2661369c0 .7517412.2071465 1.3243807.7265313 1.6872414-.1554105.7004102-.7265313 1.6855202-1.2454099 2.0746032z" fill="#fffffe"/><path d="m85.0953823 44.5150257v-2.074502c-.5183724-.0256149-1.037656-.0518372-1.4007192-.0518372-1.1679577 0-1.6345941.6743903-1.6345941 1.659804 0 .699904.4666364 1.2187826 1.1930664 1.2187826.596837 0 1.2459161-.2593887 1.8422469-.7522474zm3.555103 3.5546981c-1.323267-.0261211-2.2313298-.6224518-2.8024506-1.374193-.9079617.8558206-2.1016356 1.5557246-3.7879657 1.5557246-2.6731613 0-3.9442874-2.074097-3.9442874-3.9433762 0-3.1140816 2.4652049-4.4883758 5.1373538-4.4883758.4671426 0 1.168059 0 1.8422469.0518372v-.4926562c0-1.0914169-.5183724-1.6359104-1.6867352-1.6359104-1.1152093 0-2.4646986.4152041-3.8135805.8301045-.5712221-.674289-.882448-1.8152145-.9861225-2.8272556 1.7386736-.7008151 4.2556145-1.1418366 5.9419447-1.1418366 2.2569447 0 4.6184751 1.1418366 4.6184751 4.437956v5.2661369c0 .7517412.2071465 1.3243807.7265313 1.6872414-.1554104.7004102-.7265313 1.6855202-1.2454099 2.0746032z" fill="#fffffe"/><g transform="translate(0 34.525929)"><path d="m97.8618208 3.89103268c-.5967357-.57020962-1.2192888-.88133429-1.7124513-.88133429-1.2710247 0-1.7641872 1.47999364-1.7641872 3.89143766 0 2.41377264.6485729 3.42490255 1.5309197 3.42490255.674694 0 1.3489831-.2851048 1.9457188-.88143557zm-2.4388813-3.89103268c1.5309197 0 2.646534.54449349 3.4249025 1.21969376.5710196-.62336303 1.37561-1.01204107 2.439286-1.03816218.519385.38908302 1.141027 1.3493881 1.245309 2.07591939-.441427.31112467-.725924 1.03725098-.725924 1.86695053v6.8525386c0 3.6321503-.519385 5.1621587-1.324178 6.199511-1.0377573 1.298462-2.8020458 1.8947928-4.8783701 1.8947928-1.634088 0-3.528577-.3369421-4.8770539-.8557194 0-.9617226.4143941-2.257856.9855149-2.9322463 1.1156144.4928587 2.3614292.7778623 3.528982.7778623 1.8939829 0 2.6204129-1.037251 2.6204129-2.6210204v-.8557194c-.8562256.6225531-1.8939828 1.0111299-2.9577599 1.0111299-3.1655138 0-4.6708186-2.7767345-4.6708186-6.72011068 0-4.43653862 2.3614291-6.87541992 5.1896972-6.87541992z" fill="#fffffe" mask="url(#a)"/><path d="m1.45154391 34.308557c.76905402 0 .97883285-.4692687.97883285-1.3978843v-4.4137586c.20947509-.0399916.49933839-.050116.66902435-.050116.18963115 0 .45934678.0101244.6691256.050116v4.2638154c0 1.5179603-.37946478 2.6564559-2.18698473 2.6564559-.51918233 0-1.12837113-.1499432-1.58761666-.4296821.05963308-.3495976.22962277-.7189379.47908948-.998373.28966081.1798104.63915719.3194267.97852911.3194267" fill="#131514" mask="url(#a)"/></g><g fill="#131514"><path d="m7.09137466 68.9942502c.72896116 0 .88892764-.7590309.88892764-1.6278108 0-.8783982-.15996648-1.6373278-.88892764-1.6373278-.73878188 0-.89864712.7589296-.89864712 1.6373278 0 .8687799.15986524 1.6278108.89864712 1.6278108zm1.51785913.4194564c-.39930873.3892855-.91859231.5690959-1.52767985.5690959-.59936807 0-1.11855041-.1798104-1.51785913-.5690959-.5293068-.5292056-.70911722-1.1983312-.70911722-2.0472672 0-.8487335.17981042-1.5275786.70911722-2.0568854.39930872-.3795661.91849106-.5592752 1.51785913-.5592752.60908754 0 1.12837112.1797091 1.52767985.5592752.5293068.5293068.70921846 1.2081519.70921846 2.0568854 0 .848936-.17991166 1.5180616-.70921846 2.0472672z"/><path d="m10.3344419 66.0385151c0-.3693403-.0501161-.6989927-.2097789-.9485607.1896312-.1599665.4993384-.2798401.8188664-.2798401.5191824 0 .699094.2896609.699094.8188664v2.3268035c0 .5592752.1097492.7986175.5191824.7986175.2794351 0 .678845-.1494371.9885523-.4592456v-3.405261c.1798104-.0396879.4192539-.0498124.6488767-.0498124.229724 0 .46937.0101245.6593048.0498124v3.5449786c0 .3494964.0899052.6691256.2794351.8290921-.0599368.2295215-.2494667.5292055-.4394015.6587986-.4993384-.0498123-.8387104-.3195279-1.0083963-.7087122-.4293784.39941-.9688096.7188367-1.5877179.7188367-.9286155 0-1.3680171-.7289612-1.3680171-1.707389z"/><path d="m15.2846956 64.9600576c.2693107-.1098504.5191823-.1596627.7387819-.1596627.389488 0 .5491507.1896311.6191108.5492519l.3794647 1.8370834c.1296944.6293365.2394435 1.2481435.2896609 1.6077643.0198439.0700613.0299684.0797808.0797807.0797808l.6889696-3.9544118c.2096775-.0396879.599368-.0595318.769054-.0595318.1696859 0 .5791191.0198439.7687503.0595318l.689172 3.874631c.0098207.0700613.0198439.0797808.0797807.0797808.0899053-.5191823.1896312-1.0882783.3095048-1.6875451l.4993384-2.2968351c.1397176-.0396879.3494964-.0595318.5191823-.0595318.1899349 0 .4993384.0198439.6791488.1098504l.0397892.0797807-1.1980274 4.8229893c-.2596925.0400928-.6593049.0499136-.9688097.0499136-.4993384 0-.7589295-.079882-.8488347-.6289315l-.2195996-1.2284008c-.089804-.5090579-.219802-1.2680887-.3194267-1.9771047h-.0600381c-.0999284.6989928-.239646 1.4579223-.3295512 1.967284l-.3394731 1.8172394c-.2794351.0400928-.6888683.0499136-1.0083963.0499136-.4694712 0-.7290624-.1097492-.8589592-.6488767z"/><path d="m26.703366 66.3280747v2.3165778c.2697156.169686.5491507.2896608.8188663.2896608.5191824 0 .8388116-.5690959.8388116-1.6375302 0-1.0484891-.3394732-1.4878907-.7489064-1.4878907-.2795363 0-.6290327.1397175-.9087715.5191823zm1.0286452 3.6048142c-.3895893 0-.7289612-.1097492-1.0286452-.2696144v1.5279836c0 .5791191-.1896312.8087419-.7088135.8087419h-.5094629l-.0599368-.06996v-7.0300205l.0599368-.0696562h.3697453c.3491927 0 .6090876.1795066.7387819.4893151.3393719-.3397769.8087419-.5693996 1.3380487-.5693996 1.1781835 0 1.7577076 1.0484891 1.7577076 2.556325 0 1.7474819-.9290205 2.6262851-1.9573619 2.6262851z"/><path d="m33.2115717 68.5548486v-.86878c-.2498717-.0199452-.5192836-.0299684-.7192417-.0299684-.5191823 0-.7788747.2895596-.7788747.7491088 0 .3293487.1997556.5890412.5593764.5890412.2995828 0 .6490792-.1499433.93874-.4394016zm1.1383943 1.3679158c-.46937-.0498123-.769054-.2693106-.9488644-.5689947-.3494964.3394732-.8286871.6290328-1.4777663.6290328-1.0084975 0-1.4978127-.7788748-1.4978127-1.4978127 0-1.1683628.8987484-1.6875451 1.9472375-1.6875451.229724 0 .5391276 0 .8388116.0299684v-.2697156c0-.5191824-.2498717-.7589296-.7390856-.7589296-.4593468 0-.9983731.169686-1.5179604.3494964-.1895299-.2097788-.3094035-.5990643-.3393719-.9287168.619212-.2594899 1.5276798-.449121 2.1869847-.449121.9185923 0 1.7074903.4892139 1.7074903 1.6876463v2.0468622c0 .3295512.06996.5791191.2794351.7390856-.0599368.2394435-.2595912.5491507-.4390979.6787438z"/><path d="m35.9751444 64.8101143c.5592753.0700613.9184911.3997137 1.108426.8987484.2195995-.5091591.6091888-.8886239 1.2680887-.8886239.2495679 0 .4094332.0198439.5990643.0696563 0 .3199329-.0997259.8590605-.319528 1.2186813-.1495383-.0501161-.3095047-.0599368-.4593467-.0700613-.4492224 0-.7289612.2595912-.9384363.6191108v3.1853578c-.1797092.0299684-.4295809.0499136-.6592036.0499136-.2195996 0-.4593468-.0199452-.6489779-.0499136v-3.3252778c0-.5590728-.2096776-.8887252-.3696441-1.0284427.0502173-.2296228.2397472-.5490495.4195576-.6791489"/><path d="m42.6934327 65.3395224c0 .1696859-.0198439.319528-.0599368.4793932l-1.2081518-.0201477v2.6262851c0 .2896608.1198736.459448.4292771.459448h.619212c.0599368.1797092.0997259.4194564.0997259.6289315 0 .1000297 0 .2097788-.0299684.2895596-.3393719.050116-.8088431.0899052-1.1980274.0899052-.7990224 0-1.1984324-.3892855-1.1984324-1.2182764v-2.8657285l-.7589296.0100232c-.0399916-.1598652-.0498123-.3097073-.0498123-.4793932 0-.1499433.0098207-.2996841.0498123-.4593468l.7589296.0097195v-.7188367c0-.5791192.1799117-.7987187.7088135-.7987187h.4993384l.0700613.0599368v1.467743l1.2081518-.0198439c.0400929.1596627.0599368.3094035.0599368.4593468"/><path d="m47.694815 68.6847454c0 .3693403.0498124.7088135.2093739.9485607-.1895299.1598652-.4990347.2797388-.8185627.2797388-.5194861 0-.6989927-.2797388-.6989927-.8090456v-2.3263985c0-.5592752-.1101542-.8091469-.5191824-.8091469-.2896608 0-.6791488.1599664-.9886535.4794944v3.3950354c-.1798105.0299684-.4195577.0499136-.6491805.0499136-.219802 0-.46937-.0199452-.6491804-.0499136v-4.9429642l.0599368-.0696562h.4993384c.39941 0 .619212.2195995.699094.5990643.4194564-.3596209.9184911-.6290327 1.4977115-.6290327.9187948 0 1.3582976.7188367 1.3582976 1.7074902z"/><path d="m50.0287057 66.8672022h1.6576779v-.1195698c0-.5795242-.2296228-1.0586136-.8189676-1.0586136-.5390263 0-.7986175.4195576-.8387103 1.1781834zm.0101244.9187948c.0396879.6788451.2595912 1.1782847 1.0185208 1.1782847.4791907 0 .9287167-.1499432 1.3478694-.3394731.1997556.1996543.3296524.5293068.3694416.788898-.4990347.3593171-1.2182764.5690959-1.9172691.5690959-1.6775219 0-2.1468919-1.258268-2.1468919-2.5961142 0-1.4980152.6690243-2.6364095 2.1569151-2.6364095 1.3081815 0 2.0372439.918896 2.0372439 2.1169234 0 .389488-.0300696.6090876-.1098504.9187948z"/><path d="m54.1304284 64.8101143c.5592752.0700613.9185923.3997137 1.1084259.8987484.2195996-.5091591.6090876-.8886239 1.2680887-.8886239.2494667 0 .4094332.0198439.5990643.0696563 0 .3199329-.0997259.8590605-.3196292 1.2186813-.149437-.0501161-.3094035-.0599368-.4592455-.0700613-.4492223 0-.7289612.2595912-.93874.6191108v3.1853578c-.1795067.0299684-.4292771.0499136-.6590012.0499136-.2194983 0-.4592455-.0199452-.6488766-.0499136v-3.3252778c0-.5590728-.2096776-.8887252-.3696441-1.0284427.0502173-.2296228.2397472-.5490495.4195577-.6791489"/><path d="m59.9988694 62.9629065c.1498421-.0797807.4195577-.1298968.6491804-.1298968.2297241 0 .5191824.0501161.6488767.1298968.0700613.1595615.0999284.3593171.0999284.5191823 0 .1697872-.0298671.3597221-.0999284.5192836-.1296943.0797808-.4191526.1397176-.6488767.1397176-.2296227 0-.5191823-.0599368-.6491804-.1397176-.0700612-.1595615-.0999284-.3494964-.0999284-.5192836 0-.1696859.0298672-.3596208.0999284-.5191823zm1.5078359 6.8800772c-.1798104.0299684-.4195576.0499136-.6491804.0499136-.2296227 0-.4690662-.0199452-.6588999-.0499136v-3.4748161c0-.3397769-.1098504-.549252-.4493235-.549252h-.1298968c-.0400929-.1497408-.0599369-.2898633-.0599369-.4494248 0-.1499433.019844-.319528.0599369-.4694713.2795363-.0299684.5690959-.0498123.7589295-.0498123h.1697872c.5891424 0 .9585839.3993087.9585839 1.0484891z"/><path d="m66.9774576 68.6847454c0 .3693403.0498124.7088135.2093739.9485607-.1895299.1598652-.4990347.2797388-.8185627.2797388-.5191823 0-.6989927-.2797388-.6989927-.8090456v-2.3263985c0-.5592752-.1100529-.8091469-.5191824-.8091469-.2896608 0-.6791488.1599664-.9886536.4794944v3.3950354c-.1798104.0299684-.4194564.0499136-.6491804.0499136-.2194983 0-.46937-.0199452-.6491804-.0499136v-4.9429642l.0599368-.0696562h.4993384c.39941 0 .619212.2195995.699094.5990643.4194564-.3596209.9184911-.6290327 1.4977115-.6290327.9187948 0 1.3582976.7188367 1.3582976 1.7074902z"/><path d="m73.1748424 68.4150298v-2.3364218c-.2697156-.1700909-.5494545-.2896608-.8090456-.2896608-.5192836 0-.8388116.5792204-.8388116 1.637429 0 1.0586136.3397769 1.487992.7489064 1.487992.2697156 0 .619212-.1299981.8989508-.4993384zm-1.0185207-3.6247594c.3794648 0 .7189379.1198736 1.0185207.2697156v-2.4963882l.0697575-.06996h.4994397c.5292055 0 .7090159.2295215.7090159.8087419v5.1126501c0 .3596208.0896015.6791488.2794352.8289908-.0498124.2394435-.2497705.5491507-.4292772.6787438-.4494248-.0396879-.7589295-.2594899-.9386387-.5888386-.3394732.379161-.8389128.6488767-1.4083125.6488767-1.1780822 0-1.7572013-1.0484892-1.7572013-2.5564263 0-1.7475831.9286155-2.6361058 1.9572607-2.6361058z"/><path d="m75.7984951 66.0385151c0-.3693403-.0502173-.6989927-.2098801-.9485607.1896312-.1599665.4994397-.2798401.8188664-.2798401.5192836 0 .6989928.2896609.6989928.8188664v2.3268035c0 .5592752.1098504.7986175.5192836.7986175.2795363 0 .678845-.1494371.9886535-.4592456v-3.405261c.1797092-.0396879.4192539-.0498124.6487755-.0498124.229724 0 .4694712.0101245.6593048.0498124v3.5449786c0 .3494964.0900065.6691256.2795364.8290921-.0599368.2295215-.249568.5292055-.4394016.6587986-.4994396-.0498123-.8388116-.3195279-1.0084975-.7087122-.4292771.39941-.9687084.7188367-1.5876167.7188367-.9287167 0-1.3680171-.7289612-1.3680171-1.707389z"/><path d="m81.2678299 66.0385151c0-.3693403-.050116-.6989927-.2096775-.9485607.1895299-.1599665.4992371-.2798401.8188663-.2798401.5192836 0 .6989928.2896609.6989928.8188664v2.3268035c0 .5592752.1097491.7986175.5192836.7986175.2794351 0 .6787438-.1494371.9885523-.4592456v-3.405261c.1798104-.0396879.4191527-.0498124.6488767-.0498124.2296227 0 .4692687.0101245.6592036.0498124v3.5449786c0 .3494964.0899052.6691256.2795364.8290921-.0599368.2295215-.249568.5292055-.4395029.6587986-.4992371-.0498123-.8387103-.3195279-1.0083962-.7087122-.4292772.39941-.9687084.7188367-1.5876167.7188367-.9286155 0-1.3681184-.7289612-1.3681184-1.707389z"/><path d="m86.907357 64.8101143c.5592752.0700613.918491.3997137 1.1084259.8987484.2194983-.5091591.6091888-.8886239 1.2680887-.8886239.2495679 0 .4095344.0198439.5990643.0696563 0 .3199329-.0997259.8590605-.319528 1.2186813-.1495382-.0501161-.3095047-.0599368-.4593467-.0700613-.4491211 0-.7289612.2595912-.93874.6191108v3.1853578c-.1794054.0299684-.4292771.0499136-.6590011.0499136-.2194984 0-.4592456-.0199452-.6487755-.0499136v-3.3252778c0-.5590728-.2097788-.8887252-.3697453-1.0284427.0502173-.2296228.2397472-.5490495.4195577-.6791489"/><path d="m91.8679377 66.7974447c.229724-.3094035.5593764-.6791488.7991236-.9585839l-.0299684-.0400929c-.3296524.0400929-.8990521.06996-1.2883376.06996h-.8987483c-.0298672-.1298968-.0498124-.2895595-.0498124-.4093319 0-.1799117.0299684-.3895893.0797808-.5695009h3.4150818c.1097491.3296524.1696859.5495557.1696859.7290624 0 .1299981-.0397891.2797388-.1397175.4094332l-1.4079075 1.9074483c-.2295215.2993803-.5191824.6590012-.7689528.9287168l.0299684.0498124c.3094035-.0400929.6090875-.0498124.8589592-.0498124h.4090282c.3697453 0 .7290624-.0300696.9986768-.1599665.0900065.2199033.1299981.3596209.1299981.549252 0 .3596209-.1899349.5891424-.7491088.5891424h-2.9857035c-.1198736-.3295512-.1595615-.5090579-.1595615-.6690244 0-.1397175.0498124-.299684.1895299-.4892139z"/><path d="m97.5979774 68.5548486v-.86878c-.2498717-.0199452-.5191824-.0299684-.7192417-.0299684-.5190811 0-.7787735.2895596-.7787735.7491088 0 .3293487.1996543.5890412.5593764.5890412.2994816 0 .6490792-.1499433.9386388-.4394016zm1.1383943 1.3679158c-.46937-.0498123-.769054-.2693106-.9487632-.5689947-.3494964.3394732-.8287883.6290328-1.4778675.6290328-1.0084975 0-1.4978127-.7788748-1.4978127-1.4978127 0-1.1683628.8987484-1.6875451 1.9473387-1.6875451.2296228 0 .5390263 0 .8387104.0299684v-.2697156c0-.5191824-.2498717-.7589296-.7390857-.7589296-.4592455 0-.998373.169686-1.5178591.3494964-.1896311-.2097788-.3095047-.5990643-.3394732-.9287168.6193133-.2594899 1.5279836-.449121 2.1869848-.449121.9185923 0 1.7074902.4892139 1.7074902 1.6876463v2.0468622c0 .3295512.0700613.5791191.2794352.7390856-.0599368.2394435-.25949.5491507-.4390979.6787438z"/><path d="m102.688354 68.5548486v-.86878c-.250075-.0199452-.519385-.0299684-.718837-.0299684-.519385 0-.77928.2895596-.77928.7491088 0 .3293487.200161.5890412.559579.5890412.299684 0 .648978-.1499433.938538-.4394016zm1.137989 1.3679158c-.468763-.0498123-.768447-.2693106-.948662-.5689947-.349294.3394732-.828181.6290328-1.478171.6290328-1.00789 0-1.4972054-.7788748-1.4972054-1.4978127 0-1.1683628.8987484-1.6875451 1.9477434-1.6875451.228813 0 .538622 0 .838306.0299684v-.2697156c0-.5191824-.250075-.7589296-.739086-.7589296-.45965 0-.998474.169686-1.51796.3494964-.189632-.2097788-.309404-.5990643-.339372-.9287168.61911-.2594899 1.527275-.449121 2.187389-.449121.918289 0 1.706984.4892139 1.706984 1.6876463v2.0468622c0 .3295512.069859.5791191.279436.7390856-.059735.2394435-.259187.5491507-.439402.6787438z"/><path d="m107.489373 65.9684539c-.280448.0100232-.609493.1996543-.868679.4694712v3.4050586c-.180215.0299684-.420165.0499136-.64999.0499136-.219701 0-.468763-.0199452-.648978-.0499136v-4.9429642l.059734-.0696562h.490024c.398904 0 .638853.2296227.718837.6189082.398903-.3694415.868678-.6488766 1.388063-.6488766.55887 0 .948662.2794351 1.158239.7188367.439401-.4094332.998271-.7188367 1.557142-.7188367.878803 0 1.30808.678845 1.30808 1.5677727v2.3165778c0 .3693403.050622.7088135.210589.9485607-.199452.1598652-.499136.2797388-.819069.2797388-.519385 0-.6996-.2797388-.6996-.8090456v-2.336523c0-.6090876-.228813-.7990224-.528497-.7990224-.269311 0-.589244.1996543-.858554.4794944v3.3950354c-.180216.0299684-.420166.0499136-.649991.0499136-.218688 0-.468762-.0199452-.648978-.0499136v-3.0653829c0-.6094926-.219701-.8091469-.518372-.8091469"/><path d="m118.199027 68.4150298v-2.3364218c-.270323-.1700909-.549758-.2896608-.809957-.2896608-.518372 0-.838305.5792204-.838305 1.637429 0 1.0586136.339169 1.487992.74921 1.487992.269311 0 .618605-.1299981.899052-.4993384zm-1.018521-3.6247594c.378655 0 .718837.1198736 1.018521.2697156v-2.4963882l.068847-.06996h.500148c.528497 0 .708712.2295215.708712.8087419v5.1126501c0 .3596208.090108.6791488.279435.8289908-.04961.2394435-.250074.5491507-.429277.6787438-.449526-.0396879-.759334-.2594899-.938537-.5888386-.33917.379161-.839318.6488767-1.408313.6488767-1.178487 0-1.757606-1.0484892-1.757606-2.5564263 0-1.7475831.928413-2.6361058 1.95807-2.6361058z"/><path d="m122.778321 68.9942502c.729973 0 .888927-.7590309.888927-1.6278108 0-.8783982-.158954-1.6373278-.888927-1.6373278-.738073 0-.89804.7589296-.89804 1.6373278 0 .8687799.159967 1.6278108.89804 1.6278108zm1.518669.4194564c-.399916.3892855-.919301.5690959-1.527781.5690959-.599368 0-1.118753-.1798104-1.517657-.5690959-.529509-.5292056-.708712-1.1983312-.708712-2.0472672 0-.8487335.179203-1.5275786.708712-2.0568854.398904-.3795661.918289-.5592752 1.517657-.5592752.60848 0 1.127865.1797091 1.527781.5592752.529509.5293068.708712 1.2081519.708712 2.0568854 0 .848936-.179203 1.5180616-.708712 2.0472672z"/><path d="m127.060968 66.8672022h1.657374v-.1195698c0-.5795242-.229826-1.0586136-.819069-1.0586136-.538621 0-.797808.4195576-.838305 1.1781834zm.010124.9187948c.039485.6788451.259186 1.1782847 1.018521 1.1782847.478887 0 .928413-.1499432 1.347565-.3394731.200465.1996543.330058.5293068.369543.788898-.499136.3593171-1.217972.5690959-1.917573.5690959-1.67661 0-2.146385-1.258268-2.146385-2.5961142 0-1.4980152.668214-2.6364095 2.15651-2.6364095 1.30808 0 2.038054.918896 2.038054 2.1169234 0 .389488-.030374.6090876-.110357.9187948z"/><path d="m135.146362 68.6847454c0 .3693403.050622.7088135.209576.9485607-.189327.1598652-.499136.2797388-.818056.2797388-.519385 0-.698588-.2797388-.698588-.8090456v-2.3263985c0-.5592752-.110357-.8091469-.519385-.8091469-.28956 0-.679351.1599664-.98916.4794944v3.3950354c-.179203.0299684-.419152.0499136-.648978.0499136-.2197 0-.469775-.0199452-.648978-.0499136v-4.9429642l.059735-.0696562h.499136c.398903 0 .619617.2195995.698587.5990643.420166-.3596209.919301-.6290327 1.498421-.6290327.919301 0 1.35769.7188367 1.35769 1.7074902z"/></g></g></svg>