<svg width="95" height="95" viewBox="0 0 95 95" fill="none" xmlns="http://www.w3.org/2000/svg">
<g clip-path="url(#clip0_151_371)">
<path d="M70.0463 31.4927C70.9676 29.7845 71.6217 28.343 72.492 27.0594C72.9554 26.3779 73.7757 25.4918 74.428 25.5012C75.1073 25.5115 76.0195 26.3596 76.3914 27.0669C77.4816 29.134 78.4174 31.3096 79.2724 33.4827C79.4574 33.9523 79.4144 34.8193 78.9104 35.246C78.501 35.7511 77.4941 34.8246 77.2119 34.3574C76.1509 32.5662 75.2606 30.6617 74.2284 28.6395C73.5818 29.8384 73.0651 30.8472 72.5003 31.8437C70.9832 34.5043 69.1795 34.7505 67.1906 32.4452C64.3736 29.1865 61.6399 25.8495 58.8621 22.5436C58.5292 22.1449 58.1849 21.7675 57.83 21.3843C57.3488 20.7276 57.1976 20.9063 57.4152 21.5441C57.852 22.7658 58.2725 23.9923 58.7093 25.214C59.4834 27.3847 60.274 29.5504 61.0318 31.7259C61.2054 32.2167 61.2744 32.7744 61.3998 33.2529C61.6164 34.0956 61.1073 34.8619 60.6155 35.2404C60.1957 35.5618 59.5734 35.8014 58.6422 35.217C56.7121 33.9707 54.8728 32.5815 53.0498 31.1875C48.9346 28.0504 44.8471 24.8872 40.5505 21.8578C41.4394 23.4603 42.3168 25.084 43.2335 26.6603C45.2559 30.1479 47.3445 33.5889 49.3123 37.1017C49.9924 38.304 51.0341 39.6739 49.7938 41.0593C48.6263 42.3608 47.1776 41.5932 45.9132 41.1441C41.9446 39.716 38.0112 38.1972 34.0549 36.7209C33.6549 36.5737 33.2369 36.4853 32.4084 36.2439C33.8643 38.5219 35.0255 40.5589 36.4024 42.4245C39.2957 46.3544 42.3099 50.2124 45.2694 54.0957C47.2443 56.6811 46.702 58.1691 43.4498 58.6887C39.3843 59.3448 35.2854 59.8597 31.2003 60.4506C30.4418 60.5619 29.7077 60.7549 28.5188 61.004C29.2598 61.4584 29.6499 61.751 30.0808 61.9423C35.0229 64.1557 39.9707 66.3585 44.9292 68.567C46.2326 69.1467 47.8285 69.5143 48.1336 71.158C48.4525 72.8777 46.962 73.6351 45.8608 74.5341C44.7156 75.4641 43.5393 76.35 42.4387 77.578C43.7345 77.5372 45.0196 77.4907 46.3153 77.45C47.3734 77.418 48.4341 77.3052 49.4782 77.3753C49.8497 77.3976 50.4985 77.8707 50.4803 78.1075C50.4564 78.5329 50.4594 78.959 49.7366 79.3088C49.4352 79.4613 49.0123 79.5345 48.6342 79.5498C46.046 79.7015 43.461 79.9235 40.8729 79.8973C40.1128 79.8846 39.024 79.3384 38.7085 78.73C38.4492 78.2204 38.9121 77.0319 39.4243 76.5138C40.7168 75.1839 42.2296 74.0549 43.6478 72.8475C44.1077 72.4519 44.5888 72.0676 45.2366 71.5268C44.0621 70.9618 43.0892 70.5056 42.1115 70.0331C37.0038 67.5934 31.8961 65.1537 26.7941 62.7035C26.4489 62.531 26.1208 62.3267 25.8205 62.0962C24.8152 61.2938 24.7418 60.0079 25.8305 59.335C26.8205 58.7184 27.9793 58.2204 29.129 58.0187C33.375 57.2818 37.6544 56.6862 41.9191 56.0416C42.3796 55.9749 42.8246 55.8862 43.4591 55.7764C41.3406 52.9493 39.2645 50.3231 37.3534 47.5941C35.0704 44.3358 32.8919 41.0106 30.7191 37.6748C30.0601 36.662 29.0533 35.5575 29.9669 34.2697C30.8806 32.982 32.3377 33.3022 33.5499 33.6957C37.3733 34.936 41.1598 36.3207 44.9538 37.641C45.5619 37.8594 46.1806 38.0835 47.0329 38.0775C45.7421 35.6967 44.4513 33.3159 43.1441 30.94C41.2351 27.4452 39.3041 23.9659 37.4114 20.4662C36.9572 19.6323 36.3717 18.6865 37.2507 17.8183C38.1518 16.9347 39.1746 17.3493 40.0192 17.9418C43.4662 20.3624 46.9182 22.7993 50.3031 25.3097C53.0287 27.3412 55.6644 29.4885 58.6937 31.4647C58.1217 29.7318 57.4786 28.0291 56.9883 26.2718C56.3611 24.0572 55.7887 21.8173 55.3623 19.5604C55.2273 18.8712 55.4763 17.6222 55.8863 17.4462C56.4873 17.1951 57.6449 17.4359 58.1426 17.9098C59.9654 19.6598 61.6648 21.5624 63.3151 23.4797C65.5195 25.9697 67.5973 28.542 70.0463 31.4927Z" fill="black"/>
</g>
<defs>
<clipPath id="clip0_151_371">
<rect width="69.4346" height="69.4346" fill="white" transform="translate(0 61.1133) rotate(-61.6612)"/>
</clipPath>
</defs>
</svg>
