<svg width="1540" height="1616" viewBox="0 0 1540 1616" fill="none" xmlns="http://www.w3.org/2000/svg">
<path d="M736.657 29.4686C741.519 -9.82286 798.475 -9.82286 803.337 29.4686L855.062 447.473C858.563 475.763 893.489 487.112 912.95 466.282L1200.49 158.513C1227.52 129.583 1273.6 163.061 1254.44 197.706L1050.59 566.283C1036.79 591.228 1058.38 620.937 1086.37 615.525L1499.9 535.548C1538.77 528.031 1556.37 582.199 1520.5 598.965L1138.94 777.329C1113.11 789.401 1113.11 826.124 1138.94 838.196L1520.5 1016.56C1556.37 1033.33 1538.77 1087.49 1499.9 1079.98L1086.37 1000C1058.38 994.588 1036.79 1024.3 1050.59 1049.24L1254.44 1417.82C1273.6 1452.46 1227.52 1485.94 1200.49 1457.01L912.95 1149.24C893.489 1128.41 858.563 1139.76 855.062 1168.05L803.337 1586.06C798.475 1625.35 741.519 1625.35 736.657 1586.06L684.931 1168.05C681.43 1139.76 646.504 1128.41 627.044 1149.24L339.5 1457.01C312.471 1485.94 266.393 1452.46 285.554 1417.82L489.404 1049.24C503.201 1024.3 481.615 994.588 453.628 1000L40.0977 1079.98C1.22683 1087.49 -16.3734 1033.33 19.4925 1016.56L401.054 838.196C426.878 826.124 426.878 789.401 401.054 777.329L19.4925 598.965C-16.3734 582.199 1.22683 528.031 40.0977 535.548L453.628 615.525C481.615 620.937 503.201 591.228 489.404 566.283L285.554 197.706C266.393 163.061 312.471 129.583 339.5 158.513L627.044 466.282C646.504 487.112 681.43 475.763 684.931 447.473L736.657 29.4686Z" fill="#F15BB5"/>
</svg>
