<svg width="321" height="82" viewBox="0 0 321 82" fill="none" xmlns="http://www.w3.org/2000/svg">
<path d="M216.945 2.5L212.088 6.86035C205.152 13.0862 198.215 19.3112 191.279 25.5371L212.28 14.3008L215.96 12.3311V45.8564H223.472V71.1074H215.96V78.8096H171.883V71.1074H123.678V39.7139L124.41 38.9824C126.74 36.6531 129.037 34.2917 131.304 31.8994L131.315 31.8867L131.327 31.875C133.672 29.4665 135.986 27.0892 138.268 24.7441H138.269C140.621 22.3276 142.974 19.9421 145.327 17.5889C147.657 15.1962 149.954 12.8034 152.221 10.4111L152.245 10.3867C154.598 7.97037 156.951 5.5855 159.304 3.23242L160.036 2.5H216.945ZM171.697 43.0322C170.646 43.9731 169.595 44.9145 168.544 45.8564H171.769C171.754 44.9057 171.73 43.9643 171.697 43.0322Z" fill="#00BBF9" stroke="white" stroke-width="5"/>
<mask id="path-2-outside-1_291_915" maskUnits="userSpaceOnUse" x="190.799" y="20.5772" width="131.079" height="57.2201" fill="black">
<rect fill="white" x="190.799" y="20.5772" width="131.079" height="57.2201"/>
<path d="M197.045 65.5034C196.561 65.559 196.291 65.3448 196.236 64.8606C196.183 64.4049 196.428 64.146 196.969 64.0838C197.453 64.0282 198.048 63.931 198.753 63.7922C199.455 63.6249 200.075 63.4959 200.613 63.4053C200.636 62.8543 200.829 62.0242 201.192 60.9148C201.555 59.8054 202.059 58.5357 202.702 57.1055C203.346 55.6753 204.084 54.191 204.917 52.6524L210.883 41.6654C211.14 41.1453 211.491 40.4269 211.934 39.5103C212.402 38.562 212.948 37.4171 213.573 36.0757C212.725 36.2308 211.95 36.392 211.248 36.5593C210.575 36.7233 209.972 36.8791 209.441 37.0267C208.656 37.2323 208.139 37.3783 207.89 37.4647C207.64 37.5511 207.444 37.6025 207.301 37.6189C206.817 37.6745 206.544 37.4318 206.482 36.8907C206.446 36.5774 206.622 36.3552 207.011 36.2239C208.655 35.7175 210.265 35.2872 211.84 34.9331C213.444 34.5756 215.029 34.3069 216.595 34.1268C218.133 33.9501 219.401 33.9342 220.399 34.0792C220.871 34.1693 221.186 34.2773 221.345 34.4033C221.532 34.5261 221.639 34.7014 221.665 34.9292C221.718 35.3849 221.53 35.6372 221.103 35.6863C220.961 35.7027 220.755 35.6687 220.485 35.5842C220.216 35.4997 219.806 35.4459 219.255 35.4227C218.729 35.3677 217.939 35.4007 216.886 35.5218C216.487 35.5676 216.131 35.6086 215.818 35.6446C215.533 35.6773 215.292 35.7194 215.096 35.7708C215.137 36.3721 214.717 37.488 213.836 39.1185L212.049 42.397L207.499 51.0139C206.644 52.6127 205.868 54.1447 205.171 55.6099C204.473 57.0751 203.823 58.4483 203.22 59.7295C202.875 60.4906 202.525 61.5841 202.169 63.01C203.238 62.7717 204.127 62.5974 204.836 62.4871C205.541 62.3483 206.051 62.2609 206.364 62.2249C206.99 62.1529 207.549 62.1175 208.04 62.1188C208.556 62.0884 209.002 62.0804 209.379 62.0948C209.816 62.1311 210.054 62.3202 210.093 62.6619C210.145 63.1176 209.915 63.3749 209.403 63.4338C209.061 63.4731 208.616 63.4953 208.069 63.5006C207.553 63.531 207.095 63.5691 206.697 63.615C205.415 63.7623 203.864 64.0704 202.042 64.5395C201.926 64.7837 201.739 64.9205 201.483 64.95C201.255 64.9762 201.073 64.8962 200.936 64.7099C200.095 64.922 199.35 65.0942 198.701 65.2264C198.053 65.3587 197.501 65.451 197.045 65.5034Z"/>
<path d="M217.546 63.5366C217.062 63.5922 216.794 63.3922 216.742 62.9366C216.738 62.9081 216.868 62.5325 217.131 61.8097C217.395 61.0869 217.763 60.0202 218.235 58.6097L219.889 53.7884C220.559 51.8358 221.017 50.2971 221.263 49.1723C221.537 48.0443 221.656 47.3236 221.62 47.0104C221.568 46.5547 221.769 46.3007 222.225 46.2483C222.681 46.1959 222.935 46.3976 222.987 46.8533C223.03 47.2235 222.968 47.822 222.804 48.6489C222.664 49.444 222.394 50.485 221.994 51.7718L220.385 56.9776C225.473 48.775 229.526 44.5002 232.545 44.1532C233.115 44.0877 233.584 44.2791 233.953 44.7272C234.319 45.1469 234.534 45.6415 234.6 46.2111C234.757 47.5781 234.048 50.069 232.472 53.6839C233.805 51.9725 235.151 50.2595 236.513 48.5449C237.899 46.7985 239.289 45.0806 240.681 43.3912C241.038 42.9751 241.344 42.7524 241.6 42.7229C241.942 42.6836 242.246 42.8218 242.513 43.1373C242.777 43.4244 242.93 43.7531 242.973 44.1233C243.006 44.4081 242.918 44.7788 242.711 45.2355C242.413 45.9046 242.158 46.6985 241.946 47.6174C241.731 48.5078 241.486 49.517 241.212 50.645C240.897 51.922 240.692 53.0276 240.598 53.9619C240.503 54.8961 240.489 55.648 240.554 56.2176C240.636 56.9296 240.867 57.4368 241.248 57.7393C241.626 58.0133 241.986 58.1306 242.328 58.0914C242.926 58.0226 243.563 57.7907 244.239 57.3956C244.915 57.0005 245.463 56.6201 245.882 56.2545C246.725 55.5517 247.594 54.7016 248.489 53.7041C249.381 52.6782 250.23 51.6573 251.037 50.6412C251.138 50.5142 251.302 50.4376 251.53 50.4114C251.957 50.3623 252.19 50.5086 252.23 50.8504C252.266 51.1636 252.107 51.5425 251.754 51.9871C250.746 53.2572 249.834 54.3575 249.017 55.2882C248.198 56.1903 247.404 56.9452 246.637 57.5527C246.132 57.9282 245.515 58.331 244.785 58.7611C244.056 59.1913 243.249 59.4571 242.366 59.5585C241.541 59.6535 240.813 59.4773 240.185 59.0302C239.585 58.5797 239.188 57.5144 238.995 55.8341C238.92 55.1791 238.945 54.3971 239.072 53.488C239.195 52.5505 239.42 51.5002 239.748 50.3372L241.394 44.6944L235.992 51.548C235.362 52.3418 234.847 53.007 234.447 53.5435C234.047 54.08 233.722 54.5213 233.474 54.8673C232.998 55.499 232.578 56.11 232.213 56.7002C231.876 57.2872 231.588 57.7963 231.349 58.2278C231.186 58.564 230.976 58.7468 230.72 58.7763C230.236 58.8319 229.971 58.6604 229.925 58.2617C229.824 57.3788 230.387 55.2509 231.615 51.8779C232.843 48.5049 233.421 46.5052 233.349 45.8786C233.317 45.5939 232.987 45.4875 232.361 45.5595C229.826 45.8508 225.788 50.5133 220.247 59.5471C219.795 60.3782 219.03 61.6347 217.954 63.3166C217.882 63.4404 217.746 63.5137 217.546 63.5366Z"/>
<path d="M249.587 70.3286C248.248 70.4824 247.469 69.6053 247.25 67.6972C246.962 65.191 247.6 61.0779 249.164 55.3578C249.43 54.404 249.762 53.3992 250.16 52.3435C250.558 51.2878 251.035 50.1653 251.591 48.9761C252.165 47.6981 252.715 46.5817 253.24 45.6268C253.793 44.6687 254.281 43.8913 254.703 43.2945C254.854 43.104 254.984 42.9737 255.091 42.9037C255.227 42.8303 255.338 42.7888 255.423 42.7789C256.163 42.6938 257.028 42.8109 258.017 43.13C259.006 43.4492 259.908 43.8937 260.724 44.4637C261.473 44.9547 262.107 45.5744 262.626 46.3227C263.145 47.071 263.453 47.8723 263.551 48.7267C263.623 49.3533 263.569 50.0088 263.388 50.6933C263.232 51.346 262.991 52.0085 262.664 52.6809C263.388 52.4534 264.248 52.0228 265.242 51.389C266.266 50.752 267.272 49.8428 268.262 48.6614C268.362 48.5344 268.513 48.4595 268.712 48.4366C269.139 48.3875 269.372 48.5338 269.412 48.8755C269.428 49.0179 269.378 49.2112 269.262 49.4554C269.171 49.6679 268.987 49.9487 268.709 50.298C266.825 52.4768 264.418 53.8788 261.488 54.504C261.114 55.0088 260.694 55.5042 260.231 55.9904C259.793 56.4447 259.323 56.8739 258.821 57.2778C257.284 58.4644 255.931 59.1248 254.763 59.259C254.279 59.3147 253.863 59.2039 253.513 58.9266C253.164 58.6493 252.966 58.3114 252.921 57.9126C252.77 56.6026 253.795 55.4749 255.994 54.5295C256.794 54.2068 257.597 53.9125 258.403 53.6467C259.21 53.3809 260 53.1025 260.775 52.8115C261.243 51.8632 261.567 51.0468 261.748 50.3623C261.958 49.6745 262.036 49.1028 261.984 48.6472C261.81 47.1378 260.52 45.8289 258.113 44.7205C257.168 44.2808 256.441 44.1047 255.932 44.1921C253.891 47.0236 252.096 50.8657 250.548 55.7183C248.93 60.7231 248.278 64.5925 248.592 67.3265C248.668 67.9815 248.775 68.4164 248.915 68.6311C249.055 68.8458 249.268 68.9368 249.553 68.9041C249.638 68.8943 249.708 68.8719 249.761 68.8368C249.818 68.8303 249.875 68.8237 249.932 68.8172C250.302 68.7746 250.514 68.9812 250.566 69.4369C250.625 69.9495 250.299 70.2467 249.587 70.3286ZM254.905 57.8577C255.959 57.7366 257.388 56.7355 259.191 54.8546C258.742 54.9639 258.309 55.0859 257.892 55.2204C257.503 55.3517 256.937 55.5754 256.194 55.8916C254.955 56.4092 254.368 56.9527 254.434 57.5223C254.463 57.7786 254.621 57.8904 254.905 57.8577Z"/>
<path d="M269.778 56.4946C268.126 56.6844 267.21 55.9962 267.03 54.4298C266.912 53.4046 267.028 52.2803 267.378 51.057C267.753 49.802 268.304 48.57 269.031 47.3611C269.754 46.1237 270.591 44.9888 271.54 43.9564C272.485 42.8955 273.482 42.0306 274.531 41.3619C275.576 40.6646 276.611 40.2571 277.637 40.1392C279.459 39.9298 280.474 40.7221 280.68 42.5163C280.814 43.6839 280.596 44.3005 280.027 44.366C279.514 44.4249 279.23 44.2123 279.174 43.7281C279.152 43.5288 279.171 43.3245 279.234 43.1153C279.322 42.8744 279.351 42.6258 279.321 42.3695C279.23 41.572 278.643 41.2355 277.56 41.3599C275.823 41.5596 273.797 43.1343 271.481 46.084C270.93 46.811 270.406 47.6503 269.909 48.6019C269.413 49.5535 269.017 50.5079 268.724 51.465C268.455 52.3905 268.366 53.2519 268.458 54.0493C268.546 54.8182 269.018 55.1536 269.872 55.0554C270.612 54.9703 271.369 54.6524 272.143 54.1018C272.945 53.548 273.631 52.993 274.202 52.4368C275.347 51.353 276.482 49.9241 277.605 48.1502C277.778 47.8995 278 47.571 278.271 47.1648C278.542 46.7585 278.85 46.3047 279.197 45.8032C279.323 45.6444 279.485 45.5536 279.685 45.5307C280.14 45.4783 280.394 45.6799 280.447 46.1356L279.103 48.7571C278.204 50.4764 277.814 51.8486 277.932 52.8738C278.017 53.6143 278.415 53.9436 279.127 53.8618C279.725 53.793 280.362 53.5611 281.038 53.166C281.714 52.7709 282.262 52.3905 282.682 52.0249C283.524 51.3221 284.393 50.472 285.289 49.4746C286.181 48.4487 287.03 47.4277 287.837 46.4116C287.937 46.2846 288.102 46.208 288.329 46.1818C288.757 46.1327 288.99 46.279 289.029 46.6208C289.065 46.9341 288.907 47.313 288.554 47.7575C287.546 49.0276 286.633 50.128 285.817 51.0586C284.997 51.9608 284.204 52.7156 283.437 53.3232C282.932 53.6986 282.3 54.1031 281.542 54.5365C280.784 54.9699 279.892 55.2455 278.867 55.3633C277.472 55.5237 276.689 54.8634 276.518 53.3825C276.453 52.8129 276.47 52.3349 276.57 51.9483C274.263 54.7238 271.999 56.2393 269.778 56.4946Z"/>
<path d="M292.614 54.0431C291.104 54.2165 289.871 53.911 288.916 53.1263C287.96 52.3416 287.397 51.2089 287.227 49.7279C286.932 47.1648 287.822 44.2347 289.895 40.9377C290.972 39.2558 292.105 37.9425 293.295 36.9978C294.51 36.0213 295.687 35.4676 296.826 35.3367C297.823 35.2221 298.631 35.4755 299.251 36.0968C299.87 36.7181 300.239 37.5414 300.357 38.5667C300.429 39.1932 300.417 39.8438 300.322 40.5185C300.26 40.9872 300.058 41.2412 299.717 41.2805C299.176 41.3427 298.871 41.0748 298.802 40.4767C298.772 40.2204 298.778 39.888 298.817 39.4794C298.882 39.0392 298.891 38.6197 298.846 38.221C298.715 37.0818 298.094 36.576 296.983 36.7037C296.385 36.7724 295.683 37.0695 294.878 37.5949C294.101 38.117 293.341 38.7815 292.597 39.5884C291.85 40.3668 291.213 41.2335 290.688 42.1884C289.078 44.9993 288.391 47.43 288.626 49.4805C288.898 51.8442 290.102 52.9034 292.238 52.6579C293.576 52.504 294.835 52.1574 296.014 51.6179C297.189 51.05 298.528 50.0161 300.029 48.5162C300.963 47.6009 301.658 46.8718 302.115 46.3287C302.572 45.7856 303.068 45.2092 303.604 44.5993C303.762 44.4658 303.912 44.3908 304.054 44.3745C304.197 44.3581 304.344 44.3844 304.496 44.4535C304.648 44.5226 304.734 44.6426 304.754 44.8134C304.79 45.1267 304.556 45.6009 304.052 46.2359C303.62 46.7472 303.163 47.2903 302.681 47.8651C302.195 48.4115 301.42 49.1932 300.353 50.2102C299.212 51.3225 297.957 52.2026 296.588 52.8504C295.248 53.4949 293.924 53.8925 292.614 54.0431Z"/>
<path d="M303.525 55.1696C302.983 55.2318 302.664 54.8357 302.566 53.9813C302.422 52.7282 302.867 50.4551 303.903 47.162C304.967 43.8656 306.603 39.5224 308.811 34.1323C307.729 34.2567 306.72 34.517 305.784 34.913C304.874 35.2774 304.413 35.6622 304.402 36.0674C304.387 36.1846 304.329 36.3067 304.228 36.4337C304.152 36.529 304.015 36.5881 303.815 36.611C303.36 36.6633 303.106 36.4617 303.053 36.006C302.968 35.2656 303.482 34.5862 304.594 33.9678C305.706 33.3495 307.315 32.9192 309.423 32.677L311.811 27.4682C311.974 27.1321 312.148 26.7658 312.334 26.3693C312.516 25.9444 312.723 25.4878 312.955 24.9994C313.194 24.568 313.499 24.331 313.869 24.2884C314.097 24.2622 314.276 24.3138 314.406 24.4431C314.533 24.5439 314.605 24.6655 314.621 24.8079C314.67 25.2351 314.175 26.4463 313.134 28.4415C311.833 30.9283 311.137 32.2779 311.046 32.4904C311.473 32.4413 312.119 32.4104 312.983 32.3976C313.844 32.3564 314.867 32.3398 316.051 32.348C316.481 32.3274 316.719 32.5165 316.765 32.9152C316.817 33.3708 316.587 33.6281 316.075 33.687C315.875 33.71 315.473 33.7273 314.869 33.7391C314.261 33.7224 313.612 33.7248 312.922 33.7464C312.232 33.768 311.646 33.8209 311.165 33.905L310.53 34.0214C305.917 44.8529 303.767 51.5059 304.08 53.9803L304.162 54.3172L304.172 54.4026C304.225 54.8583 304.009 55.1139 303.525 55.1696Z"/>
</mask>
<path d="M197.045 65.5034C196.561 65.559 196.291 65.3448 196.236 64.8606C196.183 64.4049 196.428 64.146 196.969 64.0838C197.453 64.0282 198.048 63.931 198.753 63.7922C199.455 63.6249 200.075 63.4959 200.613 63.4053C200.636 62.8543 200.829 62.0242 201.192 60.9148C201.555 59.8054 202.059 58.5357 202.702 57.1055C203.346 55.6753 204.084 54.191 204.917 52.6524L210.883 41.6654C211.14 41.1453 211.491 40.4269 211.934 39.5103C212.402 38.562 212.948 37.4171 213.573 36.0757C212.725 36.2308 211.95 36.392 211.248 36.5593C210.575 36.7233 209.972 36.8791 209.441 37.0267C208.656 37.2323 208.139 37.3783 207.89 37.4647C207.64 37.5511 207.444 37.6025 207.301 37.6189C206.817 37.6745 206.544 37.4318 206.482 36.8907C206.446 36.5774 206.622 36.3552 207.011 36.2239C208.655 35.7175 210.265 35.2872 211.84 34.9331C213.444 34.5756 215.029 34.3069 216.595 34.1268C218.133 33.9501 219.401 33.9342 220.399 34.0792C220.871 34.1693 221.186 34.2773 221.345 34.4033C221.532 34.5261 221.639 34.7014 221.665 34.9292C221.718 35.3849 221.53 35.6372 221.103 35.6863C220.961 35.7027 220.755 35.6687 220.485 35.5842C220.216 35.4997 219.806 35.4459 219.255 35.4227C218.729 35.3677 217.939 35.4007 216.886 35.5218C216.487 35.5676 216.131 35.6086 215.818 35.6446C215.533 35.6773 215.292 35.7194 215.096 35.7708C215.137 36.3721 214.717 37.488 213.836 39.1185L212.049 42.397L207.499 51.0139C206.644 52.6127 205.868 54.1447 205.171 55.6099C204.473 57.0751 203.823 58.4483 203.22 59.7295C202.875 60.4906 202.525 61.5841 202.169 63.01C203.238 62.7717 204.127 62.5974 204.836 62.4871C205.541 62.3483 206.051 62.2609 206.364 62.2249C206.99 62.1529 207.549 62.1175 208.04 62.1188C208.556 62.0884 209.002 62.0804 209.379 62.0948C209.816 62.1311 210.054 62.3202 210.093 62.6619C210.145 63.1176 209.915 63.3749 209.403 63.4338C209.061 63.4731 208.616 63.4953 208.069 63.5006C207.553 63.531 207.095 63.5691 206.697 63.615C205.415 63.7623 203.864 64.0704 202.042 64.5395C201.926 64.7837 201.739 64.9205 201.483 64.95C201.255 64.9762 201.073 64.8962 200.936 64.7099C200.095 64.922 199.35 65.0942 198.701 65.2264C198.053 65.3587 197.501 65.451 197.045 65.5034Z" fill="black"/>
<path d="M217.546 63.5366C217.062 63.5922 216.794 63.3922 216.742 62.9366C216.738 62.9081 216.868 62.5325 217.131 61.8097C217.395 61.0869 217.763 60.0202 218.235 58.6097L219.889 53.7884C220.559 51.8358 221.017 50.2971 221.263 49.1723C221.537 48.0443 221.656 47.3236 221.62 47.0104C221.568 46.5547 221.769 46.3007 222.225 46.2483C222.681 46.1959 222.935 46.3976 222.987 46.8533C223.03 47.2235 222.968 47.822 222.804 48.6489C222.664 49.444 222.394 50.485 221.994 51.7718L220.385 56.9776C225.473 48.775 229.526 44.5002 232.545 44.1532C233.115 44.0877 233.584 44.2791 233.953 44.7272C234.319 45.1469 234.534 45.6415 234.6 46.2111C234.757 47.5781 234.048 50.069 232.472 53.6839C233.805 51.9725 235.151 50.2595 236.513 48.5449C237.899 46.7985 239.289 45.0806 240.681 43.3912C241.038 42.9751 241.344 42.7524 241.6 42.7229C241.942 42.6836 242.246 42.8218 242.513 43.1373C242.777 43.4244 242.93 43.7531 242.973 44.1233C243.006 44.4081 242.918 44.7788 242.711 45.2355C242.413 45.9046 242.158 46.6985 241.946 47.6174C241.731 48.5078 241.486 49.517 241.212 50.645C240.897 51.922 240.692 53.0276 240.598 53.9619C240.503 54.8961 240.489 55.648 240.554 56.2176C240.636 56.9296 240.867 57.4368 241.248 57.7393C241.626 58.0133 241.986 58.1306 242.328 58.0914C242.926 58.0226 243.563 57.7907 244.239 57.3956C244.915 57.0005 245.463 56.6201 245.882 56.2545C246.725 55.5517 247.594 54.7016 248.489 53.7041C249.381 52.6782 250.23 51.6573 251.037 50.6412C251.138 50.5142 251.302 50.4376 251.53 50.4114C251.957 50.3623 252.19 50.5086 252.23 50.8504C252.266 51.1636 252.107 51.5425 251.754 51.9871C250.746 53.2572 249.834 54.3575 249.017 55.2882C248.198 56.1903 247.404 56.9452 246.637 57.5527C246.132 57.9282 245.515 58.331 244.785 58.7611C244.056 59.1913 243.249 59.4571 242.366 59.5585C241.541 59.6535 240.813 59.4773 240.185 59.0302C239.585 58.5797 239.188 57.5144 238.995 55.8341C238.92 55.1791 238.945 54.3971 239.072 53.488C239.195 52.5505 239.42 51.5002 239.748 50.3372L241.394 44.6944L235.992 51.548C235.362 52.3418 234.847 53.007 234.447 53.5435C234.047 54.08 233.722 54.5213 233.474 54.8673C232.998 55.499 232.578 56.11 232.213 56.7002C231.876 57.2872 231.588 57.7963 231.349 58.2278C231.186 58.564 230.976 58.7468 230.72 58.7763C230.236 58.8319 229.971 58.6604 229.925 58.2617C229.824 57.3788 230.387 55.2509 231.615 51.8779C232.843 48.5049 233.421 46.5052 233.349 45.8786C233.317 45.5939 232.987 45.4875 232.361 45.5595C229.826 45.8508 225.788 50.5133 220.247 59.5471C219.795 60.3782 219.03 61.6347 217.954 63.3166C217.882 63.4404 217.746 63.5137 217.546 63.5366Z" fill="black"/>
<path d="M249.587 70.3286C248.248 70.4824 247.469 69.6053 247.25 67.6972C246.962 65.191 247.6 61.0779 249.164 55.3578C249.43 54.404 249.762 53.3992 250.16 52.3435C250.558 51.2878 251.035 50.1653 251.591 48.9761C252.165 47.6981 252.715 46.5817 253.24 45.6268C253.793 44.6687 254.281 43.8913 254.703 43.2945C254.854 43.104 254.984 42.9737 255.091 42.9037C255.227 42.8303 255.338 42.7888 255.423 42.7789C256.163 42.6938 257.028 42.8109 258.017 43.13C259.006 43.4492 259.908 43.8937 260.724 44.4637C261.473 44.9547 262.107 45.5744 262.626 46.3227C263.145 47.071 263.453 47.8723 263.551 48.7267C263.623 49.3533 263.569 50.0088 263.388 50.6933C263.232 51.346 262.991 52.0085 262.664 52.6809C263.388 52.4534 264.248 52.0228 265.242 51.389C266.266 50.752 267.272 49.8428 268.262 48.6614C268.362 48.5344 268.513 48.4595 268.712 48.4366C269.139 48.3875 269.372 48.5338 269.412 48.8755C269.428 49.0179 269.378 49.2112 269.262 49.4554C269.171 49.6679 268.987 49.9487 268.709 50.298C266.825 52.4768 264.418 53.8788 261.488 54.504C261.114 55.0088 260.694 55.5042 260.231 55.9904C259.793 56.4447 259.323 56.8739 258.821 57.2778C257.284 58.4644 255.931 59.1248 254.763 59.259C254.279 59.3147 253.863 59.2039 253.513 58.9266C253.164 58.6493 252.966 58.3114 252.921 57.9126C252.77 56.6026 253.795 55.4749 255.994 54.5295C256.794 54.2068 257.597 53.9125 258.403 53.6467C259.21 53.3809 260 53.1025 260.775 52.8115C261.243 51.8632 261.567 51.0468 261.748 50.3623C261.958 49.6745 262.036 49.1028 261.984 48.6472C261.81 47.1378 260.52 45.8289 258.113 44.7205C257.168 44.2808 256.441 44.1047 255.932 44.1921C253.891 47.0236 252.096 50.8657 250.548 55.7183C248.93 60.7231 248.278 64.5925 248.592 67.3265C248.668 67.9815 248.775 68.4164 248.915 68.6311C249.055 68.8458 249.268 68.9368 249.553 68.9041C249.638 68.8943 249.708 68.8719 249.761 68.8368C249.818 68.8303 249.875 68.8237 249.932 68.8172C250.302 68.7746 250.514 68.9812 250.566 69.4369C250.625 69.9495 250.299 70.2467 249.587 70.3286ZM254.905 57.8577C255.959 57.7366 257.388 56.7355 259.191 54.8546C258.742 54.9639 258.309 55.0859 257.892 55.2204C257.503 55.3517 256.937 55.5754 256.194 55.8916C254.955 56.4092 254.368 56.9527 254.434 57.5223C254.463 57.7786 254.621 57.8904 254.905 57.8577Z" fill="black"/>
<path d="M269.778 56.4946C268.126 56.6844 267.21 55.9962 267.03 54.4298C266.912 53.4046 267.028 52.2803 267.378 51.057C267.753 49.802 268.304 48.57 269.031 47.3611C269.754 46.1237 270.591 44.9888 271.54 43.9564C272.485 42.8955 273.482 42.0306 274.531 41.3619C275.576 40.6646 276.611 40.2571 277.637 40.1392C279.459 39.9298 280.474 40.7221 280.68 42.5163C280.814 43.6839 280.596 44.3005 280.027 44.366C279.514 44.4249 279.23 44.2123 279.174 43.7281C279.152 43.5288 279.171 43.3245 279.234 43.1153C279.322 42.8744 279.351 42.6258 279.321 42.3695C279.23 41.572 278.643 41.2355 277.56 41.3599C275.823 41.5596 273.797 43.1343 271.481 46.084C270.93 46.811 270.406 47.6503 269.909 48.6019C269.413 49.5535 269.017 50.5079 268.724 51.465C268.455 52.3905 268.366 53.2519 268.458 54.0493C268.546 54.8182 269.018 55.1536 269.872 55.0554C270.612 54.9703 271.369 54.6524 272.143 54.1018C272.945 53.548 273.631 52.993 274.202 52.4368C275.347 51.353 276.482 49.9241 277.605 48.1502C277.778 47.8995 278 47.571 278.271 47.1648C278.542 46.7585 278.85 46.3047 279.197 45.8032C279.323 45.6444 279.485 45.5536 279.685 45.5307C280.14 45.4783 280.394 45.6799 280.447 46.1356L279.103 48.7571C278.204 50.4764 277.814 51.8486 277.932 52.8738C278.017 53.6143 278.415 53.9436 279.127 53.8618C279.725 53.793 280.362 53.5611 281.038 53.166C281.714 52.7709 282.262 52.3905 282.682 52.0249C283.524 51.3221 284.393 50.472 285.289 49.4746C286.181 48.4487 287.03 47.4277 287.837 46.4116C287.937 46.2846 288.102 46.208 288.329 46.1818C288.757 46.1327 288.99 46.279 289.029 46.6208C289.065 46.9341 288.907 47.313 288.554 47.7575C287.546 49.0276 286.633 50.128 285.817 51.0586C284.997 51.9608 284.204 52.7156 283.437 53.3232C282.932 53.6986 282.3 54.1031 281.542 54.5365C280.784 54.9699 279.892 55.2455 278.867 55.3633C277.472 55.5237 276.689 54.8634 276.518 53.3825C276.453 52.8129 276.47 52.3349 276.57 51.9483C274.263 54.7238 271.999 56.2393 269.778 56.4946Z" fill="black"/>
<path d="M292.614 54.0431C291.104 54.2165 289.871 53.911 288.916 53.1263C287.96 52.3416 287.397 51.2089 287.227 49.7279C286.932 47.1648 287.822 44.2347 289.895 40.9377C290.972 39.2558 292.105 37.9425 293.295 36.9978C294.51 36.0213 295.687 35.4676 296.826 35.3367C297.823 35.2221 298.631 35.4755 299.251 36.0968C299.87 36.7181 300.239 37.5414 300.357 38.5667C300.429 39.1932 300.417 39.8438 300.322 40.5185C300.26 40.9872 300.058 41.2412 299.717 41.2805C299.176 41.3427 298.871 41.0748 298.802 40.4767C298.772 40.2204 298.778 39.888 298.817 39.4794C298.882 39.0392 298.891 38.6197 298.846 38.221C298.715 37.0818 298.094 36.576 296.983 36.7037C296.385 36.7724 295.683 37.0695 294.878 37.5949C294.101 38.117 293.341 38.7815 292.597 39.5884C291.85 40.3668 291.213 41.2335 290.688 42.1884C289.078 44.9993 288.391 47.43 288.626 49.4805C288.898 51.8442 290.102 52.9034 292.238 52.6579C293.576 52.504 294.835 52.1574 296.014 51.6179C297.189 51.05 298.528 50.0161 300.029 48.5162C300.963 47.6009 301.658 46.8718 302.115 46.3287C302.572 45.7856 303.068 45.2092 303.604 44.5993C303.762 44.4658 303.912 44.3908 304.054 44.3745C304.197 44.3581 304.344 44.3844 304.496 44.4535C304.648 44.5226 304.734 44.6426 304.754 44.8134C304.79 45.1267 304.556 45.6009 304.052 46.2359C303.62 46.7472 303.163 47.2903 302.681 47.8651C302.195 48.4115 301.42 49.1932 300.353 50.2102C299.212 51.3225 297.957 52.2026 296.588 52.8504C295.248 53.4949 293.924 53.8925 292.614 54.0431Z" fill="black"/>
<path d="M303.525 55.1696C302.983 55.2318 302.664 54.8357 302.566 53.9813C302.422 52.7282 302.867 50.4551 303.903 47.162C304.967 43.8656 306.603 39.5224 308.811 34.1323C307.729 34.2567 306.72 34.517 305.784 34.913C304.874 35.2774 304.413 35.6622 304.402 36.0674C304.387 36.1846 304.329 36.3067 304.228 36.4337C304.152 36.529 304.015 36.5881 303.815 36.611C303.36 36.6633 303.106 36.4617 303.053 36.006C302.968 35.2656 303.482 34.5862 304.594 33.9678C305.706 33.3495 307.315 32.9192 309.423 32.677L311.811 27.4682C311.974 27.1321 312.148 26.7658 312.334 26.3693C312.516 25.9444 312.723 25.4878 312.955 24.9994C313.194 24.568 313.499 24.331 313.869 24.2884C314.097 24.2622 314.276 24.3138 314.406 24.4431C314.533 24.5439 314.605 24.6655 314.621 24.8079C314.67 25.2351 314.175 26.4463 313.134 28.4415C311.833 30.9283 311.137 32.2779 311.046 32.4904C311.473 32.4413 312.119 32.4104 312.983 32.3976C313.844 32.3564 314.867 32.3398 316.051 32.348C316.481 32.3274 316.719 32.5165 316.765 32.9152C316.817 33.3708 316.587 33.6281 316.075 33.687C315.875 33.71 315.473 33.7273 314.869 33.7391C314.261 33.7224 313.612 33.7248 312.922 33.7464C312.232 33.768 311.646 33.8209 311.165 33.905L310.53 34.0214C305.917 44.8529 303.767 51.5059 304.08 53.9803L304.162 54.3172L304.172 54.4026C304.225 54.8583 304.009 55.1139 303.525 55.1696Z" fill="black"/>
<path d="M197.045 65.5034C196.561 65.559 196.291 65.3448 196.236 64.8606C196.183 64.4049 196.428 64.146 196.969 64.0838C197.453 64.0282 198.048 63.931 198.753 63.7922C199.455 63.6249 200.075 63.4959 200.613 63.4053C200.636 62.8543 200.829 62.0242 201.192 60.9148C201.555 59.8054 202.059 58.5357 202.702 57.1055C203.346 55.6753 204.084 54.191 204.917 52.6524L210.883 41.6654C211.14 41.1453 211.491 40.4269 211.934 39.5103C212.402 38.562 212.948 37.4171 213.573 36.0757C212.725 36.2308 211.95 36.392 211.248 36.5593C210.575 36.7233 209.972 36.8791 209.441 37.0267C208.656 37.2323 208.139 37.3783 207.89 37.4647C207.64 37.5511 207.444 37.6025 207.301 37.6189C206.817 37.6745 206.544 37.4318 206.482 36.8907C206.446 36.5774 206.622 36.3552 207.011 36.2239C208.655 35.7175 210.265 35.2872 211.84 34.9331C213.444 34.5756 215.029 34.3069 216.595 34.1268C218.133 33.9501 219.401 33.9342 220.399 34.0792C220.871 34.1693 221.186 34.2773 221.345 34.4033C221.532 34.5261 221.639 34.7014 221.665 34.9292C221.718 35.3849 221.53 35.6372 221.103 35.6863C220.961 35.7027 220.755 35.6687 220.485 35.5842C220.216 35.4997 219.806 35.4459 219.255 35.4227C218.729 35.3677 217.939 35.4007 216.886 35.5218C216.487 35.5676 216.131 35.6086 215.818 35.6446C215.533 35.6773 215.292 35.7194 215.096 35.7708C215.137 36.3721 214.717 37.488 213.836 39.1185L212.049 42.397L207.499 51.0139C206.644 52.6127 205.868 54.1447 205.171 55.6099C204.473 57.0751 203.823 58.4483 203.22 59.7295C202.875 60.4906 202.525 61.5841 202.169 63.01C203.238 62.7717 204.127 62.5974 204.836 62.4871C205.541 62.3483 206.051 62.2609 206.364 62.2249C206.99 62.1529 207.549 62.1175 208.04 62.1188C208.556 62.0884 209.002 62.0804 209.379 62.0948C209.816 62.1311 210.054 62.3202 210.093 62.6619C210.145 63.1176 209.915 63.3749 209.403 63.4338C209.061 63.4731 208.616 63.4953 208.069 63.5006C207.553 63.531 207.095 63.5691 206.697 63.615C205.415 63.7623 203.864 64.0704 202.042 64.5395C201.926 64.7837 201.739 64.9205 201.483 64.95C201.255 64.9762 201.073 64.8962 200.936 64.7099C200.095 64.922 199.35 65.0942 198.701 65.2264C198.053 65.3587 197.501 65.451 197.045 65.5034Z" stroke="black" stroke-width="2.4" mask="url(#path-2-outside-1_291_915)"/>
<path d="M217.546 63.5366C217.062 63.5922 216.794 63.3922 216.742 62.9366C216.738 62.9081 216.868 62.5325 217.131 61.8097C217.395 61.0869 217.763 60.0202 218.235 58.6097L219.889 53.7884C220.559 51.8358 221.017 50.2971 221.263 49.1723C221.537 48.0443 221.656 47.3236 221.62 47.0104C221.568 46.5547 221.769 46.3007 222.225 46.2483C222.681 46.1959 222.935 46.3976 222.987 46.8533C223.03 47.2235 222.968 47.822 222.804 48.6489C222.664 49.444 222.394 50.485 221.994 51.7718L220.385 56.9776C225.473 48.775 229.526 44.5002 232.545 44.1532C233.115 44.0877 233.584 44.2791 233.953 44.7272C234.319 45.1469 234.534 45.6415 234.6 46.2111C234.757 47.5781 234.048 50.069 232.472 53.6839C233.805 51.9725 235.151 50.2595 236.513 48.5449C237.899 46.7985 239.289 45.0806 240.681 43.3912C241.038 42.9751 241.344 42.7524 241.6 42.7229C241.942 42.6836 242.246 42.8218 242.513 43.1373C242.777 43.4244 242.93 43.7531 242.973 44.1233C243.006 44.4081 242.918 44.7788 242.711 45.2355C242.413 45.9046 242.158 46.6985 241.946 47.6174C241.731 48.5078 241.486 49.517 241.212 50.645C240.897 51.922 240.692 53.0276 240.598 53.9619C240.503 54.8961 240.489 55.648 240.554 56.2176C240.636 56.9296 240.867 57.4368 241.248 57.7393C241.626 58.0133 241.986 58.1306 242.328 58.0914C242.926 58.0226 243.563 57.7907 244.239 57.3956C244.915 57.0005 245.463 56.6201 245.882 56.2545C246.725 55.5517 247.594 54.7016 248.489 53.7041C249.381 52.6782 250.23 51.6573 251.037 50.6412C251.138 50.5142 251.302 50.4376 251.53 50.4114C251.957 50.3623 252.19 50.5086 252.23 50.8504C252.266 51.1636 252.107 51.5425 251.754 51.9871C250.746 53.2572 249.834 54.3575 249.017 55.2882C248.198 56.1903 247.404 56.9452 246.637 57.5527C246.132 57.9282 245.515 58.331 244.785 58.7611C244.056 59.1913 243.249 59.4571 242.366 59.5585C241.541 59.6535 240.813 59.4773 240.185 59.0302C239.585 58.5797 239.188 57.5144 238.995 55.8341C238.92 55.1791 238.945 54.3971 239.072 53.488C239.195 52.5505 239.42 51.5002 239.748 50.3372L241.394 44.6944L235.992 51.548C235.362 52.3418 234.847 53.007 234.447 53.5435C234.047 54.08 233.722 54.5213 233.474 54.8673C232.998 55.499 232.578 56.11 232.213 56.7002C231.876 57.2872 231.588 57.7963 231.349 58.2278C231.186 58.564 230.976 58.7468 230.72 58.7763C230.236 58.8319 229.971 58.6604 229.925 58.2617C229.824 57.3788 230.387 55.2509 231.615 51.8779C232.843 48.5049 233.421 46.5052 233.349 45.8786C233.317 45.5939 232.987 45.4875 232.361 45.5595C229.826 45.8508 225.788 50.5133 220.247 59.5471C219.795 60.3782 219.03 61.6347 217.954 63.3166C217.882 63.4404 217.746 63.5137 217.546 63.5366Z" stroke="black" stroke-width="2.4" mask="url(#path-2-outside-1_291_915)"/>
<path d="M249.587 70.3286C248.248 70.4824 247.469 69.6053 247.25 67.6972C246.962 65.191 247.6 61.0779 249.164 55.3578C249.43 54.404 249.762 53.3992 250.16 52.3435C250.558 51.2878 251.035 50.1653 251.591 48.9761C252.165 47.6981 252.715 46.5817 253.24 45.6268C253.793 44.6687 254.281 43.8913 254.703 43.2945C254.854 43.104 254.984 42.9737 255.091 42.9037C255.227 42.8303 255.338 42.7888 255.423 42.7789C256.163 42.6938 257.028 42.8109 258.017 43.13C259.006 43.4492 259.908 43.8937 260.724 44.4637C261.473 44.9547 262.107 45.5744 262.626 46.3227C263.145 47.071 263.453 47.8723 263.551 48.7267C263.623 49.3533 263.569 50.0088 263.388 50.6933C263.232 51.346 262.991 52.0085 262.664 52.6809C263.388 52.4534 264.248 52.0228 265.242 51.389C266.266 50.752 267.272 49.8428 268.262 48.6614C268.362 48.5344 268.513 48.4595 268.712 48.4366C269.139 48.3875 269.372 48.5338 269.412 48.8755C269.428 49.0179 269.378 49.2112 269.262 49.4554C269.171 49.6679 268.987 49.9487 268.709 50.298C266.825 52.4768 264.418 53.8788 261.488 54.504C261.114 55.0088 260.694 55.5042 260.231 55.9904C259.793 56.4447 259.323 56.8739 258.821 57.2778C257.284 58.4644 255.931 59.1248 254.763 59.259C254.279 59.3147 253.863 59.2039 253.513 58.9266C253.164 58.6493 252.966 58.3114 252.921 57.9126C252.77 56.6026 253.795 55.4749 255.994 54.5295C256.794 54.2068 257.597 53.9125 258.403 53.6467C259.21 53.3809 260 53.1025 260.775 52.8115C261.243 51.8632 261.567 51.0468 261.748 50.3623C261.958 49.6745 262.036 49.1028 261.984 48.6472C261.81 47.1378 260.52 45.8289 258.113 44.7205C257.168 44.2808 256.441 44.1047 255.932 44.1921C253.891 47.0236 252.096 50.8657 250.548 55.7183C248.93 60.7231 248.278 64.5925 248.592 67.3265C248.668 67.9815 248.775 68.4164 248.915 68.6311C249.055 68.8458 249.268 68.9368 249.553 68.9041C249.638 68.8943 249.708 68.8719 249.761 68.8368C249.818 68.8303 249.875 68.8237 249.932 68.8172C250.302 68.7746 250.514 68.9812 250.566 69.4369C250.625 69.9495 250.299 70.2467 249.587 70.3286ZM254.905 57.8577C255.959 57.7366 257.388 56.7355 259.191 54.8546C258.742 54.9639 258.309 55.0859 257.892 55.2204C257.503 55.3517 256.937 55.5754 256.194 55.8916C254.955 56.4092 254.368 56.9527 254.434 57.5223C254.463 57.7786 254.621 57.8904 254.905 57.8577Z" stroke="black" stroke-width="2.4" mask="url(#path-2-outside-1_291_915)"/>
<path d="M269.778 56.4946C268.126 56.6844 267.21 55.9962 267.03 54.4298C266.912 53.4046 267.028 52.2803 267.378 51.057C267.753 49.802 268.304 48.57 269.031 47.3611C269.754 46.1237 270.591 44.9888 271.54 43.9564C272.485 42.8955 273.482 42.0306 274.531 41.3619C275.576 40.6646 276.611 40.2571 277.637 40.1392C279.459 39.9298 280.474 40.7221 280.68 42.5163C280.814 43.6839 280.596 44.3005 280.027 44.366C279.514 44.4249 279.23 44.2123 279.174 43.7281C279.152 43.5288 279.171 43.3245 279.234 43.1153C279.322 42.8744 279.351 42.6258 279.321 42.3695C279.23 41.572 278.643 41.2355 277.56 41.3599C275.823 41.5596 273.797 43.1343 271.481 46.084C270.93 46.811 270.406 47.6503 269.909 48.6019C269.413 49.5535 269.017 50.5079 268.724 51.465C268.455 52.3905 268.366 53.2519 268.458 54.0493C268.546 54.8182 269.018 55.1536 269.872 55.0554C270.612 54.9703 271.369 54.6524 272.143 54.1018C272.945 53.548 273.631 52.993 274.202 52.4368C275.347 51.353 276.482 49.9241 277.605 48.1502C277.778 47.8995 278 47.571 278.271 47.1648C278.542 46.7585 278.85 46.3047 279.197 45.8032C279.323 45.6444 279.485 45.5536 279.685 45.5307C280.14 45.4783 280.394 45.6799 280.447 46.1356L279.103 48.7571C278.204 50.4764 277.814 51.8486 277.932 52.8738C278.017 53.6143 278.415 53.9436 279.127 53.8618C279.725 53.793 280.362 53.5611 281.038 53.166C281.714 52.7709 282.262 52.3905 282.682 52.0249C283.524 51.3221 284.393 50.472 285.289 49.4746C286.181 48.4487 287.03 47.4277 287.837 46.4116C287.937 46.2846 288.102 46.208 288.329 46.1818C288.757 46.1327 288.99 46.279 289.029 46.6208C289.065 46.9341 288.907 47.313 288.554 47.7575C287.546 49.0276 286.633 50.128 285.817 51.0586C284.997 51.9608 284.204 52.7156 283.437 53.3232C282.932 53.6986 282.3 54.1031 281.542 54.5365C280.784 54.9699 279.892 55.2455 278.867 55.3633C277.472 55.5237 276.689 54.8634 276.518 53.3825C276.453 52.8129 276.47 52.3349 276.57 51.9483C274.263 54.7238 271.999 56.2393 269.778 56.4946Z" stroke="black" stroke-width="2.4" mask="url(#path-2-outside-1_291_915)"/>
<path d="M292.614 54.0431C291.104 54.2165 289.871 53.911 288.916 53.1263C287.96 52.3416 287.397 51.2089 287.227 49.7279C286.932 47.1648 287.822 44.2347 289.895 40.9377C290.972 39.2558 292.105 37.9425 293.295 36.9978C294.51 36.0213 295.687 35.4676 296.826 35.3367C297.823 35.2221 298.631 35.4755 299.251 36.0968C299.87 36.7181 300.239 37.5414 300.357 38.5667C300.429 39.1932 300.417 39.8438 300.322 40.5185C300.26 40.9872 300.058 41.2412 299.717 41.2805C299.176 41.3427 298.871 41.0748 298.802 40.4767C298.772 40.2204 298.778 39.888 298.817 39.4794C298.882 39.0392 298.891 38.6197 298.846 38.221C298.715 37.0818 298.094 36.576 296.983 36.7037C296.385 36.7724 295.683 37.0695 294.878 37.5949C294.101 38.117 293.341 38.7815 292.597 39.5884C291.85 40.3668 291.213 41.2335 290.688 42.1884C289.078 44.9993 288.391 47.43 288.626 49.4805C288.898 51.8442 290.102 52.9034 292.238 52.6579C293.576 52.504 294.835 52.1574 296.014 51.6179C297.189 51.05 298.528 50.0161 300.029 48.5162C300.963 47.6009 301.658 46.8718 302.115 46.3287C302.572 45.7856 303.068 45.2092 303.604 44.5993C303.762 44.4658 303.912 44.3908 304.054 44.3745C304.197 44.3581 304.344 44.3844 304.496 44.4535C304.648 44.5226 304.734 44.6426 304.754 44.8134C304.79 45.1267 304.556 45.6009 304.052 46.2359C303.62 46.7472 303.163 47.2903 302.681 47.8651C302.195 48.4115 301.42 49.1932 300.353 50.2102C299.212 51.3225 297.957 52.2026 296.588 52.8504C295.248 53.4949 293.924 53.8925 292.614 54.0431Z" stroke="black" stroke-width="2.4" mask="url(#path-2-outside-1_291_915)"/>
<path d="M303.525 55.1696C302.983 55.2318 302.664 54.8357 302.566 53.9813C302.422 52.7282 302.867 50.4551 303.903 47.162C304.967 43.8656 306.603 39.5224 308.811 34.1323C307.729 34.2567 306.72 34.517 305.784 34.913C304.874 35.2774 304.413 35.6622 304.402 36.0674C304.387 36.1846 304.329 36.3067 304.228 36.4337C304.152 36.529 304.015 36.5881 303.815 36.611C303.36 36.6633 303.106 36.4617 303.053 36.006C302.968 35.2656 303.482 34.5862 304.594 33.9678C305.706 33.3495 307.315 32.9192 309.423 32.677L311.811 27.4682C311.974 27.1321 312.148 26.7658 312.334 26.3693C312.516 25.9444 312.723 25.4878 312.955 24.9994C313.194 24.568 313.499 24.331 313.869 24.2884C314.097 24.2622 314.276 24.3138 314.406 24.4431C314.533 24.5439 314.605 24.6655 314.621 24.8079C314.67 25.2351 314.175 26.4463 313.134 28.4415C311.833 30.9283 311.137 32.2779 311.046 32.4904C311.473 32.4413 312.119 32.4104 312.983 32.3976C313.844 32.3564 314.867 32.3398 316.051 32.348C316.481 32.3274 316.719 32.5165 316.765 32.9152C316.817 33.3708 316.587 33.6281 316.075 33.687C315.875 33.71 315.473 33.7273 314.869 33.7391C314.261 33.7224 313.612 33.7248 312.922 33.7464C312.232 33.768 311.646 33.8209 311.165 33.905L310.53 34.0214C305.917 44.8529 303.767 51.5059 304.08 53.9803L304.162 54.3172L304.172 54.4026C304.225 54.8583 304.009 55.1139 303.525 55.1696Z" stroke="black" stroke-width="2.4" mask="url(#path-2-outside-1_291_915)"/>
<path d="M71.6426 39.6409C75.7334 39.6409 79.2381 40.8456 81.8945 43.1145C84.5505 45.383 86.302 48.6666 86.9756 52.7229L87.1201 53.5959L80.2939 53.5959L80.1738 52.9915C79.7265 50.7344 78.69 48.9607 77.2412 47.7512C75.7932 46.5425 73.8892 45.8606 71.6426 45.8606C68.7776 45.8607 66.5126 46.8691 64.9561 48.6233C63.3905 50.3877 62.4766 52.981 62.4766 56.2542C62.4766 59.6191 63.3933 62.2445 64.958 64.0178C66.5129 65.7799 68.7757 66.7795 71.6426 66.7795C73.9404 66.7795 75.842 66.1141 77.2744 64.925C78.7074 63.7356 79.7254 61.9769 80.1738 59.6936L80.293 59.0881H87.1279L86.9746 59.9661C86.258 64.0796 84.5203 67.3641 81.8779 69.6184C79.2344 71.8736 75.7498 73.0422 71.6426 73.0422C66.8066 73.0422 62.7895 71.3578 59.9844 68.3762C57.1837 65.3995 55.6504 61.1941 55.6504 56.2542C55.6504 51.4661 57.1519 47.3053 59.9346 44.3352C62.7226 41.3595 66.7398 39.641 71.6426 39.6409ZM27.668 40.2961V46.5159H17.5791V72.387H10.8828L10.8828 46.5159H0.75L0.75 40.2961H27.668ZM53.2822 40.2961V46.5159H37.2178V52.8821H51.7666V58.9709H37.2178V66.1672H53.6719V72.387H30.5645V40.2961H53.2822ZM97.1396 40.2961V52.8821H112.268V40.2961H118.964V72.387H112.268V59.1018L97.1396 59.1018V72.387H90.4434V40.2961H97.1396Z" fill="black" stroke="black" stroke-width="1.5"/>
</svg>
