<svg width="103" height="102" viewBox="0 0 103 102" fill="none" xmlns="http://www.w3.org/2000/svg">
<path d="M66.2347 23.9318C64.6921 22.3389 63.1272 20.8122 61.6913 19.1884C61.2015 18.6435 60.348 17.8823 60.7026 17.1389C61.0099 16.733 62.0335 16.7926 62.6998 16.7926C70.395 16.8039 77.9976 17.616 85.3685 19.926C88.8376 21.0094 89.2894 21.6227 88.9695 25.0709C88.3044 32.3489 86.6827 39.3688 84.0443 46.1548C83.926 46.4394 82.9852 48.3057 82.3599 47.8115C80.8054 45.4642 79.3329 43.2469 77.7963 40.9128C76.5707 41.8901 75.4162 42.81 74.2618 43.7299C61.4608 53.9109 48.9256 64.4006 38.0747 76.6995C35.5195 79.5983 32.982 82.5103 30.4267 85.4091C29.1713 86.8475 28.5471 86.9203 27.1399 85.387C24.7399 82.7814 22.3799 80.123 20.1511 77.3829C17.3663 73.9655 14.7371 70.4157 12.0523 66.9211C10.8672 65.3878 10.81 63.9781 12.1611 62.4316C22.0507 51.0725 32.9485 40.8937 46.4075 33.786C52.8702 30.3644 59.4745 27.2694 66.2347 23.9318ZM65.3151 19.4621C66.6902 20.4328 68.1075 21.3661 69.4001 22.4273C70.5287 23.3385 70.4151 24.6621 69.1345 25.3636C67.6627 26.171 66.2152 27.038 64.7058 27.8035C46.8878 36.8371 30.3922 47.6996 16.787 62.5001C16.2662 63.0781 15.7099 63.6296 15.3783 63.976C19.9874 70.3011 24.4371 76.3969 28.8668 82.4639C31.714 79.0511 34.379 75.6956 37.2014 72.4439C48.9297 58.9493 62.814 47.9058 77.5115 37.7867C78.7546 36.933 79.6734 37.2595 80.3241 38.3802C81.2228 39.9069 83.0372 43.3044 83.0372 43.3044C84.5273 36.5868 86.0667 29.6573 87.5791 22.8735C87.5971 22.7764 87.5329 22.6595 87.433 22.6264C79.9261 20.5877 72.813 19.3123 65.3598 19.3297C65.2976 19.3386 65.2775 19.4202 65.3151 19.4621Z" fill="#FFF200"/>
</svg>
