<svg width="109" height="109" viewBox="0 0 109 109" fill="none" xmlns="http://www.w3.org/2000/svg">
<g clip-path="url(#clip0_151_324)">
<path d="M70.038 85.4357C67.1077 79.5385 64.1699 73.6526 61.2921 67.725C61.0901 67.3155 61.2517 66.5763 61.494 66.1342C67.3405 55.6253 67.1861 45.0678 61.4387 34.6325C60.4833 32.8977 58.9683 31.4448 56.9467 30.3413C54.2828 28.8799 51.3614 29.8345 49.9567 32.5358C48.7271 34.8971 48.6586 37.4213 48.8615 39.9778C49.3308 45.6367 51.0903 50.9906 53.0302 56.2682C54.2584 59.6137 55.6858 62.8789 57.0537 66.2838C55.6232 67.0981 53.5281 66.9707 52.287 65.9908C49.926 64.1435 49.1084 62.7921 47.7184 60.8036C43.3547 54.5642 40.6703 47.528 39.0349 40.1582C37.8171 34.6731 36.9943 29.1066 36.0022 23.575C35.9128 23.0934 35.8685 22.5926 35.7568 22.145C35.5833 21.4454 35.2454 20.9953 34.639 21.0025C34.0509 20.9079 33.7355 21.7573 33.6063 22.2251C33.3923 22.9947 33.3292 23.8313 33.394 24.622C34.2977 37.1039 36.875 49.1431 43.3108 60.0641C44.7257 62.4592 46.5238 64.6677 48.4076 66.7211C51.1214 69.6626 54.4319 70.883 58.4142 69.0334C61.4026 74.5461 64.3453 79.9799 67.3376 85.5114C65.6361 84.391 64.0254 83.3304 62.4034 82.2624C62.1311 82.0831 61.8813 81.8698 61.5941 81.7133C60.8195 81.2845 59.9411 80.4947 59.1709 81.5161C58.4157 82.5149 59.3951 83.176 60.0342 83.6131C63.2601 85.851 66.5197 88.0624 69.8501 90.1416C71.211 90.9889 72.4401 90.5298 72.6874 88.969C73.4452 84.4595 73.9955 79.8947 74.5195 75.3452C74.5698 74.923 74.3125 74.0543 73.4568 73.9462C72.7862 73.9274 72.2896 74.7062 72.1906 75.1777C71.6004 78.025 71.1347 80.9055 70.6388 83.7824C70.5475 84.2915 70.4789 84.8154 70.399 85.332C70.404 86.2134 70.2704 85.8977 70.038 85.4357ZM59.8774 64.0453C59.6426 64.4761 59.3811 63.5396 59.3238 63.4043C56.3265 56.3247 53.5585 49.1685 52.3961 41.5247C52.0831 39.481 52.1159 37.3074 52.4395 35.2602C52.8798 32.5418 55.0343 31.8628 57.0379 33.7837C58.3333 35.0269 59.5434 36.523 60.3173 38.1383C63.6297 44.9863 63.799 54.1878 61.9454 59.4229C61.2185 61.416 60.9048 61.8924 59.8774 64.0453Z" fill="black"/>
</g>
<defs>
<clipPath id="clip0_151_324">
<rect width="78.2282" height="78.2282" fill="white" transform="matrix(0.8352 0.549946 0.549946 -0.8352 0 65.3362)"/>
</clipPath>
</defs>
</svg>
