<svg width="574" height="370" viewBox="0 0 574 370" fill="none" xmlns="http://www.w3.org/2000/svg">
<path d="M266.592 31.2487C265.561 31.681 261.372 33.3364 259.571 34.0931C261.54 33.0499 270.311 29.6772 266.592 31.2487ZM107.868 146.509C108.841 145.304 109.836 144.103 110.853 142.907C107.815 146.223 104.17 150.674 101.639 153.964C101.228 154.495 102.183 153.031 101.218 154.295C100.262 155.563 100.572 155.416 99.2442 157.281C97.684 159.277 91.2169 169.138 89.4865 172.717C82.369 186.051 77.9699 200.773 77.2147 215.673C78.4593 200.365 76.6593 215.709 76.916 220.134C77.1448 221.131 76.4424 220.894 78.5093 236.334C80.4551 245.916 77.619 237.439 82.4845 253.142C79.1588 240.989 82.1801 252.906 86.2608 262.285C86.7248 263.791 92.9695 276.693 96.3309 281.807C97.3628 283.5 99.0646 285.959 100.64 288.268C100.764 288.45 100.886 288.631 101.008 288.809C102.101 290.412 102.87 291.667 104.594 293.967C112.624 304.635 122.258 313.938 133.073 321.913C126.511 317.493 137.976 325.729 138.602 325.997C141.186 327.956 129.193 319.534 133.874 322.944C140.515 327.714 147.276 331.811 154.584 335.595C148.685 332.492 162.501 339.346 165.133 340.452C163.835 340.363 199.873 353.606 205.887 354.01C207.092 354.187 199.276 352.575 217.465 356.315C219.43 356.685 218.671 356.636 219.706 356.813C220.328 356.919 224.125 357.302 228.162 358.052C229.624 358.242 220.166 357.401 240.939 359.832C232.638 358.948 269.896 362.098 276.914 361.604C275.525 361.566 274.139 361.52 272.756 361.466C279.628 361.629 280.814 361.474 282.351 361.469C288.506 361.424 297.074 361.158 302.832 360.751C309.553 360.262 309.561 360.112 317.417 359.407C315.55 359.562 313.684 359.703 311.819 359.832C317.231 359.362 322.688 358.776 328.062 358.094C315.595 359.835 330.761 357.798 331.755 357.609C333.348 357.38 331.07 357.788 333.734 357.401C334.01 357.357 333.6 357.348 337.705 356.722C346.274 355.362 344.936 355.639 348.524 355.018C348.851 354.952 347.694 355.118 353.873 353.935C373.454 349.909 353.799 354.064 353.034 354.163C352.037 354.322 358.873 353.526 342.097 356.305C347.738 355.409 348.321 355.411 348.956 355.307C349.521 355.237 359.23 353.343 359.757 353.2C364.505 352.16 360.3 352.948 361.223 352.738C361.984 352.605 373.636 350.103 376.277 349.12C381.872 347.952 373.155 350.237 363.828 352.285C362.481 352.654 372.731 350.396 373.268 350.233C386.428 346.964 379.084 348.561 381.923 347.708C383.41 347.254 388.759 345.942 383.803 347.094C395.618 343.827 388.476 345.892 389.247 345.705C390.396 345.411 394.523 344.155 395.042 344.002C395.804 343.786 393.183 344.634 396.183 343.76C396.682 343.614 401.462 342.053 395.239 343.88C403.537 341.384 402.8 341.458 405.648 340.74C411.175 338.547 409.799 339.569 412.016 338.833C417.921 336.823 416.128 337.147 416.433 337.031C418.631 336.252 434.618 330.144 438.558 328.285C437.049 329.194 425.958 333.51 423.43 334.455C415.129 337.771 435.188 329.983 429.235 332.554C431.74 331.483 434.173 330.412 436.697 329.271C441.355 327.409 434.933 330.391 447.163 324.815C449.12 323.803 438.507 328.738 440.602 327.676C441.866 327.081 448.937 323.841 449.047 323.733C449.181 323.646 442.809 326.608 443.788 326.09C446.015 325.15 469.033 313.872 451.545 322.562C456.369 320.241 459.113 319.129 463.248 316.874C465.871 315.358 450.741 323.275 473.24 311.007C473.801 310.863 464.334 316.016 464.054 316.125C463.71 316.323 465.568 315.631 465.872 315.48C467.031 315.193 489.659 301.618 494.068 298.298C492.36 299.515 509.982 286.65 511.746 284.772C512.235 284.35 510.325 285.825 510.85 285.377C514.238 282.591 522.678 275.208 526.502 271.229C530.7 266.937 530.062 267.408 530.305 267.172C532.085 265.256 530.704 266.823 531.783 265.647C533.517 264.069 544.024 250.984 544.296 250.229C544.433 250.03 542.805 252.171 544.877 249.239C545.189 248.672 545.241 249.312 550.893 240.097C557.351 228.95 546.176 247.725 548.813 243.057C553.309 236.06 552.883 236.163 553.989 234.224C554.348 233.564 557.198 228.518 559.573 222.704C557.879 226.857 555.92 230.988 553.82 234.902C555.977 231.124 559.566 223.19 560.809 219.803C561.439 218.148 561.05 219.558 562.326 215.931C562.537 215.143 563.584 212.075 560.104 221.531C559.737 222.252 561.55 217.807 562.219 215.691C562.32 215.372 562.641 214.081 563.546 211.383C563.565 210.684 562.659 218.144 566.594 199.334C566.7 198.724 566.252 200.831 566.355 200.234C566.455 199.822 567.277 195.022 567.317 194.486C567.389 193.941 566.999 196.258 567.083 195.609C567.518 192.288 568.221 187.913 567.343 194.797C567.695 192.509 567.977 190.201 568.186 187.875C567.827 190.352 568.468 184.227 568.468 180.947C567.91 160.464 568.152 174.186 567.996 170.666C567.388 164.971 568.205 169.222 566.958 160.826C566.671 160.037 568.799 170.098 564.833 150.546C565.549 153.453 566.152 156.338 566.648 159.2C566.601 157.541 564.472 148.78 564.207 148.085C561.924 140.268 563.784 145.568 559.827 134.578C559.454 133.599 558.659 131.446 557.752 129.337C554.053 120.606 562.396 140.891 562.104 141.378C562.648 141.755 553.72 119.805 553.136 119.539C551.775 116.517 557.57 128.828 556.527 126.518C556.208 125.699 551.413 115.007 545.08 104.915C541.198 98.6026 537.383 93.2268 535.882 91.1492C531.47 85.0425 529.18 82.1149 529.049 82.2289C527.817 80.4108 526.48 79.0331 525.845 78.2882C518.152 69.5193 517.849 69.3007 510.542 62.3609C508.896 60.8435 507.547 59.5832 506.915 59.0428C506.557 58.74 507.184 59.3526 505.434 57.8677C503.137 55.5681 487.97 44.3298 486.623 43.7159C485.474 42.8795 493.307 48.1928 491.925 47.2138C486.284 43.2617 480.775 39.8696 474.708 36.57C472.188 35.2152 473.499 35.8807 472.406 35.3033C471.968 34.9964 463.083 30.736 463.435 30.9733C464.602 30.8401 490.994 45.9811 484.001 42.0663C482.697 41.2369 478.05 38.4196 478.745 38.9465C455.189 25.2898 428.531 17.4199 401.412 14.4265C416.968 16.0421 434.384 19.8236 449.756 25.4304C451.888 26.1504 458.924 28.9969 458.081 28.6218C445.245 23.1507 428.454 18.5298 415.222 16.3141C414.797 16.2399 416.363 16.4708 414.773 16.1909C411.768 15.607 402.141 14.3946 400.474 14.2506C400.199 14.2036 405.736 14.8052 404.058 14.5755C399.748 13.9846 398.624 14.0589 394.876 13.7296C392.043 13.2996 372.496 12.5171 367.721 12.8529C362.575 12.9178 382.044 12.8374 380.623 12.9866C367.416 12.6538 354.049 13.2464 341.637 14.5337C341.417 14.557 343.328 14.3907 340.546 14.6844C335.686 15.218 334.451 15.3476 332.118 15.6388C329.612 15.9265 320.697 17.2903 319.494 17.5019C319.342 17.5245 321.145 17.1838 321.419 17.1395C325.306 16.4984 326.69 16.3692 327.044 16.3153C328.37 16.1244 329.668 15.9211 330.876 15.7599C332.866 15.4965 333.952 15.3749 336.582 15.0636C338.419 14.8511 336.642 15.0162 338.411 14.8161C339.065 14.724 346.056 14.1173 346.692 13.9864C346.722 12.8905 290.185 22.3089 284.908 24.7665C289.689 23.5526 294.406 22.4367 299.231 21.3833C289.506 23.4619 277.92 26.6691 277.067 26.8228C241.433 36.6308 206.832 50.5404 173.652 66.9812C167.735 69.9425 170.936 68.2403 161.273 73.2448C163.771 71.9552 166.278 70.6802 168.794 69.4206C163.761 71.8229 141.986 83.5546 138.555 85.6364C138.107 85.8969 137.478 86.2624 132.13 89.3628C127.395 92.1242 126.638 92.5638 124.126 94.0562C122.015 95.3141 119.636 96.7648 119.012 97.1439C118.532 97.4359 118.335 97.5416 117.182 98.2459C113.548 100.475 116.502 98.6866 112.891 100.884C113.763 100.34 114.638 99.7965 115.514 99.2546C111.13 101.948 105.217 105.68 111.601 101.651C112.702 100.962 111.761 101.562 112.583 101.048C145.137 81.3451 118.988 96.8778 107.799 104.049C104.871 105.806 88.8337 116.404 88.3782 116.778C87.64 117.276 90.3638 115.411 86.7774 117.842C85.9046 118.307 65.1188 133.102 72.5924 127.759C74.0942 126.645 84.1473 119.59 86.6459 117.918C80.7761 121.832 67.6063 131.33 66.0946 132.488C60.0887 136.891 77.6339 124.013 64.099 133.936C53.8346 141.6 63.4652 134.41 59.532 137.365C57.37 138.939 45.7484 147.961 46.1269 147.721C42.2415 150.81 44.5131 148.998 44.0326 149.378C43.5913 149.71 35.9085 155.937 33.4739 157.993C33.1766 158.24 34.1087 157.457 33.8013 157.713C33.1709 158.213 26.0356 164.264 25.7489 164.534C25.574 164.684 27.2715 163.23 26.5763 163.828C25.7429 164.52 18.8143 170.587 18.4731 170.915C17.9085 171.388 26.4376 163.921 25.0295 165.168C21.0177 168.614 14.7853 174.202 12.312 176.491C12.9347 175.912 16.5866 172.598 17.8973 171.437C17.2729 171.965 9.35795 179.195 12.0758 176.708C10.3199 178.325 11.5185 177.222 10.5336 178.133C10.2715 178.372 7.80995 180.667 7.34529 181.108C7.27996 181.166 9.81302 178.8 9.30708 179.274C8.34307 180.137 1.07315 187.072 0.534848 187.633C-1.10785 189.227 4.70505 183.585 5.22871 183.11C5.28094 183.045 0.2977 187.848 0.24271 187.918C-0.0653779 188.201 5.47615 182.855 4.8525 183.465C3.464 184.789 2.09316 186.111 0.74063 187.431C5.89733 182.324 16.1954 172.89 18.7973 170.623C10.7052 177.778 2.18542 186.014 2.29181 185.922C2.28856 185.918 5.69417 182.65 5.56887 182.775C5.04296 183.259 0.357107 187.792 0.20428 187.955C0.064015 188.093 0.000139849 188.156 0.00014347 188.156C0.00014347 188.156 0.00014347 188.156 0.00014347 188.156C0.00014347 188.156 0.00014347 188.156 0.00014347 188.156C0.00014347 188.156 0.00014347 188.156 0.00014347 188.156C-0.0326719 188.16 6.67361 181.696 7.05204 181.367C7.62463 180.822 4.58476 183.704 4.59603 183.699C4.68394 183.6 9.57527 178.982 7.92309 180.539C6.22911 182.118 2.04185 186.151 1.90787 186.291C1.08434 187.064 8.45351 180.004 8.71946 179.788C8.82733 179.677 4.81505 183.474 4.71155 183.583C4.60776 183.678 7.63467 180.794 8.85772 179.653C9.76148 178.803 7.12932 181.275 7.59298 180.84C7.90266 180.518 15.0959 173.865 15.4131 173.606C15.932 173.134 14.2704 174.641 14.5124 174.421C14.85 174.11 17.1519 172.029 16.8533 172.299C16.6355 172.45 7.68125 180.705 7.74911 180.685C7.81658 180.592 17.3902 171.705 8.50293 179.97C8.43834 180.028 6.3149 182.038 6.25934 182.094C4.96309 183.332 11.6983 176.895 3.47416 184.764C18.9228 170.109 5.35128 182.943 7.64272 180.773C8.51054 179.926 14.6269 174.261 14.6182 174.287C14.0317 174.818 12.1423 176.559 11.456 177.197C11.1302 177.485 16.4769 172.579 15.2729 173.683C14.6734 174.208 8.88576 179.574 8.65552 179.81C6.38983 181.948 9.1665 179.325 8.6691 179.795C8.32817 180.107 4.90802 183.366 4.82827 183.45C4.67237 183.588 9.31944 179.162 10.3261 178.236C11.0745 177.533 8.26358 180.168 8.78689 179.678C11.9786 176.652 18.5526 170.661 12.1918 176.494C11.7874 176.865 9.33562 179.155 9.26791 179.222C7.7514 180.643 12.2766 176.399 13.0665 175.682C14.4543 174.391 7.98021 180.393 13.3511 175.416C9.32384 179.137 7.03346 181.29 2.51343 185.686C15.2473 173.453 20.0393 169.153 5.57377 182.721C10.0963 178.4 9.62641 178.874 10.9986 177.583C11.9224 176.696 18.4568 170.734 15.4359 173.48C15.0524 173.819 11.0544 177.52 12.3104 176.355C21.928 167.528 12.496 176.161 12.509 176.169C12.4022 175.986 36.6425 154.663 41.1685 151.27C46.0838 147.25 50.6047 143.685 51.7136 142.816C55.371 139.958 52.3389 142.335 53.1587 141.698C54.0395 140.977 64.3112 133.132 64.8889 132.737C66.9298 131.221 64.866 132.77 65.0784 132.613C67.6219 130.657 81.7836 120.427 85.925 117.635C85.7792 117.709 77.6689 123.402 82.7246 119.837C88.6427 115.688 89.0087 115.517 89.1604 115.408C116.296 96.8432 144.692 79.9859 174.122 65.1985C173.699 65.2804 154.638 75.2712 154.234 75.5743C151.617 76.7573 183.906 60.0257 188.068 58.3604C185 59.804 181.943 61.2721 178.898 62.7634C184.067 60.1386 195.652 54.7172 203.332 51.33C205.805 50.2284 201.043 52.3153 201.142 52.2745C203.912 51.01 208.393 49.0767 205.059 50.5619C211.856 47.5744 210.874 48.0374 216.118 45.8396C216.39 45.7279 214.12 46.6427 218.283 44.9119C220.234 44.0728 230.715 39.9229 232.119 39.3954C232.694 39.1607 227.338 41.1386 226.709 41.473C215.305 45.9933 223.08 42.9536 218.659 44.7448C217.99 45.0404 219.493 44.2848 208.49 49.0081C210.538 48.0035 223.311 42.762 225.53 41.9197C230.049 40.0638 211.37 47.5732 208.053 49.1704C209.615 48.4403 206.738 49.7176 202.637 51.5367C198.151 53.5375 200.099 52.6516 197.677 53.7467C191.084 56.7683 193.829 55.5396 188.401 58.0558C193.712 55.6391 179.149 62.4569 174.973 64.5876C181.787 61.1675 188.662 57.8586 195.583 54.6761C195.185 54.853 194.787 55.0305 194.39 55.2083C196.212 54.3678 198.036 53.537 199.873 52.7109C199.581 52.8478 199.289 52.985 198.997 53.1223C208.444 48.8401 210.802 47.9495 211.574 47.6061C221.571 43.3409 233.239 38.7469 243.632 35.0444C245.189 34.5131 244.1 34.7477 255.472 30.957C259.11 29.772 255.679 30.9243 259.83 29.5748C265.004 27.8309 264.928 27.9509 266.475 27.4716C270.914 26.1146 273.622 25.3217 274.032 25.2007C279.516 23.601 287.709 21.4178 293.792 19.9656C293.906 19.9376 290.727 20.6731 294.689 19.7286C296.064 19.3863 308.711 16.563 319.807 14.6553C316.882 15.1494 314.02 15.6677 311.152 16.2196C314.431 15.3746 338.43 11.733 332.554 12.596C328.985 13.0276 320.245 14.5352 319.265 14.6411C327.092 12.5022 371.52 8.75211 374.95 9.57645C375.423 9.57678 372.488 9.62104 373.147 9.62271C373.629 9.57691 383.914 9.69646 385.244 9.81113C386.05 9.84234 381.543 9.7182 381.908 9.74686C382.262 9.69173 394.877 10.3325 395.66 10.4304C392.497 10.1593 383.797 9.75648 388.377 9.93465C388.969 9.95458 392.019 10.1561 392.732 10.2028C399.383 10.5362 379.529 9.40608 376.364 9.59351C388.986 9.48117 408.292 11.0705 422.664 14.0121C428.433 15.1723 414.074 12.4471 420.617 13.7077C434.122 16.5188 424.231 14.3735 424.653 14.4466C428.014 15.0021 439.337 18.1434 439.357 18.0572C444.161 19.4956 442.608 18.989 449.336 21.2018C448.458 20.8895 447.574 20.5824 446.694 20.2837C454.299 22.4243 469.449 29.3876 468.255 28.9735C465.23 27.5437 457.245 24.1635 456.539 23.9379C455.501 23.6038 452.69 22.3849 441.296 18.7681C436.623 17.2909 459.291 24.7824 448.973 21.3651C456.185 23.0791 483.414 36.4206 486.777 39.2018C487.212 39.4901 485.262 38.0235 491.506 42.1601C494.459 44.1465 487.29 39.4352 488.633 40.3595C490.714 41.6821 506.225 51.7127 519.643 65.3649C533.375 78.859 544.69 95.5576 548.183 101.187C548.641 101.909 548.437 101.666 548.886 102.38C548.91 102.418 548.935 102.458 548.961 102.5C550.533 104.909 555.195 112.796 557.103 116.686C552.931 108.525 561.134 124.07 562.858 128.863C565.527 135.471 565.185 135.076 566.186 137.913C570.224 148.913 573.576 167.059 573.366 176.241C573.728 175.641 573.272 192.19 571.677 199.4C570.742 205.174 568.659 213.383 570.627 205.752C568.411 215.611 564.742 225.556 560.505 234.061C559.814 235.443 560.723 233.517 559.53 235.871C559.418 236.083 559.333 236.409 558.26 238.416C548.814 254.766 553.168 246.719 551.335 249.707C550.242 251.314 549.409 252.491 548.797 253.356C555.209 244.464 560.919 233.14 562.263 229.986C561.311 232.748 550.732 251.514 546.672 256.219C546.542 256.393 546.931 255.74 546.8 255.918C546.797 255.921 546.795 255.925 546.792 255.929C545.542 257.925 535.927 269.455 537.968 267.115C538.479 266.554 543.115 261.301 547.861 254.672C546.581 256.467 547.614 255.183 547.388 255.5C544.718 259.419 537.204 268.319 534.375 271.231C533.737 271.918 533.821 271.906 533.717 272.019C531.139 274.737 532.096 273.516 529.506 276.391C524.63 281.145 538.306 267.172 537.124 268.018C537.176 269.484 505.088 298.539 504.817 297.809C504.688 297.884 504.206 298.225 503.217 298.931C501.063 300.56 491.177 307.432 489.475 308.501C489.188 308.695 489.39 308.753 489.03 308.989C488.216 309.62 475.54 317.299 470.867 319.889C473.457 318.472 475.948 317.068 478.539 315.556C463.182 324.421 465.451 322.928 470.707 320.169C470.966 320.025 471.22 319.89 471.467 319.753C475.464 317.576 480.567 314.552 480.657 314.505C481.041 314.713 454.566 329.057 459.537 326.123C460.309 325.782 472.681 319.211 466.525 322.403C465.479 322.981 457.42 327.165 457.001 327.328C454.146 328.769 471.607 319.542 469.364 320.522C465.283 322.897 459.72 325.736 454.888 328.124C452.679 329.216 452.163 329.548 451.889 329.682C447.777 331.656 450.052 330.479 448.673 331.129C447.953 331.498 439.764 335.367 441.218 334.426C413.89 345.909 433.805 338.244 450.412 330.43C445.288 333.004 434.809 337.496 430.161 339.346C428.479 340.027 429.514 339.715 426.664 340.856C420.853 343.487 392.151 352.924 384.515 354.667C389.155 353.353 387.771 353.637 384.184 354.627C380.59 355.602 383.645 354.919 382.947 355.122C382.223 355.418 365.211 359.543 362.359 360.079C375.178 357.132 372.269 357.727 361.369 360.126C362.941 359.759 364.511 359.383 366.078 358.999C359.719 360.541 346.17 362.96 342.433 363.583C341.849 363.69 343.967 363.42 343.638 363.48C340.375 364.121 329.194 365.68 328.676 365.748C328.239 365.838 333.015 365.245 331.251 365.53C330.877 365.591 326.291 366.118 321.729 366.683C320.04 366.892 321.068 366.857 320.642 366.911C317.098 367.349 319.176 367.002 312.694 367.675C307.934 368.142 304.458 368.59 297.829 368.953C319.431 367.53 301.341 368.976 292.219 369.412C290.769 369.471 292.008 369.646 283.346 369.812C301.758 368.903 278.147 369.932 273.211 369.759C272.943 369.756 272.851 369.656 270.46 369.631C270.259 369.628 270.547 369.708 268.328 369.68C247.373 369.106 260.778 369.411 256.805 369.208C255.137 369.135 244.827 368.55 242.112 368.259C241.483 368.2 241.777 368.157 239.347 367.92C235.061 367.498 231.206 367.104 228.327 366.72C227.997 366.667 227.983 366.581 222.596 365.805C221.084 365.583 219.387 365.35 221.521 365.729C228.663 367.043 242.165 368.371 250.312 368.967C257.712 369.638 234.36 367.839 233.244 367.501C232.803 367.451 237.306 367.916 232.738 367.367C228.757 366.889 221.51 366.084 215.742 364.991C215.294 364.918 210.743 363.873 210.947 363.893C211.143 363.947 218.219 365.194 217.205 364.949C217.079 364.93 212.582 364.113 212.01 363.953C211.323 363.774 209.421 362.918 208.46 362.704C205.976 362.154 207.573 362.601 205.967 362.249C202.481 361.563 190.837 358.408 190.45 358.406C192.355 358.952 194.272 359.478 196.202 359.982C185.526 357.152 190.011 358.374 188.492 358C186.829 357.545 187.325 357.56 183.708 356.427C182.825 356.286 168.131 351.095 168.32 351.102C176.527 354.143 173.417 353.101 173.799 353.268C175.221 353.797 177.086 354.347 179.026 355C192.793 359.43 178.837 355.157 182.08 356.231C183.195 356.606 185.467 357.215 185.947 357.362C187.504 357.844 187.499 357.958 188.549 358.254C191.003 358.937 188.189 357.964 188.386 358.01C190.631 358.597 198.974 360.899 193.688 359.691C196.83 360.583 197.257 360.468 199.765 361.165C204.773 362.521 197.214 360.703 195.197 360.178C188.015 358.35 185.62 357.673 175.552 354.242C171.951 352.994 167.625 351.414 165.941 350.728C164.833 350.361 155.243 345.696 154.753 346.026C151.105 344.251 145.344 340.798 141.676 338.657C138.355 336.725 139.309 337.511 138.994 337.337C138.501 337.071 134.608 334.627 133.257 333.75C131.684 332.745 132.405 333.339 129.948 331.692C123.894 327.522 124.266 327.369 123.659 326.922C116.922 321.402 119.752 323.973 118.23 322.775C116.454 321.99 98.6561 303.875 95.8507 299.188C97.1979 300.91 98.5825 302.594 100.003 304.243C97.6193 301.168 94.9917 297.958 95.1498 297.752C94.768 297.557 93.5066 295.898 92.2062 293.961C90.7736 291.838 89.3251 289.462 88.6553 288.406C88.1439 287.601 88.1239 287.701 87.4974 286.693C85.0197 282.871 80.1269 273.608 79.0672 271.278C74.1178 261.564 86.3355 286.671 87.9563 288.2C85.265 284.828 74.158 262.399 79.0236 272.799C79.7711 274.413 81.4142 277.176 81.9142 278.077C85.1617 283.884 82.4999 279.394 82.7436 279.872C83.1231 280.638 85.4125 284.3 86.0099 285.3C86.222 285.636 84.7356 283.574 88.1309 289.028C86.1129 286.582 77.6207 270.639 76.8725 268.405C76.5957 267.528 78.1195 272.944 72.7007 258.146C72.7347 258.327 72.7693 258.508 72.8042 258.688C69.8612 250.639 67.6373 241.991 66.5063 233.408C66.6962 234.381 67.5433 239.225 66.6372 233.06C66.1901 229.483 66.3571 232.147 66.3127 231.821C66.0887 230.246 64.2638 215.141 67.4927 199.368C70.337 183.573 78.1519 168.278 80.8087 163.686C82.5187 160.393 88.0439 151.682 88.534 151.099C91.0595 147.062 101.556 134.392 103.92 132.043C105.28 130.546 103.875 131.868 105.111 130.544C106.267 129.316 105.169 130.682 105.515 130.32C108.066 126.891 131.324 105.569 137.711 101.432C133.833 104.051 116.743 119.155 117.281 119.064C117.349 119 121.52 115.339 122.37 114.546C123.891 113.336 128.553 108.89 131.348 106.738C131.672 106.498 130.534 107.619 135.517 103.725C137.281 102.354 141.586 98.8352 146.334 95.6359C152.664 90.1936 189.697 67.9854 192.397 66.7479C192.464 66.6906 187.106 69.5802 190.657 67.5019C195.39 64.7591 191.295 67.4604 196.888 64.471C197.672 63.98 213.403 55.8178 213.905 55.6076C218.581 53.0046 204.748 59.8355 204.938 59.7563C205.379 59.4144 216.816 53.6135 217.3 53.4296C217.751 53.2261 208.515 58.1086 219.733 52.4788C218.421 53.0728 217.113 53.6708 215.807 54.2728C221.075 51.606 221.689 51.5733 222.984 50.9636C227.033 49.0795 231.227 46.7389 237.893 44.1868C239.654 43.5149 236.852 44.9058 237.074 44.8247C239.194 44.0296 241.674 42.4922 244.904 41.3996C245.15 41.3263 237.962 44.6193 250.644 39.1341C249.759 39.4819 248.874 39.8314 247.99 40.1827C249.744 39.3211 262.625 33.8892 264.395 33.2209C269.51 31.2036 265.139 33.1796 270.256 31.1096C266.851 32.1334 282.478 25.9812 281.68 26.5839C283.757 25.4379 297.214 20.6919 303.546 18.5039C307.484 17.1084 315.676 14.1712 316.944 13.7705C318.5 13.2695 318.098 13.6267 320.905 12.745C321.662 12.5048 330.065 9.56716 337.452 7.50572C338.884 7.10275 341.955 6.54021 339.357 7.43918C334.921 8.9642 326.204 11.4608 326.373 11.6392C326.59 11.7944 338.13 7.97313 341.189 7.08592C355.762 2.80695 347.43 5.60334 347.837 5.55028C348.87 5.42188 356.687 3.11596 357.012 3.04718C358.374 2.72697 352.898 4.47161 352.839 4.60936C352.767 4.77441 360.422 2.83012 358.718 3.37612C356.206 4.1626 349.282 5.9776 348.814 6.13405C343.079 8.00115 351.099 5.94005 353.291 5.47767C353.96 5.33367 351.373 6.18169 351.92 6.03633C360.277 3.82736 353.471 5.08218 359.095 3.5049C364.13 2.109 357.728 4.16849 357.918 4.12987C358.18 4.06368 364.179 2.36796 365.119 2.19176C365.58 2.07413 350.246 6.94125 350.979 6.95353C355.815 5.47846 360.785 4.00471 365.705 2.58622C366.17 2.71307 358.998 4.54583 358.247 4.79668C356.765 5.2762 360.97 4.20229 360.809 4.33307C360.731 4.40653 355.89 5.9815 360.326 4.78911C361.844 4.38476 364.987 3.30033 370.431 1.99604C351.529 7.50726 364.722 3.96909 365.315 3.89224C365.888 3.82488 356.87 6.56679 367.864 3.45685C368.467 3.80256 367.678 3.66606 364.572 4.6242C360.764 5.81511 369.667 3.43248 355.616 7.32806C356.363 7.33127 367.793 4.08321 368.33 3.97215C368.847 3.84666 366.389 4.64373 367.287 4.43537C377.848 2.00453 370.594 3.77986 373.729 3.22272C374.038 3.15553 384.128 0.598902 376.473 2.66712C362.711 6.42837 356.725 7.89731 354.691 9.19605C364.978 6.50113 377.199 2.7691 380.38 1.93976C385.136 0.689502 380.245 2.11086 380.84 1.99797C381.054 1.95326 385.131 0.887106 385.182 0.888028C388.272 0.614053 366.944 5.65447 360.268 7.72759C362.096 7.29045 363.913 6.86205 365.719 6.4424C363.299 7.11888 360.857 7.81129 358.4 8.51803C370.12 5.3657 358.759 8.4643 356.108 9.68606C355.501 9.96062 362.91 7.65526 354.474 10.3661C360.752 8.61864 358.833 9.25894 364.583 7.51609C364.431 7.72037 351.612 11.569 346.505 13.2178C364.55 8.11977 354.106 10.4705 369.822 6.43466C372.643 5.43996 365.242 7.51254 365.829 7.31917C368.012 6.58106 373.016 5.40794 379.232 3.31245C380.223 2.97764 375.892 3.87389 382.218 2.23384C382.922 2.05025 386.946 1.22078 386.889 1.25186C386.409 1.52842 382.451 2.48587 382.298 2.59332C382.165 2.68704 386.557 1.5223 386.569 1.53907C386.755 1.68662 382.925 2.54628 383.49 2.46376C384.671 2.28978 400.747 -1.38142 379.932 3.82043C397.029 -0.787061 382.203 2.97016 375.327 4.90619C373.569 5.398 373.195 5.61447 370.789 6.30835C367.697 7.20024 363.993 8.17682 362.357 8.6601C360.617 9.18019 370.631 6.60786 356.232 10.6222C363.622 8.74483 376.441 4.95499 383.733 3.2943C398.21 -0.00242986 373.715 6.31997 371.14 7.13513C370.469 7.32716 372.768 6.86263 372.321 6.99346C371.68 7.1535 357.515 11.0266 356.3 11.5356C354.973 12.0444 361.356 10.0819 361.863 10.0806C362.064 10.0847 345.532 15.0454 354.556 12.4844C360.698 10.7254 372.357 7.1598 374.293 7.05432C365.202 9.5186 355.905 12.1819 346.732 14.9541C351.871 13.5695 356.788 12.2941 361.943 10.9934C351.664 13.9365 342.662 16.4565 333.018 19.696C356.531 12.9122 325.487 22.3792 325.213 22.6218C325.073 22.6903 334.431 20.0988 335.93 19.7187C327.714 22.3246 303.176 30.6623 317.75 26.255C315.078 27.0272 308.855 29.4084 308.953 29.3991C309.763 29.3018 323.599 24.565 321.387 25.4988C318.854 26.5477 315.053 27.507 311.077 28.8831C290.646 36.1072 296.591 35.0317 276.213 42.5642C276.628 42.4425 277.043 42.3211 277.459 42.2002C255.418 50.6188 233.724 59.9299 212.669 70.4488C204.529 74.7296 183.094 86.6315 173.045 93.0365C170.958 94.269 160.932 100.623 160.235 101.115C158.832 101.983 166.354 96.9551 162.893 99.139C162.129 99.4556 145.685 111.026 147.049 110.36C148.813 109.041 154.466 104.889 155.455 104.266C161.502 99.0604 113.368 137.24 112.804 140.851C113.742 139.911 114.695 138.975 115.662 138.045C113.019 140.748 110.374 143.612 107.868 146.509ZM251.806 37.8987C253.945 36.7956 259.526 34.5988 262.808 33.2128C267.327 31.2825 274.827 27.6131 271.738 29.5538C265.073 32.2444 258.404 35.033 251.806 37.8987ZM158.341 86.7864C162.462 84.1756 159.472 86.5358 156.097 88.6357C155.727 88.8707 152.813 90.3492 158.341 86.7864ZM202.289 61.1555C202.108 61.2516 198.41 63.1967 198.282 63.263C194.903 64.8889 206.058 59.0278 202.289 61.1555ZM70.2837 250.174C68.7938 244.743 69.5846 248.911 70.6411 252.009C70.7067 252.209 70.3773 250.512 70.2837 250.174ZM69.2586 246.327C68.368 242.046 66.4731 233.73 67.7292 240.422C67.8245 241.07 69.2659 246.523 69.2586 246.327ZM173.044 77.6101C172.628 77.9846 168.342 80.5598 166.54 81.6771C166.53 81.558 171.247 78.7053 173.044 77.6101ZM80.4512 164.595C80.2006 164.695 89.7087 149.567 90.5431 148.675C88.7544 150.837 80.316 164.282 80.4512 164.595ZM66.3881 208.375C66.3999 207.93 67.2615 201.699 67.2037 201.879C66.5631 204.884 66.1145 210.425 66.3881 208.375ZM91.556 294.227C91.6923 294.41 90.7082 292.63 91.8315 294.214C92.3891 294.986 93.4481 296.598 95.5701 299.575C96.4959 300.892 92.9954 296.331 93.3333 296.789C94.0074 297.783 94.559 298.554 95.0117 299.165C93.7868 297.545 92.5825 295.865 91.5715 294.389C90.0044 292.104 88.8981 290.373 88.7412 290.104C87.5148 288.003 91.4232 294.099 91.556 294.227ZM124.587 328.195C125.432 328.797 130.835 332.687 132.112 333.525C132.33 333.672 131.278 333.189 133.809 334.831C135.821 336.109 132.908 334.066 136.812 336.558C140.794 339.033 135.39 335.86 135.741 336.072C136.174 336.404 142.461 340.061 142.236 340.008C142.028 340.015 135.366 335.976 133.779 334.903C131.676 333.545 134.132 335.33 130.675 332.979C128.521 331.483 129.844 332.128 129.394 331.806C128.978 331.581 121.591 326.234 124.598 328.204C124.594 328.201 124.591 328.198 124.587 328.195ZM95.8506 300.263C95.612 299.961 95.3367 299.604 95.0117 299.165C95.2912 299.535 95.5716 299.902 95.8506 300.263ZM239.058 43.5965C236.727 44.5432 243.496 41.3942 246.133 40.3829C246.211 40.4399 239.425 43.4367 239.058 43.5965ZM98.9166 303.86C103.75 309.653 99.9884 305.58 95.8506 300.263C97.1867 301.933 97.3359 301.877 98.9166 303.86ZM122.37 114.546C122.12 114.741 121.95 114.851 121.899 114.831C122.557 114.321 122.632 114.294 122.37 114.546ZM109.648 126.442C105.545 130.825 114.112 122.134 114.043 122.147C113.981 122.128 109.792 126.261 109.648 126.442ZM72.3707 256.816C72.2301 256.293 75.3313 264.287 71.1062 252.586C73.08 258.89 70.8883 252.265 70.908 252.375C70.7582 252.617 74.6314 263.334 75.676 265.553C76.5896 267.349 72.8358 258.58 72.3753 256.829C72.3738 256.825 72.3722 256.821 72.3707 256.816ZM201.435 362.451C199.961 362.212 195.397 361.07 192.364 360.232C193.804 360.533 198.329 361.735 201.435 362.451ZM298.563 18.815C319.605 14.2506 322.324 14.0403 303.091 17.8505C302.714 17.9214 297.287 19.1133 298.563 18.815ZM478.846 34.1791C480.603 35.232 474.674 31.9521 470.69 30.022C469.794 29.5738 466.476 27.9232 470.304 29.7276C470.151 29.7322 476 32.6693 478.846 34.1791ZM101.751 307.046C103.252 308.648 107.786 313.646 110.364 316.101C108.703 314.695 103.745 309.479 101.751 307.046ZM368.528 9.71612C370.788 9.66903 372.308 9.60751 371.919 9.6062C370.178 9.59811 365.95 9.75105 368.528 9.71612ZM88.7051 289.391C88.6408 289.21 90.3766 291.853 91.9308 294.147C92.9393 295.645 93.845 296.956 93.933 297.202C93.5227 296.625 92.6995 295.469 91.8421 294.207C90.3276 291.988 88.7545 289.525 88.7051 289.391ZM195.636 360.983C194.324 360.624 201.167 362.279 203.267 362.757C203.073 362.806 196.48 361.246 195.636 360.983ZM405.024 11.3181C407.051 11.5436 412.038 12.2386 412.619 12.315C413.296 12.3643 405.958 11.3602 405.024 11.3181ZM58.4954 137.515C58.284 137.666 64.477 132.943 67.3063 130.867C72.6326 126.915 58.6514 137.335 58.4954 137.515ZM347.108 10.9954C340.733 11.5676 347.812 10.92 347.527 10.9061C343.252 11.2529 332.533 12.5721 339.903 11.7368C341.338 11.5764 345.112 11.1716 347.108 10.9954ZM352.97 10.5218C353.64 10.4498 358.238 10.0926 354.264 10.3646C352.439 10.4937 349.496 10.7858 352.97 10.5218ZM97.9431 109.373C102.665 106.172 81.0008 120.844 80.4225 121.39C80.0965 121.619 79.8833 121.769 79.7616 121.854C78.9731 122.411 74.9618 125.283 74.5 125.611C75.6924 124.747 78.9817 122.398 79.3687 122.128C79.5344 122.011 79.658 121.923 79.7433 121.864C81.1417 120.784 96.992 109.929 97.9431 109.373ZM134.8 86.4042C129.164 89.7362 128.167 90.3083 128.645 90.0148C134.755 86.3646 130.781 88.7638 130.969 88.6525C131.395 88.3983 135.755 85.8243 134.782 86.4146C134.788 86.4112 134.794 86.4077 134.8 86.4042ZM105.415 104.477C105.194 104.615 100.564 107.639 100.381 107.765C96.5958 110.225 109.648 101.705 105.415 104.477ZM155.161 346.265C158.765 347.985 155.149 346.457 152.796 345.249C152.606 345.145 152.004 344.721 155.161 346.265ZM356.103 10.2934C357.079 10.0108 380.394 9.55588 379.046 9.67539C376.985 9.33642 350.45 10.4432 356.103 10.2934ZM517.94 63.2836C514.945 60.4089 518.278 63.463 519.831 65.0705C520.408 65.6624 518.694 64.0097 517.94 63.2836ZM82.8121 279.123C80.575 275.181 81.3323 275.878 83.0717 279.336C83.1371 279.464 82.8953 279.266 82.8121 279.123ZM492.247 42.4002C503.916 50.6808 501.396 48.4905 485.697 38.3525C486.199 38.6457 486.7 38.9415 487.2 39.24C468.713 28.4232 486.059 38.2475 490.419 41.2546C492.099 42.3518 490.717 41.3894 492.236 42.3923C492.24 42.3949 492.244 42.3976 492.247 42.4002ZM532.715 79.3435C541.262 90.2188 524.964 69.6675 519.125 64.5783C524.463 69.7605 530.777 76.7828 521.989 67.2619C534.855 81.0928 529.313 75.4922 529.882 75.9962C530.461 76.6715 532.348 78.8764 532.715 79.3435ZM507.14 53.5893C506.529 53.0588 501.848 49.2658 500.108 48.0056C502.597 49.674 511.264 56.9781 507.14 53.5893ZM174.82 64.6796C174.388 64.9202 173.295 65.4693 169.111 67.6031C170.397 66.9316 173.068 65.5651 174.82 64.6796ZM256.283 36.8217C259.279 35.5709 265.318 33.171 263.417 33.7835C263.206 33.8465 256.255 36.7339 256.283 36.8217ZM423.901 14.4153C424.596 14.3743 441.987 18.7921 435.997 17.2114C434.21 16.552 418.3 13.1887 423.901 14.4153ZM331.817 12.7954C333.271 12.579 339.301 11.8235 339.439 11.8114C339.833 11.7208 332.439 12.6625 331.817 12.7954ZM271.549 30.7721C271.94 30.6182 281.204 26.998 280.164 27.3324C278.16 27.9446 270.164 31.2575 271.549 30.7721ZM168.684 351.827C169.476 352.132 170.497 352.642 170.755 352.74C171.313 353.086 185.885 357.921 180.272 356.204C179.282 356.18 158.553 348.139 156.098 346.622C155.136 346.04 163.691 350.063 165.89 350.87C166.271 351.019 166.558 351.005 168.677 351.825C168.68 351.825 168.682 351.826 168.684 351.827ZM153.15 76.0453C152.537 76.3368 137.087 85.0481 137.264 84.9828C142.55 81.9222 147.806 78.9645 153.15 76.0453ZM161.108 71.7707C164.464 70.0078 156.616 74.1629 154.317 75.4243C154.281 75.422 160.621 72.0162 161.108 71.7707ZM365.51 9.9854C367.301 9.91327 361.79 10.0636 363.022 10.0103C363.814 9.96462 367.815 9.85261 369.085 9.81837C369.447 9.80079 365.372 9.85665 364.188 9.91182C362.509 9.98047 364.14 9.95052 362.306 10.028C356.181 10.3013 350.859 10.6735 345.187 11.2294C344.675 11.2793 348.648 10.916 344.28 11.3446C343.613 11.4133 339.512 11.7837 334.312 12.4728C322.911 14.1284 314.448 15.4247 300.097 18.6288C300.646 18.4782 311.412 16.2548 312.04 16.1728C324.092 13.7164 345.967 10.8195 358.818 10.278C362.136 10.1037 360.523 10.1644 361.951 10.0953C363.077 10.0486 361.742 10.1377 365.51 9.9854ZM254.73 37.5853C256.228 37.1521 261.205 34.9541 264.437 33.6582C263.238 33.9584 257.869 36.3024 254.73 37.5853ZM233.719 38.778C235.323 38.1606 240.378 36.3059 240.797 36.1498C241.324 35.9325 234.04 38.6192 233.719 38.778ZM252.961 369.211C253.14 369.224 257.346 369.452 257.493 369.457C261.243 369.754 248.624 369.061 252.961 369.211ZM352.917 362.136C356.038 361.519 359.172 360.829 360.236 360.697C358.253 361.114 352.564 362.278 352.917 362.136ZM481.93 313.702C481.335 313.977 489.516 308.926 490.984 307.912C490.488 308.343 482.416 313.538 481.93 313.702ZM175.468 64.4459C170.273 67.0532 171.389 66.5405 168.097 68.2062C167.563 68.4824 165.789 69.2901 171.492 66.4115C172.522 65.8997 168.511 67.9356 175.468 64.4459ZM483.104 36.7995C481.816 36.0793 477.76 33.7691 474.953 32.3246C475.603 32.5984 481.21 35.6529 483.104 36.7995ZM288.358 24.49C290.944 23.7028 302.875 19.2661 299.87 20.2152C299.447 20.3354 289.994 23.8731 288.358 24.49ZM112.673 317.681C116.668 321.223 108.557 313.714 106.165 311.173C107.217 312.352 112.374 317.471 112.673 317.681ZM452.64 329.52C452.873 329.416 457.798 327.006 458.023 326.885C462.118 324.966 448.118 331.807 452.64 329.52ZM320.279 367.022C322.282 366.767 335.249 365.082 338.162 364.641C335.399 365.292 317.846 367.461 320.279 367.022ZM197.039 54.1287C193.271 55.8469 189.705 57.5085 186.265 59.144C186.974 58.7656 196.629 54.28 197.039 54.1287ZM470.707 320.169C470.966 320.025 471.22 319.89 471.467 319.753C471.209 319.895 470.955 320.033 470.707 320.169ZM284.265 22.5409C287.637 21.6664 286.928 21.8193 286.72 21.8695C284.182 22.5088 280.448 23.5482 284.265 22.5409ZM258.517 36.2995C259.692 35.9877 265.097 33.6299 268.25 32.418C267.292 32.6521 261.022 35.2324 258.517 36.2995ZM541.585 91.1205C544.137 94.6759 533.542 80.3784 530.918 77.5397C530.89 77.1985 541.394 90.5522 541.585 91.1205ZM101.369 305.591C101.175 305.29 96.2914 299.357 97.2756 300.657C97.8614 301.517 101.443 305.812 101.369 305.591ZM525.028 70.8316C523.928 69.6441 521.152 66.7039 522.155 67.7036C523.445 68.9789 525.331 71.1508 525.028 70.8316ZM391.053 10.3362C391.741 10.3351 401.651 11.128 397.569 10.7461C394.742 10.4823 394.282 10.5127 393.615 10.463C392.887 10.3382 377.146 9.56249 391.053 10.3362ZM573.515 185.042C573.67 181.192 573.663 176.748 573.42 172.811C573.64 174.417 573.727 183.374 573.515 185.042ZM122.712 325.961C121.762 325.743 103.308 308.517 113.682 318.397C114.203 319.101 124.787 327.853 122.712 325.961ZM175.468 64.4459C176.124 64.1184 176.882 63.742 177.762 63.3082C176.888 63.7399 176.129 64.1168 175.468 64.4459ZM235.923 38.0074C234.667 38.489 241.008 36.1399 242.887 35.4697C243.46 35.2302 236.073 37.9345 235.923 38.0074ZM573.345 172.516C573.196 170.258 572.83 166.123 572.417 163.278C572.584 163.765 573.391 171.548 573.345 172.516ZM496.698 303.769C500.443 301.205 504.832 297.885 504.861 297.787C504.94 297.738 505.118 297.614 505.41 297.404C505.713 297.197 509.466 294.262 511.064 292.979C521.395 285.902 472.067 321.177 500.716 300.781C499.391 301.786 498.051 302.782 496.698 303.769ZM302.615 368.509C300.091 368.624 292.967 369.117 294.819 369.049C296.109 369.032 305.159 368.423 302.615 368.509ZM398.178 350.463C397.45 350.689 390.817 352.717 390.662 352.791C394.475 351.755 401.508 349.497 398.178 350.463ZM283.13 369.331C281.545 369.355 279.528 369.523 279.714 369.526C281.322 369.562 285.795 369.345 283.13 369.331ZM186.321 59.2305C188.441 58.2151 195.22 55.0366 196.698 54.3522C196.975 54.23 197.719 53.8958 199.092 53.283C199.088 53.2849 199.084 53.2868 199.079 53.2887C200.711 51.9135 257.035 29.6796 219.241 44.589C218.066 45.0725 219.66 44.4246 214.895 46.4036C214.58 46.5353 214.417 46.5853 213.445 46.9936C211.2 47.8988 199.33 53.0916 196.981 54.2146C196.959 54.2213 196.805 54.2884 196.48 54.4345C193.564 55.7183 184.67 60.002 186.321 59.2305ZM411.222 346.192C409.906 346.63 405.735 348.046 405.315 348.234C407.41 347.593 414.284 345.189 411.222 346.192ZM122.278 325.259C120.037 323.484 114.434 318.718 116.07 320.221C117.036 321.233 124.826 327.386 122.278 325.259ZM368.783 358.417C384.636 354.649 372.563 357.507 374.969 356.843C372.91 357.383 370.842 357.909 368.783 358.417ZM120.61 94.9826C122.82 93.6336 120.232 95.239 117.807 96.7269C117.046 97.1937 119.373 95.7378 120.61 94.9826ZM26.6794 163.453C28.3669 161.977 20.1916 169.142 23.371 166.345C23.5091 166.218 26.5914 163.525 26.6794 163.453ZM91.1653 114.028C92.6017 113.041 93.5293 112.397 97.6352 109.665C91.5752 113.723 97.1861 109.963 91.1653 114.028ZM504.817 297.809C504.842 297.794 504.863 297.781 504.861 297.787C504.834 297.804 504.821 297.81 504.817 297.809ZM267.781 369.396C265.736 369.282 260.037 369.096 261.731 369.243C261.892 369.266 266.939 369.456 267.781 369.396ZM196.698 54.3522C196.452 54.4606 196.575 54.4016 196.981 54.2146C197.001 54.2084 196.897 54.2584 196.698 54.3522ZM298.497 368.639C298.314 368.737 306.974 368.142 307.318 368.083C312.263 367.552 302.12 368.448 298.497 368.639ZM84.7454 280.705C84.5176 280.323 85.7481 282.911 86.7418 284.403C87.5021 285.556 85.5718 282.13 84.7454 280.705ZM77.4197 123.606C75.1975 125.189 72.1084 127.43 71.5385 127.838C72.9971 126.769 77.4576 123.568 77.4197 123.606ZM29.8305 160.742C32.2361 158.665 37.9585 153.86 41.6123 150.896C41.7296 150.776 32.049 158.793 29.8305 160.742ZM179.638 62.4546C179.836 62.3488 186.015 59.3681 185.165 59.7633C183.916 60.3235 177.895 63.2967 179.638 62.4546ZM91.8076 292.363C93.6676 295.014 89.6739 288.707 87.8644 285.985C86.8678 284.577 91.4291 291.907 91.8076 292.363ZM249.941 368.511C245.825 368.284 256.037 369.055 257.4 368.989C255.564 368.903 251.387 368.598 249.941 368.511ZM387.14 353.492C374.709 356.627 381.552 355.201 383.744 354.583C384.054 354.497 387.445 353.416 387.14 353.492ZM318.621 14.6607C320.323 14.0315 313.851 15.9896 313.055 16.406C312.569 16.6557 317.537 15.0552 318.621 14.6607ZM548.797 253.356C548.485 253.799 548.173 254.238 547.861 254.672C548.093 254.345 548.398 253.917 548.797 253.356ZM213.24 363.51C222.021 365.499 221.186 364.962 221.951 365.109C223.629 365.382 227.538 366.067 230.755 366.456C227.071 366.027 223.415 365.535 219.789 364.979C222.626 365.753 247.66 368.682 248.228 368.439C248.984 368.429 241.072 367.801 240.852 367.749C240.523 367.707 239.319 367.35 238.593 367.265C237.472 367.307 216.409 364.382 213.24 363.51ZM361.097 359.934C363.119 359.527 363.709 359.48 364.64 359.254C364.957 359.176 364.991 359.087 366.074 358.822C364.417 359.203 362.758 359.573 361.097 359.934ZM197.247 360.348C194.773 359.644 205.966 362.376 206.36 362.411C208.276 362.921 199.231 360.991 197.247 360.348ZM294.143 368.807C293.719 368.847 284.914 369.149 284.99 369.183C287.308 369.212 299.106 368.635 294.143 368.807ZM367.414 358.512C370.424 357.845 376.137 356.517 375.454 356.559C375.449 356.561 375.445 356.562 375.44 356.563C372.768 357.239 370.089 357.889 367.414 358.512ZM98.4306 300.975C95.0807 296.171 96.4547 298.609 99.6265 302.707C100.701 303.855 98.9852 301.758 98.4306 300.975ZM87.9369 285.338C86.9936 284.122 79.1528 269.324 80.2781 271.604C80.5495 272.455 85.2676 281.068 85.4647 281.292C85.7857 281.867 84.1407 279.344 86.6959 283.668C86.5826 283.388 88.206 285.817 87.9369 285.338ZM95.6362 297.015C94.4733 295.303 93.6251 294.064 93.1069 293.353C92.3898 292.362 92.2887 292.375 92.9633 293.45C93.1862 293.804 93.4972 294.276 93.9063 294.863C94.8864 296.273 96.1052 297.701 95.6362 297.015ZM111.123 314.889C109.636 313.427 105.794 309.423 103.212 306.601C106.574 310.461 110.15 314.136 113.915 317.618C114.393 317.972 112.406 316.186 111.113 314.879C111.117 314.883 111.12 314.886 111.123 314.889ZM4.65574 183.604C7.86915 180.501 0.476779 187.649 0.212876 187.945C-0.696202 188.841 3.20225 184.993 4.65574 183.604ZM353.473 8.16797C354.679 7.87107 355.504 7.81026 358.087 6.97247C355.43 7.60138 352.763 8.24535 350.071 8.90914C348.091 9.80273 352.158 8.48897 353.473 8.16797ZM363.935 6.29459C363.556 6.40998 365.756 6.25893 360.773 7.35121C357.495 8.04402 375.111 2.91756 378.565 2.26698C374.913 3.31934 367.19 5.3128 363.935 6.29459ZM395.828 0.000412434C396.061 -0.0243268 389.192 1.72471 388.355 1.91634C384.157 2.83022 394.687 0.0567446 395.828 0.000412434ZM374.008 5.49119C377.232 4.71873 370.218 6.6576 368.132 7.18608C367.918 7.1528 373.509 5.607 374.008 5.49119ZM38.8204 153.491C41.6476 151.195 44.0534 149.23 39.8144 152.671C39.6078 152.839 38.7004 153.588 38.8204 153.491ZM389.205 2.11639C385.913 2.85006 393.148 0.973297 395.248 0.523986C395.477 0.552546 389.721 1.99542 389.205 2.11639ZM40.8053 151.904C44.4563 148.964 43.1621 149.983 42.7014 150.35C40.871 151.798 34.2579 157.247 32.9893 158.33C42.6753 150.291 39.0842 153.319 40.8053 151.904ZM57.9963 138.405C61.4834 135.751 52.5535 142.53 50.8441 143.904C52.5725 142.548 57.031 139.132 57.9963 138.405ZM79.567 122.682C81.4932 121.32 87.3263 117.308 88.314 116.636C86.1502 118.098 80.371 122.1 79.567 122.682ZM83.9864 119.632C87.0558 117.531 87.7771 117.002 84.2461 119.44C84.1092 119.535 83.8738 119.709 83.9864 119.632ZM101.273 108.064C103.324 106.748 105.65 105.211 102.327 107.355C101.342 107.993 101.056 108.203 101.273 108.064ZM45.4105 148.241C48.1231 146.092 51.6385 143.314 45.82 147.904C47.8518 146.288 49.9043 144.675 51.9773 143.065C44.2757 149.064 44.9096 148.644 42.7361 150.371C39.7412 152.782 39.9472 152.612 40.5668 152.102C37.9552 154.194 27.686 162.714 21.6906 168.038C27.0207 163.329 35.3412 156.332 40.7878 151.946C42.2779 150.74 43.7342 149.568 45.0238 148.542C47.0948 146.896 45.2584 148.362 45.3999 148.25C45.4034 148.247 45.407 148.244 45.4105 148.241ZM124.476 93.5806C130.596 89.9588 126.702 92.2162 123.266 94.2898C123.119 94.3786 124.323 93.6707 124.476 93.5806ZM398.747 1.22244C389.556 3.27462 395.991 1.3131 376.941 6.65127C385.011 4.25238 377.347 6.33984 378.906 5.81787C380.167 5.39405 384.907 4.24588 382.117 4.78522C385.651 4.02518 401.622 0.070935 402.18 0.00761049C402.174 0.0091237 402.167 0.0106364 402.161 0.0121492C402.574 -0.0645961 401.665 0.590069 398.747 1.22244ZM79.6351 122.72C81.6056 121.384 82.333 120.802 86.2298 118.163C91.321 114.577 72.0845 127.959 69.8339 129.68C90.4741 114.853 56.157 139.541 70.619 129.129C58.7281 137.803 66.7295 131.98 64.8981 133.324C62.9356 134.763 56.372 139.709 56.7199 139.466C56.7236 139.464 56.7271 139.461 56.7307 139.458C60.7158 136.425 64.7723 133.405 68.895 130.403C64.8478 133.326 73.282 127.178 76.1168 125.219C77.2846 124.384 78.4577 123.551 79.6351 122.72ZM56.5249 139.579C56.8899 139.274 65.6756 132.696 65.1225 133.121C63.8831 133.98 51.5487 143.357 56.5249 139.579ZM19.043 170.385C21.9707 167.769 26.7255 163.659 28.2911 162.328C25.3601 164.816 20.6124 168.976 19.043 170.385ZM188.882 59.3389C193.432 57.1774 179.403 63.7902 183.469 61.8923C183.667 61.7928 188.656 59.439 188.882 59.3389ZM89.1017 116.19C93.3285 113.352 91.3087 114.664 88.1941 116.789C88.0148 116.911 88.9071 116.321 89.1017 116.19ZM391.274 3.10896C390.815 3.33699 377.725 6.58256 375.217 7.27996C376.66 6.73535 391.469 2.87495 391.274 3.10896ZM13.9169 175.008C19.5967 169.804 27.8945 162.663 28.6997 161.994C29.5771 161.248 28.2041 162.422 28.4044 162.252C28.8146 161.863 38.3442 153.919 38.8586 153.537C39.1951 153.262 37.4303 154.691 39.4362 153.051C35.4101 156.184 18.2804 170.933 17.4648 171.8C16.8006 172.405 21.8472 167.852 13.9269 174.999C13.9235 175.002 13.9202 175.005 13.9169 175.008ZM30.9148 160.12C28.554 162.103 35.168 156.534 36.83 155.19C40.459 152.202 31.1776 159.863 30.9148 160.12ZM47.1025 146.922C47.8589 146.306 54.9731 140.785 55.6024 140.315C52.1642 142.913 45.3337 148.311 47.1025 146.922ZM129.313 90.807C131.306 89.6228 136.852 86.4348 137.169 86.2471C135.14 87.3992 129.617 90.6086 129.313 90.807ZM346.221 16.4993C349.957 15.4852 341.389 18.0845 338.937 18.8C338.79 18.7579 345.852 16.5938 346.221 16.4993ZM89.8572 115.769C90.8875 114.924 114.488 99.6518 117.916 97.715C114.555 99.5985 91.1613 114.724 90.2227 115.509C89.9195 115.715 89.7126 115.866 89.8572 115.769ZM41.0296 151.806C39.0262 153.431 37.694 154.518 37.4445 154.722C34.9434 156.758 29.9111 160.989 31.0145 160.058C35.2667 156.434 45.0145 148.576 41.0296 151.806ZM131.069 89.8623C139.296 85.0581 123.493 94.2739 125.586 93.0891C125.716 93.008 130.215 90.3558 131.069 89.8623ZM87.2653 117.53C85.413 118.644 62.5319 134.935 59.0483 137.75C62.248 135.327 64.8572 133.393 69.2764 130.178C70.4709 129.312 70.1492 129.539 70.2776 129.445C72.3502 127.948 70.8109 129.067 72.0772 128.155C72.7877 127.556 89.667 115.818 87.2653 117.53ZM39.8859 152.736C38.5413 153.753 25.2289 164.924 24.6867 165.472C20.6976 168.834 38.6568 153.589 39.8859 152.736ZM89.4064 116.096C86.8948 117.779 75.3961 125.763 83.2531 120.296C83.9972 119.779 87.2274 117.57 89.4064 116.096ZM130.205 90.3988C130.597 90.1506 139.219 85.1941 139.382 85.1096C138.101 85.789 125.594 93.0792 130.205 90.3988ZM125.793 93.0369C125.999 92.9156 123.99 94.0841 127.99 91.7183C128.326 91.5245 128.944 91.16 134.01 88.2184C135.038 87.622 136.632 86.694 136.516 86.7595C131.163 89.7227 115.498 99.2181 125.793 93.0369ZM39.6362 152.946C40.3827 152.344 38.5885 153.806 36.9852 155.118C36.2993 155.681 37.5693 154.625 39.6362 152.946ZM157.738 75.0711C152.63 77.7677 168.694 69.3591 169.541 68.9909C169.002 69.2209 158.245 74.7722 157.738 75.0711ZM337.99 20.2498C337.994 20.2485 337.999 20.2471 338.003 20.2458C333.377 21.6389 336.197 20.6329 335.98 20.6949C326.044 23.6041 328.756 23.0816 327.239 23.5939C323.999 24.7149 324.422 24.198 318.933 26.1571C328.008 22.956 319.718 25.7628 319.416 25.7344C318.242 25.5661 331.633 22.0014 336.244 20.4921C336.882 20.2764 332.102 21.5955 333.73 21.0384C339.032 19.1963 355.68 15.0354 337.99 20.2498ZM35.7528 156.133C33.9433 157.55 21.03 168.609 24.4529 165.678C25.0272 165.1 38.244 154.023 35.7528 156.133ZM502.672 292.407C505.863 289.919 498.33 295.505 496.885 296.54C496.199 297.073 501.292 293.514 502.672 292.407ZM445.59 325.568C441.195 327.586 436.585 329.88 442.115 327.414C442.705 327.154 446.114 325.377 445.59 325.568ZM524.731 76.6164C527.953 80.454 527.847 80.1627 525.451 77.3587C524.6 76.3785 524.629 76.4971 524.731 76.6164ZM543.853 251.232C543.582 251.642 540.079 256.267 540.219 256.115C541.612 254.45 545.778 248.641 543.853 251.232ZM523.671 75.4395C525.625 77.627 522.417 73.7987 519.782 71.1567C521.122 72.551 523.462 75.1988 523.671 75.4395ZM98.1841 110.323C100.286 108.923 106.359 105.01 109.81 102.849C110.198 102.604 100.635 108.684 98.1841 110.323ZM464.077 316.599C460.061 318.811 468.754 314.248 467.901 314.578C467.794 314.638 464.24 316.517 464.077 316.599ZM380.06 12.8608C383.42 12.8977 372.75 12.6654 375.687 12.7673C375.834 12.7634 379.879 12.8503 380.06 12.8608ZM333.762 15.3191C336.23 14.9665 347.105 13.8707 342.88 14.27C342.23 14.3037 333.912 15.2528 333.762 15.3191ZM327.012 23.8117C328.368 23.5792 320.85 25.9569 319.752 26.2916C319.326 26.4133 325.255 24.0994 327.012 23.8117ZM544.259 102.968C544.551 103.428 544.935 104.041 545.365 104.737C547.094 107.507 549.352 111.474 549.833 112.294C548.849 110.516 546.778 106.926 545.397 104.718C544.618 103.461 544.11 102.682 544.259 102.968ZM482.186 306.21C478.757 308.237 472.785 311.7 474.332 310.968C480.876 307.098 473.518 311.381 482.186 306.21ZM511.906 63.432C513.415 64.8603 514.62 65.9233 514.455 65.754C512.864 64.1337 510.422 61.9973 511.906 63.432ZM566.046 203.164C566.018 203.282 564.414 209.712 564.645 208.859C564.766 208.591 566.137 203.086 566.046 203.164ZM175.229 66.2396C178.02 64.8749 169.519 69.0872 167.022 70.364C165.791 70.9526 174.867 66.3952 175.229 66.2396ZM464.036 31.1664C463.757 31.0229 473.175 35.6245 469.492 33.7542C468.578 33.2649 464.148 31.1826 464.036 31.1664ZM365.89 12.9445C372.966 12.5169 343.25 13.992 351.063 13.6558C351.57 13.5484 365.291 12.8856 365.89 12.9445ZM317.569 17.8028C318.795 17.604 318.163 17.8082 313.221 18.6564C312.57 18.7678 315.604 18.1855 315.071 18.2752C314.764 18.2882 303.977 20.3621 303.475 20.5079C302.94 20.6232 303.578 20.5277 303.036 20.6459C302.427 20.7675 295.75 22.1866 292.338 23.0139C285.852 24.571 285.155 24.8225 284.624 24.9498C283.072 25.3477 280.459 26.0054 277.311 26.8683C261.591 31.0311 237.831 39.2174 225.822 43.9538C236.557 39.8065 246.97 36.0807 257.841 32.5998C254.638 33.6222 274.002 27.5795 262.678 31.1057C267.699 28.8929 313.563 17.7881 317.556 17.8051C317.56 17.8043 317.565 17.8036 317.569 17.8028ZM427.959 332.962C430.705 331.812 416.465 337.288 415.232 337.777C417.175 337.152 427.645 333.139 427.959 332.962ZM490.167 300.558C491.285 299.768 492.388 298.894 498.479 294.636C498.484 294.632 498.49 294.628 498.495 294.625C500.264 293.371 498.295 294.863 498.626 294.642C498.759 294.571 504.225 290.629 499.737 293.975C492.79 299.017 499.015 294.344 495.275 297.002C494.812 297.37 487.728 302.271 488.156 301.985C488.202 301.961 490.334 300.523 490.688 300.293C492.033 299.43 491.421 299.914 491.61 299.79C492.314 299.425 503.401 291.34 504.912 290.153C505.641 289.905 487.277 303.051 486.486 303.267C486.019 303.557 486.122 303.291 485.634 303.584C485.413 303.756 477.76 308.562 476.702 309.127C476.404 309.298 476.175 309.427 476.007 309.522C477.21 308.897 470.135 312.97 470.324 312.768C470.442 312.689 475.285 309.935 475.485 309.808C475.563 309.765 475.631 309.728 475.695 309.692C474.763 310.317 490.89 300.23 487.34 302.317C491.874 299.274 486.778 302.864 490.167 300.558ZM511.345 284.653C510.915 285.033 510.484 285.412 510.05 285.79C517.544 279.596 525.722 272.143 533.062 263.883C534.897 261.802 532.726 264.136 535.124 261.416C537.052 259.214 539.2 256.669 538.196 257.947C537.953 258.286 534.066 262.842 532.058 265.022C526.071 271.525 527.57 269.912 527.238 270.301C526.867 270.708 522.762 274.72 520.589 276.716C515.029 281.83 512.268 284.375 504.029 290.694C508.739 286.942 506.03 288.959 511.345 284.653ZM421.896 17.687C421.537 17.6252 415.311 16.4035 413.014 16.0625C413.385 16.0718 419.651 17.2017 421.896 17.687ZM90.5679 170.653C91.2175 168.853 84.8665 181.421 86.6514 178.161C86.9902 177.418 89.6871 172.148 90.5679 170.653ZM77.53 230.815C77.7392 232.672 77.1502 225.159 77.1044 225.195C77.0324 225.2 77.4598 230.566 77.53 230.815ZM568.301 179.548C568.331 179.198 568.235 173.974 568.202 173.802C568.308 170.333 568.327 187.569 568.301 179.548ZM109.356 300.086C104.921 295.211 118.124 310.014 114.144 305.437C113.909 305.239 109.533 300.35 109.356 300.086ZM129.299 319.138C128.016 318.201 122.691 313.63 122.609 313.562C122.435 313.567 128.559 318.78 129.299 319.138ZM510.72 62.6511C511.286 63.2176 504.26 56.8166 501.612 54.7814C501.051 54.1799 508.421 60.4208 510.72 62.6511ZM547.94 109.859C546.938 108.129 545.957 106.497 545.007 104.96C527.789 79.3525 530.91 83.4894 545.056 104.93C546.402 107.118 547.787 109.464 549.174 111.952C549.15 112.019 549.228 112.097 547.94 109.859ZM516.909 68.7343C517.965 69.7274 521.183 73.1318 523.146 75.3641C522.8 74.99 518.512 70.3111 516.909 68.7343ZM99.8333 156.659C98.4115 158.659 92.4524 167.642 93.4516 166.018C93.5934 165.528 100.205 155.852 99.8333 156.659ZM568.195 176.277C568.256 177.219 567.525 165.355 567.262 164.394C566.982 160.696 568.393 175.38 568.195 176.277ZM463.561 31.2677C461.619 30.4122 456.069 28.0028 452.422 26.6466C454.103 27.2078 460.581 29.8646 463.561 31.2677ZM488.022 44.8866C487.826 44.7342 483.268 41.8121 483.055 41.7021C479.342 39.2706 492.232 47.5571 488.022 44.8866ZM344.809 19.8194C344.642 19.8728 340.727 21.044 340.586 21.0828C337.038 21.9906 348.82 18.4691 344.809 19.8194Z" fill="#FFF200"/>
</svg>
