<svg width="46" height="51" viewBox="0 0 46 51" fill="none" xmlns="http://www.w3.org/2000/svg">
<path d="M17.7011 22.6658C17.7011 26.6401 17.6402 31.4839 17.0317 36.3897C16.6057 39.8672 15.7536 43.2206 13.9888 46.3255C13.3193 47.4433 12.5282 48.499 11.5545 49.3683C8.99843 51.6039 5.77296 51.5418 3.27778 49.182C2.18234 48.1885 1.51291 46.9465 1.02604 45.5803C0.417464 43.7794 0.174033 41.8544 0.113175 39.9293C-0.191114 32.7879 0.113175 25.6466 1.0869 18.5673C1.45205 16.0212 1.93891 13.4752 2.79092 10.9912C3.3995 9.19035 4.19065 7.51368 5.2861 6.0233C6.38154 4.53293 7.78127 3.41515 9.607 2.91836C10.459 2.73206 11.2502 2.79416 12.1022 2.91836C14.4148 3.35305 15.7537 4.71923 16.4839 6.95479C17.1534 8.81776 17.4577 10.7428 17.5185 12.6679C17.5794 15.7107 17.6402 18.7536 17.7011 22.6658ZM13.9279 19.002C13.9888 18.7536 13.9888 18.5673 13.9888 18.381C13.9888 16.4559 14.0496 14.5309 13.9888 12.6679C13.9279 11.4259 13.7453 10.1839 13.5628 9.00405C13.4411 8.32096 13.0759 7.63788 12.8325 6.95479C12.3456 5.71281 10.5807 5.34022 9.54615 6.2096C8.81585 6.83059 8.20727 7.51368 7.84213 8.38306C7.2944 9.56294 6.80754 10.8049 6.44239 12.0469C5.52953 15.5865 5.10352 19.1883 4.79923 22.79C4.49494 26.578 4.31237 30.4282 4.19065 34.2783C4.06894 37.0107 4.1298 39.8051 4.49494 42.5375C4.61666 43.531 4.86009 44.5246 5.2861 45.4561C6.50325 47.8159 8.51156 48.0643 10.1547 46.015C10.885 45.1456 11.311 44.152 11.6762 43.0964C12.3456 41.2334 12.7108 39.3083 12.9542 37.3833C13.0759 36.576 13.1368 35.7687 13.1976 34.9614C12.3456 34.5267 11.4936 34.2162 10.7633 33.7815C8.26813 32.3532 7.11183 30.1798 7.35526 27.199C7.47698 25.3982 7.96384 23.7215 8.87671 22.1069C10.033 20.244 11.4936 18.9399 13.9279 19.002Z" fill="#00BBF9"/>
<path d="M27.7422 34.0923C27.9856 29.3107 28.3508 24.467 28.9593 19.7475C29.3854 16.6425 29.7505 13.5997 30.3591 10.5568C30.6634 8.75595 31.2719 7.01718 31.8805 5.27841C32.1848 4.28482 32.7325 3.35334 33.2803 2.48396C33.7063 1.86297 34.254 1.36618 34.8626 0.869385C35.4711 0.310495 36.2623 0 37.0534 0C39.6095 0.124198 42.0438 0.55889 43.4435 3.16704C44.1738 4.53322 44.7824 5.8994 45.0867 7.38977C45.6953 10.1842 45.9995 13.0408 45.9995 15.8973C45.9995 22.4177 45.4518 28.876 43.8087 35.2101C43.1392 37.8803 42.1655 40.3643 40.5832 42.5378C39.792 43.5934 38.94 44.5249 37.9055 45.3322C33.9497 48.313 29.0202 45.5185 28.1073 41.5442C27.9248 40.6127 27.803 39.6812 27.803 38.7497C27.7422 37.2593 27.7422 35.6448 27.7422 34.0923ZM42.1655 18.3192C42.2264 17.8224 42.2872 17.5119 42.2264 17.2014C42.0438 14.6553 41.9829 12.1093 41.6786 9.56323C41.5569 8.32125 41.1309 7.07928 40.7658 5.8994C40.4006 4.71952 39.4878 3.91223 38.3923 3.41544C37.7837 3.10495 37.236 3.22914 36.81 3.72593C36.5057 4.09853 36.2014 4.53322 35.958 4.96791C35.5929 5.8373 35.2277 6.70668 34.9843 7.57607C34.254 9.99792 33.8888 12.544 33.5237 15.09C32.7934 20.3684 32.1848 25.7089 31.8805 31.0495C31.6979 33.7818 31.6371 36.5763 31.5154 39.3086C31.5154 39.9296 31.5762 40.6127 31.7588 41.1716C32.3674 43.0966 34.3757 43.7176 35.958 42.4757C36.3231 42.2273 36.6883 41.8547 36.9317 41.4821C37.4794 40.7369 38.0272 39.9917 38.4532 39.1223C39.4878 37.1351 40.0355 34.9617 40.5223 32.7261C40.5832 32.5398 40.5223 32.3535 40.5223 32.1051C40.0355 31.9809 39.6095 31.8567 39.1226 31.7325C38.1489 31.4841 37.236 31.0495 36.4449 30.3664C34.9234 29.1244 34.1931 27.5098 34.3757 25.5226C34.5583 23.1008 35.6537 21.0515 37.4794 19.437C38.5749 18.5055 39.792 18.0087 41.2526 18.1329C41.5569 18.3192 41.8004 18.3192 42.1655 18.3192Z" fill="#00BBF9"/>
</svg>
