<svg width="763" height="784" viewBox="0 0 763 784" fill="none" xmlns="http://www.w3.org/2000/svg">
<path d="M195.051 329.095C194.003 333.721 195.809 339.771 197.796 342.464C201.204 347.442 204.925 349.376 208.352 351.049C213.301 353.263 217.043 354.192 222.111 355.296C283.288 364.528 341.082 359.903 399.756 356.362C408.929 355.678 418.097 354.935 427.259 354.124C426.939 403.353 443.808 454.078 461.036 494.921C472.557 520.847 485.22 546.591 500.97 570.235C507.39 579.516 514.96 589.569 525.63 594.158C528.263 595.361 534.818 597.341 541.345 595.546C554.562 591.618 557.681 581.093 559.166 577.724C565.061 558.807 563.54 544.478 563.387 530.776C560.48 474.201 550.257 420.329 539.276 366.772C537.264 358.259 535.292 349.748 533.332 341.241C546.953 339.079 560.569 336.704 574.183 334.08C602.99 328.409 631.862 321.76 660.639 311.777C682.893 303.879 708.025 293.992 723.745 275.151C730.448 267.164 735.776 255.366 733.637 242.32C727.115 218.797 712.545 215.479 702.103 209.51C690.811 204.391 679.88 201.278 668.674 198.822C646.47 194.08 624.025 192.532 601.647 193.49C568.325 195.104 533.649 202.257 503.249 219.35C488.083 166.536 468.668 114.479 438.721 63.9372C434.207 56.3182 429.135 48.9936 423.106 42.5064C418.873 37.9508 413.932 33.5465 406.168 28.8464C402.118 26.8373 398.647 24.8748 390.787 24.8544C383.926 24.4676 374.349 30.6268 371.827 34.9578C365.264 44.9103 365.555 50.5365 364.648 56.823C363.701 68.3296 364.63 78.1106 365.827 88.1887C368.323 107.673 372.565 126.286 377.472 144.673C388.389 184.991 402.845 224.379 420.63 262.173C383.978 268.275 347.38 274.788 311.007 282.392C289.398 286.944 267.808 291.762 246.582 297.884C238.576 300.195 232.618 301.74 224.917 304.921C217.215 308.101 210.522 309.038 199.528 319.77C198.941 320.4 195.759 324.536 195.051 329.095ZM512.161 252.173C559.259 221.596 636.771 219.914 680.272 235.793C695.51 241.356 700.24 256.802 686.31 265.113C686.31 265.113 662.555 277.223 650.031 281.685C610.047 295.751 568.046 303.845 526.275 310.581C521.76 291.056 517.158 271.574 512.161 252.173ZM460.937 350.822C465.473 350.333 470.008 349.824 474.543 349.295C476.167 351.1 477.916 353.876 480.582 354.049C481.684 354.121 482.764 353.767 483.592 353.06C484.421 352.352 484.938 351.342 485.04 350.242C485.109 349.496 484.98 348.753 484.69 348.078C489.638 347.468 494.586 346.833 499.533 346.173C501.662 355.445 503.766 364.668 505.864 373.814C516.705 426.153 526.771 479.988 529.48 532.107C529.757 538.232 529.811 545.528 529.458 552C514.132 530.24 503.002 505.47 491.848 481.418C474.202 440.799 459.969 393.533 460.937 350.822ZM465.797 315.47C469.403 302.207 475.137 289.834 483.459 278.785C486.555 291.048 489.531 303.34 492.427 315.599C484.112 316.728 475.785 317.787 467.449 318.777C466.892 317.679 466.342 316.577 465.797 315.47ZM398.62 76.7953C397.884 65.4521 405.152 74.2329 405.152 74.2329C435.518 122.342 456.525 180.476 473.427 240.934C468.415 245.736 463.88 250.704 459.789 255.818C453.968 256.74 448.263 257.653 442.67 258.557C440.832 253.334 439.03 248.11 437.246 242.904C425.705 208.105 415.885 172.767 408.14 137.226C403.863 117.322 399.356 88.1385 398.62 76.7953ZM255.148 328.89C241.442 327.873 261.52 324.261 274.831 320.839C288.835 317.239 302.958 314.076 317.084 311.028C355.822 302.683 394.834 295.623 433.892 288.955C435.033 291.119 436.19 293.274 437.365 295.42C434.05 304.341 431.637 313.493 430 322.791C419.154 323.834 408.299 324.78 397.442 325.638C350.305 328.887 278.218 330.603 255.148 328.89Z" fill="#DF4D20"/>
<path d="M111.349 482.682C115.056 479.634 120.417 477.773 124.822 478.583C128.451 479.251 131.104 480.734 132.928 482.913C134.641 484.962 135.269 487.253 135.628 488.533C136.272 490.837 134.927 493.228 132.624 493.872C130.32 494.517 127.93 493.171 127.285 490.867C126.918 489.557 126.677 488.942 126.283 488.471C125.999 488.131 125.306 487.48 123.255 487.103C121.98 486.868 119.131 487.498 116.851 489.372C114.791 491.066 114.124 492.923 114.892 495.002C115.763 497.358 118.137 498.731 122.546 500.68C124.448 501.521 126.868 502.548 128.86 503.899C130.949 505.316 133.082 507.42 133.857 510.66C134.522 513.438 134.138 516.353 132.474 518.921C130.863 521.407 128.287 523.214 125.168 524.421C119.017 526.802 109.695 527.283 96.9256 525.198C94.5646 524.812 92.963 522.585 93.3484 520.224C93.7342 517.863 95.9612 516.262 98.3221 516.648C110.507 518.637 118.012 517.901 122.041 516.342C124.011 515.58 124.864 514.734 125.204 514.209C125.491 513.766 125.583 513.309 125.431 512.677C125.346 512.319 125.096 511.813 123.998 511.069C122.802 510.258 121.228 509.57 119.043 508.605C117.111 507.751 114.547 506.647 112.191 504.922C111.311 506.613 110.224 508.065 108.948 509.243C105.59 512.344 101.039 513.354 96.9295 511.539C94.1808 510.326 92.0843 508.058 90.7635 505.151C87.1608 509.009 82.6117 511.458 77.9998 510.651C72.7649 509.734 69.9047 505.155 69.2693 499.998C69.0912 498.552 69.0666 496.993 69.202 495.333C63.6112 500.125 57.5001 505.95 51.3895 512.215C51.3057 512.43 51.2245 512.647 51.1395 512.864C43.5344 532.201 30.3129 557.062 20.9129 571.917C17.5061 577.301 14.3474 581.045 11.3875 582.866C9.88301 583.791 7.80197 584.601 5.51642 584.059C3.06838 583.478 1.6574 581.666 0.950012 580.055C-0.329398 577.141 -0.155781 573.185 0.529113 569.508C1.26015 565.584 2.75016 561.069 4.98419 556.516C9.43657 547.443 21.1816 532.347 34.2313 517.861C37.3843 514.361 40.6464 510.859 43.9393 507.451C45.3732 503.659 46.5331 500.187 47.3445 497.163C48.3349 493.472 48.7222 490.764 48.6395 489.05C48.6337 488.93 48.6254 488.821 48.617 488.723C47.9182 488.931 46.9106 489.362 45.5477 490.156C37.8369 494.645 28.8948 501.676 21.7693 507.704C18.2326 510.696 15.191 513.401 13.035 515.356C11.9577 516.333 11.1026 517.121 10.5193 517.663C10.2278 517.934 10.0038 518.144 9.85431 518.284C9.77985 518.354 9.72323 518.407 9.68634 518.442C9.66793 518.459 9.65402 518.473 9.64532 518.481L9.63458 518.491C7.89931 520.138 5.15732 520.067 3.51056 518.331C1.8638 516.596 1.93545 513.854 3.67071 512.207L6.65314 515.35C3.77588 512.318 3.67485 512.21 3.67169 512.206H3.67364C3.67454 512.205 3.67514 512.204 3.67657 512.202C3.6797 512.199 3.68365 512.194 3.68927 512.189C3.70048 512.178 3.71727 512.164 3.7381 512.144C3.78017 512.104 3.84162 512.045 3.92169 511.97C4.08198 511.819 4.31769 511.6 4.62091 511.318C5.22773 510.754 6.10947 509.941 7.21564 508.938C9.42741 506.932 12.5451 504.161 16.1736 501.091C23.3798 494.995 32.7951 487.557 41.1883 482.669C43.0179 481.604 44.7824 480.788 46.4588 480.329C48.1147 479.876 49.9916 479.687 51.8338 480.264C56.1161 481.605 57.1528 485.757 57.2918 488.631C57.3816 490.491 57.1709 492.596 56.7576 494.843C62.673 489.35 68.3573 484.567 73.3377 481.056C73.3811 480.962 73.4244 480.867 73.4686 480.773L77.3924 482.608L81.3152 484.444C78.1917 491.121 77.5038 495.983 77.868 498.94C78.2311 501.886 79.3708 502.096 79.494 502.117C80.0302 502.211 81.9934 502.014 84.7557 498.883C86.5106 496.894 88.3444 493.949 89.9656 489.898C90.5053 487.511 91.3143 484.976 92.4158 482.306L100.617 485.029C99.9361 487.696 99.1516 490.156 98.285 492.409C97.6997 495.277 97.6906 497.573 97.9842 499.307C98.4827 502.251 99.7579 503.317 100.429 503.614C101.007 503.869 101.934 503.928 103.07 502.879C104.233 501.805 105.637 499.441 106.03 495.124C105.273 489.814 108.01 485.428 111.349 482.682ZM32.7049 532.776C23.2851 543.914 15.8087 554.12 12.7606 560.331C10.8353 564.255 9.61783 568.024 9.04571 571.095C8.85075 572.142 8.73771 573.075 8.69025 573.88C9.92584 572.575 11.5675 570.483 13.5916 567.284C19.2523 558.338 26.3602 545.614 32.7049 532.776ZM153.606 468.816C154.776 466.729 157.416 465.986 159.503 467.156C161.589 468.326 162.332 470.966 161.162 473.052C160.073 474.994 158.881 477.218 157.655 479.615C160.604 478.347 163.553 477.079 166.502 475.812C166.848 475.663 167.18 475.521 167.527 475.371C168.583 474.918 169.776 474.902 170.843 475.327C171.909 475.753 172.764 476.585 173.218 477.64C173.671 478.695 173.687 479.888 173.262 480.955C172.836 482.022 172.004 482.877 170.949 483.33C170.602 483.48 170.269 483.622 169.923 483.771C163.964 486.332 158.004 488.895 152.045 491.456C149.079 498.049 146.401 503.358 145.237 507.866C144.633 510.205 144.624 511.723 144.891 512.691C145.098 513.436 145.55 514.198 146.969 514.941C147.153 515.037 147.769 515.244 149.129 515.146C150.444 515.051 152.108 514.698 154.08 514.074C158.023 512.826 162.619 510.684 167.096 508.296C171.54 505.926 175.718 503.394 178.795 501.447C180.33 500.475 181.584 499.654 182.45 499.078C182.883 498.791 183.219 498.564 183.444 498.411C183.557 498.335 183.641 498.277 183.697 498.239C183.725 498.22 183.746 498.206 183.759 498.197C183.765 498.192 183.77 498.189 183.772 498.187L183.775 498.185L183.962 498.063C185.911 496.859 188.484 497.384 189.8 499.291C191.158 501.26 190.664 503.957 188.695 505.316L186.235 501.75C188.634 505.227 188.693 505.314 188.694 505.317L188.686 505.322C188.681 505.325 188.674 505.331 188.665 505.337C188.647 505.349 188.622 505.367 188.59 505.389C188.524 505.434 188.428 505.497 188.305 505.58C188.06 505.747 187.702 505.989 187.246 506.292C186.334 506.899 185.026 507.755 183.429 508.766C180.24 510.784 175.868 513.437 171.173 515.941C166.51 518.428 161.375 520.851 156.694 522.332C154.354 523.073 151.983 523.626 149.751 523.786C147.565 523.944 145.122 523.754 142.947 522.615C139.648 520.886 137.456 518.307 136.542 515.001C135.689 511.918 136.081 508.673 136.849 505.699C138.247 500.286 141.513 493.746 144.273 487.614L145.363 485.172C148.105 479.085 151.112 473.263 153.606 468.816ZM56.0818 457.449C59.7201 454.264 64.9116 454.243 67.6776 457.403C70.4434 460.562 69.7365 465.705 66.0984 468.89C62.4602 472.075 58.3087 471.185 55.5428 468.026C52.7769 464.866 52.4437 460.634 56.0818 457.449Z" fill="#DF4D20"/>
<path d="M83.5789 590.458C83.5789 590.458 85.635 575.866 77.3332 573.785C69.0314 571.703 55.9758 578.936 53.8943 599.754C51.8128 620.572 67.9911 619.622 75.2517 616.48C82.5123 613.338 108.521 589.647 108.521 589.647" stroke="#DF4D20" stroke-width="8.6632" stroke-linecap="round"/>
<path d="M107.07 593.062C108.666 589.151 117.171 579.114 120.843 578.214C124.514 577.314 126.348 580.914 126.348 580.914C131.855 590.362 132.4 607.91 118.083 607.91C105.691 607.91 104.314 599.811 107.07 593.062Z" stroke="#DF4D20" stroke-width="8.6632"/>
<path d="M311.632 591.548C313.218 587.633 321.698 577.574 325.366 576.665C329.035 575.755 330.879 579.35 330.879 579.35C336.41 588.784 337.001 606.33 322.684 606.367C310.292 606.399 308.895 598.304 311.632 591.548Z" stroke="#DF4D20" stroke-width="8.6632"/>
<path d="M161.825 575.924C162.401 573.602 160.986 571.253 158.664 570.677C156.342 570.101 153.993 571.516 153.417 573.838L157.621 574.881L161.825 575.924ZM148.557 611.424L144.352 610.381L152.096 613.921L148.557 611.424ZM194.862 574.696L190.927 576.505L194.862 574.696ZM191.142 611.934L186.89 611.104L194.811 614.237L191.142 611.934ZM289.217 604.132L290.445 599.978L289.217 604.132ZM327.505 585.791C329.006 583.928 328.713 581.201 326.851 579.7C324.988 578.198 322.261 578.491 320.76 580.354L324.132 583.072L327.505 585.791ZM157.621 574.881L153.417 573.838L144.352 610.381L148.557 611.424L152.761 612.467L161.825 575.924L157.621 574.881ZM148.557 611.424C152.096 613.921 152.096 613.921 152.096 613.921C152.096 613.921 152.096 613.921 152.096 613.92C152.097 613.92 152.098 613.919 152.099 613.917C152.1 613.915 152.103 613.911 152.107 613.905C152.115 613.894 152.127 613.878 152.142 613.856C152.173 613.811 152.22 613.746 152.281 613.659C152.404 613.485 152.586 613.229 152.821 612.898C153.29 612.236 153.972 611.278 154.82 610.093C156.515 607.722 158.871 604.449 161.512 600.836C166.819 593.576 173.194 585.061 177.687 579.714L174.371 576.928L171.055 574.141C166.351 579.738 159.819 588.471 154.518 595.724C151.855 599.367 149.482 602.665 147.774 605.053C146.92 606.247 146.231 607.214 145.757 607.883C145.519 608.218 145.335 608.478 145.21 608.655C145.147 608.743 145.099 608.811 145.067 608.856C145.051 608.879 145.038 608.897 145.03 608.908C145.026 608.914 145.023 608.919 145.021 608.922C145.02 608.923 145.019 608.925 145.018 608.925C145.018 608.926 145.018 608.926 145.018 608.926C145.017 608.927 145.017 608.927 148.557 611.424ZM174.371 576.928L177.687 579.714C181.989 574.596 185.205 573.271 186.928 573.206C188.191 573.159 189.675 573.782 190.927 576.505L194.862 574.696L198.798 572.887C196.581 568.063 192.418 564.33 186.602 564.549C181.245 564.751 175.95 568.316 171.055 574.141L174.371 576.928ZM194.862 574.696L190.927 576.505C190.868 576.376 191.027 576.748 191.092 578.067C191.15 579.232 191.121 580.743 191.01 582.535C190.788 586.109 190.264 590.461 189.65 594.732C189.038 598.987 188.347 603.084 187.809 606.123C187.54 607.64 187.309 608.89 187.146 609.758C187.065 610.193 187.001 610.531 186.957 610.76C186.935 610.875 186.918 610.962 186.907 611.02C186.901 611.049 186.897 611.07 186.894 611.084C186.893 611.091 186.892 611.096 186.891 611.1C186.891 611.101 186.891 611.103 186.891 611.103C186.891 611.104 186.89 611.104 186.89 611.104C186.89 611.104 186.89 611.104 191.142 611.934C195.393 612.765 195.393 612.764 195.393 612.764C195.393 612.763 195.393 612.763 195.393 612.762C195.394 612.761 195.394 612.759 195.394 612.757C195.395 612.752 195.397 612.746 195.398 612.738C195.401 612.721 195.406 612.697 195.412 612.666C195.424 612.603 195.442 612.511 195.465 612.391C195.511 612.151 195.578 611.801 195.661 611.355C195.829 610.462 196.064 609.184 196.339 607.634C196.888 604.539 197.595 600.343 198.225 595.966C198.852 591.606 199.414 586.987 199.656 583.07C199.777 581.117 199.825 579.253 199.745 577.639C199.673 576.181 199.481 574.371 198.798 572.887L194.862 574.696ZM191.142 611.934C194.811 614.237 194.81 614.237 194.81 614.237C194.811 614.237 194.811 614.237 194.811 614.236C194.812 614.235 194.813 614.234 194.814 614.231C194.817 614.226 194.823 614.218 194.83 614.206C194.844 614.184 194.866 614.149 194.895 614.103C194.954 614.01 195.042 613.871 195.159 613.688C195.392 613.324 195.738 612.788 196.179 612.112C197.063 610.76 198.332 608.852 199.863 606.638C202.938 602.193 207.019 596.594 211.141 591.804C213.203 589.407 215.222 587.277 217.084 585.612C219.006 583.896 220.507 582.908 221.53 582.502C222.504 582.116 222.109 582.563 221.552 582.098C221.378 581.953 222.028 582.426 222.342 585.267L226.648 584.792L230.953 584.316C230.576 580.901 229.598 577.531 227.105 575.448C224.228 573.046 220.821 573.463 218.337 574.449C215.901 575.415 213.498 577.199 211.312 579.152C209.068 581.158 206.778 583.593 204.575 586.153C200.166 591.276 195.888 597.156 192.738 601.71C191.157 603.996 189.846 605.968 188.928 607.371C188.47 608.073 188.109 608.633 187.861 609.02C187.737 609.214 187.642 609.364 187.576 609.468C187.544 609.519 187.519 609.559 187.501 609.586C187.493 609.6 187.486 609.611 187.481 609.618C187.479 609.622 187.477 609.625 187.475 609.627C187.475 609.628 187.474 609.629 187.474 609.63C187.473 609.631 187.473 609.631 191.142 611.934ZM226.648 584.792L222.342 585.267C223.022 591.424 223.229 595.78 223.135 598.851C223.039 601.998 222.633 603.438 222.367 604.012C222.233 604.3 222.342 604.029 222.649 603.934C222.658 603.931 222.632 603.94 222.554 603.953C222.473 603.965 222.361 603.979 222.19 603.993C222.053 604.004 221.155 604.055 220.672 604.109L221.148 608.414L221.624 612.719C222.048 612.672 222.089 612.692 222.889 612.628C223.467 612.581 224.303 612.49 225.204 612.212C227.314 611.561 229.09 610.101 230.223 607.662C231.224 605.508 231.685 602.682 231.794 599.116C231.906 595.475 231.655 590.672 230.953 584.316L226.648 584.792ZM221.148 608.414L220.672 604.109C221.282 604.041 222.15 604.107 223.022 604.61C223.883 605.106 224.357 605.803 224.594 606.31C224.982 607.141 224.878 607.751 224.894 607.54C224.91 607.316 225.051 606.574 225.516 605.221C226.398 602.652 228.062 598.964 230.259 595.014C232.449 591.075 235.082 587.033 237.841 583.711C240.68 580.292 243.316 578.049 245.427 577.145L243.723 573.163L242.018 569.181C237.993 570.904 234.287 574.43 231.176 578.176C227.985 582.019 225.06 586.537 222.687 590.804C220.321 595.06 218.415 599.224 217.322 602.407C216.8 603.929 216.352 605.537 216.253 606.919C216.21 607.512 216.167 608.739 216.744 609.974C217.075 610.683 217.676 611.528 218.695 612.116C219.727 612.71 220.787 612.812 221.624 612.719L221.148 608.414ZM243.723 573.163L245.427 577.145C246.33 576.759 246.073 577.142 245.396 576.801C244.812 576.507 244.912 576.16 245.165 576.94C245.705 578.602 245.794 581.723 245.523 585.926C245.395 587.914 245.202 589.969 245.007 592.001C244.816 594.002 244.62 596.013 244.503 597.794C244.389 599.528 244.33 601.306 244.483 602.783C244.558 603.509 244.708 604.429 245.076 605.321C245.428 606.176 246.253 607.644 248.047 608.356L249.645 604.329L251.243 600.303C252.557 600.825 253.011 601.841 253.085 602.02C253.174 602.236 253.138 602.255 253.1 601.891C253.027 601.189 253.038 600.031 253.147 598.362C253.254 596.739 253.435 594.878 253.631 592.826C253.824 590.804 254.03 588.624 254.168 586.484C254.43 582.429 254.526 577.716 253.405 574.264C252.828 572.488 251.68 570.265 249.29 569.062C246.806 567.813 244.183 568.254 242.018 569.181L243.723 573.163ZM249.645 604.329L248.047 608.356C249.931 609.103 251.599 608.509 252.432 608.095C253.31 607.659 254.042 607.051 254.585 606.544C255.696 605.507 256.858 604.082 257.963 602.631C259.099 601.14 260.332 599.408 261.576 597.656C262.836 595.882 264.121 594.069 265.418 592.323C268.104 588.707 270.493 585.875 272.357 584.481C273.326 583.756 273.54 583.894 273.164 583.895C272.333 583.898 271.985 583.316 272.142 583.571L275.834 581.306L279.526 579.041C278.19 576.863 276.024 575.224 273.14 575.232C270.71 575.239 268.635 576.446 267.169 577.543C264.163 579.792 261.098 583.609 258.463 587.157C257.1 588.992 255.757 590.888 254.513 592.64C253.253 594.415 252.105 596.026 251.072 597.382C250.008 598.778 249.214 599.706 248.671 600.213C248.387 600.478 248.367 600.441 248.581 600.335C248.749 600.252 249.839 599.746 251.243 600.303L249.645 604.329ZM275.834 581.306L272.142 583.571C274.884 588.04 276.252 592.568 278.172 597.249C279.856 601.351 282.352 606.62 287.99 608.286L289.217 604.132L290.445 599.978C289.189 599.607 287.979 598.329 286.187 593.961C284.632 590.171 282.755 584.304 279.526 579.041L275.834 581.306ZM289.217 604.132L287.99 608.286C293.013 609.771 298.141 608.582 302.559 606.6C307.019 604.598 311.278 601.557 314.891 598.527C318.531 595.475 321.67 592.304 323.89 589.91C325.004 588.709 325.897 587.693 326.515 586.972C326.824 586.611 327.066 586.323 327.233 586.122C327.316 586.021 327.381 585.942 327.427 585.886C327.45 585.858 327.468 585.836 327.481 585.82C327.487 585.812 327.492 585.806 327.497 585.801C327.499 585.798 327.5 585.796 327.502 585.795C327.502 585.794 327.503 585.793 327.503 585.792C327.504 585.791 327.505 585.791 324.132 583.072C320.76 580.354 320.76 580.353 320.761 580.353C320.761 580.353 320.761 580.352 320.761 580.352C320.761 580.352 320.761 580.352 320.761 580.353C320.76 580.354 320.758 580.357 320.754 580.361C320.748 580.369 320.736 580.383 320.72 580.403C320.687 580.443 320.636 580.506 320.566 580.59C320.427 580.758 320.215 581.01 319.938 581.334C319.383 581.981 318.566 582.912 317.538 584.019C315.476 586.243 312.603 589.14 309.325 591.889C306.021 594.659 302.456 597.151 299.012 598.696C295.524 600.261 292.666 600.635 290.445 599.978L289.217 604.132Z" fill="#DF4D20"/>
<path d="M351.33 567.989C351.33 567.989 353.015 569.192 353.015 577.133C353.015 585.074 345.555 610.022 345.555 610.022C359.039 586.844 389.685 550.524 389.685 591.229C389.685 608.143 409.299 609.395 417.267 593.108" stroke="#DF4D20" stroke-width="8.6632" stroke-linecap="round"/>
<path d="M121.305 573.446C127.163 581.968 142.447 579.944 156.885 574.65" stroke="#DF4D20" stroke-width="8.6632" stroke-linecap="round"/>
<path d="M78.262 698.608C112.157 696.187 104.602 672.698 87.9481 682.873C66.1567 696.187 76.9494 730.776 112.291 708.773C165.646 675.556 135.959 680.747 135.959 680.747" stroke="#DF4D20" stroke-width="8.6632" stroke-linecap="round"/>
<path d="M120.251 697.435C122.014 693.082 131.406 681.909 135.46 680.907C139.514 679.906 141.54 683.912 141.54 683.912C147.62 694.43 148.223 713.964 132.412 713.964C118.728 713.964 117.208 704.948 120.251 697.435Z" stroke="#DF4D20" stroke-width="8.6632"/>
<path d="M244.563 707.039C275.068 692.066 259.245 673.134 247.632 688.818C232.435 709.341 250.786 733.889 280.856 705.097C290.532 695.831 299.501 688.131 299.501 688.131" stroke="#DF4D20" stroke-width="8.6632" stroke-linecap="round"/>
<path d="M36.1198 675.764C36.1198 673.372 34.1804 671.432 31.7882 671.432C29.3959 671.432 27.4566 673.372 27.4566 675.764H31.7882H36.1198ZM12.0176 777.699L7.76108 776.896C7.31796 779.244 8.86075 781.508 11.2087 781.954C13.5566 782.401 15.8224 780.861 16.2719 778.514L12.0176 777.699ZM56.7808 680.763L54.5983 684.504L56.7808 680.763ZM79.8221 702.92C82.2073 702.736 83.9922 700.654 83.8087 698.269C83.6252 695.883 81.5429 694.098 79.1576 694.282L79.4899 698.601L79.8221 702.92ZM31.7882 675.764H27.4566C27.4566 675.389 27.5169 675.103 27.4654 675.434C27.4436 675.575 27.4073 675.792 27.3543 676.095C27.2492 676.696 27.0916 677.558 26.8856 678.661C26.4745 680.863 25.8799 683.974 25.1488 687.762C23.6871 695.335 21.6854 705.583 19.5264 716.61C15.2104 738.655 10.2648 763.821 7.76328 776.884L12.0176 777.699L16.2719 778.514C18.7689 765.474 23.7085 740.338 28.0282 718.275C30.1871 707.248 32.1908 696.99 33.655 689.404C34.3869 685.612 34.9855 682.48 35.4017 680.251C35.6094 679.139 35.7741 678.238 35.8878 677.588C35.9442 677.266 35.9915 676.986 36.0259 676.765C36.0305 676.735 36.1198 676.222 36.1198 675.764H31.7882ZM12.0176 777.699L16.2741 778.502C19.027 763.912 25.2542 737.065 33.1839 715.383C37.1734 704.475 41.46 695.255 45.7474 689.533C47.9053 686.652 49.781 685.047 51.2612 684.363C52.4741 683.803 53.4307 683.823 54.5983 684.504L56.7808 680.763L58.9634 677.021C55.2203 674.838 51.2686 674.818 47.6299 676.498C44.2587 678.054 41.3397 680.968 38.8142 684.338C33.7347 691.118 29.0996 701.329 25.0478 712.408C16.8951 734.7 10.5621 762.051 7.76108 776.896L12.0176 777.699ZM56.7808 680.763L54.5983 684.504C57.3483 686.108 58.2403 688.043 58.3474 690.155C58.4704 692.583 57.5414 695.663 55.6319 698.984C53.7582 702.243 51.1637 705.342 48.5613 707.693C45.8019 710.187 43.6194 711.314 42.6536 711.495L43.4514 715.752L44.2492 720.01C47.6471 719.373 51.312 716.884 54.3694 714.121C57.5837 711.217 60.7752 707.42 63.1424 703.302C65.4737 699.247 67.2404 694.469 66.9995 689.717C66.7426 684.65 64.2111 680.082 58.9634 677.021L56.7808 680.763ZM43.4514 715.752L42.6536 711.495C41.8986 711.636 42.3971 711.347 43.2724 711.863C43.8225 712.187 44.3464 712.743 44.6256 713.493C44.8825 714.182 44.8235 714.739 44.7761 714.979C44.7005 715.36 44.6176 715.215 45.1804 714.554C45.6777 713.969 46.502 713.192 47.7349 712.303C52.7005 708.723 63.0691 704.208 79.8221 702.92L79.4899 698.601L79.1576 694.282C61.2541 695.659 49.2398 700.538 42.6684 705.276C41.0171 706.467 39.6351 707.702 38.5815 708.941C37.5935 710.102 36.6154 711.591 36.2779 713.296C36.0995 714.197 36.0678 715.337 36.5076 716.518C36.9696 717.758 37.8319 718.712 38.8731 719.326C40.7306 720.421 42.8224 720.277 44.2492 720.01L43.4514 715.752Z" fill="#DF4D20"/>
<path d="M164.032 675.764H168.364C168.364 673.899 167.171 672.244 165.402 671.655C163.633 671.065 161.685 671.674 160.567 673.166L164.032 675.764ZM141.771 778.945L137.443 778.773C137.353 781.038 139.025 782.989 141.277 783.248C143.529 783.507 145.599 781.986 146.026 779.759L141.771 778.945ZM189.025 680.763L186.482 684.269L189.025 680.763ZM162.476 700.945C160.675 699.37 157.938 699.554 156.364 701.356C154.79 703.157 154.974 705.893 156.775 707.468L159.626 704.206L162.476 700.945ZM124.145 691.826C121.779 691.471 119.573 693.101 119.218 695.467C118.863 697.833 120.494 700.038 122.859 700.393L123.502 696.109L124.145 691.826ZM164.032 675.764H159.701C159.701 675.539 159.72 675.37 159.722 675.345C159.728 675.29 159.734 675.255 159.734 675.252C159.735 675.244 159.732 675.268 159.719 675.339C159.694 675.478 159.652 675.694 159.591 676.001C159.469 676.609 159.285 677.482 159.045 678.603C158.566 680.838 157.875 683.998 157.027 687.845C155.33 695.545 153.02 705.935 150.547 717.131C145.611 739.474 140.03 765.005 137.517 778.13L141.771 778.945L146.026 779.759C148.511 766.781 154.06 741.388 159.006 719C161.473 707.83 163.791 697.403 165.487 689.71C166.335 685.861 167.032 682.68 167.516 680.417C167.758 679.287 167.951 678.371 168.084 677.71C168.15 677.382 168.205 677.095 168.246 676.867C168.266 676.755 168.288 676.63 168.305 676.509C168.309 676.488 168.364 676.148 168.364 675.764H164.032ZM141.771 778.945L146.1 779.117C146.707 763.841 151.357 734.58 159.319 711.814C163.333 700.336 167.984 691.124 172.949 686.046C175.385 683.554 177.596 682.368 179.549 682.073C181.393 681.795 183.648 682.214 186.482 684.269L189.025 680.763L191.568 677.256C187.311 674.169 182.811 672.82 178.257 673.507C173.812 674.177 169.981 676.689 166.755 679.989C160.395 686.494 155.24 697.234 151.141 708.955C142.877 732.585 138.082 762.7 137.443 778.773L141.771 778.945ZM189.025 680.763L186.482 684.269C188.848 685.985 189.991 688.663 189.9 691.927C189.806 695.265 188.387 698.946 185.914 701.849C183.47 704.717 180.19 706.612 176.464 706.859C172.776 707.102 168.001 705.773 162.476 700.945L159.626 704.206L156.775 707.468C163.603 713.435 170.552 715.932 177.036 715.503C183.48 715.077 188.817 711.799 192.508 707.467C196.171 703.169 198.406 697.62 198.559 692.17C198.715 686.645 196.697 680.976 191.568 677.256L189.025 680.763ZM164.032 675.764C160.567 673.166 160.567 673.165 160.567 673.165C160.567 673.165 160.567 673.165 160.567 673.165C160.567 673.165 160.567 673.165 160.567 673.166C160.566 673.167 160.564 673.169 160.562 673.171C160.558 673.177 160.55 673.187 160.54 673.2C160.52 673.227 160.488 673.269 160.446 673.325C160.36 673.437 160.232 673.605 160.064 673.823C159.727 674.257 159.234 674.887 158.615 675.654C157.376 677.191 155.65 679.263 153.694 681.413C151.729 683.574 149.583 685.756 147.504 687.545C145.349 689.4 143.577 690.555 142.35 691.007L143.847 695.071L145.345 699.136C148.062 698.135 150.786 696.15 153.155 694.112C155.6 692.008 158.008 689.546 160.103 687.242C162.207 684.929 164.047 682.719 165.36 681.09C166.018 680.274 166.547 679.6 166.914 679.126C167.097 678.889 167.24 678.702 167.339 678.573C167.388 678.508 167.427 678.457 167.453 678.422C167.467 678.404 167.477 678.39 167.485 678.38C167.488 678.375 167.491 678.371 167.494 678.368C167.495 678.367 167.496 678.366 167.496 678.365C167.497 678.364 167.497 678.363 167.497 678.363C167.498 678.363 167.498 678.362 164.032 675.764ZM143.847 695.071L142.35 691.007C139.205 692.166 134.799 692.451 130.826 692.35C128.908 692.302 127.215 692.168 126.005 692.046C125.401 691.985 124.922 691.928 124.601 691.887C124.44 691.867 124.319 691.85 124.241 691.84C124.203 691.834 124.175 691.83 124.158 691.828C124.15 691.827 124.145 691.826 124.143 691.826C124.142 691.825 124.141 691.825 124.141 691.825C124.142 691.825 124.142 691.825 124.142 691.825C124.143 691.826 124.143 691.826 124.143 691.826C124.144 691.826 124.145 691.826 123.502 696.109C122.859 700.393 122.86 700.393 122.861 700.393C122.861 700.393 122.862 700.394 122.863 700.394C122.864 700.394 122.865 700.394 122.867 700.394C122.87 700.395 122.874 700.395 122.879 700.396C122.889 700.398 122.902 700.399 122.917 700.402C122.949 700.406 122.992 700.412 123.046 700.42C123.155 700.435 123.309 700.456 123.504 700.481C123.895 700.531 124.451 700.597 125.138 700.666C126.51 700.804 128.425 700.955 130.607 701.011C134.834 701.118 140.601 700.884 145.345 699.136L143.847 695.071Z" fill="#DF4D20"/>
<path d="M234.568 628.04L237.942 625.324C237.047 624.211 235.66 623.612 234.236 623.721C232.811 623.831 231.533 624.635 230.818 625.872L234.568 628.04ZM247.211 711.169C249.395 710.193 250.374 707.63 249.397 705.447C248.42 703.263 245.858 702.284 243.674 703.261L245.443 707.215L247.211 711.169ZM207.646 680.016C206.088 681.831 206.296 684.566 208.11 686.125C209.925 687.683 212.66 687.475 214.219 685.66L210.933 682.838L207.646 680.016ZM234.568 628.04C230.818 625.872 230.817 625.873 230.817 625.874C230.816 625.874 230.816 625.875 230.815 625.877C230.813 625.879 230.811 625.883 230.809 625.887C230.804 625.896 230.797 625.908 230.787 625.924C230.769 625.956 230.742 626.003 230.707 626.065C230.637 626.187 230.534 626.367 230.402 626.6C230.137 627.067 229.753 627.75 229.269 628.622C228.302 630.366 226.936 632.871 225.334 635.927C222.133 642.033 217.969 650.373 214.147 659.27C210.34 668.133 206.802 677.712 204.933 686.255C203.999 690.527 203.449 694.689 203.548 698.46C203.646 702.193 204.391 705.903 206.39 708.939L210.008 706.557L213.626 704.175C212.852 702.999 212.284 701.096 212.208 698.232C212.134 695.404 212.548 691.985 213.397 688.106C215.093 680.347 218.387 671.35 222.107 662.689C225.812 654.063 229.869 645.934 233.006 639.95C234.573 636.962 235.906 634.517 236.845 632.823C237.315 631.976 237.686 631.318 237.938 630.873C238.064 630.651 238.16 630.482 238.224 630.37C238.256 630.314 238.28 630.273 238.296 630.245C238.304 630.232 238.31 630.222 238.313 630.216C238.315 630.213 238.316 630.21 238.317 630.209C238.317 630.208 238.317 630.208 238.318 630.208C238.318 630.208 238.317 630.208 234.568 628.04ZM210.008 706.557L206.39 708.939C209.675 713.928 213.78 716.893 218.303 718.232C222.729 719.543 227.173 719.186 231.061 718.241C234.952 717.295 238.524 715.702 241.342 714.278C242.758 713.562 244.023 712.867 245.04 712.311C246.13 711.714 246.792 711.357 247.211 711.169L245.443 707.215L243.674 703.261C242.862 703.625 241.84 704.186 240.881 704.711C239.85 705.276 238.704 705.904 237.433 706.546C234.879 707.838 231.981 709.102 229.015 709.823C226.047 710.544 223.251 710.662 220.762 709.925C218.371 709.217 215.889 707.612 213.626 704.175L210.008 706.557ZM234.568 628.04L231.193 630.756C233.252 633.314 234.123 635.748 234.189 638.305C234.258 640.97 233.462 644.153 231.5 648.138C227.508 656.248 219.413 666.315 207.646 680.016L210.933 682.838L214.219 685.66C225.816 672.156 234.705 661.243 239.272 651.965C241.59 647.256 242.968 642.643 242.849 638.08C242.728 633.411 241.05 629.186 237.942 625.324L234.568 628.04Z" fill="#DF4D20"/>
</svg>
