<svg width="179" height="40" viewBox="0 0 179 40" fill="none" xmlns="http://www.w3.org/2000/svg">
<path d="M156.1 13.0612C156.058 13.2448 156.13 13.4849 156.209 13.5918C156.344 13.7893 156.492 13.8661 156.628 13.9325C156.824 14.0204 156.973 14.0572 157.174 14.1011C159.602 14.4674 161.896 14.2839 164.224 14.1433C164.588 14.1162 164.952 14.0867 165.316 14.0545C165.303 16.0083 165.973 18.0215 166.656 19.6425C167.114 20.6715 167.616 21.6932 168.241 22.6316C168.496 22.9999 168.796 23.3989 169.22 23.5811C169.324 23.6288 169.585 23.7074 169.844 23.6361C170.368 23.4803 170.492 23.0625 170.551 22.9288C170.785 22.178 170.724 21.6093 170.718 21.0655C170.603 18.8202 170.197 16.6821 169.761 14.5565C169.682 14.2187 169.603 13.8808 169.526 13.5432C170.066 13.4574 170.607 13.3631 171.147 13.259C172.29 13.0339 173.436 12.7701 174.578 12.3739C175.461 12.0604 176.459 11.668 177.083 10.9202C177.349 10.6032 177.56 10.135 177.475 9.61723C177.216 8.68365 176.638 8.55197 176.224 8.31506C175.776 8.11191 175.342 7.98837 174.897 7.89087C174.016 7.70268 173.125 7.64125 172.237 7.67925C170.914 7.74333 169.538 8.02721 168.332 8.70561C167.73 6.60949 166.959 4.54347 165.771 2.53755C165.591 2.23517 165.39 1.94447 165.151 1.687C164.983 1.5062 164.787 1.3314 164.479 1.14486C164.318 1.06512 164.18 0.987236 163.868 0.986426C163.596 0.971075 163.216 1.21552 163.116 1.38741C162.855 1.78241 162.867 2.0057 162.831 2.2552C162.793 2.71187 162.83 3.10007 162.878 3.50005C162.977 4.27333 163.145 5.01206 163.34 5.74182C163.773 7.34193 164.347 8.90521 165.053 10.4052C163.598 10.6473 162.145 10.9058 160.702 11.2076C159.844 11.3883 158.987 11.5795 158.145 11.8225C157.827 11.9142 157.591 11.9755 157.285 12.1017C156.979 12.228 156.714 12.2652 156.278 12.6911C156.254 12.7161 156.128 12.8802 156.1 13.0612ZM168.685 10.0083C170.555 8.79473 173.631 8.72797 175.357 9.35821C175.962 9.57897 176.15 10.192 175.597 10.5219C175.597 10.5219 174.654 11.0025 174.157 11.1796C172.57 11.7378 170.903 12.059 169.245 12.3264C169.066 11.5515 168.884 10.7783 168.685 10.0083ZM166.652 13.9235C166.832 13.9041 167.012 13.8839 167.192 13.8629C167.257 13.9345 167.326 14.0447 167.432 14.0516C167.476 14.0544 167.519 14.0404 167.551 14.0123C167.584 13.9842 167.605 13.9441 167.609 13.9005C167.612 13.8709 167.607 13.8414 167.595 13.8146C167.791 13.7904 167.988 13.7652 168.184 13.739C168.269 14.107 168.352 14.473 168.435 14.836C168.866 16.9132 169.265 19.0499 169.373 21.1183C169.384 21.3614 169.386 21.651 169.372 21.9079C168.764 21.0442 168.322 20.0612 167.879 19.1066C167.179 17.4945 166.614 15.6186 166.652 13.9235ZM166.845 12.5204C166.988 11.9941 167.216 11.503 167.546 11.0645C167.669 11.5512 167.787 12.039 167.902 12.5256C167.572 12.5704 167.242 12.6124 166.911 12.6517C166.889 12.6081 166.867 12.5643 166.845 12.5204ZM164.179 3.04786C164.15 2.59767 164.438 2.94617 164.438 2.94617C165.644 4.85554 166.477 7.16274 167.148 9.56223C166.949 9.75279 166.769 9.94997 166.607 10.153C166.376 10.1895 166.149 10.2258 165.927 10.2616C165.854 10.0544 165.783 9.84703 165.712 9.64043C165.254 8.2593 164.864 6.85682 164.557 5.44626C164.387 4.65628 164.208 3.49806 164.179 3.04786ZM158.485 13.053C157.941 13.0127 158.738 12.8693 159.266 12.7335C159.822 12.5906 160.382 12.4651 160.943 12.3441C162.481 12.013 164.029 11.7327 165.579 11.4681C165.624 11.554 165.67 11.6395 165.717 11.7247C165.585 12.0787 165.489 12.442 165.425 12.811C164.994 12.8524 164.563 12.8899 164.132 12.924C162.262 13.0529 159.401 13.121 158.485 13.053Z" fill="#DF4D20"/>
<path fill-rule="evenodd" clip-rule="evenodd" d="M19.8279 21.9186C20.4878 21.3761 21.442 21.0449 22.2263 21.1891C22.8724 21.308 23.3451 21.5716 23.6697 21.9596C23.9748 22.3244 24.0863 22.7326 24.1501 22.9606C24.2648 23.3708 24.0251 23.796 23.615 23.9108C23.2049 24.0254 22.7796 23.7857 22.6648 23.3757C22.5996 23.1426 22.5561 23.0327 22.4861 22.9489C22.4352 22.8883 22.3114 22.7728 21.947 22.7057C21.7199 22.6641 21.2132 22.7765 20.8074 23.11C20.4407 23.4115 20.3211 23.742 20.4578 24.112C20.6128 24.5314 21.0361 24.7768 21.821 25.1237C22.1595 25.2733 22.5906 25.4556 22.9451 25.696C23.317 25.9482 23.6965 26.3233 23.8347 26.9001C23.9531 27.3947 23.885 27.9145 23.5886 28.3718C23.3017 28.8142 22.843 29.1353 22.2878 29.3503C21.1927 29.7741 19.5329 29.8601 17.2595 29.4889C16.8392 29.4203 16.5533 29.0235 16.6218 28.6032C16.6906 28.183 17.0874 27.898 17.5076 27.9665C19.6764 28.3206 21.0127 28.1893 21.7302 27.9118C22.0807 27.7761 22.233 27.6254 22.2937 27.5319C22.3447 27.4531 22.3616 27.3718 22.3347 27.2594C22.3194 27.1956 22.2742 27.1058 22.0789 26.9733C21.866 26.829 21.5859 26.7057 21.197 26.5339C20.8529 26.3818 20.3959 26.185 19.9763 25.8776C19.8196 26.1789 19.6274 26.4383 19.4001 26.6481C18.8022 27.2002 17.9913 27.3794 17.2595 27.0563C16.7701 26.8401 16.397 26.4365 16.1619 25.9186C15.5204 26.6058 14.7107 27.0418 13.8894 26.8981C12.9572 26.7349 12.4478 25.9198 12.3347 25.0016C12.3029 24.7436 12.2988 24.4657 12.323 24.1696C11.3265 25.0237 10.2375 26.0624 9.14819 27.1794C9.13367 27.2167 9.11996 27.2552 9.10522 27.2927C7.75111 30.7357 5.39804 35.1622 3.72436 37.8073C3.1179 38.7657 2.55499 39.4322 2.02807 39.7565C1.76019 39.9213 1.38914 40.066 0.982174 39.9694C0.546417 39.8659 0.294632 39.5433 0.168697 39.2565C-0.0589945 38.7377 -0.0274175 38.0331 0.0944786 37.3786C0.224665 36.6799 0.490662 35.8757 0.888424 35.0651C1.68131 33.4496 3.77203 30.7615 6.09546 28.1823C6.65577 27.5603 7.23589 26.9384 7.82104 26.3327C8.07711 25.6557 8.28563 25.0363 8.43042 24.4968C8.60669 23.8398 8.67558 23.3576 8.66088 23.0524C8.65987 23.0314 8.6555 23.012 8.65405 22.9948C8.52976 23.0323 8.35064 23.1096 8.1101 23.2497C6.73735 24.0491 5.14527 25.3005 3.87671 26.3737C3.2471 26.9063 2.70491 27.3879 2.32104 27.736C2.12936 27.9098 1.97661 28.0506 1.8728 28.1471C1.82138 28.1949 1.78217 28.2325 1.75561 28.2575C1.7423 28.27 1.73093 28.2796 1.72436 28.2858C1.72124 28.2888 1.71903 28.2912 1.71753 28.2927L1.71655 28.2946H1.71557C1.40673 28.5876 0.918975 28.5748 0.625729 28.2663C0.332571 27.9574 0.345261 27.4687 0.654049 27.1755V27.1745C0.654538 27.174 0.656149 27.1733 0.656979 27.1725C0.658926 27.1707 0.662331 27.168 0.665768 27.1647C0.673199 27.1577 0.683964 27.1467 0.697994 27.1335C0.726495 27.1067 0.769128 27.0673 0.822994 27.0173C0.93099 26.9169 1.0882 26.7718 1.28491 26.5934C1.67868 26.2364 2.23376 25.7424 2.87963 25.196C4.16276 24.1105 5.84027 22.7859 7.33471 21.9157C7.6602 21.7262 7.97396 21.5814 8.27221 21.4997C8.56693 21.419 8.90135 21.3845 9.22924 21.487C9.99182 21.7258 10.1772 22.4664 10.2019 22.9782C10.2178 23.3094 10.1798 23.6845 10.1062 24.0846C11.1599 23.1062 12.1723 22.254 13.0593 21.6286C13.067 21.6119 13.074 21.5945 13.0818 21.5778L13.781 21.9059L14.4792 22.2321C13.9232 23.4207 13.8012 24.2867 13.866 24.8132C13.9302 25.3343 14.131 25.3753 14.155 25.3796C14.251 25.3961 14.6013 25.3601 15.0925 24.8034C15.4084 24.4453 15.7362 23.912 16.0271 23.1784C16.1231 22.7609 16.2636 22.3172 16.4558 21.8512L17.9167 22.3366C17.7982 22.801 17.6578 23.2288 17.5076 23.6227C17.3977 24.1463 17.3938 24.5642 17.447 24.8786C17.5358 25.4029 17.7641 25.5934 17.8835 25.6462C17.9866 25.6914 18.1514 25.7007 18.3533 25.5143C18.5619 25.3216 18.8119 24.8959 18.8796 24.1169C18.753 23.1789 19.2368 22.4046 19.8279 21.9186ZM5.81909 30.8454C4.14439 32.8261 2.81438 34.64 2.27221 35.7448C1.92957 36.4431 1.71297 37.1141 1.61108 37.6608C1.57645 37.8467 1.55511 38.0128 1.54663 38.1559C1.76657 37.9236 2.06046 37.5523 2.42065 36.9831C3.42746 35.3919 4.69034 33.1288 5.81909 30.8454ZM27.3513 19.4489C27.5597 19.0778 28.0298 18.9451 28.4011 19.153C28.7726 19.3613 28.9042 19.8323 28.696 20.2038C28.5024 20.5491 28.291 20.9448 28.073 21.3708C28.5976 21.1453 29.1228 20.9204 29.6472 20.695C29.7088 20.6685 29.7681 20.6434 29.8298 20.6169C30.0176 20.5362 30.2299 20.5335 30.4197 20.6091C30.6096 20.6849 30.7628 20.8333 30.8435 21.0212C30.9241 21.209 30.926 21.4212 30.8503 21.611C30.7746 21.801 30.6262 21.9531 30.4382 22.0339C30.3766 22.0604 30.3181 22.0865 30.2566 22.113C29.1947 22.5694 28.132 23.0257 27.0701 23.4821C26.5424 24.6551 26.0682 25.601 25.8611 26.403C25.7535 26.8195 25.7519 27.0901 25.7996 27.2624C25.8363 27.395 25.9176 27.5296 26.1697 27.6618C26.2026 27.679 26.3127 27.7163 26.5544 27.6989C26.7885 27.682 27.0854 27.6185 27.4363 27.5075C28.1381 27.2853 28.9559 26.9041 29.7527 26.4792C30.5441 26.0571 31.2888 25.6062 31.8367 25.2594C32.1097 25.0867 32.3329 24.941 32.4871 24.8385C32.5639 24.7875 32.6237 24.7466 32.6638 24.7194L32.7234 24.6794C33.074 24.4377 33.5548 24.5261 33.7966 24.8766C34.0377 25.2271 33.9495 25.7071 33.5994 25.9489H33.5984V25.9499C33.5975 25.9505 33.5951 25.9508 33.5935 25.9518C33.5904 25.9539 33.5864 25.9577 33.5808 25.9616C33.5692 25.9696 33.5519 25.9819 33.53 25.9968C33.4863 26.0264 33.4216 26.0679 33.3406 26.1218C33.1782 26.2297 32.9452 26.3822 32.6609 26.5622C32.0933 26.9214 31.3151 27.3937 30.4792 27.8395C29.6489 28.2824 28.7337 28.7154 27.9001 28.9792C27.484 29.1108 27.0618 29.2094 26.6648 29.238C26.2756 29.2659 25.8401 29.2319 25.4529 29.029C24.8656 28.7212 24.4751 28.2619 24.3123 27.6735C24.1604 27.1246 24.2312 26.5469 24.3679 26.0173C24.6334 24.9894 25.2774 23.7327 25.7869 22.5798C26.3003 21.4178 26.8777 20.2936 27.3513 19.4489Z" fill="#DF4D20"/>
<path d="M43.7694 24.1696C43.7694 24.1696 44.1356 21.5714 42.6573 21.2008C41.1791 20.8301 38.8544 22.1179 38.4838 25.8248C38.1132 29.5316 40.9939 29.3625 42.2867 28.8031C43.5795 28.2436 48.2105 24.0251 48.2105 24.0251" stroke="#DF4D20" stroke-width="1.54257" stroke-linecap="round"/>
<path d="M47.9526 24.6334C48.2369 23.937 49.7513 22.1498 50.405 21.9896C51.0587 21.8294 51.3854 22.4703 51.3854 22.4703C52.3659 24.1527 52.463 27.2771 49.9136 27.2771C47.7071 27.2771 47.462 25.8351 47.9526 24.6334Z" stroke="#DF4D20" stroke-width="1.54257"/>
<path d="M125.757 24.04C126.071 23.2648 127.743 21.2753 128.465 21.097C129.187 20.9186 129.548 21.6321 129.548 21.6321C130.63 23.5049 130.738 26.983 127.922 26.983C125.486 26.983 125.215 25.3777 125.757 24.04Z" stroke="#DF4D20" stroke-width="1.54257"/>
<path d="M84.3765 24.3633C84.659 23.6662 86.1688 21.875 86.8221 21.7131C87.4753 21.5512 87.8037 22.1912 87.8037 22.1912C88.7886 23.8711 88.8938 26.9953 86.3444 27.0019C84.138 27.0077 83.8891 25.5663 84.3765 24.3633Z" stroke="#DF4D20" stroke-width="1.54257"/>
<path d="M50.4863 21.1406C51.5295 22.658 54.2509 22.2975 56.8218 21.3549" stroke="#DF4D20" stroke-width="1.54257" stroke-linecap="round"/>
<path d="M57.7017 21.5818C57.8042 21.1684 57.5522 20.7501 57.1388 20.6476C56.7253 20.545 56.307 20.797 56.2045 21.2105L56.9531 21.3962L57.7017 21.5818ZM55.339 27.9029L54.5904 27.7172L55.9692 28.3476L55.339 27.9029ZM63.5842 21.3631L62.8834 21.6853L63.5842 21.3631ZM62.9217 27.9938L62.1647 27.8459L63.575 28.4038L62.9217 27.9938ZM80.385 26.6046L80.6036 25.8649V25.8649L80.385 26.6046ZM87.2025 23.3387C87.4698 23.007 87.4177 22.5215 87.086 22.2541C86.7544 21.9868 86.2688 22.039 86.0015 22.3706L86.602 22.8546L87.2025 23.3387ZM56.9531 21.3962L56.2045 21.2105L54.5904 27.7172L55.339 27.9029L56.0876 28.0886L57.7017 21.5818L56.9531 21.3962ZM55.339 27.9029C55.9692 28.3476 55.9692 28.3476 55.9692 28.3476C55.9693 28.3475 55.9693 28.3475 55.9693 28.3474C55.9694 28.3473 55.9695 28.3472 55.9697 28.3469C55.97 28.3464 55.9705 28.3457 55.9712 28.3447C55.9726 28.3428 55.9747 28.3398 55.9775 28.3359C55.983 28.3281 55.9913 28.3163 56.0022 28.3009C56.0241 28.27 56.0565 28.2243 56.0983 28.1654C56.1819 28.0476 56.3034 27.8769 56.4543 27.6659C56.7561 27.2439 57.1756 26.661 57.6459 26.0176C58.5908 24.7249 59.726 23.2087 60.526 22.2567L59.9356 21.7605L59.3451 21.2643C58.5075 22.261 57.3445 23.816 56.4005 25.1073C55.9264 25.756 55.5037 26.3433 55.1996 26.7685C55.0475 26.9811 54.925 27.1533 54.8404 27.2725C54.7981 27.332 54.7653 27.3784 54.7431 27.4098C54.7319 27.4256 54.7234 27.4376 54.7176 27.4458C54.7148 27.4498 54.7126 27.4529 54.7111 27.455C54.7104 27.4561 54.7098 27.4569 54.7094 27.4574C54.7092 27.4577 54.7091 27.4579 54.709 27.458C54.7089 27.4581 54.7089 27.4582 54.7089 27.4582C54.7088 27.4583 54.7088 27.4583 55.339 27.9029ZM59.9356 21.7605L60.526 22.2567C61.292 21.3453 61.8647 21.1095 62.1714 21.0979C62.3963 21.0895 62.6606 21.2005 62.8834 21.6853L63.5842 21.3631L64.285 21.041C63.8902 20.182 63.1489 19.5175 62.1133 19.5565C61.1595 19.5924 60.2167 20.2271 59.3451 21.2643L59.9356 21.7605ZM63.5842 21.3631L62.8834 21.6853C62.8729 21.6624 62.9013 21.7285 62.9129 21.9635C62.9232 22.1709 62.918 22.4399 62.8982 22.759C62.8588 23.3953 62.7655 24.1703 62.656 24.9308C62.5471 25.6883 62.4241 26.4179 62.3282 26.959C62.2803 27.2292 62.2393 27.4517 62.2103 27.6064C62.1958 27.6837 62.1843 27.744 62.1765 27.7848C62.1726 27.8052 62.1696 27.8207 62.1676 27.8309C62.1666 27.8361 62.1659 27.8399 62.1654 27.8425C62.1652 27.8437 62.165 27.8446 62.1649 27.8452C62.1648 27.8455 62.1648 27.8457 62.1648 27.8458C62.1647 27.8459 62.1647 27.8459 62.1647 27.8459C62.1647 27.8459 62.1647 27.8459 62.9217 27.9938C63.6787 28.1416 63.6787 28.1416 63.6787 28.1415C63.6787 28.1414 63.6787 28.1413 63.6788 28.1412C63.6788 28.141 63.6789 28.1407 63.679 28.1403C63.6791 28.1395 63.6793 28.1384 63.6796 28.1369C63.6802 28.1339 63.681 28.1297 63.6821 28.1241C63.6843 28.1129 63.6874 28.0964 63.6915 28.0751C63.6997 28.0324 63.7116 27.9701 63.7265 27.8906C63.7563 27.7317 63.7982 27.5041 63.8471 27.2282C63.9448 26.6769 64.0708 25.9299 64.1829 25.1505C64.2946 24.3741 64.3946 23.5518 64.4378 22.8543C64.4594 22.5065 64.4678 22.1745 64.4536 21.8872C64.4407 21.6275 64.4065 21.3053 64.285 21.041L63.5842 21.3631ZM62.9217 27.9938C63.575 28.4038 63.575 28.4038 63.575 28.4038C63.575 28.4038 63.575 28.4038 63.575 28.4037C63.5752 28.4035 63.5754 28.4032 63.5756 28.4028C63.5762 28.4019 63.5771 28.4004 63.5784 28.3984C63.5809 28.3944 63.5848 28.3882 63.59 28.38C63.6005 28.3635 63.6163 28.3386 63.637 28.3061C63.6786 28.2412 63.7401 28.1457 63.8187 28.0254C63.9761 27.7847 64.202 27.4449 64.4746 27.0508C65.0222 26.2592 65.7488 25.2624 66.4828 24.4094C66.85 23.9827 67.2094 23.6033 67.5411 23.307C67.8832 23.0013 68.1505 22.8253 68.3327 22.7531C68.5061 22.6843 68.4357 22.7639 68.3365 22.6812C68.3055 22.6553 68.4214 22.7395 68.4773 23.2455L69.2439 23.1608L70.0105 23.0761C69.9433 22.4681 69.7693 21.8679 69.3252 21.4971C68.8131 21.0694 68.2064 21.1437 67.764 21.3192C67.3304 21.4911 66.9025 21.8089 66.5133 22.1567C66.1137 22.5137 65.7059 22.9474 65.3136 23.4032C64.5286 24.3155 63.7669 25.3624 63.206 26.1732C62.9244 26.5803 62.691 26.9315 62.5276 27.1813C62.4459 27.3063 62.3817 27.406 62.3376 27.475C62.3155 27.5094 62.2985 27.5362 62.2869 27.5546C62.2811 27.5638 62.2766 27.5708 62.2735 27.5757C62.2719 27.5782 62.2708 27.5801 62.2699 27.5814C62.2695 27.5821 62.2692 27.5826 62.2689 27.583C62.2688 27.5832 62.2687 27.5834 62.2686 27.5835C62.2685 27.5837 62.2684 27.5838 62.9217 27.9938ZM69.2439 23.1608L68.4773 23.2455C68.5984 24.3417 68.6352 25.1173 68.6185 25.6643C68.6014 26.2246 68.529 26.481 68.4816 26.5831C68.4578 26.6344 68.4772 26.5862 68.5319 26.5693C68.5334 26.5688 68.5288 26.5704 68.5149 26.5726C68.5006 26.5749 68.4805 26.5773 68.4501 26.5797C68.4257 26.5817 68.2659 26.5909 68.1799 26.6004L68.2646 27.367L68.3493 28.1336C68.4248 28.1252 68.4321 28.1288 68.5745 28.1173C68.6775 28.109 68.8264 28.0928 68.9868 28.0432C69.3626 27.9273 69.6788 27.6674 69.8806 27.2331C70.0587 26.8496 70.1409 26.3463 70.1603 25.7114C70.1801 25.0631 70.1356 24.2079 70.0105 23.0761L69.2439 23.1608ZM68.2646 27.367L68.1799 26.6004C68.2884 26.5884 68.443 26.6002 68.5983 26.6897C68.7515 26.778 68.836 26.902 68.8782 26.9923C68.9472 27.1402 68.9289 27.2489 68.9315 27.2114C68.9344 27.1715 68.9596 27.0394 69.0424 26.7984C69.1994 26.341 69.4958 25.6843 69.8869 24.981C70.2769 24.2796 70.7456 23.5599 71.2369 22.9684C71.7425 22.3596 72.2119 21.9602 72.5878 21.7993L72.2843 21.0902L71.9808 20.3812C71.2641 20.6879 70.6041 21.3159 70.0502 21.9828C69.482 22.667 68.9612 23.4715 68.5387 24.2313C68.1173 24.9891 67.7781 25.7307 67.5834 26.2973C67.4904 26.5683 67.4106 26.8547 67.3929 27.1008C67.3854 27.2063 67.3778 27.4249 67.4804 27.6447C67.5393 27.771 67.6463 27.9214 67.8279 28.0261C68.0116 28.132 68.2004 28.15 68.3493 28.1336L68.2646 27.367ZM72.2843 21.0902L72.5878 21.7993C72.7486 21.7304 72.7028 21.7986 72.5823 21.738C72.4783 21.6857 72.496 21.6238 72.5412 21.7628C72.6372 22.0586 72.6532 22.6144 72.6048 23.3627C72.5819 23.7168 72.5476 24.0827 72.513 24.4445C72.4789 24.8008 72.444 25.1589 72.4232 25.476C72.4029 25.7848 72.3923 26.1013 72.4196 26.3644C72.433 26.4936 72.4597 26.6575 72.5252 26.8163C72.5879 26.9685 72.7348 27.2298 73.0543 27.3566L73.3388 26.6397L73.6233 25.9228C73.8573 26.0157 73.9382 26.1966 73.9513 26.2285C73.9672 26.2669 73.9607 26.2704 73.9539 26.2055C73.941 26.0805 73.9429 25.8744 73.9624 25.5771C73.9814 25.2882 74.0136 24.9567 74.0485 24.5913C74.083 24.2314 74.1196 23.8432 74.1442 23.4621C74.1908 22.7401 74.2079 21.9009 74.0083 21.2863C73.9056 20.9701 73.7012 20.5741 73.2755 20.36C72.8333 20.1375 72.3663 20.2161 71.9808 20.3812L72.2843 21.0902ZM73.3388 26.6397L73.0543 27.3566C73.3897 27.4897 73.6868 27.3838 73.8351 27.3102C73.9914 27.2326 74.1217 27.1243 74.2183 27.034C74.4161 26.8493 74.6231 26.5957 74.82 26.3373C75.0222 26.0718 75.2417 25.7635 75.4633 25.4515C75.6876 25.1356 75.9164 24.8126 76.1473 24.5018C76.6255 23.858 77.051 23.3537 77.383 23.1054C77.5554 22.9764 77.5936 23.001 77.5267 23.0012C77.3787 23.0016 77.3167 22.898 77.3446 22.9435L78.002 22.5401L78.6594 22.1368C78.4215 21.749 78.0359 21.4571 77.5222 21.4586C77.0896 21.4599 76.7202 21.6748 76.4591 21.8701C75.9238 22.2705 75.3782 22.9503 74.909 23.5819C74.6662 23.9088 74.4271 24.2464 74.2056 24.5583C73.9812 24.8742 73.7767 25.1611 73.5928 25.4026C73.4035 25.6512 73.2621 25.8164 73.1654 25.9067C73.1148 25.954 73.1113 25.9473 73.1493 25.9285C73.1792 25.9136 73.3733 25.8236 73.6233 25.9228L73.3388 26.6397ZM78.002 22.5401L77.3446 22.9435C77.8329 23.7393 78.0764 24.5455 78.4184 25.3789C78.7181 26.1094 79.1625 27.0476 80.1664 27.3443L80.385 26.6046L80.6036 25.8649C80.38 25.7989 80.1646 25.5713 79.8455 24.7934C79.5686 24.1186 79.2344 23.074 78.6594 22.1368L78.002 22.5401ZM80.385 26.6046L80.1664 27.3443C81.0608 27.6086 81.974 27.3969 82.7606 27.044C83.5549 26.6875 84.3131 26.146 84.9565 25.6065C85.6045 25.0632 86.1635 24.4985 86.5589 24.0723C86.7573 23.8584 86.9161 23.6775 87.0262 23.549C87.0813 23.4847 87.1243 23.4335 87.1541 23.3976C87.1689 23.3797 87.1805 23.3656 87.1886 23.3557C87.1927 23.3508 87.1959 23.3468 87.1982 23.344C87.1994 23.3425 87.2003 23.3414 87.201 23.3405C87.2014 23.3401 87.2017 23.3397 87.2019 23.3394C87.202 23.3392 87.2022 23.339 87.2022 23.339C87.2024 23.3388 87.2025 23.3387 86.602 22.8546C86.0015 22.3706 86.0016 22.3705 86.0017 22.3704C86.0017 22.3704 86.0017 22.3703 86.0017 22.3703C86.0018 22.3703 86.0017 22.3703 86.0017 22.3704C86.0015 22.3706 86.0011 22.3711 86.0005 22.3718C85.9993 22.3733 85.9972 22.3758 85.9943 22.3794C85.9885 22.3865 85.9794 22.3977 85.967 22.4126C85.9422 22.4425 85.9045 22.4874 85.8551 22.5451C85.7562 22.6604 85.6108 22.8261 85.4279 23.0233C85.0606 23.4193 84.5491 23.9351 83.9654 24.4245C83.377 24.9178 82.7422 25.3614 82.129 25.6366C81.508 25.9153 80.9991 25.9818 80.6036 25.8649L80.385 26.6046Z" fill="#DF4D20"/>
<path d="M91.4454 20.168C91.4454 20.168 91.7453 20.3822 91.7453 21.7962C91.7453 23.2103 90.417 27.6524 90.417 27.6524C92.818 23.5253 98.2748 17.0583 98.2748 24.3061C98.2748 27.3178 101.767 27.5409 103.186 24.6407" stroke="#DF4D20" stroke-width="1.54257" stroke-linecap="round"/>
<path d="M118.281 24.2476C124.316 23.8165 122.971 19.6342 120.005 21.4459C116.125 23.8165 118.047 29.9754 124.34 26.0577C133.84 20.143 128.554 21.0672 128.554 21.0672" stroke="#DF4D20" stroke-width="1.54257" stroke-linecap="round"/>
<path d="M147.893 25.7499C153.325 23.0838 150.507 19.7129 148.439 22.5055C145.733 26.1598 149.001 30.5309 154.355 25.4042C156.078 23.7543 157.675 22.3832 157.675 22.3832" stroke="#DF4D20" stroke-width="1.54257" stroke-linecap="round"/>
<path d="M110.777 20.1807C110.777 19.7547 110.432 19.4094 110.006 19.4094C109.58 19.4094 109.234 19.7547 109.234 20.1807H110.006H110.777ZM106.485 38.3312L105.727 38.1882C105.649 38.6064 105.923 39.0094 106.341 39.0889C106.759 39.1684 107.163 38.8942 107.243 38.4762L106.485 38.3312ZM114.456 21.0707L114.067 21.7369L114.456 21.0707ZM118.559 25.016C118.983 24.9833 119.301 24.6125 119.268 24.1878C119.236 23.7631 118.865 23.4453 118.44 23.478L118.499 24.247L118.559 25.016ZM110.006 20.1807H109.234C109.234 20.1139 109.245 20.0629 109.236 20.122C109.232 20.147 109.226 20.1857 109.216 20.2396C109.197 20.3466 109.169 20.5001 109.133 20.6965C109.06 21.0886 108.954 21.6426 108.823 22.317C108.563 23.6655 108.207 25.4902 107.822 27.4537C107.054 31.379 106.173 35.8601 105.728 38.1861L106.485 38.3312L107.243 38.4762C107.687 36.1543 108.567 31.6788 109.336 27.7501C109.721 25.7867 110.077 23.9601 110.338 22.6094C110.468 21.9342 110.575 21.3765 110.649 20.9796C110.686 20.7815 110.715 20.6212 110.736 20.5055C110.746 20.4481 110.754 20.3982 110.76 20.3589C110.761 20.3535 110.777 20.2623 110.777 20.1807H110.006ZM106.485 38.3312L107.243 38.4742C107.733 35.8762 108.842 31.096 110.254 27.2353C110.965 25.293 111.728 23.6512 112.491 22.6323C112.876 22.1195 113.209 21.8336 113.473 21.7119C113.689 21.6122 113.859 21.6156 114.067 21.7369L114.456 21.0707L114.845 20.4045C114.178 20.0157 113.474 20.0122 112.826 20.3114C112.226 20.5885 111.706 21.1072 111.257 21.7074C110.352 22.9146 109.527 24.7327 108.806 26.7054C107.354 30.6747 106.226 35.5448 105.727 38.1882L106.485 38.3312ZM114.456 21.0707L114.067 21.7369C114.557 22.0226 114.716 22.367 114.735 22.7432C114.757 23.1755 114.591 23.7238 114.251 24.3153C113.918 24.8956 113.456 25.4473 112.992 25.866C112.501 26.31 112.112 26.5107 111.94 26.5429L112.082 27.301L112.224 28.0591C112.83 27.9457 113.482 27.5025 114.027 27.0105C114.599 26.4934 115.167 25.8173 115.589 25.0841C116.004 24.362 116.318 23.5113 116.275 22.6651C116.23 21.7628 115.779 20.9495 114.845 20.4045L114.456 21.0707ZM112.082 27.301L111.94 26.5429C111.806 26.5681 111.895 26.5165 112.051 26.6084C112.149 26.6661 112.242 26.7652 112.292 26.8986C112.337 27.0214 112.327 27.1205 112.318 27.1632C112.305 27.2312 112.29 27.2053 112.39 27.0875C112.479 26.9834 112.626 26.8451 112.845 26.6868C113.729 26.0493 115.576 25.2454 118.559 25.016L118.499 24.247L118.44 23.478C115.252 23.7232 113.113 24.5919 111.943 25.4355C111.649 25.6475 111.403 25.8675 111.215 26.0881C111.039 26.2949 110.865 26.56 110.805 26.8636C110.773 27.024 110.768 27.227 110.846 27.4372C110.928 27.658 111.082 27.828 111.267 27.9372C111.598 28.1322 111.97 28.1067 112.224 28.0591L112.082 27.301Z" fill="#DF4D20"/>
<path d="M133.553 20.1807H134.324C134.324 19.8487 134.112 19.5539 133.797 19.4489C133.482 19.344 133.135 19.4524 132.936 19.718L133.553 20.1807ZM129.589 38.553L128.818 38.5224C128.802 38.9257 129.1 39.2731 129.501 39.3192C129.902 39.3653 130.271 39.0945 130.347 38.698L129.589 38.553ZM138.003 21.0707L137.55 21.6951L138.003 21.0707ZM133.276 24.6643C132.955 24.384 132.468 24.4168 132.187 24.7375C131.907 25.0583 131.94 25.5455 132.261 25.8258L132.768 25.2451L133.276 24.6643ZM126.45 23.0406C126.029 22.9774 125.636 23.2677 125.573 23.689C125.51 24.1102 125.8 24.5029 126.222 24.5661L126.336 23.8034L126.45 23.0406ZM133.553 20.1807H132.781C132.781 20.1405 132.785 20.1105 132.785 20.1061C132.786 20.0963 132.787 20.0901 132.787 20.0895C132.788 20.0881 132.787 20.0924 132.785 20.1051C132.78 20.1297 132.773 20.1683 132.762 20.2229C132.74 20.331 132.707 20.4866 132.665 20.6861C132.58 21.0842 132.456 21.6467 132.305 22.3318C132.003 23.7029 131.592 25.5529 131.152 27.5465C130.273 31.5248 129.279 36.0708 128.831 38.4079L129.589 38.553L130.347 38.698C130.789 36.3872 131.777 31.8657 132.658 27.8792C133.097 25.8903 133.51 24.0336 133.812 22.6639C133.963 21.9785 134.087 21.4121 134.173 21.0091C134.216 20.808 134.25 20.6449 134.274 20.5272C134.286 20.4688 134.296 20.4177 134.303 20.377C134.307 20.3571 134.31 20.3349 134.314 20.3134C134.314 20.3096 134.324 20.249 134.324 20.1807H133.553ZM129.589 38.553L130.36 38.5836C130.468 35.8636 131.296 30.6534 132.713 26.5998C133.428 24.556 134.256 22.9157 135.14 22.0114C135.574 21.5678 135.968 21.3565 136.316 21.3041C136.644 21.2545 137.046 21.3291 137.55 21.6951L138.003 21.0707L138.456 20.4463C137.698 19.8966 136.897 19.6564 136.086 19.7787C135.294 19.8982 134.612 20.3454 134.037 20.933C132.905 22.0912 131.987 24.0037 131.257 26.0906C129.786 30.2982 128.932 35.6604 128.818 38.5224L129.589 38.553ZM138.003 21.0707L137.55 21.6951C137.971 22.0006 138.175 22.4775 138.159 23.0586C138.142 23.653 137.889 24.3085 137.449 24.8253C137.014 25.3361 136.43 25.6735 135.766 25.7174C135.11 25.7608 134.259 25.524 133.276 24.6643L132.768 25.2451L132.261 25.8258C133.476 26.8884 134.714 27.3329 135.868 27.2566C137.016 27.1806 137.966 26.5971 138.623 25.8257C139.275 25.0604 139.673 24.0724 139.701 23.1019C139.728 22.1181 139.369 21.1087 138.456 20.4463L138.003 21.0707ZM133.553 20.1807C132.936 19.718 132.936 19.718 132.936 19.7179C132.936 19.7179 132.936 19.7179 132.936 19.7179C132.936 19.7179 132.936 19.7179 132.936 19.718C132.936 19.7182 132.935 19.7185 132.935 19.719C132.934 19.7201 132.933 19.7218 132.931 19.7242C132.927 19.729 132.922 19.7364 132.914 19.7464C132.899 19.7664 132.876 19.7963 132.846 19.835C132.786 19.9124 132.698 20.0245 132.588 20.161C132.368 20.4348 132.06 20.8036 131.712 21.1865C131.362 21.5712 130.98 21.9599 130.61 22.2784C130.226 22.6086 129.911 22.8143 129.692 22.8948L129.959 23.6185L130.225 24.3423C130.709 24.164 131.194 23.8106 131.616 23.4477C132.051 23.0731 132.48 22.6346 132.853 22.2245C133.228 21.8127 133.555 21.4191 133.789 21.1291C133.906 20.9838 134 20.8637 134.066 20.7793C134.098 20.7372 134.124 20.7039 134.142 20.6808C134.15 20.6692 134.157 20.6602 134.162 20.6539C134.164 20.6508 134.166 20.6483 134.167 20.6465C134.168 20.6456 134.169 20.6449 134.169 20.6444C134.169 20.6441 134.169 20.6439 134.17 20.6437C134.17 20.6436 134.17 20.6435 134.17 20.6435C134.17 20.6434 134.17 20.6433 133.553 20.1807ZM129.959 23.6185L129.692 22.8948C129.132 23.1012 128.347 23.1519 127.64 23.134C127.298 23.1253 126.997 23.1015 126.782 23.0799C126.674 23.0691 126.589 23.0589 126.532 23.0516C126.503 23.0479 126.481 23.045 126.468 23.0431C126.461 23.0421 126.456 23.0414 126.453 23.041C126.451 23.0408 126.45 23.0406 126.45 23.0406C126.45 23.0405 126.45 23.0405 126.45 23.0405C126.45 23.0405 126.45 23.0406 126.45 23.0406C126.45 23.0406 126.45 23.0406 126.45 23.0406C126.45 23.0406 126.45 23.0406 126.336 23.8034C126.222 24.5661 126.222 24.5661 126.222 24.5662C126.222 24.5662 126.222 24.5662 126.222 24.5662C126.222 24.5662 126.223 24.5663 126.223 24.5663C126.223 24.5664 126.224 24.5665 126.225 24.5667C126.227 24.5669 126.229 24.5672 126.232 24.5676C126.237 24.5684 126.245 24.5695 126.255 24.5709C126.274 24.5736 126.302 24.5773 126.336 24.5817C126.406 24.5906 126.505 24.6024 126.627 24.6147C126.872 24.6392 127.212 24.6662 127.601 24.6761C128.354 24.6951 129.381 24.6535 130.225 24.3423L129.959 23.6185Z" fill="#DF4D20"/>
<path d="M146.112 11.6829L146.713 11.1993C146.553 11.0011 146.307 10.8944 146.053 10.9138C145.799 10.9333 145.572 11.0766 145.444 11.2968L146.112 11.6829ZM148.363 26.4848C148.752 26.3109 148.926 25.8547 148.753 25.4659C148.579 25.077 148.122 24.9028 147.734 25.0767L148.048 25.7808L148.363 26.4848ZM141.318 20.9378C141.041 21.2609 141.078 21.7479 141.401 22.0254C141.724 22.3029 142.211 22.2659 142.489 21.9427L141.904 21.4402L141.318 20.9378ZM146.112 11.6829C145.444 11.2968 145.444 11.2969 145.444 11.2971C145.444 11.2972 145.444 11.2974 145.444 11.2976C145.444 11.2981 145.443 11.2987 145.443 11.2995C145.442 11.301 145.441 11.3032 145.439 11.3061C145.436 11.3119 145.431 11.3202 145.425 11.3311C145.412 11.3529 145.394 11.3849 145.37 11.4265C145.323 11.5096 145.255 11.6312 145.169 11.7865C144.996 12.0971 144.753 12.5431 144.468 13.0873C143.898 14.1744 143.156 15.6595 142.476 17.2437C141.798 18.8218 141.168 20.5274 140.835 22.0486C140.669 22.8092 140.571 23.5504 140.589 24.2218C140.606 24.8865 140.739 25.5471 141.095 26.0878L141.739 25.6636L142.383 25.2395C142.245 25.0301 142.144 24.6912 142.131 24.1812C142.117 23.6778 142.191 23.0689 142.342 22.3781C142.644 20.9967 143.231 19.3946 143.893 17.8525C144.553 16.3166 145.275 14.8691 145.834 13.8036C146.113 13.2715 146.35 12.8362 146.518 12.5346C146.601 12.3838 146.667 12.2665 146.712 12.1873C146.735 12.1478 146.752 12.1177 146.763 12.0978C146.769 12.0878 146.773 12.0804 146.776 12.0755C146.777 12.0731 146.778 12.0714 146.779 12.0702C146.779 12.0697 146.78 12.0693 146.78 12.0691C146.78 12.069 146.78 12.0689 146.78 12.0689C146.78 12.0689 146.78 12.0689 146.112 11.6829ZM141.739 25.6636L141.095 26.0878C141.68 26.976 142.411 27.5039 143.216 27.7424C144.004 27.9758 144.795 27.9122 145.488 27.744C146.18 27.5756 146.817 27.292 147.318 27.0383C147.57 26.9108 147.796 26.7872 147.977 26.688C148.171 26.5819 148.289 26.5182 148.363 26.4848L148.048 25.7808L147.734 25.0767C147.589 25.1414 147.407 25.2415 147.236 25.3349C147.053 25.4354 146.849 25.5473 146.622 25.6616C146.167 25.8916 145.651 26.1167 145.123 26.245C144.595 26.3735 144.097 26.3946 143.654 26.2634C143.228 26.1373 142.786 25.8514 142.383 25.2395L141.739 25.6636ZM146.112 11.6829L145.511 12.1664C145.878 12.6219 146.033 13.0553 146.045 13.5107C146.057 13.9852 145.915 14.5519 145.566 15.2616C144.855 16.7055 143.414 18.498 141.318 20.9378L141.904 21.4402L142.489 21.9427C144.554 19.5381 146.136 17.595 146.95 15.9429C147.362 15.1045 147.608 14.2831 147.587 13.4707C147.565 12.6392 147.266 11.8869 146.713 11.1993L146.112 11.6829Z" fill="#DF4D20"/>
<path d="M11.7687 19.4626C11.1209 20.0297 10.3817 19.8713 9.88919 19.3087C9.39669 18.7461 9.33739 17.9924 9.98522 17.4253C10.633 16.8582 11.5575 16.8545 12.05 17.4171C12.5425 17.9797 12.4165 18.8955 11.7687 19.4626Z" fill="#DF4D20"/>
</svg>
