<?xml version="1.0" encoding="utf-8"?>
<!-- Generator: Adobe Illustrator 18.1.0, SVG Export Plug-In . SVG Version: 6.00 Build 0)  -->
<svg version="1.1"
	 id="svg2" xmlns:svg="http://www.w3.org/2000/svg" xmlns:cc="http://creativecommons.org/ns#" xmlns:rdf="http://www.w3.org/1999/02/22-rdf-syntax-ns#" xmlns:inkscape="http://www.inkscape.org/namespaces/inkscape" xmlns:dc="http://purl.org/dc/elements/1.1/"
	 xmlns="http://www.w3.org/2000/svg" xmlns:xlink="http://www.w3.org/1999/xlink" x="0px" y="0px" viewBox="74 -106.5 137.5 176.1"
	 enable-background="new 74 -106.5 137.5 176.1" xml:space="preserve">
<g id="g12" transform="translate(243.2162,367.7519)">
	<path id="path14" inkscape:connector-curvature="0" fill="#FFFFFF" d="M-169.2-319.1v2.8h5.4v18.1h3.1v-18.1h5.5v-2.8H-169.2z"/>
</g>
<g id="g16" transform="translate(285.8978,396.7351)">
	<path id="path18" inkscape:connector-curvature="0" fill="#FFFFFF" d="M-158.5-384.3l19.9-39.8l14.6,3.6l0,44.7l-10.9-2.7l0.1-8.6
		l-9.4-2.3l-3.7,7.7L-158.5-384.3z M-199.5-470.1h11.1v33.4h19.1v10.1h-30.2V-470.1z M-98.5-470.1h13.4l-13.7,20.8l14.1,22.6h-13.5
		l-9.9-19.1v19.1h-11.1v-43.4h11.1v17.8C-108.2-452.2-98.5-470.1-98.5-470.1z M-165-489.3l15-1.3l13.9,42.4l-11.2,1l-2.6-8.2
		l-9.7,0.9l-1.1,8.5l-10.8,1C-171.5-445.1-165-489.3-165-489.3z M-211.9-363.4h137.5v-139.8h-137.5
		C-211.9-503.2-211.9-363.4-211.9-363.4z"/>
</g>
<g id="g20" transform="translate(268.0353,367.7519)">
	<path id="path22" inkscape:connector-curvature="0" fill="#FFFFFF" d="M-163-319.1v8.6h-6.7v-8.6h-3.1v21h3.1v-9.5h6.7v9.5h3.1
		l0-21H-163z"/>
</g>
<g id="g24" transform="translate(278.063,367.7519)">
	<path id="path26" inkscape:connector-curvature="0" fill="#FFFFFF" d="M-160.5-319.1v21h12.7v-2.8h-9.7v-6.7h8v-2.9h-8v-5.7h9.3
		v-2.8H-160.5z"/>
</g>
<g id="g28" transform="translate(299.3258,364.7637)">
	<path id="path30" inkscape:connector-curvature="0" fill="#FFFFFF" d="M-155.2-312.3l2.3,8.9h-4.7L-155.2-312.3z M-157.1-316.1
		l-5.6,21h3.1l1.5-5.8h5.9l1.5,5.8h3.2l-5.6-21C-153-316.1-157.1-316.1-157.1-316.1z"/>
</g>
<g id="g32" transform="translate(308.4142,367.7519)">
	<path id="path34" inkscape:connector-curvature="0" fill="#FFFFFF" d="M-152.9-319.1v2.8h5.4v18.1h3.1v-18.1h5.5v-2.8H-152.9z"/>
</g>
<g id="g36" transform="translate(325.3563,367.7519)">
	<path id="path38" inkscape:connector-curvature="0" fill="#FFFFFF" d="M-148.7-319.1v21h12.7v-2.8h-9.7v-6.7h8v-2.9h-8v-5.7h9.3
		v-2.8H-148.7z"/>
</g>
<g id="g42">
	<g id="g48" transform="translate(346.9919,365.4919)">
		<path id="path50" inkscape:connector-curvature="0" fill="#FFFFFF" d="M-143.3-314h-3v6.6h3c2.2,0,3.4-1.3,3.4-3.3
			C-139.9-312.6-141.1-314-143.3-314 M-139.2-295.8l-4.7-8.7h-2.4v8.7h-3.1v-21h6.3c3.5,0,6.4,2.1,6.4,6.1c0,2.9-1.5,4.9-4,5.7
			l5.2,9.2C-135.5-295.8-139.2-295.8-139.2-295.8z"/>
	</g>
</g>
</svg>
