<svg width="78" height="78" viewBox="0 0 78 78" fill="none" xmlns="http://www.w3.org/2000/svg">
<path d="M41.9658 12.5395C48.2356 12.3228 54.4376 12.7832 60.4095 14.9093C63.6866 16.0739 66.5574 17.8478 68.3314 20.9353C70.6064 25.4447 70.9585 30.3468 70.5658 33.4072C70.0106 37.6864 69.3876 42.0468 68.0741 46.1364C65.1356 55.277 58.2429 60.5176 49.4272 63.4291C46.8408 64.2822 44.0918 64.6614 41.4106 65.203C40.6793 65.352 37.3751 66.1645 36.9689 64.377C36.6304 63.0499 38.0929 62.9687 38.8106 62.6978C41.072 61.8718 43.4283 61.303 45.7168 60.5312C46.5022 60.2603 48.4658 59.6374 48.3574 57.9853C48.3304 57.6468 47.6533 57.3082 47.247 57.2947C45.9606 57.2405 44.6741 57.227 43.4012 57.3759C34.9106 58.3103 26.7449 57.6874 19.3241 52.8666C17.0491 51.377 14.4356 50.3343 12.3637 48.601C7.74598 44.7551 6.8116 39.6228 7.56994 33.8405C8.55848 26.3655 13.0949 21.7343 19.2022 18.1187C25.8376 14.1916 33.1095 12.8239 40.6793 12.5395C41.0991 12.526 41.5324 12.5395 41.9658 12.5395ZM46.4616 62.2374C51.797 60.7478 56.1981 58.5135 59.9762 55.0874C62.9012 52.4468 65.6908 49.7385 66.9366 45.7978C68.4397 41.0447 69.1304 36.1562 69.1439 31.2135C69.1439 28.6947 68.7376 26.027 67.8439 23.6707C66.4897 20.0822 63.3481 18.1457 59.8679 16.8322C53.1783 14.327 46.272 13.7582 39.2168 14.6385C33.5293 15.3426 27.9366 16.3989 22.8043 19.1207C14.9501 23.278 9.39806 28.9655 9.37098 38.5801C9.35744 42.4395 10.671 45.7707 13.7585 47.802C17.0897 49.9822 20.8001 51.6749 24.5376 53.0968C30.2658 55.3041 36.3054 56.0353 42.4533 55.6832C44.1595 55.5885 45.9064 55.3853 47.5585 55.6562C49.996 56.0624 50.6189 58.5135 48.8585 60.2739C48.2356 60.8968 47.5179 61.3843 46.4616 62.2374Z" fill="black"/>
<path d="M24.6591 33.3937C26.1216 30.7937 28.5862 31.7822 29.805 33.6916C31.4164 36.2239 30.0487 41.3968 27.4758 42.927C26.1893 43.6989 24.5373 43.3197 23.7518 41.8708C23.2373 40.9093 22.3029 37.578 24.6591 33.3937ZM27.4081 33.5833C26.0946 33.5833 25.2008 38.0114 25.431 40.5166C25.4716 40.977 25.8643 41.627 26.2435 41.7624C26.5685 41.8843 28.3154 41.8572 28.7623 38.0926C28.9248 36.5489 29.1685 33.5833 27.4081 33.5833Z" fill="black"/>
<path d="M35.4798 31.9311C35.6287 31.4977 35.8048 30.78 36.4006 30.78C37.186 30.78 37.0506 31.6873 36.9693 32.0529C36.4141 34.9238 35.8318 37.7946 35.0871 40.6248C34.8704 41.4373 34.2339 42.5477 33.1506 42.0602C32.5818 41.8029 32.1079 40.7331 32.0673 40.0019C31.9454 37.5915 31.9725 35.1675 32.0943 32.7571C32.1214 32.2561 32.2568 31.1592 33.1912 31.3082C33.9496 31.3352 33.9902 32.2561 34.0579 32.7707C34.1933 33.8811 34.0714 36.0477 34.0714 37.1852C34.1391 37.2123 35.0193 33.3394 35.4798 31.9311Z" fill="black"/>
<path d="M18.065 44.3221C19.0941 44.3763 21.1525 43.9023 21.1389 44.471C21.2879 46.2315 18.0108 46.2585 16.941 45.92C15.8035 45.5544 15.6275 44.6335 15.7222 43.5773C16.0202 40.5304 16.2775 37.47 16.616 34.4231C16.7108 33.57 16.9004 32.5815 18.092 32.6762C19.3514 32.7846 19.1889 33.8273 19.1077 34.6669C18.8097 37.8221 18.4441 40.9773 18.065 44.3221Z" fill="black"/>
<path d="M40.9774 32.9469C40.9774 32.9875 40.9233 33.5156 41.3972 33.4885C42.467 33.4208 43.9024 33.1364 44.2951 33.2989C44.417 33.326 44.417 33.4208 44.4712 33.7323C44.5253 34.0437 43.5368 34.4094 43.0222 34.5583C41.966 34.8427 41.6816 34.8969 41.2212 34.9781C40.7201 35.0729 40.7337 36.2781 40.7608 37.9844C40.7337 38.35 43.1847 37.8489 43.4962 38.1333C43.618 38.3229 43.7128 39 43.3472 39.2979C42.968 39.5958 42.0472 39.7312 40.8014 39.7312C40.016 39.7312 38.6618 39.7989 38.5805 38.4448C38.4316 35.7635 38.6347 33.4208 39.4066 29.9C39.6503 29.2364 39.7045 29.1146 40.3951 28.9521C41.9795 28.6 44.6608 28.9656 44.918 29.0739C45.1347 29.1552 44.9993 29.7646 44.7285 29.8323C44.2816 29.9406 42.1691 30.0083 41.6274 30.1437C41.0451 30.2521 41.1805 31.2271 40.9774 32.9469Z" fill="black"/>
<path d="M61.2357 26.528C61.1409 26.7447 60.4503 26.7853 60.3148 26.8666C60.0846 29.9676 59.9763 32.9197 59.6107 35.8311C59.4617 37.0093 59.0555 37.3207 58.568 37.3343C58.0805 37.3343 57.4169 37.3478 57.3899 35.7228C57.2815 33.0957 57.3357 30.2384 57.3357 27.4218C57.1055 27.3541 56.0628 27.5166 55.9544 27.2051C55.8596 26.9343 55.8326 26.5416 56.1305 26.352C56.9836 26.0676 57.3628 26.0541 58.4596 25.9999C59.394 25.9593 60.1523 25.8374 61.1003 25.8645C61.3034 25.8645 61.2357 26.3655 61.2357 26.528Z" fill="black"/>
<path d="M53.0298 27.205C53.8423 27.3675 53.4902 28.5998 53.4495 29.2904C53.287 32.08 53.0704 34.8696 52.7589 37.6456C52.7183 38.0654 52.4204 38.9186 51.7027 38.8102C50.8902 38.8238 50.8766 38.0113 50.8902 37.6321C51.0256 34.6259 51.2423 31.6196 51.5266 28.6269C51.5808 28.0852 51.662 26.9613 52.4068 27.0831C52.61 27.1238 52.8266 27.1644 53.0298 27.205Z" fill="black"/>
<path d="M64.6887 34.6532C64.6887 35.3032 64.2554 35.574 63.3346 35.5605C63.0908 35.5605 62.4814 35.1407 62.4814 34.3688C62.4814 33.5969 63.1992 33.3938 63.7137 33.3938C64.5127 33.3938 64.6887 34.0032 64.6887 34.6532Z" fill="black"/>
</svg>
