<svg width="488" height="177" viewBox="0 0 488 177" fill="none" xmlns="http://www.w3.org/2000/svg">
<path d="M211.298 79.0027L389.345 53.7501C391.765 53.407 392.949 56.6002 390.891 57.9176C388.878 59.2059 389.959 62.3289 392.338 62.0969L399.014 61.4456C401.492 61.2038 402.491 64.5556 400.284 65.71C398.134 66.8352 399.017 70.0968 401.442 69.9826L405.796 69.7774C408.366 69.6563 409.186 73.1908 406.825 74.213C404.526 75.2081 405.226 78.6368 407.731 78.6512L409.555 78.6617C412.242 78.6771 412.882 82.4182 410.354 83.3261C407.898 84.208 408.41 87.8217 411.015 87.9858C413.696 88.1548 414.121 91.9264 411.545 92.6883L409.795 93.2058C407.393 93.9161 407.674 97.4042 410.159 97.7208C412.711 98.0461 412.907 101.669 410.405 102.267L406.165 103.281C403.804 103.846 403.862 107.225 406.241 107.707C408.682 108.202 408.654 111.7 406.206 112.157L399.613 113.388C397.264 113.826 397.094 117.127 399.385 117.804C401.728 118.498 401.479 121.894 399.059 122.237L45.1928 172.43C42.7733 172.773 41.5891 169.579 43.6473 168.262C45.6599 166.974 44.5786 163.851 42.2003 164.083L35.5244 164.734C33.0458 164.976 32.047 161.624 34.2536 160.47C36.4044 159.345 35.5209 156.083 33.0962 156.197L28.7417 156.402C26.1716 156.523 25.3521 152.989 27.7133 151.967C30.0119 150.972 29.3118 147.543 26.8072 147.529L24.9826 147.518C22.2961 147.503 21.6559 143.762 24.1843 142.854C26.6401 141.972 26.1275 138.358 23.5233 138.194C20.8422 138.025 20.4169 134.253 22.993 133.491L24.7428 132.974C27.1446 132.264 26.8636 128.776 24.379 128.459C21.8266 128.134 21.6309 124.511 24.1333 123.912L28.3732 122.898C30.734 122.334 30.6756 118.955 28.2968 118.472C25.8562 117.977 25.8835 114.48 28.3316 114.023L34.9251 112.792C37.2742 112.354 37.4444 109.053 35.1529 108.375C32.8095 107.682 33.0591 104.286 35.4785 103.942L211.298 79.0027Z" fill="#57FF8C"/>
<rect x="82.5332" y="115.974" width="260.683" height="32.1305" rx="6.12863" transform="rotate(-8.07295 82.5332 115.974)" fill="#57FF8C"/>
<path d="M114.255 133.255L112.434 133.514L110.928 122.895L112.9 122.615L119.298 129.863L118.164 121.869L119.984 121.61L121.491 132.229L119.519 132.509L113.121 125.261L114.255 133.255ZM127.244 131.645C124.635 132.015 122.858 130.395 122.505 127.907C122.133 125.283 123.686 123.468 126.037 123.135C128.631 122.767 130.407 124.372 130.742 126.739C131.127 129.454 129.641 131.305 127.244 131.645ZM127.027 130.113C128.468 129.909 129.15 128.605 128.922 126.997C128.696 125.404 127.65 124.469 126.255 124.667C124.859 124.865 124.099 126.056 124.325 127.649C124.575 129.409 125.707 130.3 127.027 130.113ZM137.819 129.913L136.029 130.167L134.888 122.127L136.329 121.923L136.649 123.084C137.031 122.179 137.964 121.443 139.162 121.273C140.876 121.03 142.162 122.024 142.418 123.829L143.174 129.154L141.384 129.408L140.641 124.174C140.514 123.279 139.839 122.771 138.838 122.913C137.67 123.079 136.995 123.995 137.128 125.044L137.819 129.913ZM148.636 128.611C146.179 128.959 144.246 127.439 143.897 124.981C143.52 122.326 145.033 120.441 147.278 120.122C149.553 119.799 151.296 121.177 151.712 123.78L151.772 124.205L145.734 125.061C146.056 126.455 147.071 127.285 148.436 127.092C149.362 126.961 149.995 126.406 150.154 125.564L151.899 125.316C151.734 127.104 150.533 128.342 148.636 128.611ZM145.632 123.791L149.743 123.208C149.352 122.087 148.54 121.491 147.493 121.639C146.431 121.79 145.741 122.599 145.632 123.791ZM157.436 127.363C154.979 127.711 153.045 126.19 152.697 123.733C152.32 121.078 153.832 119.193 156.077 118.874C158.353 118.551 160.096 119.929 160.511 122.532L160.572 122.956L154.534 123.813C154.855 125.206 155.871 126.037 157.236 125.844C158.161 125.712 158.795 125.158 158.954 124.316L160.698 124.068C160.534 125.856 159.332 127.094 157.436 127.363ZM154.431 122.543L158.542 121.96C158.151 120.839 157.339 120.243 156.293 120.391C155.231 120.542 154.541 121.351 154.431 122.543ZM165.826 126.173C163.657 126.48 161.845 124.942 161.486 122.409C161.133 119.921 162.419 117.974 164.558 117.671C165.696 117.51 166.703 117.847 167.372 118.525L166.759 114.202L168.549 113.948L170.163 125.326L168.722 125.53L168.353 124.128C168.042 125.209 167.131 125.988 165.826 126.173ZM165.945 124.608C167.265 124.421 168.026 123.137 167.794 121.499C167.568 119.906 166.501 118.928 165.196 119.113C163.861 119.302 163.095 120.556 163.323 122.164C163.553 123.787 164.625 124.796 165.945 124.608ZM179.928 123.94L178.896 124.087C177.152 124.334 176.088 123.603 175.862 122.01L175.286 117.945L173.875 118.145L173.66 116.628L175.071 116.428L174.681 113.682L176.471 113.428L176.861 116.174L178.939 115.879L179.154 117.396L177.076 117.691L177.635 121.635C177.732 122.318 178.135 122.647 178.802 122.553L179.712 122.423L179.928 123.94ZM184.961 123.459C182.351 123.829 180.574 122.208 180.221 119.721C179.849 117.096 181.402 115.282 183.753 114.948C186.348 114.581 188.123 116.186 188.458 118.552C188.843 121.268 187.357 123.119 184.961 123.459ZM184.743 121.927C186.184 121.722 186.866 120.418 186.638 118.81C186.412 117.218 185.366 116.283 183.971 116.481C182.575 116.679 181.816 117.87 182.042 119.462C182.291 121.222 183.423 122.114 184.743 121.927ZM198.252 121.573C196.978 121.754 195.826 121.268 195.181 120.322L195.216 121.772L193.775 121.976L192.161 110.599L193.952 110.345L194.573 114.729C195.038 113.859 195.923 113.222 197.06 113.061C199.184 112.76 200.931 114.276 201.284 116.764C201.643 119.297 200.391 121.27 198.252 121.573ZM197.643 120.112C198.947 119.927 199.681 118.663 199.449 117.024C199.223 115.432 198.171 114.451 196.866 114.636C195.546 114.823 194.761 116.049 194.982 117.611C195.217 119.265 196.323 120.3 197.643 120.112ZM207.004 120.332C204.547 120.681 202.614 119.16 202.265 116.702C201.888 114.048 203.401 112.162 205.646 111.843C207.921 111.521 209.664 112.898 210.08 115.501L210.14 115.926L204.102 116.782C204.424 118.176 205.439 119.007 206.804 118.813C207.73 118.682 208.363 118.128 208.522 117.285L210.267 117.037C210.102 118.825 208.901 120.063 207.004 120.332ZM204 115.512L208.111 114.929C207.72 113.809 206.908 113.212 205.861 113.36C204.799 113.511 204.109 114.321 204 115.512ZM218.037 118.705C216.186 118.968 214.846 118.245 214.648 116.741C214.396 114.858 216.206 114.199 217.743 113.795C218.937 113.486 219.826 113.314 219.751 112.675C219.624 111.888 218.944 111.458 217.912 111.605C216.85 111.755 216.174 112.439 216.186 113.289L214.38 113.545C214.306 111.822 215.655 110.424 217.734 110.129C219.903 109.821 221.269 110.834 221.512 112.549L222.029 116.189C222.061 116.417 222.2 116.521 222.473 116.482L222.913 116.42L223.111 117.815L222.261 117.936C221.442 118.052 220.894 117.789 220.671 117.202C220.63 117.13 220.585 117.029 220.557 116.94C220.209 117.871 219.402 118.512 218.037 118.705ZM218.201 117.243C219.43 117.069 220.256 116.239 220.104 115.162L219.944 114.04C219.708 114.553 218.949 114.769 218.115 114.996C217.131 115.259 216.316 115.514 216.436 116.364C216.535 117.061 217.154 117.391 218.201 117.243ZM229.846 119.955L228.041 120.211L226.47 109.137L227.911 108.933L228.28 110.227C228.678 109.211 229.637 108.44 230.911 108.26C233.035 107.958 234.782 109.475 235.135 111.963C235.494 114.496 234.242 116.469 232.103 116.772C230.95 116.936 229.921 116.555 229.257 115.799L229.846 119.955ZM231.493 115.311C232.798 115.126 233.531 113.861 233.299 112.223C233.073 110.63 232.021 109.65 230.701 109.837C229.381 110.024 228.611 111.248 228.833 112.81C229.067 114.464 230.158 115.5 231.493 115.311ZM238.896 115.576L237.106 115.83L235.966 107.79L237.407 107.586L237.843 109.133C238.204 107.968 239.063 107.258 240.398 107.069L240.701 107.026L240.948 108.77L240.645 108.813C238.976 109.05 238.117 110.085 238.332 111.602L238.896 115.576ZM246.543 114.724C243.934 115.094 242.157 113.474 241.804 110.986C241.432 108.361 242.985 106.547 245.336 106.214C247.93 105.846 249.705 107.451 250.041 109.817C250.426 112.533 248.94 114.384 246.543 114.724ZM246.326 113.192C247.767 112.987 248.449 111.684 248.221 110.076C247.995 108.483 246.949 107.548 245.553 107.746C244.158 107.944 243.398 109.135 243.624 110.728C243.874 112.487 245.006 113.379 246.326 113.192ZM256.16 116.47C253.915 116.789 252.212 115.916 251.967 114.187L253.757 113.933C253.865 114.691 254.755 115.184 255.953 115.014C257.379 114.812 258.002 113.857 257.83 112.643L257.669 111.506C257.263 112.352 256.436 112.965 255.283 113.128C253.129 113.434 251.345 111.985 251.005 109.588C250.663 107.176 251.972 105.272 254.111 104.969C255.37 104.79 256.47 105.238 257.098 106.062L257.073 104.797L258.499 104.594L259.605 112.392C259.906 114.515 258.602 116.124 256.16 116.47ZM255.419 111.577C256.724 111.392 257.483 110.201 257.268 108.684C257.053 107.167 255.995 106.249 254.69 106.434C253.385 106.619 252.639 107.793 252.856 109.325C253.071 110.842 254.115 111.762 255.419 111.577ZM263.236 112.124L261.446 112.378L260.305 104.338L261.747 104.134L262.183 105.681C262.544 104.516 263.402 103.806 264.737 103.617L265.041 103.574L265.288 105.318L264.985 105.361C263.316 105.598 262.457 106.633 262.672 108.15L263.236 112.124ZM269.917 111.347C268.066 111.609 266.725 110.886 266.527 109.382C266.276 107.499 268.086 106.84 269.622 106.436C270.817 106.128 271.705 105.955 271.63 105.316C271.503 104.529 270.823 104.1 269.791 104.246C268.73 104.397 268.053 105.081 268.065 105.93L266.26 106.186C266.186 104.463 267.535 103.065 269.613 102.77C271.782 102.463 273.149 103.476 273.392 105.19L273.908 108.831C273.94 109.058 274.079 109.162 274.352 109.124L274.792 109.061L274.99 110.457L274.14 110.577C273.321 110.694 272.773 110.431 272.551 109.843C272.51 109.772 272.464 109.67 272.436 109.581C272.089 110.512 271.282 111.153 269.917 111.347ZM270.081 109.884C271.309 109.71 272.136 108.881 271.983 107.804L271.824 106.681C271.587 107.195 270.828 107.411 269.994 107.637C269.01 107.901 268.195 108.155 268.315 109.005C268.414 109.703 269.034 110.033 270.081 109.884ZM277.961 110.035L276.171 110.289L275.031 102.249L276.472 102.045L276.768 103.148C277.156 102.288 278.061 101.572 279.259 101.402C280.412 101.239 281.374 101.69 281.93 102.555C282.264 101.641 283.203 100.843 284.477 100.662C286.161 100.423 287.408 101.469 287.654 103.198L288.413 108.553L286.608 108.809L285.861 103.545C285.734 102.65 285.106 102.151 284.242 102.274C283.013 102.448 282.353 103.362 282.489 104.426L283.18 109.295L281.39 109.549L280.643 104.285C280.516 103.39 279.888 102.891 279.023 103.014C277.795 103.188 277.135 104.102 277.27 105.166L277.961 110.035ZM291.916 108.056L290.126 108.31L288.986 100.27L290.427 100.066L290.723 101.169C291.111 100.309 292.016 99.5927 293.214 99.4227C294.367 99.2591 295.329 99.7108 295.885 100.576C296.219 99.6619 297.158 98.8632 298.432 98.6825C300.116 98.4437 301.363 99.4893 301.609 101.219L302.368 106.574L300.563 106.83L299.816 101.566C299.689 100.671 299.061 100.172 298.197 100.294C296.968 100.469 296.308 101.382 296.444 102.446L297.135 107.316L295.345 107.57L294.598 102.306C294.471 101.411 293.843 100.912 292.978 101.035C291.75 101.209 291.09 102.123 291.225 103.187L291.916 108.056ZM307.83 106.031C305.372 106.38 303.439 104.859 303.09 102.401C302.714 99.7465 304.226 97.8607 306.471 97.5423C308.747 97.2195 310.49 98.5972 310.905 101.2L310.965 101.625L304.928 102.481C305.249 103.875 306.265 104.706 307.63 104.512C308.555 104.381 309.189 103.827 309.348 102.984L311.092 102.736C310.928 104.524 309.726 105.762 307.83 106.031ZM304.825 101.211L308.936 100.628C308.545 99.5075 307.733 98.9108 306.686 99.0593C305.624 99.2099 304.935 100.02 304.825 101.211ZM314.671 104.829L312.881 105.082L311.74 97.0425L313.182 96.8381L313.618 98.3856C313.979 97.2203 314.837 96.5104 316.172 96.321L316.476 96.278L316.723 98.0225L316.42 98.0656C314.751 98.3023 313.892 99.3371 314.107 100.854L314.671 104.829Z" fill="black"/>
<g clip-path="url(#clip0_171_389)">
<path d="M417.386 44.1784C417.008 43.8648 417.001 43.0321 417.453 42.677C417.835 42.338 418.569 42.4616 419.167 42.5076C420.11 42.5934 420.277 42.6342 421.29 42.7482C422.766 42.9196 422.644 43.3771 422.565 43.7013C422.442 44.2032 422.125 44.3695 421.705 44.4555C420.597 44.684 420.539 44.5147 420.384 44.9202C420.256 45.2655 418.88 48.6854 418.169 49.8747C416.732 52.2717 414.365 53.2568 412.34 52.4753C409.899 51.537 408.436 49.0867 408.988 46.3635C410.008 41.2725 412.365 37.3717 416.786 34.5942C418.315 33.6376 419.683 33.5276 420.777 33.6725C421.678 33.7925 421.709 34.531 421.539 34.9993C421.308 35.6297 420.715 35.5184 420.167 35.5843C419.014 35.7243 418.288 35.9792 417.602 36.521C414.494 38.9984 412.543 42.2781 411.464 46.0695C411.285 46.7127 411.274 47.441 411.369 48.0957C411.537 49.2223 412.159 50.0827 413.317 50.4204C414.483 50.771 415.402 50.2305 415.965 49.3266C416.896 47.8253 417.651 46.2259 418.477 44.6548C418.493 44.6365 418.469 44.5974 418.448 44.5923C417.583 44.4148 417.551 44.3184 417.386 44.1784Z" fill="#57FF8C"/>
<path d="M429.69 47.8747C430.023 46.7372 430.117 45.5307 430.473 44.3879C430.722 43.5955 431.281 43.211 432.14 43.3208C433.399 43.4725 434.396 42.9733 435.189 42.0367C436.104 40.9636 436.331 39.5788 435.748 38.606C435.2 37.6747 433.512 36.8756 432.389 37.2555C431.748 37.476 431.052 38.0596 430.737 38.6697C428.579 42.7964 426.518 46.9799 424.397 51.1377C424.016 51.8865 423.668 53.0867 422.516 52.5402C421.393 52.0117 422.139 50.9971 422.476 50.2929C424.588 45.9446 426.74 41.617 428.941 37.3125C429.214 36.781 429.575 35.9383 430.126 35.4965C430.565 35.1493 431.022 35.6818 431.392 35.5725C432.393 35.2847 433.518 35.2597 434.438 35.5727C436.549 36.2754 437.714 38.0879 437.366 40.2409C436.958 42.7336 435.758 44.5236 433.082 45.0458C432.767 45.113 432.546 44.8376 432.292 45.972C431.918 47.6422 431.45 49.2895 431.021 50.9574C430.922 51.3652 430.763 51.7917 430.577 52.1452C430.272 52.7134 429.878 52.6505 429.53 52.6212C429.314 52.6016 428.885 52.4528 428.969 51.7866C429.134 50.4753 429.508 49.2149 429.69 47.8747Z" fill="#57FF8C"/>
<path d="M451.684 47.4417C450.89 47.248 449.967 47.0342 449.193 46.8456C448.298 48.2005 447.395 49.5867 446.472 50.9678C446.262 51.2823 446.078 51.4479 445.852 51.7363C445.58 52.0799 445.207 52.4763 444.644 52.2395C444.113 51.9659 444.347 51.3694 444.499 51.1075C445.215 49.8529 445.972 48.6084 446.84 47.4574C448.8 44.8223 450.797 42.2184 452.86 39.6637C453.225 39.21 453.802 38.708 454.484 38.8631C455.187 39.0234 455.399 39.928 455.378 40.4658C455.312 42.4213 454.758 44.1474 454.296 45.8182C453.769 47.706 453.259 49.3431 452.479 51.1358C452.301 51.5467 452.029 52.3001 451.174 52.0363C450.58 51.8362 450.751 51.0912 450.87 50.4667C451.099 49.1601 451.409 48.571 451.684 47.4417ZM453.302 41.5327C453.416 41.0622 453.543 40.816 453.177 41.2698C452.178 42.5992 451.023 44.1122 449.956 45.5359C450.649 45.7824 451.237 45.8703 452.099 46.0583C452.572 44.4345 452.849 43.0285 453.302 41.5327Z" fill="#57FF8C"/>
<path d="M438.293 49.5725C438.27 49.6222 438.302 49.6743 438.341 49.6949C439.366 50.0334 440.271 50.3204 441.158 50.6362C441.972 50.9342 442.017 51.1114 442.021 51.4116C441.871 51.9841 441.28 51.9067 440.975 51.8433C439.859 51.6045 438.742 51.277 437.662 50.8919C436.581 50.5067 436.158 49.6061 436.617 48.6323C438.363 44.9701 440.166 41.3441 442.079 37.767C442.345 37.2668 443.428 36.8663 444.06 36.9539C445.079 37.0914 446.067 37.6311 447.019 38.0848C447.237 38.1932 447.75 38.4068 447.45 38.9098C447.212 39.3836 446.859 39.2865 446.598 39.2228C445.21 38.8735 443.985 38.2647 443.739 38.6368C443.183 39.465 442.937 40.3357 442.491 41.2572C442.249 41.752 441.839 42.6158 441.496 43.2965C442.301 43.4928 443.03 43.6372 443.739 43.8653C444.251 44.0346 444.63 44.0271 444.518 44.5316C444.385 45.0309 443.912 45.0155 443.602 45.0173C442.673 45.0124 441.74 44.8848 440.708 44.7995L438.293 49.5725Z" fill="#57FF8C"/>
<path d="M460.639 40.4732C460.116 40.3458 460.116 40.3458 459.232 40.1082C458.911 40.0188 458.362 39.9959 458.531 39.3058C458.706 38.5843 459.166 38.6964 459.42 38.7471C460.881 39.0256 462.321 39.3877 463.751 39.7917C464 39.8633 464.483 39.9257 464.34 40.5112C464.236 40.94 464.124 40.9902 463.385 40.8876C463.116 40.8552 462.818 40.8048 462.669 40.7796C461.07 44.4331 459.524 48.0002 457.932 51.5336C457.597 52.2717 457.233 53.4015 456.163 52.9745C454.97 52.5065 455.721 51.4266 456.006 50.7541C457.337 47.6111 458.791 44.5093 460.203 41.3972C460.311 41.1355 460.44 40.879 460.639 40.4732Z" fill="#57FF8C"/>
<path d="M467.63 41.9224C466.323 44.6945 465.163 47.2256 463.799 49.9615C463.608 50.3359 463.204 50.9021 462.537 50.7286C461.947 50.6068 462.265 49.7096 462.424 49.3275C463.673 46.3417 464.981 43.3816 466.321 40.4292C466.507 40.0314 466.915 39.3555 467.341 39.4704C468.546 39.6199 468.011 41.0405 467.63 41.9224Z" fill="#57FF8C"/>
<path d="M461.669 53.9289C462.116 54.1377 462.212 54.7923 462.128 55.2705C461.982 56.0988 461.331 56.4942 460.422 56.3169C459.925 56.2181 459.453 55.8371 459.555 54.9203C459.66 54.1261 460.472 53.2939 461.669 53.9289Z" fill="#57FF8C"/>
</g>
<defs>
<clipPath id="clip0_171_389">
<rect width="61.992" height="61.992" fill="white" transform="translate(415.238 8.08506) rotate(13.6962)"/>
</clipPath>
</defs>
</svg>
