<svg width="87" height="87" viewBox="0 0 87 87" fill="none" xmlns="http://www.w3.org/2000/svg">
<g clip-path="url(#clip0_151_378)">
<path d="M37.9231 70.4689C38.4791 72.3283 39.0355 73.8102 39.3274 75.3334C39.4814 76.1429 39.5277 77.3495 39.0596 77.804C38.572 78.277 37.3273 78.3221 36.5643 78.0847C34.3318 77.3934 32.1319 76.5162 29.9909 75.5837C29.5281 75.3824 28.9456 74.7387 29.0004 74.0807C28.9329 73.434 30.3 73.3775 30.8299 73.5084C32.8465 74.0252 34.8226 74.7428 36.9823 75.4433C36.592 74.1382 36.2443 73.0595 35.9393 71.9554C35.1314 69.0012 36.233 67.5519 39.2695 67.7763C43.5656 68.0896 47.8581 68.5172 52.1599 68.8916C52.6771 68.9383 53.1874 68.9618 53.7093 68.9819C54.514 69.1062 54.4945 68.8729 53.8898 68.5757C52.7172 68.0204 51.5527 67.4501 50.3801 66.8949C48.298 65.907 46.2079 64.9341 44.1339 63.9311C43.6642 63.7067 43.2211 63.3611 42.7941 63.1113C42.0451 62.6684 41.8635 61.7665 41.9437 61.1512C42.0135 60.627 42.2842 60.0176 43.3559 59.7726C45.6021 59.2897 47.8851 58.9719 50.1599 58.6691C55.2882 57.9786 60.4154 57.3262 65.5958 56.4314C63.8343 55.9264 62.0659 55.3983 60.3032 54.9314C56.4073 53.8945 52.4974 52.9373 48.6223 51.8439C47.2913 51.4744 45.5862 51.242 45.4839 49.3852C45.3896 47.6394 46.9569 47.1581 48.1686 46.5819C51.9851 44.7864 55.8407 43.0798 59.6826 41.3271C60.0695 41.1485 60.4277 40.9155 61.1843 40.5006C58.5442 39.9186 56.2829 39.2988 53.9901 38.9527C49.1656 38.2187 44.3063 37.6209 39.4678 36.9665C36.2434 36.5341 35.575 35.0983 37.5079 32.4317C39.9194 29.0935 42.4544 25.8317 44.9259 22.5259C45.3837 21.9109 45.7665 21.2554 46.4313 20.2388C45.5859 20.4412 45.1032 20.5101 44.6632 20.6794C39.603 22.6077 34.5464 24.5476 29.4781 26.4909C28.1464 27.0024 26.7578 27.8706 25.38 26.9237C23.9387 25.9329 24.4574 24.3435 24.6007 22.9292C24.7533 21.4618 24.9589 20.0037 24.8692 18.3571C23.9816 19.302 23.1056 20.2434 22.218 21.1882C21.4922 21.9589 20.8218 22.7884 20.0337 23.477C19.7552 23.7239 18.9619 23.8479 18.8073 23.6676C18.5236 23.3498 18.2202 23.0505 18.4841 22.2922C18.5894 21.9713 18.8368 21.6205 19.0934 21.3425C20.8167 19.4054 22.488 17.4209 24.3371 15.6098C24.8837 15.0815 26.0398 14.698 26.6931 14.9053C27.2368 15.0824 27.7496 16.2502 27.7535 16.9788C27.7796 18.8331 27.5077 20.7011 27.3583 22.5576C27.3127 23.1625 27.2441 23.7744 27.1683 24.6149C28.3983 24.1842 29.4089 23.8191 30.4346 23.4621C35.7718 21.5767 41.109 19.6913 46.4496 17.8175C46.8157 17.6955 47.1922 17.608 47.5675 17.5587C48.8458 17.4155 49.8068 18.2731 49.5125 19.5187C49.2482 20.6546 48.7807 21.8261 48.1101 22.7816C45.628 26.3044 43.0224 29.751 40.4618 33.2218C40.1833 33.5945 39.9312 33.9718 39.5601 34.498C43.057 34.9999 46.382 35.3897 49.6629 35.9688C53.5811 36.6593 57.4726 37.471 61.3676 38.2942C62.5497 38.5447 64.0425 38.6141 64.3067 40.1708C64.5709 41.7275 63.314 42.5311 62.1784 43.1097C58.5975 44.9355 54.9404 46.633 51.3237 48.3813C50.7393 48.6567 50.1432 48.9356 49.5446 49.5424C52.1406 50.3137 54.7367 51.085 57.3409 51.8413C61.1617 52.9635 64.9871 54.0592 68.7998 55.1965C69.7106 55.4651 70.7934 55.7201 70.7854 56.9556C70.7727 58.2176 69.7562 58.6473 68.74 58.8254C64.5908 59.5503 60.4266 60.267 56.2578 60.8845C52.894 61.3745 49.5118 61.7191 45.9722 62.4629C47.6018 63.2842 49.2603 64.0339 50.8494 64.9301C52.8586 66.053 54.847 67.2325 56.7441 68.5274C57.3268 68.9193 58.0336 69.9788 57.8682 70.3931C57.6205 70.9956 56.6316 71.6436 55.9446 71.6603C53.4182 71.7112 50.8712 71.5669 48.3486 71.3776C45.0292 71.1749 41.7411 70.8244 37.9231 70.4689Z" fill="black"/>
</g>
<defs>
<clipPath id="clip0_151_378">
<rect width="69.4346" height="69.4346" fill="white" transform="translate(66.5244) rotate(73.3518)"/>
</clipPath>
</defs>
</svg>
