<svg width="211" height="152" viewBox="0 0 211 152" fill="none" xmlns="http://www.w3.org/2000/svg">
<path d="M152.02 50.2185C169.589 50.2322 175.884 57.5857 177.841 65.2404C178.579 68.1141 179.389 70.99 179.59 73.8732C180.001 79.3621 180.769 84.8616 178.711 90.3282C175.722 98.2407 167.667 103.227 155.994 103.489C147.902 103.679 98.7309 102.632 82.2471 102.221C72.5926 101.987 62.9038 101.701 53.2486 101.492C48.9218 101.389 44.7836 100.964 40.8173 99.5602C34.7618 97.4129 31.4285 93.9577 30.7782 89.3198C30.2433 85.6192 29.8156 81.9217 29.8892 78.2138C30.0008 73.2198 30.0789 68.1491 31.1543 63.234C33.2283 53.5783 39.2792 49.8196 52.7546 47.8952C61.7015 46.6449 102.982 48.3172 107.665 48.4554C107.697 48.5826 137.259 49.6063 152.02 50.2185ZM85.7044 72.3648C88.1035 72.3094 86.3034 77.5312 86.1947 80.0014C86.124 81.1855 85.9811 82.3928 86.1606 83.5843C86.3394 84.801 87.3509 85.689 89.1735 85.768C91.0684 85.8239 92.0634 84.8437 92.2399 83.7132C92.5489 81.7284 92.7515 79.7153 92.5958 77.7169C92.4333 75.9454 91.9864 74.115 91.1774 72.4253C89.8933 69.8636 87.445 69.1604 83.8073 69.9616C83.195 70.095 82.5478 70.2021 81.6838 70.3785C81.7336 68.689 81.8133 67.2022 81.8214 65.7134C81.8452 64.9064 82.0865 64.005 81.6411 63.3356C81.0921 62.537 80.0076 61.6974 78.8718 61.3862C77.3106 60.9363 76.142 61.7347 75.6459 62.7801C75.2661 63.5261 75.0993 64.3288 75.0047 65.1084C74.336 70.7926 73.7024 76.5032 73.1052 82.1895C73.0106 82.9691 73.2356 83.8339 73.4292 84.5463C73.7883 85.7179 75.1014 86.0847 76.0652 86.1636C76.9933 86.2415 78.337 85.5745 78.9633 84.962C79.5882 84.3999 79.6515 83.4679 79.7818 82.6894C80.1683 80.505 80.4833 78.3185 80.7983 76.1321C81.0731 74.0958 82.2589 72.7174 85.7044 72.3648ZM56.1813 86.9903C62.9875 86.7368 67.0125 83.726 66.1052 79.3076C65.545 76.4644 63.017 74.825 57.9238 74.0185C54.0417 73.3992 52.8462 71.471 55.2728 69.2711C56.3394 68.293 57.9377 67.482 59.5279 66.9485C61.0087 66.4874 62.8648 66.6431 64.4498 66.2861C65.5305 66.0403 66.9792 65.4521 67.1758 64.8522C67.3732 64.227 67.2569 63.315 65.5937 62.6854C63.9305 62.0559 61.7943 61.69 59.9307 61.7864C54.054 62.0673 49.3438 65.2598 48.1098 69.4888C47.0351 73.1672 49.7762 76.0748 55.0146 76.8099C56.1192 76.9686 57.337 76.9289 58.37 77.0855C60.0079 77.361 60.6686 78.0115 60.971 78.6766C61.4396 79.7757 60.8318 80.9692 58.9988 81.2433C57.5248 81.4774 55.9122 81.556 54.4136 81.4108C52.7363 81.2604 51.1043 80.7832 49.4672 80.4825C47.9723 80.2112 46.5728 80.3466 45.79 81.4088C44.8947 82.6443 45.5226 83.1928 46.3517 84.2016C47.2492 85.3133 50.6397 86.8268 56.1813 86.9903ZM144.224 77.9531C148.977 78.1438 153.104 77.7356 155.738 77.0057C158.696 76.1844 160.272 74.9184 159.225 72.818C158.718 71.8187 157.745 70.8309 156.621 70.1163C151.352 66.7807 143.595 67.7128 139.352 72.0801C135.846 75.6868 136.554 79.5692 141.198 82.2554C145.526 84.7555 153.262 84.5043 156.815 81.7319C157.108 81.5133 157.366 81.2686 157.552 81.0217C158.337 79.8838 157.47 78.9497 155.711 79.1249C154.347 79.2866 153.045 79.7529 151.644 79.9135C148.771 80.283 144.701 79.961 144.224 77.9531ZM109.053 74.1643C107.765 74.1767 106.762 74.1976 105.796 74.1944C101.573 74.2212 98.561 75.6466 96.5896 78.1881C95.4731 79.6442 95.1044 81.2234 96.5629 82.7303C98.0213 84.2371 100.069 85.1809 102.687 84.9805C104.337 84.8525 107.798 83.9704 108.698 83.795C108.856 85.6926 110.426 85.8651 111.789 85.7539C113.87 85.5629 113.884 83.8723 114.065 82.5905C114.338 80.6047 114.754 78.6231 114.778 76.6299C114.808 74.3846 114.012 72.241 111.918 70.463C109.3 68.2404 105.669 67.5781 101.919 68.5779C101.017 68.8037 99.1657 69.7081 100.205 70.8493C100.862 71.6259 102.783 70.7992 105.068 70.9676C108.211 71.1865 108.749 72.3633 109.053 74.1643ZM127.19 68.2888C126.628 67.9189 126.862 67.2695 125.76 67.0099C123.095 66.4012 121.788 67.0441 121.321 69.5037C120.555 73.6455 120.324 77.8536 119.914 82.0311C119.869 82.3327 119.932 82.6374 120.031 82.918C120.427 84.0654 121.113 85.0447 123.081 85.0523C125.014 85.0336 125.757 84.1217 125.935 82.9155C126.206 81.0306 126.547 79.1477 126.639 77.2575C126.815 73.7041 128.396 71.0754 134.101 70.5371C134.998 70.4626 136.967 70.4197 136.514 68.8163C136.617 67.7341 134.337 67.3892 133.264 67.3827C131.403 67.3783 129.491 67.9024 127.19 68.2888Z" fill="black"/>
<path d="M154.936 73.8527C154.927 74.1805 150.526 74.1517 149.168 74.1116C147.595 74.0652 145.951 73.9914 145.963 73.5879C146.453 72.7191 147.486 71.6895 150.347 71.7235C152.673 71.7416 154.402 72.575 154.936 73.8527Z" fill="black"/>
<path d="M99.8296 81.161C99.4013 79.9117 100.139 79.1762 101.623 78.5891C104.049 77.6259 106.31 77.3897 108.887 77.3648C107.71 79.6773 106.225 81.5011 103.162 82.2184C102.405 82.398 100.472 82.4167 99.8296 81.161Z" fill="black"/>
<rect width="132" height="34" transform="translate(38.8779 58.2915) rotate(1.69015)" fill="black"/>
<mask id="path-4-outside-1_189_498" maskUnits="userSpaceOnUse" x="47.1512" y="60.0562" width="113.629" height="26.3229" fill="black">
<rect fill="white" x="47.1512" y="60.0562" width="113.629" height="26.3229"/>
<path d="M61.233 76.7755C61.1899 78.2387 60.4556 79.4748 59.0302 80.4838C57.6048 81.4928 55.997 81.9708 54.2067 81.918C52.4163 81.8652 50.9832 81.3835 49.9074 80.4731C48.8493 79.5459 48.3342 78.6089 48.3621 77.6621C48.3901 76.7153 48.6709 76.2498 49.2045 76.2655C49.6177 76.2777 50.042 76.497 50.4774 76.9233C50.9127 77.3497 51.3998 77.7776 51.9385 78.207C52.4944 78.6369 53.1252 78.8623 53.831 78.8831C54.5368 78.9039 55.3459 78.6349 56.2584 78.076C57.1708 77.5171 57.6329 77.0397 57.6445 76.6438C57.6562 76.2478 57.1852 75.5706 56.2314 74.612C55.2948 73.654 54.3503 72.6699 53.398 71.6597C52.4635 70.6328 52.0041 69.8525 52.0198 69.3189C52.0361 68.768 52.1483 68.1769 52.3564 67.5455C52.5818 66.9147 52.8444 66.4831 53.1441 66.2507C54.1006 65.3657 55.3202 64.6178 56.8027 64.0068C58.303 63.3791 59.6126 63.0818 60.7316 63.1148C61.3857 63.1341 61.9196 63.4341 62.3332 64.0149C62.7473 64.5785 62.9455 65.1615 62.9277 65.764C62.9206 66.005 62.7168 66.1972 62.3163 66.3404C61.9335 66.467 61.3697 66.5968 60.6249 66.7299C59.8973 66.8635 59.1505 67.0654 58.3844 67.3357C56.6092 67.9381 55.715 68.463 55.7018 68.9106C55.6957 69.1172 55.9858 69.5048 56.572 70.0735C57.1588 70.6249 57.7962 71.2123 58.4842 71.8356C59.19 72.4422 59.8306 73.2106 60.4062 74.1408C60.9823 75.0537 61.2579 75.932 61.233 76.7755ZM67.1429 62.8388C67.1642 62.1157 67.459 61.7626 68.027 61.7794C68.4918 61.7931 69.0141 62.1962 69.5937 62.9886C70.1734 63.7811 70.4551 64.4527 70.4388 65.0036C70.4226 65.5545 70.2878 66.3258 70.0346 67.3177C69.7813 68.3095 69.522 69.215 69.2566 70.0342C69.0084 70.8539 68.6293 72.023 68.1193 73.5414C67.6098 75.0425 67.2601 76.0919 67.0702 76.6893C68.2562 74.45 69.49 72.6342 70.7716 71.2419C72.0705 69.8502 73.1416 69.1668 73.9852 69.1917C74.5188 69.2074 75.116 69.6988 75.7766 70.666C76.4378 71.6159 76.7572 72.4696 76.7348 73.227C76.713 73.9672 76.5433 75.0477 76.2257 76.4684C75.9081 77.8891 75.3854 79.252 74.6577 80.5573C73.93 81.8625 73.2047 82.5044 72.4817 82.4831C71.9136 82.4663 71.6415 82.0534 71.6653 81.2443C71.6826 80.659 71.8829 79.7087 72.2664 78.3933C72.824 76.4283 73.1092 75.2307 73.1219 74.8003C73.1346 74.3699 73.0721 74.1527 72.9343 74.1486C71.9359 74.1192 70.4236 75.7372 68.3975 79.0028C67.7099 80.1196 67.1341 80.9469 66.6703 81.4846C66.2236 82.0227 65.8024 82.286 65.4064 82.2743C65.0105 82.2626 64.5379 81.9299 63.9886 81.2762C63.4565 80.623 63.1955 80.1243 63.2057 79.78C63.2164 79.4185 63.3007 78.8955 63.4587 78.2109C63.634 77.5269 63.8867 76.5523 64.217 75.287C64.5644 74.0223 65.1317 71.7302 65.9189 68.4109C66.7237 65.0749 67.1317 63.2175 67.1429 62.8388ZM81.8676 80.1239C82.8094 79.7382 83.6431 78.9271 84.3688 77.6908C85.0945 76.4544 85.4736 75.2854 85.5061 74.1836C85.5386 73.0819 85.406 72.3199 85.1083 71.8976C84.3554 72.3061 83.5885 73.188 82.8076 74.5434C82.044 75.8992 81.6466 77.1022 81.6157 78.1523C81.5852 79.1852 81.6692 79.8424 81.8676 80.1239ZM78.1479 78.3084C78.2114 76.1566 78.9343 74.1362 80.3168 72.2472C81.7164 70.3588 83.0704 69.4339 84.3787 69.4725C85.687 69.5111 86.775 70.0084 87.6428 70.9644C88.511 71.9032 88.9258 73.0268 88.8872 74.3351C88.8491 75.6262 88.5004 76.934 87.8411 78.2584C87.1817 79.5829 86.2794 80.6762 85.134 81.5383C83.9891 82.3833 82.7797 82.7869 81.5059 82.7494C80.559 82.7214 79.7538 82.2755 79.0901 81.4117C78.4264 80.5479 78.1123 79.5134 78.1479 78.3084ZM106.07 70.1384C106.552 70.1526 107.072 70.3316 107.631 70.6755C108.206 71.0198 108.489 71.3728 108.478 71.7343C108.467 72.0958 108.139 73.3094 107.492 75.3751C106.845 77.4408 105.869 79.29 104.563 80.9228C103.275 82.5388 102.329 83.338 101.727 83.3202C101.486 83.3131 101.129 83.1302 100.657 82.7717C100.186 82.4132 99.8527 82.0157 99.6588 81.5793C99.3181 80.8628 99.1983 78.7917 99.2994 75.366C98.4881 77.7542 97.5879 79.6487 96.5989 81.0496C95.6105 82.4333 94.8236 83.1165 94.2383 83.0992C93.9801 83.0916 93.6064 82.9083 93.1174 82.5492C92.6455 82.1907 92.3458 81.8373 92.2183 81.4889C91.867 80.5482 91.5578 78.7644 91.2907 76.1376C91.0236 73.5108 90.9043 71.7154 90.9327 70.7514C90.9536 70.0456 91.205 69.6998 91.687 69.714C92.3411 69.7333 93.0008 70.149 93.6661 70.9612C94.3313 71.7734 94.6573 72.4033 94.6441 72.8509C94.5704 75.347 94.5376 77.3361 94.5455 78.8181C95.2651 77.7883 95.9234 76.4983 96.5205 74.948C97.1349 73.3982 97.6276 72.1722 97.9988 71.27C98.37 70.3678 98.745 69.9223 99.1237 69.9334C99.8812 69.9558 100.619 70.348 101.337 71.1101C102.056 71.8549 102.405 72.6061 102.382 73.3635C102.372 73.7078 102.291 74.4205 102.138 75.5014C102.003 76.5829 101.927 77.3991 101.911 77.9499C101.895 78.5008 101.916 78.958 101.974 79.3216C102.559 78.7702 103.074 77.9498 103.52 76.8603C103.983 75.7712 104.323 74.7389 104.541 73.7632C105.096 71.333 105.605 70.1247 106.07 70.1384ZM108.894 79.4999C108.93 78.2949 109.347 76.9805 110.147 75.5568C110.948 74.1332 111.974 72.9229 113.227 71.9261C114.497 70.9298 115.726 70.4491 116.913 70.4842C117.516 70.502 118.124 70.9162 118.737 71.7269C119.352 72.5203 119.649 73.2269 119.631 73.8466C119.618 74.2942 119.405 74.5119 118.992 74.4997C118.785 74.4936 118.504 74.3906 118.148 74.1905C117.792 73.9905 117.425 73.8849 117.046 73.8737C116.667 73.8626 116.115 74.1736 115.39 74.807C114.683 75.4236 114.04 76.18 113.462 77.0761C112.902 77.9555 112.615 78.6535 112.599 79.1699C112.584 79.6863 112.669 80.0248 112.854 80.1853C113.056 80.3464 113.536 80.4381 114.293 80.4604C115.068 80.4833 115.767 80.435 116.391 80.3155C117.032 80.1966 117.501 80.0726 117.797 79.9435C118.112 79.7977 118.389 79.7284 118.63 79.7355C119.112 79.7497 119.347 79.9634 119.335 80.3766C119.313 81.134 118.627 81.8891 117.278 82.6419C115.93 83.3774 114.593 83.7257 113.267 83.6866C112.424 83.6617 111.474 83.1684 110.416 82.2068C109.377 81.2285 108.87 80.3262 108.894 79.4999ZM132.857 76.9247C133.159 77.2093 133.306 77.4635 133.3 77.6873C133.293 77.9111 133.176 78.3728 132.949 79.0725C132.721 79.7722 132.567 80.3191 132.487 80.713C132.407 81.0897 132.338 81.3891 132.279 81.6114C132.238 81.8342 132.207 82.0142 132.186 82.1514C132.165 82.2714 132.126 82.4253 132.069 82.6131C132.029 82.8015 131.99 82.9554 131.952 83.0749C131.932 83.1777 131.893 83.3057 131.837 83.4592C131.799 83.5959 131.752 83.7065 131.698 83.791C131.644 83.8584 131.582 83.9341 131.511 84.0181C131.403 84.1528 131.229 84.2165 130.988 84.2094C130.747 84.2023 130.453 83.9524 130.106 83.4598C129.775 82.9676 129.535 82.3747 129.383 81.681C127.716 83.2859 126.331 84.072 125.23 84.0395C124.489 84.0177 123.701 83.5895 122.864 82.755C122.028 81.9033 121.621 81.0729 121.645 80.2638C121.67 79.4375 122.074 78.2779 122.859 76.7848C123.644 75.2917 124.693 73.9185 126.005 72.665C127.334 71.4119 128.627 70.804 129.883 70.8411C130.606 70.8624 131.429 71.3088 132.351 72.1803C133.273 73.0517 133.723 73.8403 133.702 74.5461C133.682 75.2347 133.4 76.0276 132.857 76.9247ZM125.222 80.7829C125.911 80.8032 126.837 80.3653 128.001 79.4693C129.182 78.5565 129.931 77.3898 130.249 75.9691C130.272 75.763 130.422 75.6468 130.699 75.6205C130.676 74.6378 130.527 74.1423 130.251 74.1342C129.563 74.1139 128.775 74.5386 127.888 75.4084C127.018 76.2786 126.293 77.2135 125.712 78.2129C125.148 79.2128 124.859 79.9538 124.845 80.4358C124.841 80.5735 124.855 80.6687 124.888 80.7213C124.939 80.7573 125.05 80.7778 125.222 80.7829ZM143.717 71.2751C144.371 71.2944 145.006 71.7008 145.62 72.4942C146.234 73.2877 146.532 73.9943 146.513 74.614C146.501 75.0272 146.314 75.2284 145.953 75.2177C145.746 75.2117 145.447 75.1253 145.056 74.9587C144.665 74.7749 144.263 74.6768 143.85 74.6647C143.454 74.653 142.856 74.7732 142.056 75.0252C141.273 75.2778 140.875 75.6279 140.862 76.0755C140.857 76.2476 141.082 76.5041 141.537 76.8449C141.992 77.1857 142.49 77.5363 143.031 77.8969C143.572 78.2574 144.065 78.7544 144.512 79.3879C144.959 80.0041 145.172 80.6737 145.15 81.3968C145.129 82.1026 144.583 82.8015 143.512 83.4935C142.458 84.186 141.225 84.5115 139.813 84.4698C138.419 84.4287 137.232 84.0749 136.252 83.4085C135.272 82.7421 134.792 82.0732 134.812 81.4018C134.832 80.7305 135.117 80.4029 135.668 80.4192C135.892 80.4258 136.156 80.5197 136.461 80.701C137.307 81.2256 138.367 81.5067 139.641 81.5443C140.932 81.5824 141.583 81.4293 141.593 81.085C141.603 80.7407 141.365 80.3546 140.878 79.9268C140.408 79.4822 139.886 79.0705 139.312 78.6917C138.754 78.3134 138.233 77.8587 137.749 77.3275C137.283 76.7797 137.057 76.2561 137.072 75.7569C137.1 74.8273 137.973 73.8451 139.692 72.8104C141.411 71.7584 142.753 71.2467 143.717 71.2751ZM159.218 76.5396C159.194 77.3831 158.595 78.1235 157.421 78.7609C156.265 79.3987 155.085 79.6999 153.88 79.6643C152.675 79.6288 151.687 79.5135 150.918 79.3185C150.749 79.7787 150.658 80.2412 150.644 80.706C150.631 81.1708 150.698 81.5088 150.847 81.7199C150.996 81.9139 151.381 82.02 152.001 82.0383C153.292 82.0763 154.397 81.9884 155.317 81.7743C156.253 81.5607 156.739 81.4544 156.773 81.4554C157.479 81.4763 157.825 81.7191 157.811 82.1839C157.792 82.8552 157.213 83.4757 156.077 84.0452C154.957 84.6152 153.666 84.8786 152.202 84.8354C150.756 84.7927 149.608 84.3023 148.757 83.364C147.906 82.4257 147.499 81.3368 147.535 80.0974C147.572 78.8407 147.972 77.543 148.735 76.2044C149.516 74.8663 150.47 73.7573 151.599 72.8774C152.728 71.9803 153.835 71.5478 154.92 71.5798C156.021 71.6123 157.021 72.1846 157.919 73.2965C158.817 74.3912 159.25 75.4723 159.218 76.5396ZM156.235 76.038C156.24 75.8659 156.067 75.611 155.715 75.2732C155.363 74.9355 155.024 74.7618 154.697 74.7521C154.387 74.743 153.975 74.9634 153.463 75.4135C152.95 75.8463 152.459 76.4177 151.99 77.1275C152.145 77.1493 152.368 77.1645 152.661 77.1731C155.02 77.2427 156.211 76.8644 156.235 76.038Z"/>
</mask>
<path d="M61.233 76.7755C61.1899 78.2387 60.4556 79.4748 59.0302 80.4838C57.6048 81.4928 55.997 81.9708 54.2067 81.918C52.4163 81.8652 50.9832 81.3835 49.9074 80.4731C48.8493 79.5459 48.3342 78.6089 48.3621 77.6621C48.3901 76.7153 48.6709 76.2498 49.2045 76.2655C49.6177 76.2777 50.042 76.497 50.4774 76.9233C50.9127 77.3497 51.3998 77.7776 51.9385 78.207C52.4944 78.6369 53.1252 78.8623 53.831 78.8831C54.5368 78.9039 55.3459 78.6349 56.2584 78.076C57.1708 77.5171 57.6329 77.0397 57.6445 76.6438C57.6562 76.2478 57.1852 75.5706 56.2314 74.612C55.2948 73.654 54.3503 72.6699 53.398 71.6597C52.4635 70.6328 52.0041 69.8525 52.0198 69.3189C52.0361 68.768 52.1483 68.1769 52.3564 67.5455C52.5818 66.9147 52.8444 66.4831 53.1441 66.2507C54.1006 65.3657 55.3202 64.6178 56.8027 64.0068C58.303 63.3791 59.6126 63.0818 60.7316 63.1148C61.3857 63.1341 61.9196 63.4341 62.3332 64.0149C62.7473 64.5785 62.9455 65.1615 62.9277 65.764C62.9206 66.005 62.7168 66.1972 62.3163 66.3404C61.9335 66.467 61.3697 66.5968 60.6249 66.7299C59.8973 66.8635 59.1505 67.0654 58.3844 67.3357C56.6092 67.9381 55.715 68.463 55.7018 68.9106C55.6957 69.1172 55.9858 69.5048 56.572 70.0735C57.1588 70.6249 57.7962 71.2123 58.4842 71.8356C59.19 72.4422 59.8306 73.2106 60.4062 74.1408C60.9823 75.0537 61.2579 75.932 61.233 76.7755ZM67.1429 62.8388C67.1642 62.1157 67.459 61.7626 68.027 61.7794C68.4918 61.7931 69.0141 62.1962 69.5937 62.9886C70.1734 63.7811 70.4551 64.4527 70.4388 65.0036C70.4226 65.5545 70.2878 66.3258 70.0346 67.3177C69.7813 68.3095 69.522 69.215 69.2566 70.0342C69.0084 70.8539 68.6293 72.023 68.1193 73.5414C67.6098 75.0425 67.2601 76.0919 67.0702 76.6893C68.2562 74.45 69.49 72.6342 70.7716 71.2419C72.0705 69.8502 73.1416 69.1668 73.9852 69.1917C74.5188 69.2074 75.116 69.6988 75.7766 70.666C76.4378 71.6159 76.7572 72.4696 76.7348 73.227C76.713 73.9672 76.5433 75.0477 76.2257 76.4684C75.9081 77.8891 75.3854 79.252 74.6577 80.5573C73.93 81.8625 73.2047 82.5044 72.4817 82.4831C71.9136 82.4663 71.6415 82.0534 71.6653 81.2443C71.6826 80.659 71.8829 79.7087 72.2664 78.3933C72.824 76.4283 73.1092 75.2307 73.1219 74.8003C73.1346 74.3699 73.0721 74.1527 72.9343 74.1486C71.9359 74.1192 70.4236 75.7372 68.3975 79.0028C67.7099 80.1196 67.1341 80.9469 66.6703 81.4846C66.2236 82.0227 65.8024 82.286 65.4064 82.2743C65.0105 82.2626 64.5379 81.9299 63.9886 81.2762C63.4565 80.623 63.1955 80.1243 63.2057 79.78C63.2164 79.4185 63.3007 78.8955 63.4587 78.2109C63.634 77.5269 63.8867 76.5523 64.217 75.287C64.5644 74.0223 65.1317 71.7302 65.9189 68.4109C66.7237 65.0749 67.1317 63.2175 67.1429 62.8388ZM81.8676 80.1239C82.8094 79.7382 83.6431 78.9271 84.3688 77.6908C85.0945 76.4544 85.4736 75.2854 85.5061 74.1836C85.5386 73.0819 85.406 72.3199 85.1083 71.8976C84.3554 72.3061 83.5885 73.188 82.8076 74.5434C82.044 75.8992 81.6466 77.1022 81.6157 78.1523C81.5852 79.1852 81.6692 79.8424 81.8676 80.1239ZM78.1479 78.3084C78.2114 76.1566 78.9343 74.1362 80.3168 72.2472C81.7164 70.3588 83.0704 69.4339 84.3787 69.4725C85.687 69.5111 86.775 70.0084 87.6428 70.9644C88.511 71.9032 88.9258 73.0268 88.8872 74.3351C88.8491 75.6262 88.5004 76.934 87.8411 78.2584C87.1817 79.5829 86.2794 80.6762 85.134 81.5383C83.9891 82.3833 82.7797 82.7869 81.5059 82.7494C80.559 82.7214 79.7538 82.2755 79.0901 81.4117C78.4264 80.5479 78.1123 79.5134 78.1479 78.3084ZM106.07 70.1384C106.552 70.1526 107.072 70.3316 107.631 70.6755C108.206 71.0198 108.489 71.3728 108.478 71.7343C108.467 72.0958 108.139 73.3094 107.492 75.3751C106.845 77.4408 105.869 79.29 104.563 80.9228C103.275 82.5388 102.329 83.338 101.727 83.3202C101.486 83.3131 101.129 83.1302 100.657 82.7717C100.186 82.4132 99.8527 82.0157 99.6588 81.5793C99.3181 80.8628 99.1983 78.7917 99.2994 75.366C98.4881 77.7542 97.5879 79.6487 96.5989 81.0496C95.6105 82.4333 94.8236 83.1165 94.2383 83.0992C93.9801 83.0916 93.6064 82.9083 93.1174 82.5492C92.6455 82.1907 92.3458 81.8373 92.2183 81.4889C91.867 80.5482 91.5578 78.7644 91.2907 76.1376C91.0236 73.5108 90.9043 71.7154 90.9327 70.7514C90.9536 70.0456 91.205 69.6998 91.687 69.714C92.3411 69.7333 93.0008 70.149 93.6661 70.9612C94.3313 71.7734 94.6573 72.4033 94.6441 72.8509C94.5704 75.347 94.5376 77.3361 94.5455 78.8181C95.2651 77.7883 95.9234 76.4983 96.5205 74.948C97.1349 73.3982 97.6276 72.1722 97.9988 71.27C98.37 70.3678 98.745 69.9223 99.1237 69.9334C99.8812 69.9558 100.619 70.348 101.337 71.1101C102.056 71.8549 102.405 72.6061 102.382 73.3635C102.372 73.7078 102.291 74.4205 102.138 75.5014C102.003 76.5829 101.927 77.3991 101.911 77.9499C101.895 78.5008 101.916 78.958 101.974 79.3216C102.559 78.7702 103.074 77.9498 103.52 76.8603C103.983 75.7712 104.323 74.7389 104.541 73.7632C105.096 71.333 105.605 70.1247 106.07 70.1384ZM108.894 79.4999C108.93 78.2949 109.347 76.9805 110.147 75.5568C110.948 74.1332 111.974 72.9229 113.227 71.9261C114.497 70.9298 115.726 70.4491 116.913 70.4842C117.516 70.502 118.124 70.9162 118.737 71.7269C119.352 72.5203 119.649 73.2269 119.631 73.8466C119.618 74.2942 119.405 74.5119 118.992 74.4997C118.785 74.4936 118.504 74.3906 118.148 74.1905C117.792 73.9905 117.425 73.8849 117.046 73.8737C116.667 73.8626 116.115 74.1736 115.39 74.807C114.683 75.4236 114.04 76.18 113.462 77.0761C112.902 77.9555 112.615 78.6535 112.599 79.1699C112.584 79.6863 112.669 80.0248 112.854 80.1853C113.056 80.3464 113.536 80.4381 114.293 80.4604C115.068 80.4833 115.767 80.435 116.391 80.3155C117.032 80.1966 117.501 80.0726 117.797 79.9435C118.112 79.7977 118.389 79.7284 118.63 79.7355C119.112 79.7497 119.347 79.9634 119.335 80.3766C119.313 81.134 118.627 81.8891 117.278 82.6419C115.93 83.3774 114.593 83.7257 113.267 83.6866C112.424 83.6617 111.474 83.1684 110.416 82.2068C109.377 81.2285 108.87 80.3262 108.894 79.4999ZM132.857 76.9247C133.159 77.2093 133.306 77.4635 133.3 77.6873C133.293 77.9111 133.176 78.3728 132.949 79.0725C132.721 79.7722 132.567 80.3191 132.487 80.713C132.407 81.0897 132.338 81.3891 132.279 81.6114C132.238 81.8342 132.207 82.0142 132.186 82.1514C132.165 82.2714 132.126 82.4253 132.069 82.6131C132.029 82.8015 131.99 82.9554 131.952 83.0749C131.932 83.1777 131.893 83.3057 131.837 83.4592C131.799 83.5959 131.752 83.7065 131.698 83.791C131.644 83.8584 131.582 83.9341 131.511 84.0181C131.403 84.1528 131.229 84.2165 130.988 84.2094C130.747 84.2023 130.453 83.9524 130.106 83.4598C129.775 82.9676 129.535 82.3747 129.383 81.681C127.716 83.2859 126.331 84.072 125.23 84.0395C124.489 84.0177 123.701 83.5895 122.864 82.755C122.028 81.9033 121.621 81.0729 121.645 80.2638C121.67 79.4375 122.074 78.2779 122.859 76.7848C123.644 75.2917 124.693 73.9185 126.005 72.665C127.334 71.4119 128.627 70.804 129.883 70.8411C130.606 70.8624 131.429 71.3088 132.351 72.1803C133.273 73.0517 133.723 73.8403 133.702 74.5461C133.682 75.2347 133.4 76.0276 132.857 76.9247ZM125.222 80.7829C125.911 80.8032 126.837 80.3653 128.001 79.4693C129.182 78.5565 129.931 77.3898 130.249 75.9691C130.272 75.763 130.422 75.6468 130.699 75.6205C130.676 74.6378 130.527 74.1423 130.251 74.1342C129.563 74.1139 128.775 74.5386 127.888 75.4084C127.018 76.2786 126.293 77.2135 125.712 78.2129C125.148 79.2128 124.859 79.9538 124.845 80.4358C124.841 80.5735 124.855 80.6687 124.888 80.7213C124.939 80.7573 125.05 80.7778 125.222 80.7829ZM143.717 71.2751C144.371 71.2944 145.006 71.7008 145.62 72.4942C146.234 73.2877 146.532 73.9943 146.513 74.614C146.501 75.0272 146.314 75.2284 145.953 75.2177C145.746 75.2117 145.447 75.1253 145.056 74.9587C144.665 74.7749 144.263 74.6768 143.85 74.6647C143.454 74.653 142.856 74.7732 142.056 75.0252C141.273 75.2778 140.875 75.6279 140.862 76.0755C140.857 76.2476 141.082 76.5041 141.537 76.8449C141.992 77.1857 142.49 77.5363 143.031 77.8969C143.572 78.2574 144.065 78.7544 144.512 79.3879C144.959 80.0041 145.172 80.6737 145.15 81.3968C145.129 82.1026 144.583 82.8015 143.512 83.4935C142.458 84.186 141.225 84.5115 139.813 84.4698C138.419 84.4287 137.232 84.0749 136.252 83.4085C135.272 82.7421 134.792 82.0732 134.812 81.4018C134.832 80.7305 135.117 80.4029 135.668 80.4192C135.892 80.4258 136.156 80.5197 136.461 80.701C137.307 81.2256 138.367 81.5067 139.641 81.5443C140.932 81.5824 141.583 81.4293 141.593 81.085C141.603 80.7407 141.365 80.3546 140.878 79.9268C140.408 79.4822 139.886 79.0705 139.312 78.6917C138.754 78.3134 138.233 77.8587 137.749 77.3275C137.283 76.7797 137.057 76.2561 137.072 75.7569C137.1 74.8273 137.973 73.8451 139.692 72.8104C141.411 71.7584 142.753 71.2467 143.717 71.2751ZM159.218 76.5396C159.194 77.3831 158.595 78.1235 157.421 78.7609C156.265 79.3987 155.085 79.6999 153.88 79.6643C152.675 79.6288 151.687 79.5135 150.918 79.3185C150.749 79.7787 150.658 80.2412 150.644 80.706C150.631 81.1708 150.698 81.5088 150.847 81.7199C150.996 81.9139 151.381 82.02 152.001 82.0383C153.292 82.0763 154.397 81.9884 155.317 81.7743C156.253 81.5607 156.739 81.4544 156.773 81.4554C157.479 81.4763 157.825 81.7191 157.811 82.1839C157.792 82.8552 157.213 83.4757 156.077 84.0452C154.957 84.6152 153.666 84.8786 152.202 84.8354C150.756 84.7927 149.608 84.3023 148.757 83.364C147.906 82.4257 147.499 81.3368 147.535 80.0974C147.572 78.8407 147.972 77.543 148.735 76.2044C149.516 74.8663 150.47 73.7573 151.599 72.8774C152.728 71.9803 153.835 71.5478 154.92 71.5798C156.021 71.6123 157.021 72.1846 157.919 73.2965C158.817 74.3912 159.25 75.4723 159.218 76.5396ZM156.235 76.038C156.24 75.8659 156.067 75.611 155.715 75.2732C155.363 74.9355 155.024 74.7618 154.697 74.7521C154.387 74.743 153.975 74.9634 153.463 75.4135C152.95 75.8463 152.459 76.4177 151.99 77.1275C152.145 77.1493 152.368 77.1645 152.661 77.1731C155.02 77.2427 156.211 76.8644 156.235 76.038Z" fill="white"/>
<path d="M59.0302 80.4838L59.4033 81.0109V81.0109L59.0302 80.4838ZM49.9074 80.4731L49.4817 80.9589L49.4902 80.966L49.9074 80.4731ZM51.9385 78.207L51.5358 78.712L51.5434 78.7179L51.9385 78.207ZM56.2584 78.076L56.5957 78.6267V78.6267L56.2584 78.076ZM56.2314 74.612L55.7695 75.0635L55.7736 75.0676L56.2314 74.612ZM53.398 71.6597L52.9203 72.0945L52.9281 72.1027L53.398 71.6597ZM52.3564 67.5455L51.7482 67.3282L51.7456 67.3357L51.7431 67.3433L52.3564 67.5455ZM53.1441 66.2507L53.5398 66.7611L53.5621 66.7439L53.5827 66.7248L53.1441 66.2507ZM56.8027 64.0068L57.0488 64.6039L57.052 64.6026L56.8027 64.0068ZM62.3332 64.0149L61.8071 64.3896L61.8128 64.3973L62.3332 64.0149ZM62.3163 66.3404L62.519 66.9536L62.5264 66.9512L62.5338 66.9485L62.3163 66.3404ZM60.6249 66.7299L60.5113 66.0941L60.5083 66.0947L60.6249 66.7299ZM58.3844 67.3357L58.5919 67.9474L58.5993 67.9448L58.3844 67.3357ZM56.572 70.0735L56.1223 70.5371L56.1297 70.5441L56.572 70.0735ZM58.4842 71.8356L58.0506 72.3142L58.0568 72.3199L58.0632 72.3254L58.4842 71.8356ZM60.4062 74.1408L59.857 74.4807L59.8601 74.4855L60.4062 74.1408ZM61.233 76.7755L60.5875 76.7564C60.5515 77.9766 59.9529 79.0395 58.6571 79.9567L59.0302 80.4838L59.4033 81.0109C60.9583 79.9102 61.8282 78.5009 61.8786 76.7945L61.233 76.7755ZM59.0302 80.4838L58.6571 79.9567C57.3492 80.8824 55.8798 81.3212 54.2257 81.2724L54.2067 81.918L54.1876 82.5635C56.1142 82.6204 57.8604 82.1031 59.4033 81.0109L59.0302 80.4838ZM54.2067 81.918L54.2257 81.2724C52.5413 81.2227 51.2615 80.773 50.3246 79.9801L49.9074 80.4731L49.4902 80.966C50.705 81.9941 52.2914 82.5076 54.1876 82.5635L54.2067 81.918ZM49.9074 80.4731L50.333 79.9873C49.3479 79.1241 48.9878 78.3566 49.0077 77.6811L48.3621 77.6621L47.7166 77.643C47.6807 78.8612 48.3507 79.9677 49.4818 80.9588L49.9074 80.4731ZM48.3621 77.6621L49.0077 77.6811C49.0205 77.2472 49.0919 77.0273 49.1467 76.9364C49.1683 76.9006 49.177 76.9021 49.1639 76.9093C49.1503 76.9168 49.1503 76.91 49.1855 76.9111L49.2045 76.2655L49.2236 75.62C48.7185 75.605 48.2987 75.8414 48.0407 76.2693C47.8147 76.6439 47.7317 77.1302 47.7166 77.643L48.3621 77.6621ZM49.2045 76.2655L49.1855 76.9111C49.3739 76.9166 49.652 77.019 50.0255 77.3848L50.4774 76.9233L50.9292 76.4619C50.4319 75.9749 49.8615 75.6388 49.2236 75.62L49.2045 76.2655ZM50.4774 76.9233L50.0255 77.3848C50.4784 77.8283 50.9822 78.2706 51.5359 78.712L51.9385 78.207L52.341 77.702C51.8173 77.2845 51.3471 76.8711 50.9292 76.4619L50.4774 76.9233ZM51.9385 78.207L51.5434 78.7179C52.2078 79.2317 52.9704 79.5038 53.812 79.5286L53.831 78.8831L53.8501 78.2375C53.28 78.2207 52.7809 78.0421 52.3336 77.6961L51.9385 78.207ZM53.831 78.8831L53.812 79.5286C54.6924 79.5546 55.6277 79.2197 56.5957 78.6267L56.2584 78.076L55.921 77.5253C55.0642 78.0501 54.3813 78.2532 53.8501 78.2375L53.831 78.8831ZM56.2584 78.076L56.5957 78.6267C57.0738 78.3339 57.4687 78.042 57.7533 77.7479C58.0258 77.4664 58.2772 77.1005 58.2901 76.6628L57.6445 76.6438L56.999 76.6247C57.0002 76.583 57.0148 76.6537 56.8252 76.8496C56.6477 77.033 56.3554 77.2592 55.921 77.5253L56.2584 78.076ZM57.6445 76.6438L58.2901 76.6628C58.3026 76.2405 58.0747 75.8216 57.8302 75.4701C57.5639 75.0872 57.1781 74.6479 56.6892 74.1565L56.2314 74.612L55.7736 75.0676C56.2384 75.5347 56.5651 75.9133 56.7698 76.2077C56.9964 76.5334 56.9982 76.6511 56.999 76.6247L57.6445 76.6438ZM56.2314 74.612L56.6932 74.1606C55.7594 73.2054 54.8177 72.2241 53.868 71.2167L53.398 71.6597L52.9281 72.1027C53.883 73.1156 54.8301 74.1026 55.7695 75.0635L56.2314 74.612ZM53.398 71.6597L53.8757 71.225C53.4243 70.729 53.1077 70.3139 52.9091 69.9766C52.703 69.6266 52.6628 69.4251 52.6654 69.3379L52.0198 69.3189L51.3743 69.2998C51.3611 69.7462 51.5427 70.2017 51.796 70.632C52.0568 71.075 52.4372 71.5635 52.9204 72.0944L53.398 71.6597ZM52.0198 69.3189L52.6654 69.3379C52.6794 68.8606 52.7773 68.3317 52.9698 67.7477L52.3564 67.5455L51.7431 67.3433C51.5193 68.0221 51.3927 68.6754 51.3743 69.2998L52.0198 69.3189ZM52.3564 67.5455L52.9646 67.7628C53.1763 67.1704 53.3866 66.8798 53.5398 66.7611L53.1441 66.2507L52.7485 65.7403C52.3021 66.0863 51.9874 66.6589 51.7482 67.3282L52.3564 67.5455ZM53.1441 66.2507L53.5827 66.7248C54.4716 65.9024 55.6214 65.1922 57.0488 64.6039L56.8027 64.0068L56.5567 63.4097C55.0189 64.0434 53.7297 64.8291 52.7055 65.7766L53.1441 66.2507ZM56.8027 64.0068L57.052 64.6026C58.5028 63.9956 59.7174 63.731 60.7125 63.7603L60.7316 63.1148L60.7506 62.4692C59.5078 62.4326 58.1032 62.7626 56.5535 63.411L56.8027 64.0068ZM60.7316 63.1148L60.7125 63.7603C61.1446 63.7731 61.4987 63.9564 61.8072 64.3896L62.3332 64.0149L62.8593 63.6403C62.3405 62.9118 61.6269 62.4951 60.7506 62.4692L60.7316 63.1148ZM62.3332 64.0149L61.8128 64.3973C62.1559 64.8642 62.295 65.3089 62.2822 65.745L62.9277 65.764L63.5733 65.7831C63.596 65.0142 63.3388 64.2928 62.8537 63.6325L62.3332 64.0149ZM62.9277 65.764L62.2822 65.745C62.2831 65.7138 62.2911 65.6811 62.3049 65.6529C62.3178 65.6264 62.3298 65.6159 62.3265 65.6189C62.3225 65.6227 62.3054 65.6375 62.2664 65.6591C62.2277 65.6806 62.1731 65.7058 62.0988 65.7323L62.3163 66.3404L62.5338 66.9485C62.9777 66.7898 63.5534 66.4566 63.5733 65.7831L62.9277 65.764ZM62.3163 66.3404L62.1136 65.7272C61.775 65.8392 61.2472 65.9626 60.5113 66.0941L60.6249 66.7299L60.7385 67.3656C61.4922 67.231 62.092 67.0948 62.519 66.9536L62.3163 66.3404ZM60.6249 66.7299L60.5083 66.0947C59.7442 66.235 58.9645 66.4462 58.1695 66.7267L58.3844 67.3357L58.5993 67.9448C59.3364 67.6847 60.0504 67.492 60.7415 67.3651L60.6249 66.7299ZM58.3844 67.3357L58.1769 66.7241C57.2753 67.0301 56.5591 67.3285 56.0554 67.6243C55.8045 67.7715 55.5774 67.9346 55.4047 68.1198C55.2348 68.3019 55.066 68.5618 55.0562 68.8916L55.7018 68.9106L56.3473 68.9297C56.3442 69.0356 56.2922 69.062 56.3491 69.001C56.4032 68.9431 56.5131 68.8534 56.7093 68.7382C57.0998 68.5089 57.7183 68.2437 58.5919 67.9473L58.3844 67.3357ZM55.7018 68.9106L55.0562 68.8916C55.0504 69.0894 55.1138 69.2602 55.17 69.378C55.2302 69.5037 55.3105 69.6266 55.3977 69.7432C55.5723 69.9765 55.819 70.2427 56.1224 70.537L56.572 70.0735L57.0217 69.6099C56.7388 69.3355 56.5473 69.1236 56.4318 68.9693C56.374 68.8921 56.3463 68.8438 56.3354 68.821C56.3207 68.7902 56.3501 68.8351 56.3473 68.9297L55.7018 68.9106ZM56.572 70.0735L56.1297 70.5441C56.7198 71.0986 57.3601 71.6886 58.0506 72.3142L58.4842 71.8356L58.9178 71.357C58.2323 70.7359 57.5978 70.1512 57.0143 69.6028L56.572 70.0735ZM58.4842 71.8356L58.0632 72.3254C58.7109 72.8821 59.3103 73.5971 59.857 74.4806L60.4062 74.1408L60.9554 73.801C60.351 72.8242 59.669 72.0024 58.9052 71.3458L58.4842 71.8356ZM60.4062 74.1408L59.8601 74.4855C60.3866 75.3199 60.6077 76.0729 60.5875 76.7564L61.233 76.7755L61.8786 76.7945C61.9082 75.791 61.578 74.7876 60.9524 73.7961L60.4062 74.1408ZM69.5937 62.9886L69.0725 63.3699V63.3699L69.5937 62.9886ZM70.0346 67.3177L70.6603 67.4774L70.6603 67.4774L70.0346 67.3177ZM69.2566 70.0342L68.6421 69.8351L68.6385 69.8471L69.2566 70.0342ZM68.1193 73.5414L68.7309 73.7489L68.7315 73.747L68.1193 73.5414ZM67.0702 76.6893L66.4547 76.4936L67.6409 76.9916L67.0702 76.6893ZM70.7716 71.2419L70.2995 70.8013L70.2965 70.8045L70.7716 71.2419ZM75.7766 70.666L75.2433 71.0303L75.2465 71.0349L75.7766 70.666ZM76.2257 76.4684L75.5954 76.3275V76.3275L76.2257 76.4684ZM74.6577 80.5573L74.0936 80.2428V80.2428L74.6577 80.5573ZM72.2664 78.3933L72.8864 78.574L72.8877 78.5696L72.2664 78.3933ZM68.3975 79.0028L67.8487 78.6623L67.8476 78.6642L68.3975 79.0028ZM66.6703 81.4846L66.1812 81.0626L66.1733 81.0721L66.6703 81.4846ZM63.9886 81.2762L63.4878 81.6842L63.4941 81.6917L63.9886 81.2762ZM63.4587 78.2109L62.8331 78.0506L62.8312 78.0581L62.8295 78.0657L63.4587 78.2109ZM64.217 75.287L63.5942 75.1159L63.5921 75.1239L64.217 75.287ZM65.9189 68.4109L65.291 68.2594L65.2905 68.2619L65.9189 68.4109ZM67.1429 62.8388L67.7885 62.8578C67.7971 62.5633 67.861 62.4632 67.8758 62.4455C67.8791 62.4415 67.8798 62.4406 67.8868 62.4379C67.8978 62.4336 67.9334 62.4227 68.008 62.4249L68.027 61.7794L68.0461 61.1338C67.6155 61.1211 67.1882 61.2535 66.8841 61.6178C66.6042 61.9532 66.51 62.3912 66.4974 62.8197L67.1429 62.8388ZM68.027 61.7794L68.008 62.4249C68.0578 62.4264 68.1758 62.4512 68.3727 62.6032C68.5684 62.7543 68.8028 63.0013 69.0725 63.3699L69.5937 62.9886L70.115 62.6073C69.805 62.1835 69.4884 61.8327 69.1619 61.5807C68.8366 61.3296 68.4611 61.1461 68.0461 61.1338L68.027 61.7794ZM69.5937 62.9886L69.0725 63.3699C69.6261 64.1268 69.8031 64.6523 69.7933 64.9845L70.4388 65.0036L71.0844 65.0226C71.1071 64.2531 70.7206 63.4353 70.115 62.6073L69.5937 62.9886ZM70.4388 65.0036L69.7933 64.9845C69.7791 65.4635 69.6585 66.18 69.4088 67.1579L70.0346 67.3177L70.6603 67.4774C70.9171 66.4716 71.066 65.6454 71.0844 65.0226L70.4388 65.0036ZM70.0346 67.3177L69.4088 67.1579C69.1583 68.1389 68.9027 69.0311 68.6422 69.8352L69.2566 70.0342L69.871 70.2333C70.1413 69.399 70.4043 68.4801 70.6603 67.4774L70.0346 67.3177ZM69.2566 70.0342L68.6385 69.8471C68.3931 70.6574 68.0165 71.8192 67.5071 73.3357L68.1193 73.5414L68.7315 73.747C69.2422 72.2268 69.6237 71.0505 69.8747 70.2214L69.2566 70.0342ZM68.1193 73.5414L67.5078 73.3338C66.9983 74.8348 66.6468 75.8895 66.4547 76.4936L67.0702 76.6893L67.6857 76.885C67.8735 76.2942 68.2213 75.2503 68.7309 73.7489L68.1193 73.5414ZM67.0702 76.6893L67.6409 76.9916C68.8092 74.7858 70.0129 73.0197 71.2468 71.6793L70.7716 71.2419L70.2965 70.8045C68.9671 72.2486 67.7032 74.1141 66.4995 76.387L67.0702 76.6893ZM70.7716 71.2419L71.2438 71.6826C71.8726 71.0088 72.4234 70.5319 72.8965 70.23C73.3747 69.9249 73.7241 69.8301 73.9661 69.8372L73.9852 69.1917L74.0042 68.5461C73.4027 68.5284 72.7947 68.7628 72.2018 69.1411C71.6037 69.5227 70.9695 70.0833 70.2995 70.8013L70.7716 71.2419ZM73.9852 69.1917L73.9661 69.8372C74.0381 69.8393 74.1869 69.8765 74.4229 70.0707C74.6568 70.2632 74.9317 70.574 75.2433 71.0303L75.7766 70.666L76.3099 70.3017C75.9609 69.7908 75.6069 69.3723 75.2437 69.0734C74.8825 68.7761 74.4658 68.5597 74.0042 68.5461L73.9852 69.1917ZM75.7766 70.666L75.2465 71.0349C75.8679 71.9277 76.1059 72.6447 76.0893 73.208L76.7348 73.227L77.3804 73.2461C77.4085 72.2945 77.0076 71.3041 76.3067 70.297L75.7766 70.666ZM76.7348 73.227L76.0893 73.208C76.0693 73.8847 75.9109 74.9163 75.5954 76.3275L76.2257 76.4684L76.856 76.6093C77.1757 75.1791 77.3567 74.0498 77.3804 73.2461L76.7348 73.227ZM76.2257 76.4684L75.5954 76.3275C75.2917 77.6858 74.7918 78.9905 74.0936 80.2428L74.6577 80.5573L75.2218 80.8718C75.979 79.5136 76.5244 78.0923 76.856 76.6093L76.2257 76.4684ZM74.6577 80.5573L74.0936 80.2428C73.7482 80.8624 73.4268 81.2801 73.1399 81.534C72.8576 81.7838 72.6488 81.8419 72.5007 81.8375L72.4817 82.4831L72.4626 83.1286C73.0375 83.1456 73.5529 82.8934 73.996 82.5013C74.4345 82.1132 74.8396 81.5573 75.2218 80.8718L74.6577 80.5573ZM72.4817 82.4831L72.5007 81.8375C72.4352 81.8356 72.4092 81.8233 72.4052 81.8212C72.4043 81.8208 72.4005 81.8202 72.3908 81.8054C72.3611 81.7604 72.3006 81.6121 72.3109 81.2633L71.6653 81.2443L71.0198 81.2252C71.0062 81.6856 71.0698 82.1483 71.3122 82.5162C71.5827 82.9266 72.0044 83.1151 72.4626 83.1286L72.4817 82.4831ZM71.6653 81.2443L72.3109 81.2633C72.3255 80.7683 72.5034 79.888 72.8864 78.574L72.2664 78.3933L71.6463 78.2126C71.2625 79.5293 71.0397 80.5497 71.0198 81.2252L71.6653 81.2443ZM72.2664 78.3933L72.8877 78.5696C73.1676 77.5832 73.3811 76.7826 73.5267 76.1709C73.6672 75.5808 73.7588 75.1109 73.7674 74.8193L73.1219 74.8003L72.4763 74.7812C72.4722 74.92 72.4149 75.2642 72.2702 75.8717C72.1307 76.4577 71.9228 77.2384 71.6451 78.217L72.2664 78.3933ZM73.1219 74.8003L73.7674 74.8193C73.7743 74.5863 73.7648 74.3432 73.7052 74.136C73.6538 73.9576 73.4664 73.5182 72.9534 73.5031L72.9343 74.1487L72.9153 74.7942C72.8459 74.7922 72.7723 74.7758 72.7019 74.7419C72.6326 74.7084 72.5808 74.6649 72.5446 74.625C72.5096 74.5862 72.4894 74.5512 72.479 74.5301C72.4684 74.5089 72.4644 74.4951 72.4639 74.4932C72.4634 74.4915 72.4692 74.5126 72.4734 74.567C72.4774 74.6192 72.479 74.6897 72.4763 74.7812L73.1219 74.8003ZM72.9343 74.1487L72.9534 73.5031C72.5265 73.4905 72.1165 73.6539 71.7438 73.8897C71.3668 74.1282 70.9786 74.472 70.5795 74.8991C69.7809 75.7535 68.8704 77.0156 67.8487 78.6623L68.3975 79.0028L68.9463 79.3433C69.9508 77.7244 70.8094 76.5447 71.5231 75.7811C71.8801 75.3991 72.1838 75.1398 72.4345 74.9812C72.6895 74.8199 72.8429 74.7921 72.9153 74.7942L72.9343 74.1487ZM68.3975 79.0028L67.8476 78.6642C67.1656 79.7718 66.6111 80.5644 66.1812 81.0627L66.6703 81.4846L67.1593 81.9064C67.657 81.3294 68.2541 80.4675 68.9475 79.3414L68.3975 79.0028ZM66.6703 81.4846L66.1733 81.0721C65.7605 81.5696 65.5122 81.6313 65.4255 81.6288L65.4064 82.2743L65.3874 82.9199C66.0925 82.9407 66.6868 82.4759 67.1672 81.897L66.6703 81.4846ZM65.4064 82.2743L65.4255 81.6288C65.3997 81.628 65.3046 81.6131 65.1268 81.4879C64.9521 81.365 64.7371 81.1632 64.483 80.8607L63.9886 81.2762L63.4941 81.6917C63.7893 82.043 64.0853 82.3344 64.3832 82.5441C64.678 82.7516 65.0172 82.9089 65.3874 82.9199L65.4064 82.2743ZM63.9886 81.2762L64.4893 80.8683C64.2386 80.5606 64.0691 80.3099 63.966 80.1129C63.8578 79.9061 63.8509 79.8113 63.8512 79.799L63.2057 79.78L62.5601 79.7609C62.5503 80.0929 62.6688 80.4197 62.8216 80.7117C62.9794 81.0134 63.2065 81.3387 63.4878 81.6841L63.9886 81.2762ZM63.2057 79.78L63.8512 79.799C63.86 79.5031 63.9324 79.0303 64.088 78.3562L63.4587 78.2109L62.8295 78.0657C62.669 78.7606 62.5727 79.3339 62.5601 79.7609L63.2057 79.78ZM63.4587 78.2109L64.0844 78.3712C64.2593 77.6886 64.5117 76.7151 64.8419 75.4501L64.217 75.287L63.5921 75.1239C63.2618 76.3895 63.0087 77.3652 62.8331 78.0506L63.4587 78.2109ZM64.217 75.287L64.8397 75.4581C65.1906 74.181 65.7603 71.8786 66.5473 68.5599L65.9189 68.4109L65.2905 68.2619C64.5032 71.5819 63.9383 73.8636 63.5942 75.1159L64.217 75.287ZM65.9189 68.4109L66.5467 68.5624C66.9495 66.8929 67.2539 65.5895 67.4593 64.6544C67.5619 64.1872 67.6407 63.808 67.6949 63.5191C67.7457 63.248 67.7839 63.0113 67.7885 62.8578L67.1429 62.8388L66.4974 62.8197C66.4974 62.8194 66.4973 62.8224 66.4967 62.8294C66.4962 62.8363 66.4954 62.8457 66.4941 62.8579C66.4914 62.8825 66.4872 62.9148 66.4812 62.9559C66.4691 63.0381 66.4507 63.1459 66.4253 63.2811C66.3747 63.5512 66.2991 63.9158 66.1977 64.3773C65.9951 65.2995 65.6931 66.5929 65.291 68.2594L65.9189 68.4109ZM81.8676 80.1239L81.3397 80.496L81.6362 80.9166L82.1124 80.7215L81.8676 80.1239ZM84.3688 77.6908L84.9258 78.0177V78.0177L84.3688 77.6908ZM85.1083 71.8976L85.6362 71.5255L85.3052 71.056L84.8003 71.3299L85.1083 71.8976ZM82.8076 74.5434L82.248 74.2209L82.2449 74.2264L82.8076 74.5434ZM80.3168 72.2472L79.7979 71.8627L79.7956 71.8658L80.3168 72.2472ZM87.6428 70.9644L87.1645 71.3985L87.1686 71.4029L87.6428 70.9644ZM87.8411 78.2584L87.2629 77.9706V77.9706L87.8411 78.2584ZM85.134 81.5383L85.5175 82.058L85.5224 82.0543L85.134 81.5383ZM79.0901 81.4117L79.6022 81.0182V81.0182L79.0901 81.4117ZM81.8676 80.1239L82.1124 80.7215C83.2291 80.2642 84.157 79.3274 84.9258 78.0177L84.3688 77.6908L83.8118 77.3639C83.1292 78.5268 82.3897 79.2122 81.6228 79.5262L81.8676 80.1239ZM84.3688 77.6908L84.9258 78.0177C85.6903 76.7151 86.1151 75.4406 86.1516 74.2027L85.5061 74.1836L84.8605 74.1646C84.832 75.1301 84.4986 76.1938 83.8118 77.3639L84.3688 77.6908ZM85.5061 74.1836L86.1516 74.2027C86.1845 73.0894 86.0657 72.1348 85.6362 71.5255L85.1083 71.8976L84.5805 72.2697C84.7463 72.5049 84.8927 73.0743 84.8605 74.1646L85.5061 74.1836ZM85.1083 71.8976L84.8003 71.3299C83.8872 71.8254 83.0463 72.8353 82.248 74.2209L82.8076 74.5434L83.3672 74.8658C84.1306 73.5407 84.8236 72.7868 85.4163 72.4652L85.1083 71.8976ZM82.8076 74.5434L82.2449 74.2264C81.4527 75.6329 81.0053 76.9403 80.9701 78.1332L81.6157 78.1523L82.2612 78.1713C82.288 77.264 82.6352 76.1655 83.3703 74.8603L82.8076 74.5434ZM81.6157 78.1523L80.9701 78.1332C80.9544 78.6669 80.9672 79.1266 81.0152 79.5017C81.0603 79.8551 81.1462 80.2213 81.3397 80.496L81.8676 80.1239L82.3955 79.7518C82.3989 79.7566 82.3817 79.7328 82.3587 79.6562C82.3365 79.5824 82.3144 79.4784 82.2964 79.338C82.2604 79.0559 82.2465 78.6705 82.2612 78.1713L81.6157 78.1523ZM78.1479 78.3084L78.7934 78.3274C78.8527 76.3177 79.5256 74.4218 80.8379 72.6287L80.3168 72.2472L79.7956 71.8658C78.3431 73.8505 77.57 75.9954 77.5023 78.2893L78.1479 78.3084ZM80.3168 72.2472L80.8356 72.6318C82.2065 70.7821 83.3851 70.0893 84.3596 70.1181L84.3787 69.4725L84.3977 68.8269C82.7557 68.7785 81.2263 69.9355 79.7979 71.8627L80.3168 72.2472ZM84.3787 69.4725L84.3596 70.1181C85.4953 70.1516 86.4166 70.5744 87.1646 71.3985L87.6428 70.9644L88.121 70.5304C87.1335 69.4424 85.8788 68.8706 84.3977 68.8269L84.3787 69.4725ZM87.6428 70.9644L87.1686 71.4029C87.919 72.2143 88.2754 73.1723 88.2417 74.316L88.8872 74.3351L89.5328 74.3541C89.5762 72.8812 89.103 71.5921 88.1169 70.5259L87.6428 70.9644ZM88.8872 74.3351L88.2417 74.316C88.2067 75.5011 87.8867 76.7177 87.2629 77.9706L87.8411 78.2584L88.4192 78.5462C89.1142 77.1503 89.4916 75.7513 89.5328 74.3541L88.8872 74.3351ZM87.8411 78.2584L87.2629 77.9706C86.6468 79.2083 85.8082 80.2225 84.7456 81.0224L85.134 81.5383L85.5224 82.0543C86.7505 81.1299 87.7167 79.9575 88.4192 78.5462L87.8411 78.2584ZM85.134 81.5383L84.7505 81.0187C83.7076 81.7884 82.6375 82.1366 81.5249 82.1038L81.5059 82.7494L81.4868 83.3949C82.922 83.4373 84.2706 82.9782 85.5175 82.058L85.134 81.5383ZM81.5059 82.7494L81.5249 82.1038C80.8024 82.0825 80.1677 81.7541 79.6022 81.0182L79.0901 81.4117L78.578 81.8052C79.3399 82.7969 80.3157 83.3604 81.4868 83.3949L81.5059 82.7494ZM79.0901 81.4117L79.6022 81.0182C79.039 80.2851 78.7618 79.4006 78.7934 78.3274L78.1479 78.3084L77.5023 78.2893C77.4629 79.6262 77.8138 80.8106 78.578 81.8052L79.0901 81.4117ZM107.631 70.6755L107.292 71.2255L107.299 71.2297L107.631 70.6755ZM107.492 75.3751L108.108 75.5681V75.5681L107.492 75.3751ZM104.563 80.9228L104.058 80.5194L104.058 80.5202L104.563 80.9228ZM100.657 82.7717L100.267 83.286V83.286L100.657 82.7717ZM99.6588 81.5793L100.249 81.3171L100.246 81.3095L100.242 81.3019L99.6588 81.5793ZM99.2994 75.366L99.945 75.385L98.6879 75.1582L99.2994 75.366ZM96.5989 81.0496L97.1245 81.425L97.1266 81.4221L96.5989 81.0496ZM93.1174 82.5492L92.7266 83.0636L92.7352 83.0699L93.1174 82.5492ZM92.2183 81.4889L92.8247 81.2669L92.8233 81.263L92.2183 81.4889ZM91.2907 76.1376L90.6482 76.2029V76.2029L91.2907 76.1376ZM93.6661 70.9612L94.1657 70.552V70.552L93.6661 70.9612ZM94.5455 78.8181L93.8997 78.8216L93.9106 80.8542L95.0749 79.188L94.5455 78.8181ZM96.5205 74.948L95.9201 74.71L95.9179 74.7159L96.5205 74.948ZM97.9988 71.27L97.4016 71.0243V71.0243L97.9988 71.27ZM101.337 71.1101L100.868 71.5531L100.873 71.5586L101.337 71.1101ZM102.138 75.5014L101.499 75.4112L101.497 75.4213L102.138 75.5014ZM101.974 79.3216L101.336 79.4236L101.529 80.6285L102.417 79.7915L101.974 79.3216ZM103.52 76.8603L102.925 76.6076L102.922 76.6158L103.52 76.8603ZM104.541 73.7632L103.912 73.6196L103.911 73.6222L104.541 73.7632ZM106.07 70.1384L106.051 70.7839C106.386 70.7938 106.797 70.9204 107.292 71.2254L107.631 70.6755L107.969 70.1255C107.348 69.7429 106.718 69.5114 106.089 69.4928L106.07 70.1384ZM107.631 70.6755L107.299 71.2297C107.55 71.3797 107.694 71.5073 107.77 71.602C107.806 71.6471 107.821 71.6782 107.827 71.6944C107.833 71.7089 107.832 71.7145 107.832 71.7152L108.478 71.7343L109.124 71.7533C109.145 71.0109 108.568 70.4839 107.962 70.1213L107.631 70.6755ZM108.478 71.7343L107.832 71.7152C107.83 71.8045 107.77 72.1192 107.6 72.7468C107.439 73.3418 107.198 74.1525 106.876 75.1821L107.492 75.3751L108.108 75.5681C108.433 74.532 108.679 73.7031 108.847 73.0845C109.006 72.4984 109.116 72.0256 109.124 71.7533L108.478 71.7343ZM107.492 75.3751L106.876 75.1821C106.252 77.1741 105.313 78.9514 104.058 80.5194L104.563 80.9228L105.067 81.3262C106.425 79.6286 107.438 77.7075 108.108 75.5681L107.492 75.3751ZM104.563 80.9228L104.058 80.5202C103.425 81.314 102.897 81.8807 102.471 82.2409C102.012 82.6291 101.788 82.6759 101.746 82.6746L101.727 83.3202L101.708 83.9657C102.268 83.9823 102.818 83.6384 103.305 83.2274C103.824 82.7885 104.412 82.1476 105.068 81.3254L104.563 80.9228ZM101.727 83.3202L101.746 82.6746C101.765 82.6752 101.716 82.676 101.573 82.6031C101.441 82.535 101.267 82.4236 101.048 82.2575L100.657 82.7717L100.267 83.286C100.52 83.4784 100.76 83.6376 100.984 83.7524C101.198 83.8622 101.448 83.9581 101.708 83.9657L101.727 83.3202ZM100.657 82.7717L101.048 82.2575C100.642 81.9492 100.389 81.6328 100.249 81.3171L99.6588 81.5793L99.0686 81.8414C99.3161 82.3986 99.7288 82.8772 100.267 83.286L100.657 82.7717ZM99.6588 81.5793L100.242 81.3019C100.196 81.2041 100.136 81.0102 100.082 80.6827C100.029 80.3645 99.9874 79.9558 99.9582 79.4513C99.8999 78.4426 99.8947 77.0895 99.945 75.385L99.2994 75.366L98.6539 75.3469C98.6031 77.0682 98.6073 78.4635 98.6687 79.5259C98.6994 80.0569 98.745 80.5145 98.8075 80.8932C98.8685 81.2625 98.9518 81.5962 99.0756 81.8566L99.6588 81.5793ZM99.2994 75.366L98.6879 75.1582C97.888 77.5126 97.0121 79.3446 96.0713 80.6771L96.5989 81.0496L97.1266 81.4221C98.1638 79.9529 99.0881 77.9957 99.9109 75.5737L99.2994 75.366ZM96.5989 81.0496L96.0734 80.6742C95.5927 81.3472 95.1828 81.818 94.844 82.1121C94.4864 82.4226 94.3014 82.455 94.2574 82.4537L94.2383 83.0992L94.2193 83.7448C94.7605 83.7607 95.2616 83.4601 95.6909 83.0874C96.139 82.6984 96.6168 82.1357 97.1245 81.425L96.5989 81.0496ZM94.2383 83.0992L94.2574 82.4537C94.2598 82.4537 94.1977 82.4492 94.0489 82.3762C93.908 82.3071 93.7259 82.1948 93.4996 82.0286L93.1174 82.5492L92.7352 83.0699C92.9979 83.2627 93.2472 83.4216 93.4799 83.5358C93.7048 83.6461 93.9586 83.7371 94.2193 83.7448L94.2383 83.0992ZM93.1174 82.5492L93.5081 82.035C93.0811 81.7105 92.8914 81.4491 92.8247 81.2669L92.2183 81.4889L91.6118 81.711C91.8002 82.2255 92.21 82.6709 92.7267 83.0635L93.1174 82.5492ZM92.2183 81.4889L92.8233 81.263C92.5049 80.4103 92.2009 78.7051 91.9332 76.0723L91.2907 76.1376L90.6482 76.2029C90.9146 78.8236 91.229 80.686 91.6132 81.7149L92.2183 81.4889ZM91.2907 76.1376L91.9332 76.0723C91.6657 73.4413 91.5513 71.6861 91.5783 70.7704L90.9327 70.7514L90.2872 70.7323C90.2573 71.7447 90.3815 73.5803 90.6482 76.2029L91.2907 76.1376ZM90.9327 70.7514L91.5783 70.7704C91.5825 70.6286 91.5978 70.5246 91.6168 70.4514C91.6358 70.3781 91.655 70.3483 91.6593 70.3425C91.6605 70.3408 91.6516 70.3517 91.6348 70.3593C91.621 70.3656 91.6263 70.3583 91.6679 70.3595L91.687 69.714L91.706 69.0684C91.2836 69.056 90.8834 69.2132 90.6146 69.5829C90.3772 69.9093 90.2992 70.3261 90.2872 70.7323L90.9327 70.7514ZM91.687 69.714L91.6679 70.3595C92.0473 70.3707 92.5493 70.617 93.1664 71.3705L93.6661 70.9612L94.1657 70.552C93.4524 69.6811 92.635 69.0959 91.706 69.0684L91.687 69.714ZM93.6661 70.9612L93.1664 71.3705C93.4827 71.7567 93.7009 72.0787 93.8359 72.3397C93.9751 72.6085 94.0005 72.7639 93.9985 72.8319L94.6441 72.8509L95.2896 72.87C95.3008 72.4903 95.1699 72.107 94.983 71.7459C94.7921 71.377 94.5146 70.978 94.1657 70.552L93.6661 70.9612ZM94.6441 72.8509L93.9985 72.8319C93.9248 75.3312 93.8917 77.3287 93.8997 78.8216L94.5455 78.8181L95.1914 78.8146C95.1835 77.3435 95.2161 75.3629 95.2896 72.87L94.6441 72.8509ZM94.5455 78.8181L95.0749 79.188C95.8322 78.1042 96.513 76.7645 97.1232 75.1801L96.5205 74.948L95.9179 74.7159C95.3339 76.2321 94.698 77.4724 94.0161 78.4482L94.5455 78.8181ZM96.5205 74.948L97.1209 75.186C97.7348 73.6373 98.2264 72.4142 98.5961 71.5157L97.9988 71.27L97.4016 71.0243C97.0288 71.9302 96.5349 73.1592 95.9202 74.71L96.5205 74.948ZM97.9988 71.27L98.5961 71.5157C98.771 71.0906 98.9273 70.8239 99.0526 70.6751C99.1824 70.5209 99.1995 70.5818 99.1047 70.579L99.1237 69.9334L99.1428 69.2879C98.6692 69.2739 98.3095 69.552 98.0644 69.8433C97.8146 70.14 97.5979 70.5471 97.4016 71.0243L97.9988 71.27ZM99.1237 69.9334L99.1047 70.579C99.6341 70.5946 100.221 70.8671 100.868 71.5531L101.337 71.1101L101.807 70.6671C101.017 69.8289 100.128 69.317 99.1428 69.2879L99.1237 69.9334ZM101.337 71.1101L100.873 71.5586C101.516 72.2254 101.752 72.8169 101.737 73.3445L102.382 73.3635L103.028 73.3826C103.057 72.3953 102.596 71.4845 101.802 70.6616L101.337 71.1101ZM102.382 73.3635L101.737 73.3445C101.728 73.6466 101.652 74.3228 101.499 75.4112L102.138 75.5014L102.778 75.5916C102.929 74.5181 103.016 73.7691 103.028 73.3826L102.382 73.3635ZM102.138 75.5014L101.497 75.4213C101.362 76.5075 101.283 77.3484 101.265 77.9309L101.911 77.9499L102.557 77.969C102.572 77.4498 102.644 76.6583 102.779 75.5816L102.138 75.5014ZM101.911 77.9499L101.265 77.9309C101.249 78.5044 101.269 79.0056 101.336 79.4236L101.974 79.3216L102.612 79.2195C102.562 78.9104 102.541 78.4972 102.557 77.969L101.911 77.9499ZM101.974 79.3216L102.417 79.7915C103.093 79.1546 103.652 78.2432 104.117 77.1048L103.52 76.8603L102.922 76.6158C102.496 77.6564 102.025 78.3859 101.531 78.8516L101.974 79.3216ZM103.52 76.8603L104.114 77.1129C104.59 75.9942 104.943 74.9243 105.172 73.9042L104.541 73.7632L103.911 73.6222C103.703 74.5534 103.376 75.5483 102.925 76.6076L103.52 76.8603ZM104.541 73.7632L105.171 73.9068C105.446 72.7019 105.702 71.8364 105.934 71.2852C106.052 71.0061 106.148 70.8452 106.213 70.7654C106.291 70.6705 106.237 70.7894 106.051 70.7839L106.07 70.1384L106.089 69.4928C105.67 69.4805 105.379 69.7454 105.212 69.949C105.034 70.1679 104.881 70.4584 104.744 70.7834C104.467 71.4405 104.191 72.3943 103.912 73.6196L104.541 73.7632ZM110.147 75.5568L109.584 75.2404V75.2404L110.147 75.5568ZM113.227 71.9261L112.828 71.418L112.825 71.4207L113.227 71.9261ZM118.737 71.7269L118.223 72.1167L118.227 72.1221L118.737 71.7269ZM118.148 74.1905L117.831 74.7536V74.7536L118.148 74.1905ZM115.39 74.807L115.815 75.2938L115.815 75.2934L115.39 74.807ZM113.462 77.0761L112.92 76.7261L112.918 76.7292L113.462 77.0761ZM112.854 80.1853L112.43 80.6729L112.441 80.6818L112.451 80.6903L112.854 80.1853ZM116.391 80.3155L116.273 79.6805L116.269 79.6812L116.391 80.3155ZM117.797 79.9435L118.055 80.5358L118.062 80.5327L118.069 80.5295L117.797 79.9435ZM117.278 82.6419L117.588 83.2089L117.593 83.2059L117.278 82.6419ZM110.416 82.2068L109.974 82.6772L109.982 82.6846L110.416 82.2068ZM108.894 79.4999L109.54 79.519C109.571 78.4486 109.944 77.2367 110.71 75.8733L110.147 75.5568L109.584 75.2404C108.751 76.7243 108.288 78.1411 108.248 79.4809L108.894 79.4999ZM110.147 75.5568L110.71 75.8733C111.471 74.5209 112.443 73.3752 113.629 72.4315L113.227 71.9261L112.825 71.4207C111.505 72.4706 110.425 73.7454 109.584 75.2404L110.147 75.5568ZM113.227 71.9261L113.625 72.4342C114.819 71.4978 115.904 71.1005 116.894 71.1297L116.913 70.4842L116.932 69.8386C115.547 69.7978 114.174 70.3618 112.828 71.418L113.227 71.9261ZM116.913 70.4842L116.894 71.1297C117.2 71.1388 117.648 71.3576 118.223 72.1166L118.737 71.7269L119.252 71.3371C118.6 70.4748 117.832 69.8652 116.932 69.8386L116.913 70.4842ZM118.737 71.7269L118.227 72.1221C118.802 72.8655 118.998 73.4254 118.986 73.8276L119.631 73.8466L120.277 73.8657C120.301 73.0284 119.901 72.1752 119.248 71.3316L118.737 71.7269ZM119.631 73.8466L118.986 73.8276C118.985 73.859 118.982 73.8829 118.979 73.9004C118.977 73.9179 118.974 73.9276 118.972 73.9312C118.971 73.9346 118.972 73.9313 118.976 73.9238C118.981 73.9159 118.989 73.9052 119 73.8937C119.011 73.8822 119.024 73.8724 119.036 73.8648C119.048 73.8574 119.058 73.8537 119.063 73.8521C119.071 73.8494 119.057 73.8556 119.011 73.8542L118.992 74.4997L118.973 75.1453C119.293 75.1547 119.65 75.0761 119.923 74.7975C120.186 74.5283 120.268 74.1767 120.277 73.8657L119.631 73.8466ZM118.992 74.4997L119.011 73.8542C118.968 73.8529 118.802 73.8171 118.464 73.6275L118.148 74.1905L117.831 74.7536C118.206 74.9641 118.602 75.1344 118.973 75.1453L118.992 74.4997ZM118.148 74.1905L118.464 73.6275C118.025 73.3804 117.556 73.2427 117.065 73.2282L117.046 73.8737L117.027 74.5193C117.293 74.5272 117.559 74.6006 117.831 74.7536L118.148 74.1905ZM117.046 73.8737L117.065 73.2282C116.704 73.2175 116.348 73.3573 116.031 73.5361C115.702 73.7213 115.346 73.9882 114.965 74.3206L115.39 74.807L115.815 75.2934C116.16 74.9924 116.442 74.7871 116.665 74.6613C116.9 74.529 117.01 74.5188 117.027 74.5193L117.046 73.8737ZM115.39 74.807L114.966 74.3201C114.207 74.9816 113.526 75.7859 112.92 76.7261L113.462 77.0761L114.005 77.4261C114.555 76.5741 115.159 75.8656 115.815 75.2938L115.39 74.807ZM113.462 77.0761L112.918 76.7292C112.347 77.6254 111.975 78.4493 111.954 79.1508L112.599 79.1699L113.245 79.1889C113.255 78.8576 113.458 78.2857 114.007 77.423L113.462 77.0761ZM112.599 79.1699L111.954 79.1508C111.945 79.4428 111.963 79.7208 112.025 79.968C112.087 80.2131 112.204 80.476 112.43 80.6729L112.854 80.1853L113.277 79.6978C113.319 79.7341 113.301 79.7475 113.278 79.6542C113.255 79.5628 113.238 79.4135 113.245 79.1889L112.599 79.1699ZM112.854 80.1853L112.451 80.6903C112.679 80.8716 112.977 80.9583 113.244 81.0092C113.53 81.064 113.877 81.0943 114.274 81.106L114.293 80.4604L114.312 79.8149C113.951 79.8042 113.679 79.7774 113.486 79.7405C113.273 79.6998 113.231 79.6601 113.256 79.6803L112.854 80.1853ZM114.293 80.4604L114.274 81.106C115.086 81.1299 115.833 81.0798 116.512 80.9499L116.391 80.3155L116.269 79.6812C115.701 79.7901 115.049 79.8366 114.312 79.8149L114.293 80.4604ZM116.391 80.3155L116.508 80.9505C117.159 80.8298 117.688 80.6954 118.055 80.5358L117.797 79.9435L117.54 79.3513C117.313 79.4499 116.904 79.5635 116.273 79.6805L116.391 80.3155ZM117.797 79.9435L118.069 80.5295C118.329 80.4087 118.505 80.3779 118.611 80.3811L118.63 79.7355L118.649 79.09C118.274 79.0789 117.894 79.1868 117.526 79.3576L117.797 79.9435ZM118.63 79.7355L118.611 80.3811C118.688 80.3833 118.731 80.393 118.75 80.3991C118.767 80.4045 118.755 80.4038 118.734 80.3842C118.723 80.3747 118.713 80.3632 118.705 80.3505C118.697 80.338 118.692 80.3272 118.689 80.3203C118.685 80.3074 118.691 80.3155 118.69 80.3575L119.335 80.3766L119.981 80.3956C119.991 80.0613 119.899 79.6983 119.603 79.4287C119.325 79.176 118.968 79.0994 118.649 79.09L118.63 79.7355ZM119.335 80.3766L118.69 80.3575C118.684 80.5361 118.601 80.7736 118.326 81.0768C118.048 81.3831 117.605 81.72 116.964 82.0779L117.278 82.6419L117.593 83.2059C118.3 82.811 118.875 82.394 119.282 81.9451C119.693 81.4933 119.964 80.9745 119.981 80.3956L119.335 80.3766ZM117.278 82.6419L116.969 82.0749C115.705 82.7644 114.48 83.0762 113.286 83.041L113.267 83.6866L113.248 84.3321C114.705 84.3751 116.155 83.9905 117.588 83.2089L117.278 82.6419ZM113.267 83.6866L113.286 83.041C112.673 83.0229 111.867 82.653 110.851 81.7291L110.416 82.2068L109.982 82.6846C111.08 83.6838 112.175 84.3004 113.248 84.3321L113.267 83.6866ZM110.416 82.2068L110.859 81.7365C109.862 80.7976 109.523 80.0633 109.54 79.519L108.894 79.4999L108.248 79.4809C108.216 80.5892 108.893 81.6594 109.974 82.6771L110.416 82.2068ZM132.857 76.9247L132.305 76.5902L132.034 77.0365L132.414 77.3946L132.857 76.9247ZM132.949 79.0725L132.334 78.8729V78.8729L132.949 79.0725ZM132.487 80.713L133.118 80.8472L133.119 80.8423L132.487 80.713ZM132.279 81.6114L131.655 81.4477L131.649 81.4709L131.644 81.4944L132.279 81.6114ZM132.186 82.1514L132.822 82.2615L132.824 82.2503L132.186 82.1514ZM132.069 82.6131L131.451 82.4249L131.443 82.4516L131.437 82.4789L132.069 82.6131ZM131.952 83.0749L131.336 82.8792L131.325 82.9141L131.318 82.95L131.952 83.0749ZM131.837 83.4592L131.231 83.2369L131.222 83.2602L131.215 83.2841L131.837 83.4592ZM131.698 83.791L132.203 84.1936L132.224 84.1676L132.242 84.1395L131.698 83.791ZM131.511 84.0181L131.018 83.6L131.012 83.6076L131.005 83.6155L131.511 84.0181ZM130.106 83.4598L129.569 83.8195L129.573 83.8257L129.578 83.8318L130.106 83.4598ZM129.383 81.681L130.014 81.5429L129.767 80.4148L128.935 81.2157L129.383 81.681ZM122.864 82.755L122.403 83.2076L122.408 83.2123L122.864 82.755ZM122.859 76.7848L122.288 76.4843V76.4843L122.859 76.7848ZM126.005 72.665L125.562 72.195L125.558 72.198L126.005 72.665ZM132.351 72.1803L132.795 71.7109L132.795 71.7109L132.351 72.1803ZM128.001 79.4693L128.395 79.981L128.396 79.9803L128.001 79.4693ZM130.249 75.9691L130.879 76.11L130.887 76.0761L130.891 76.0417L130.249 75.9691ZM130.699 75.6205L130.76 76.2634L131.358 76.2065L131.344 75.6056L130.699 75.6205ZM127.888 75.4084L127.436 74.9472L127.431 74.9518L127.888 75.4084ZM125.712 78.2129L125.153 77.8883L125.149 77.8958L125.712 78.2129ZM124.888 80.7213L124.341 81.0636L124.409 81.1731L124.514 81.2479L124.888 80.7213ZM132.857 76.9247L132.414 77.3946C132.536 77.5102 132.603 77.5969 132.635 77.6531C132.667 77.7079 132.653 77.7088 132.654 77.6682L133.3 77.6873L133.945 77.7063C133.96 77.1913 133.631 76.7671 133.3 76.4549L132.857 76.9247ZM133.3 77.6873L132.654 77.6682C132.653 77.705 132.638 77.8184 132.581 78.0428C132.527 78.2546 132.446 78.5302 132.334 78.8729L132.949 79.0725L133.563 79.2722C133.679 78.9152 133.77 78.61 133.833 78.3601C133.893 78.1227 133.94 77.8934 133.945 77.7063L133.3 77.6873ZM132.949 79.0725L132.334 78.8729C132.105 79.5801 131.942 80.154 131.854 80.5836L132.487 80.713L133.119 80.8423C133.193 80.4841 133.338 79.9643 133.563 79.2722L132.949 79.0725ZM132.487 80.713L131.855 80.5787C131.776 80.9512 131.709 81.2395 131.655 81.4477L132.279 81.6114L132.904 81.7751C132.966 81.5388 133.038 81.2281 133.118 80.8472L132.487 80.713ZM132.279 81.6114L131.644 81.4944C131.603 81.72 131.57 81.9066 131.548 82.0524L132.186 82.1514L132.824 82.2503C132.844 82.1217 132.874 81.9484 132.914 81.7284L132.279 81.6114ZM132.186 82.1514L131.549 82.0412C131.535 82.1239 131.505 82.2492 131.451 82.4249L132.069 82.6131L132.687 82.8014C132.748 82.6014 132.795 82.4189 132.822 82.2615L132.186 82.1514ZM132.069 82.6131L131.437 82.4789C131.399 82.6562 131.366 82.7876 131.336 82.8792L131.952 83.0749L132.567 83.2705C132.614 83.1232 132.658 82.9467 132.701 82.7473L132.069 82.6131ZM131.952 83.0749L131.318 82.95C131.307 83.0067 131.281 83.0998 131.231 83.2369L131.837 83.4592L132.444 83.6814C132.506 83.5117 132.556 83.3486 132.585 83.1998L131.952 83.0749ZM131.837 83.4592L131.215 83.2841C131.188 83.3827 131.163 83.4288 131.154 83.4426L131.698 83.791L132.242 84.1395C132.341 83.9842 132.41 83.809 132.459 83.6342L131.837 83.4592ZM131.698 83.791L131.193 83.3885C131.145 83.4493 131.086 83.5197 131.018 83.6L131.511 84.0181L132.003 84.4362C132.077 84.3484 132.144 84.2674 132.203 84.1936L131.698 83.791ZM131.511 84.0181L131.005 83.6155C131.017 83.6013 131.031 83.5884 131.045 83.5779C131.06 83.5677 131.072 83.5625 131.077 83.5605C131.083 83.5586 131.081 83.56 131.069 83.5616C131.057 83.5632 131.037 83.5648 131.007 83.5639L130.988 84.2094L130.969 84.855C131.327 84.8655 131.736 84.7716 132.016 84.4207L131.511 84.0181ZM130.988 84.2094L131.007 83.5639C131.098 83.5666 131.103 83.6077 131.005 83.5245C130.916 83.4487 130.791 83.3114 130.633 83.0877L130.106 83.4598L129.578 83.8318C129.767 84.1008 129.964 84.3348 130.168 84.5089C130.365 84.6755 130.637 84.8452 130.969 84.855L130.988 84.2094ZM130.106 83.4598L130.642 83.1C130.365 82.6871 130.151 82.1727 130.014 81.5429L129.383 81.681L128.752 81.8191C128.918 82.5766 129.186 83.2481 129.569 83.8195L130.106 83.4598ZM129.383 81.681L128.935 81.2157C128.124 81.9961 127.405 82.5552 126.775 82.9127C126.143 83.2719 125.64 83.4055 125.249 83.394L125.23 84.0395L125.211 84.6851C125.921 84.706 126.661 84.4629 127.413 84.0359C128.168 83.6071 128.974 82.9708 129.831 82.1462L129.383 81.681ZM125.23 84.0395L125.249 83.394C124.747 83.3792 124.107 83.0822 123.32 82.2977L122.864 82.755L122.408 83.2123C123.295 84.0969 124.232 84.6562 125.211 84.6851L125.23 84.0395ZM122.864 82.755L123.325 82.3025C122.553 81.5167 122.274 80.8473 122.291 80.2829L121.645 80.2638L121 80.2448C120.969 81.2986 121.502 82.29 122.403 83.2075L122.864 82.755ZM121.645 80.2638L122.291 80.2829C122.311 79.6126 122.654 78.5637 123.431 77.0853L122.859 76.7848L122.288 76.4843C121.495 77.992 121.029 79.2625 121 80.2448L121.645 80.2638ZM122.859 76.7848L123.431 77.0853C124.181 75.6587 125.186 74.3408 126.451 73.1319L126.005 72.665L125.558 72.198C124.2 73.4962 123.107 74.9248 122.288 76.4843L122.859 76.7848ZM126.005 72.665L126.448 73.1349C127.709 71.9461 128.843 71.4565 129.864 71.4866L129.883 70.8411L129.902 70.1955C128.41 70.1515 126.959 70.8778 125.562 72.195L126.005 72.665ZM129.883 70.8411L129.864 71.4866C130.347 71.5008 131.022 71.8124 131.907 72.6496L132.351 72.1803L132.795 71.7109C131.836 70.8052 130.866 70.224 129.902 70.1955L129.883 70.8411ZM132.351 72.1803L131.907 72.6496C132.794 73.4883 133.069 74.108 133.057 74.5271L133.702 74.5461L134.348 74.5652C134.377 73.5727 133.751 72.6151 132.795 71.7109L132.351 72.1803ZM133.702 74.5461L133.057 74.5271C133.041 75.0608 132.818 75.7426 132.305 76.5902L132.857 76.9247L133.409 77.2593C133.983 76.3126 134.323 75.4087 134.348 74.5652L133.702 74.5461ZM125.222 80.7829L125.203 81.4284C125.687 81.4427 126.196 81.2966 126.709 81.0536C127.228 80.8084 127.791 80.4462 128.395 79.981L128.001 79.4693L127.607 78.9576C127.047 79.3884 126.565 79.6932 126.157 79.8859C125.745 80.0808 125.446 80.1434 125.241 80.1373L125.222 80.7829ZM128.001 79.4693L128.396 79.9803C129.693 78.978 130.528 77.6818 130.879 76.11L130.249 75.9691L129.619 75.8282C129.335 77.0978 128.671 78.135 127.606 78.9582L128.001 79.4693ZM130.249 75.9691L130.891 76.0417C130.889 76.0609 130.881 76.096 130.859 76.1371C130.836 76.1794 130.806 76.2136 130.775 76.2378C130.718 76.2818 130.69 76.2701 130.76 76.2634L130.699 75.6205L130.637 74.9776C130.431 74.9973 130.19 75.0567 129.983 75.2169C129.757 75.3924 129.637 75.6382 129.607 75.8965L130.249 75.9691ZM130.699 75.6205L131.344 75.6056C131.333 75.0983 131.288 74.6586 131.188 74.3258C131.139 74.1605 131.061 73.9732 130.928 73.8154C130.782 73.6419 130.559 73.4971 130.271 73.4886L130.251 74.1342L130.232 74.7797C130.082 74.7753 129.981 74.6955 129.941 74.6479C129.914 74.616 129.927 74.6155 129.951 74.6979C130 74.8606 130.042 75.1599 130.053 75.6354L130.699 75.6205ZM130.251 74.1342L130.271 73.4886C129.309 73.4603 128.356 74.0451 127.436 74.9472L127.888 75.4084L128.34 75.8695C129.194 75.0321 129.817 74.7675 130.232 74.7797L130.251 74.1342ZM127.888 75.4084L127.431 74.9518C126.524 75.859 125.764 76.8377 125.153 77.8884L125.712 78.2129L126.27 78.5374C126.821 77.5892 127.512 76.6983 128.345 75.8649L127.888 75.4084ZM125.712 78.2129L125.149 77.8958C124.858 78.4117 124.63 78.8757 124.471 79.2839C124.314 79.6846 124.21 80.0695 124.199 80.4167L124.845 80.4358L125.49 80.4548C125.494 80.3201 125.541 80.0935 125.674 79.7532C125.804 79.4205 126.002 79.014 126.274 78.53L125.712 78.2129ZM124.845 80.4358L124.199 80.4167C124.197 80.5093 124.199 80.6088 124.214 80.7072C124.228 80.799 124.259 80.9328 124.341 81.0636L124.888 80.7213L125.436 80.3791C125.462 80.4211 125.476 80.4565 125.482 80.477C125.489 80.4979 125.491 80.5113 125.491 80.5137C125.492 80.5169 125.489 80.5 125.49 80.4548L124.845 80.4358ZM124.888 80.7213L124.514 81.2479C124.656 81.3485 124.809 81.3833 124.893 81.3988C124.993 81.4173 125.099 81.4254 125.203 81.4284L125.222 80.7829L125.241 80.1373C125.209 80.1364 125.183 80.1348 125.163 80.133C125.142 80.1311 125.131 80.1293 125.127 80.1286C125.122 80.1276 125.131 80.129 125.15 80.1356C125.16 80.139 125.175 80.1448 125.193 80.1536C125.211 80.1624 125.235 80.1756 125.262 80.1948L124.888 80.7213ZM145.62 72.4942L146.13 72.099V72.099L145.62 72.4942ZM145.056 74.9587L144.781 75.5431L144.792 75.5482L144.803 75.5529L145.056 74.9587ZM142.056 75.0252L141.862 74.4092L141.858 74.4106L142.056 75.0252ZM141.537 76.8449L141.15 77.3619V77.3619L141.537 76.8449ZM144.512 79.3879L143.984 79.76L143.989 79.7671L144.512 79.3879ZM143.512 83.4935L143.161 82.951L143.157 82.9537L143.512 83.4935ZM136.252 83.4085L136.615 82.8745V82.8745L136.252 83.4085ZM136.461 80.701L136.802 80.152L136.791 80.1459L136.461 80.701ZM140.878 79.9268L140.433 80.3956L140.442 80.404L140.451 80.412L140.878 79.9268ZM139.312 78.6917L138.949 79.2262L138.956 79.2309L139.312 78.6917ZM137.749 77.3275L137.258 77.7461L137.265 77.7544L137.272 77.7625L137.749 77.3275ZM139.692 72.8104L140.025 73.3637L140.029 73.3613L139.692 72.8104ZM143.717 71.2751L143.698 71.9207C144.075 71.9318 144.549 72.1665 145.109 72.8895L145.62 72.4942L146.13 72.099C145.462 71.2351 144.668 70.657 143.736 70.6296L143.717 71.2751ZM145.62 72.4942L145.109 72.8895C145.684 73.6328 145.88 74.1928 145.868 74.595L146.513 74.614L147.159 74.6331C147.184 73.7958 146.783 72.9426 146.13 72.099L145.62 72.4942ZM146.513 74.614L145.868 74.595C145.866 74.6533 145.859 74.6802 145.857 74.6851C145.856 74.6881 145.863 74.6651 145.891 74.6354C145.904 74.621 145.92 74.608 145.936 74.5972C145.953 74.5865 145.968 74.5799 145.979 74.576C146.001 74.5685 146.002 74.5731 145.972 74.5722L145.953 75.2177L145.934 75.8633C146.238 75.8723 146.58 75.7914 146.837 75.5143C147.08 75.2532 147.15 74.9196 147.159 74.6331L146.513 74.614ZM145.953 75.2177L145.972 74.5722C145.893 74.5699 145.688 74.5258 145.309 74.3645L145.056 74.9587L144.803 75.5529C145.207 75.7248 145.599 75.8534 145.934 75.8633L145.953 75.2177ZM145.056 74.9587L145.331 74.3743C144.863 74.1545 144.375 74.034 143.869 74.0191L143.85 74.6647L143.831 75.3102C144.151 75.3197 144.467 75.3953 144.781 75.5431L145.056 74.9587ZM143.85 74.6647L143.869 74.0191C143.357 74.004 142.671 74.1542 141.862 74.4093L142.056 75.0252L142.25 75.6412C143.041 75.3921 143.55 75.3019 143.831 75.3102L143.85 74.6647ZM142.056 75.0252L141.858 74.4106C141.049 74.6715 140.243 75.1523 140.216 76.0564L140.862 76.0755L141.507 76.0945C141.508 76.0825 141.505 76.0426 141.597 75.9622C141.703 75.8687 141.905 75.7524 142.254 75.6399L142.056 75.0252ZM140.862 76.0755L140.216 76.0564C140.206 76.4051 140.412 76.6759 140.541 76.8229C140.697 76.9996 140.907 77.1798 141.15 77.3619L141.537 76.8449L141.924 76.3279C141.712 76.1691 141.582 76.0507 141.512 75.971C141.478 75.9316 141.471 75.9169 141.476 75.9255C141.479 75.9323 141.51 75.9938 141.507 76.0945L140.862 76.0755ZM141.537 76.8449L141.15 77.3619C141.616 77.7106 142.123 78.0681 142.673 78.4342L143.031 77.8969L143.389 77.3596C142.857 77.0046 142.369 76.6607 141.924 76.3279L141.537 76.8449ZM143.031 77.8969L142.673 78.4342C143.136 78.743 143.575 79.1794 143.984 79.76L144.512 79.3879L145.04 79.0158C144.556 78.3295 144.007 77.7719 143.389 77.3596L143.031 77.8969ZM144.512 79.3879L143.989 79.7671C144.357 80.2743 144.522 80.8052 144.505 81.3777L145.15 81.3968L145.796 81.4158C145.822 80.5423 145.561 79.7339 145.034 79.0087L144.512 79.3879ZM145.15 81.3968L144.505 81.3777C144.494 81.7466 144.194 82.2842 143.161 82.951L143.512 83.4935L143.862 84.036C144.973 83.3188 145.765 82.4585 145.796 81.4158L145.15 81.3968ZM143.512 83.4935L143.157 82.9537C142.227 83.5649 141.128 83.8625 139.832 83.8243L139.813 84.4698L139.794 85.1154C141.322 85.1605 142.688 84.8071 143.866 84.0333L143.512 83.4935ZM139.813 84.4698L139.832 83.8243C138.539 83.7861 137.476 83.4602 136.615 82.8745L136.252 83.4085L135.889 83.9425C136.987 84.6896 138.299 85.0713 139.794 85.1154L139.813 84.4698ZM136.252 83.4085L136.615 82.8745C135.68 82.238 135.448 81.745 135.458 81.4209L134.812 81.4018L134.167 81.3828C134.137 82.4015 134.865 83.2462 135.889 83.9425L136.252 83.4085ZM134.812 81.4018L135.458 81.4209C135.466 81.1571 135.525 81.0809 135.528 81.0769C135.529 81.0762 135.528 81.0771 135.526 81.0783C135.525 81.0794 135.525 81.0785 135.53 81.0767C135.541 81.0728 135.576 81.0626 135.649 81.0647L135.668 80.4192L135.687 79.7736C135.275 79.7614 134.857 79.881 134.554 80.2284C134.272 80.552 134.179 80.9752 134.167 81.3828L134.812 81.4018ZM135.668 80.4192L135.649 81.0647C135.717 81.0667 135.871 81.1013 136.131 81.2561L136.461 80.701L136.791 80.1459C136.442 79.9381 136.067 79.7848 135.687 79.7736L135.668 80.4192ZM136.461 80.701L136.121 81.2499C137.087 81.849 138.266 82.1499 139.622 82.1899L139.641 81.5443L139.66 80.8988C138.469 80.8636 137.527 80.6022 136.801 80.1521L136.461 80.701ZM139.641 81.5443L139.622 82.1899C140.282 82.2093 140.836 82.1831 141.245 82.0867C141.448 82.0391 141.669 81.9625 141.854 81.8234C142.058 81.6695 142.229 81.4262 142.238 81.1041L141.593 81.085L140.947 81.066C140.952 80.9161 141.038 80.8209 141.077 80.7914C141.096 80.7767 141.072 80.8005 140.949 80.8294C140.708 80.8861 140.291 80.9174 139.66 80.8988L139.641 81.5443ZM141.593 81.085L142.238 81.1041C142.258 80.4525 141.818 79.8933 141.304 79.4416L140.878 79.9268L140.451 80.412C140.911 80.816 140.948 81.029 140.947 81.066L141.593 81.085ZM140.878 79.9268L141.322 79.4579C140.823 78.9857 140.271 78.5507 139.667 78.1525L139.312 78.6917L138.956 79.2309C139.501 79.5902 139.993 79.9787 140.433 80.3956L140.878 79.9268ZM139.312 78.6917L139.674 78.1573C139.162 77.8094 138.679 77.3887 138.227 76.8926L137.749 77.3275L137.272 77.7625C137.788 78.3287 138.347 78.8175 138.949 79.2261L139.312 78.6917ZM137.749 77.3275L138.241 76.909C137.834 76.4298 137.709 76.0572 137.718 75.7759L137.072 75.7569L136.427 75.7378C136.405 76.4551 136.733 77.1295 137.258 77.7461L137.749 77.3275ZM137.072 75.7569L137.718 75.7759C137.725 75.5147 137.853 75.1761 138.23 74.7522C138.607 74.3283 139.195 73.8632 140.025 73.3637L139.692 72.8104L139.359 72.2571C138.47 72.7923 137.761 73.3356 137.265 73.8939C136.769 74.4522 136.446 75.0695 136.427 75.7378L137.072 75.7569ZM139.692 72.8104L140.029 73.3613C141.736 72.3172 142.937 71.8982 143.698 71.9207L143.717 71.2751L143.736 70.6296C142.57 70.5951 141.087 71.1996 139.355 72.2595L139.692 72.8104ZM157.421 78.7609L157.113 78.1934L157.109 78.1954L157.421 78.7609ZM150.918 79.3185L151.077 78.6924L150.512 78.5494L150.311 79.0963L150.918 79.3185ZM150.847 81.7199L150.319 82.092L150.327 82.1032L150.335 82.114L150.847 81.7199ZM155.317 81.7743L155.173 81.1446L155.17 81.1453L155.317 81.7743ZM156.077 84.0452L155.787 83.4677L155.784 83.4696L156.077 84.0452ZM148.757 83.364L149.235 82.9301V82.9301L148.757 83.364ZM148.735 76.2044L148.178 75.879L148.174 75.8846L148.735 76.2044ZM151.599 72.8774L151.996 73.3868L152.001 73.3831L151.599 72.8774ZM157.919 73.2965L157.416 73.7022L157.419 73.7061L157.919 73.2965ZM155.715 75.2732L155.268 75.7391V75.7391L155.715 75.2732ZM153.463 75.4135L153.879 75.907L153.888 75.899L153.463 75.4135ZM151.99 77.1275L151.452 76.7715L150.888 77.6242L151.9 77.767L151.99 77.1275ZM159.218 76.5396L158.573 76.5205C158.558 77.0209 158.209 77.598 157.113 78.1934L157.421 78.7609L157.73 79.3284C158.98 78.6491 159.829 77.7453 159.864 76.5586L159.218 76.5396ZM157.421 78.7609L157.109 78.1954C156.045 78.7829 154.978 79.0506 153.899 79.0188L153.88 79.6643L153.861 80.3099C155.192 80.3492 156.486 80.0146 157.733 79.3263L157.421 78.7609ZM153.88 79.6643L153.899 79.0188C152.719 78.984 151.783 78.8715 151.077 78.6924L150.918 79.3185L150.759 79.9445C151.592 80.1554 152.63 80.2736 153.861 80.3099L153.88 79.6643ZM150.918 79.3185L150.311 79.0963C150.12 79.6181 150.015 80.1491 149.999 80.687L150.644 80.706L151.29 80.7251C151.301 80.3333 151.378 79.9393 151.524 79.5407L150.918 79.3185ZM150.644 80.706L149.999 80.687C149.984 81.1932 150.047 81.7063 150.319 82.092L150.847 81.7199L151.375 81.3478C151.349 81.3112 151.277 81.1485 151.29 80.7251L150.644 80.706ZM150.847 81.7199L150.335 82.114C150.534 82.3725 150.826 82.4988 151.076 82.5675C151.337 82.6397 151.645 82.6739 151.982 82.6838L152.001 82.0383L152.02 81.3927C151.736 81.3843 151.542 81.3563 151.419 81.3224C151.284 81.285 151.309 81.2613 151.359 81.3259L150.847 81.7199ZM152.001 82.0383L151.982 82.6838C153.309 82.723 154.474 82.6337 155.463 82.4033L155.317 81.7743L155.17 81.1453C154.321 81.3431 153.274 81.4297 152.02 81.3927L152.001 82.0383ZM155.317 81.7743L155.46 82.4039C155.928 82.2973 156.281 82.2178 156.521 82.1653C156.642 82.1389 156.731 82.1199 156.791 82.1078C156.821 82.1016 156.841 82.098 156.851 82.0962C156.856 82.0952 156.855 82.0956 156.849 82.0964C156.846 82.0968 156.838 82.0978 156.827 82.0988C156.821 82.0994 156.792 82.1021 156.754 82.101L156.773 81.4554L156.792 80.8099C156.73 80.808 156.676 80.8164 156.674 80.8166C156.657 80.8189 156.641 80.8217 156.628 80.8239C156.601 80.8286 156.569 80.8348 156.535 80.8418C156.465 80.856 156.368 80.8767 156.245 80.9035C156 80.9572 155.642 81.0377 155.173 81.1446L155.317 81.7743ZM156.773 81.4554L156.754 82.101C156.897 82.1052 157.003 82.1203 157.078 82.1391C157.154 82.158 157.185 82.1774 157.191 82.1818C157.193 82.1833 157.18 82.1731 157.17 82.1514C157.161 82.1323 157.167 82.1308 157.166 82.1648L157.811 82.1839L158.457 82.2029C158.469 81.7791 158.304 81.3847 157.933 81.1245C157.608 80.8967 157.196 80.8218 156.792 80.8099L156.773 81.4554ZM157.811 82.1839L157.166 82.1648C157.158 82.4447 156.899 82.9108 155.787 83.4678L156.077 84.0452L156.366 84.6226C157.528 84.0406 158.426 83.2657 158.457 82.2029L157.811 82.1839ZM156.077 84.0452L155.784 83.4696C154.775 83.9829 153.594 84.2304 152.221 84.1899L152.202 84.8354L152.183 85.481C153.737 85.5268 155.139 85.2474 156.37 84.6207L156.077 84.0452ZM152.202 84.8354L152.221 84.1899C150.924 84.1516 149.951 83.7194 149.235 82.9301L148.757 83.364L148.278 83.7979C149.265 84.8851 150.589 85.4339 152.183 85.481L152.202 84.8354ZM148.757 83.364L149.235 82.9301C148.494 82.1125 148.149 81.185 148.181 80.1164L147.535 80.0974L146.89 80.0783C146.848 81.4887 147.318 82.7389 148.278 83.7979L148.757 83.364ZM147.535 80.0974L148.181 80.1164C148.214 78.9867 148.574 77.7915 149.297 76.5243L148.735 76.2044L148.174 75.8846C147.371 77.2946 146.93 78.6947 146.89 80.0783L147.535 80.0974ZM148.735 76.2044L149.293 76.5298C150.036 75.2568 150.937 74.2121 151.996 73.3868L151.599 72.8774L151.202 72.3681C150.003 73.3025 148.996 74.4758 148.178 75.8791L148.735 76.2044ZM151.599 72.8774L152.001 73.3831C153.05 72.5494 154.012 72.1992 154.901 72.2254L154.92 71.5798L154.939 70.9343C153.658 70.8965 152.406 71.4113 151.197 72.3718L151.599 72.8774ZM154.92 71.5798L154.901 72.2254C155.761 72.2508 156.599 72.6904 157.416 73.7022L157.919 73.2965L158.421 72.8908C157.443 71.6787 156.281 70.9739 154.939 70.9343L154.92 71.5798ZM157.919 73.2965L157.419 73.7061C158.251 74.7202 158.598 75.6539 158.573 76.5205L159.218 76.5396L159.864 76.5586C159.901 75.2907 159.382 74.0623 158.418 72.8869L157.919 73.2965ZM156.235 76.038L156.881 76.0571C156.889 75.764 156.753 75.5164 156.643 75.3545C156.521 75.1749 156.354 74.9916 156.162 74.8073L155.715 75.2732L155.268 75.7391C155.428 75.8926 155.524 76.0056 155.575 76.0809C155.6 76.1177 155.606 76.1335 155.605 76.1302C155.604 76.1279 155.588 76.0873 155.59 76.019L156.235 76.038ZM155.715 75.2732L156.162 74.8073C155.75 74.4118 155.266 74.1228 154.716 74.1066L154.697 74.7521L154.678 75.3977C154.782 75.4007 154.976 75.4592 155.268 75.7391L155.715 75.2732ZM154.697 74.7521L154.716 74.1066C154.405 74.0974 154.109 74.2027 153.851 74.3414C153.587 74.4828 153.315 74.684 153.037 74.928L153.463 75.4135L153.888 75.899C154.123 75.6929 154.313 75.5589 154.461 75.4799C154.614 75.398 154.679 75.3977 154.678 75.3977L154.697 74.7521ZM153.463 75.4135L153.046 74.9201C152.476 75.4017 151.946 76.0234 151.452 76.7715L151.99 77.1275L152.529 77.4835C152.973 76.812 153.425 76.291 153.879 75.9069L153.463 75.4135ZM151.99 77.1275L151.9 77.767C152.091 77.7938 152.342 77.8098 152.642 77.8187L152.661 77.1731L152.68 76.5276C152.395 76.5191 152.199 76.5047 152.081 76.488L151.99 77.1275ZM152.661 77.1731L152.642 77.8187C153.841 77.8541 154.817 77.78 155.519 77.5571C155.873 77.4447 156.202 77.2807 156.453 77.0326C156.718 76.7699 156.87 76.4357 156.881 76.0571L156.235 76.038L155.59 76.019C155.589 76.0536 155.582 76.0765 155.544 76.115C155.49 76.1681 155.37 76.2492 155.128 76.326C154.638 76.4815 153.839 76.5618 152.68 76.5276L152.661 77.1731Z" fill="black" mask="url(#path-4-outside-1_189_498)"/>
<rect x="15.708" y="41.4636" width="24" height="24" rx="12" transform="rotate(-3.6459 15.708 41.4636)" fill="#FFF200"/>
<path d="M30.427 56.0572L29.2294 56.1335L29.1302 54.5766L25.7371 54.7928L25.6697 53.735L28.7743 49.1483L29.9818 49.0713L30.2591 53.4225L31.4666 53.3456L31.5353 54.4234L30.3278 54.5003L30.427 56.0572ZM28.8885 50.7843L26.9658 53.6323L29.0615 53.4988L28.8885 50.7843Z" fill="black"/>
</svg>
