<svg width="1246" height="1570" viewBox="0 0 1246 1570" fill="none" xmlns="http://www.w3.org/2000/svg">
<path d="M596.338 21.572C610.601 -15.3608 665.85 -1.52265 661.02 37.7728L609.636 455.819C606.159 484.113 637.281 503.606 661.219 488.129L1014.92 259.445C1048.17 237.949 1084.73 281.619 1057.73 310.57L770.438 618.575C750.994 639.42 764.714 673.484 793.178 675.034L1213.75 697.926C1253.28 700.078 1257.19 756.899 1218.33 764.449L804.864 844.763C776.881 850.199 767.958 885.822 790.075 903.806L1116.87 1169.53C1147.59 1194.51 1117.35 1242.78 1081.47 1226.04L699.765 1047.99C673.931 1035.94 645.774 1059.51 653.096 1087.06L761.287 1494.12C771.457 1532.39 718.626 1553.67 699.436 1519.04L495.285 1150.63C481.468 1125.69 444.831 1128.21 434.562 1154.81L282.827 1547.72C268.564 1584.65 213.315 1570.81 218.145 1531.52L269.529 1113.47C273.006 1085.18 241.884 1065.68 217.946 1081.16L-135.759 1309.85C-169.006 1331.34 -205.57 1287.67 -178.565 1258.72L108.727 950.715C128.171 929.87 114.451 895.806 85.9868 894.257L-334.584 871.364C-374.116 869.212 -378.028 812.391 -339.163 804.841L74.3013 724.527C102.284 719.091 111.207 683.468 89.0896 665.484L-237.703 399.759C-268.421 374.781 -238.187 326.512 -202.307 343.249L179.4 521.302C205.234 533.352 233.391 509.777 226.069 482.227L117.878 75.167C107.708 36.9043 160.539 15.6251 179.729 50.2547L383.88 418.664C397.697 443.598 434.334 441.076 444.603 414.484L596.338 21.572Z" fill="#F15BB5"/>
</svg>
