<svg width="57" height="72" viewBox="0 0 57 72" fill="none" xmlns="http://www.w3.org/2000/svg">
<g clip-path="url(#clip0_174_706)">
<path d="M0.00683594 63.4355V64.5804H2.21467V71.9807H3.48213V64.5804H5.73086V63.4355H0.00683594Z" fill="black"/>
<path d="M21.8321 48.6279L29.9684 32.3554L35.9377 33.8273V52.1032L31.4811 50.9993L31.522 47.4831L27.6787 46.5428L26.166 49.691L21.8321 48.6279ZM5.06887 13.5479H9.6072V27.2037H17.4164V31.3332H5.06887V13.5479ZM46.3636 13.5479H51.8423L46.2409 22.0521L52.0058 31.2923H46.4862L42.4385 23.4831V31.2923H37.9002V13.5479H42.4385V20.8256C42.3977 20.8664 46.3636 13.5479 46.3636 13.5479ZM19.1745 5.69779L25.3074 5.16627L30.9905 22.5019L26.4113 22.9107L25.3483 19.5581L21.3823 19.9261L20.9326 23.4014L16.5169 23.8102C16.5169 23.7693 19.1745 5.69779 19.1745 5.69779ZM-0.000976562 57.1731H56.2171V0.0146484H-0.000976562V57.1731Z" fill="black"/>
<path d="M12.6894 63.4355V66.9517H9.95008V63.4355H8.68262V72.0216H9.95008V68.1374H12.6894V72.0216H13.9569V63.4355H12.6894Z" fill="black"/>
<path d="M17.8115 63.4355V72.0216H23.004V70.8768H19.0381V68.1374H22.309V66.9517H19.0381V64.6212H22.8405V63.4764H17.8115V63.4355Z" fill="black"/>
<path d="M28.6719 64.9941L29.6123 68.6329H27.6906L28.6719 64.9941ZM27.8951 63.4404L25.6055 72.0265H26.8729L27.4862 69.6551H29.8985L30.5118 72.0265H31.8201L29.5305 63.4404C29.5714 63.4404 27.8951 63.4404 27.8951 63.4404Z" fill="black"/>
<path d="M33.3281 63.4355V64.5804H35.536V71.9807H36.8034V64.5804H39.0521V63.4355H33.3281Z" fill="black"/>
<path d="M41.9717 63.4355V72.0216H47.1642V70.8768H43.1983V68.1374H46.4691V66.9517H43.1983V64.6212H47.0006V63.4764H41.9717V63.4355Z" fill="black"/>
<path d="M53.0253 64.596H51.7987V67.2944H53.0253C53.9248 67.2944 54.4154 66.7629 54.4154 65.9452C54.4154 65.1684 53.9248 64.596 53.0253 64.596ZM54.7016 72.0372L52.78 68.4801H51.7987V72.0372H50.5312V63.4512H53.1071C54.5381 63.4512 55.7238 64.3098 55.7238 65.9452C55.7238 67.1309 55.1105 67.9486 54.0883 68.2757L56.2144 72.0372H54.7016Z" fill="black"/>
</g>
<defs>
<clipPath id="clip0_174_706">
<rect width="56.2181" height="72" fill="white"/>
</clipPath>
</defs>
</svg>
