<svg width="88" height="100" viewBox="0 0 88 100" fill="none" xmlns="http://www.w3.org/2000/svg">
<g clip-path="url(#clip0_304_778)">
<path d="M24.0049 69.1348V69.9493H25.5758V75.2148H26.4776V69.9493H28.0776V69.1348H24.0049Z" fill="black"/>
<path d="M39.5336 58.5989L45.3227 47.0207L49.5699 48.068V61.0716L46.399 60.2861L46.4281 57.7843L43.6936 57.1152L42.6172 59.3552L39.5336 58.5989ZM27.6063 33.6389H30.8354V43.3552H36.3917V46.2934H27.6063V33.6389ZM56.9881 33.6389H60.8863L56.9008 39.6898L61.0027 46.2643H57.0754L54.1954 40.708V46.2643H50.9663V33.6389H54.1954V38.817C54.1663 38.8461 56.9881 33.6389 56.9881 33.6389ZM37.6427 28.0534L42.0063 27.6752L46.0499 40.0098L42.7917 40.3007L42.0354 37.9152L39.2136 38.177L38.8936 40.6498L35.7517 40.9407C35.7517 40.9116 37.6427 28.0534 37.6427 28.0534ZM23.999 64.6789H63.999V24.0098H23.999V64.6789Z" fill="black"/>
<path d="M33.0286 69.1348V71.6366H31.0796V69.1348H30.1777V75.2439H31.0796V72.4802H33.0286V75.2439H33.9305V69.1348H33.0286Z" fill="black"/>
<path d="M36.6729 69.1348V75.2439H40.3674V74.4293H37.5456V72.4802H39.8729V71.6366H37.5456V69.9784H40.251V69.1639H36.6729V69.1348Z" fill="black"/>
<path d="M44.4006 70.2441L45.0697 72.8332H43.7024L44.4006 70.2441ZM43.8478 69.1387L42.2188 75.2478H43.1206L43.5569 73.5605H45.2733L45.7097 75.2478H46.6406L45.0115 69.1387C45.0406 69.1387 43.8478 69.1387 43.8478 69.1387Z" fill="black"/>
<path d="M47.7129 69.1348V69.9493H49.2838V75.2148H50.1856V69.9493H51.7856V69.1348H47.7129Z" fill="black"/>
<path d="M53.8633 69.1348V75.2439H57.5578V74.4293H54.736V72.4802H57.0633V71.6366H54.736V69.9784H57.4415V69.1639H53.8633V69.1348Z" fill="black"/>
<path d="M61.7286 69.961H60.8559V71.881H61.7286C62.3686 71.881 62.7177 71.5028 62.7177 70.921C62.7177 70.3683 62.3686 69.961 61.7286 69.961ZM62.9214 75.2556L61.5541 72.7247H60.8559V75.2556H59.9541V69.1465H61.7868C62.805 69.1465 63.6486 69.7574 63.6486 70.921C63.6486 71.7647 63.2123 72.3465 62.485 72.5792L63.9977 75.2556H62.9214Z" fill="black"/>
</g>
<defs>
<clipPath id="clip0_304_778">
<rect width="40" height="51.2291" fill="white" transform="translate(24 24)"/>
</clipPath>
</defs>
</svg>
