<svg width="582" height="21" viewBox="0 0 582 21" fill="none" xmlns="http://www.w3.org/2000/svg">
<path d="M28.5372 19.7789C27.8454 19.8235 26.8637 19.7229 26.0462 19.7404C22.6211 19.8123 21.3475 19.7603 18.2454 19.8017C13.6614 19.8624 0.0295742 20.44 0.000125286 19.5395C0.000124614 19.5394 0.000123947 19.5394 0.000123275 19.5394C-0.000128957 19.5306 0.000867287 19.5216 0.00329971 19.5125C0.0460183 19.3394 1.20098 19.1174 1.36731 18.9182C1.53344 18.719 1.36716 17.4695 3.01297 17.3498C5.40011 17.1856 11.1367 17.336 12.4083 17.2838C13.2781 17.2481 14.3457 17.1022 15.457 17.0488C19.0363 16.8769 20.9267 16.904 24.1514 16.4982C25.4504 16.6228 26.749 16.7474 28.047 16.872C29.7321 16.7462 32.294 16.8853 33.3176 16.843C34.1573 16.8083 34.6457 16.6647 35.5207 16.6327C36.4998 16.5962 38.0184 16.6904 39.8084 16.6162C42.7429 16.4954 43.2545 16.1434 45.0129 16.0485C46.8361 15.9502 49.6771 16.0489 51.9973 15.8617C52.2877 15.816 52.578 15.7704 52.8683 15.7247C52.657 15.6472 52.4458 15.5697 52.2345 15.4922C53.4038 15.4185 53.9119 15.5752 54.9869 15.5464C56.2571 15.5125 56.9005 15.3307 57.7549 15.3062C58.4549 15.2862 59.4075 15.3885 60.3141 15.3535C61.6358 15.3031 61.3412 15.1234 62.0513 15.0671C62.3356 15.045 67.5742 14.786 67.8685 14.7759C70.115 14.702 70.318 14.954 72.1084 14.9236C77.0881 14.838 82.203 14.4786 86.793 14.2644C88.8466 14.1686 90.9721 14.121 93.0358 14.1014C89.8189 14.8564 96.9951 15.1587 94.287 14.2055C96.5761 14.285 98.1862 13.9587 100.349 13.9422C101.747 13.9318 102.719 14.0464 104.711 13.9841C108.239 13.8727 112.11 13.3518 113.154 14.057C117.317 13.8049 120.921 13.966 122.397 13.273C123.467 13.2019 126.215 13.5082 127.417 13.5255C128.566 13.5413 137.31 13.4596 138.731 13.4278C140.157 13.3958 142.649 13.3334 143.844 13.2414C145.338 13.1271 146.395 12.4224 149.111 13.1307C152.243 12.9753 153.357 12.9652 156.264 12.9717C156.79 12.9728 156.853 13.0879 157.16 13.0791C157.793 13.0606 158.865 12.9428 159.992 12.8993C161.843 12.8279 162.908 13.0429 162.692 12.6733C163.922 12.5744 165.152 12.4754 166.38 12.3765C166.813 12.4364 167.246 12.4963 167.68 12.5562C168.334 12.458 168.989 12.3598 169.642 12.2617C168.889 12.8276 173.493 12.3721 171.986 12.1041C174.365 12.1471 176.738 12.1904 179.106 12.2338C178.776 12.8615 184.347 12.1522 183.864 11.8302C184.137 11.8227 184.41 11.8152 184.682 11.8078C187.074 11.9023 189.258 11.7042 192.156 11.7301C195.052 11.7559 194.781 11.824 195.667 12.0825C196.347 12.0464 197.022 12.0105 197.712 11.9741C201.289 11.0904 200.7 12.4571 206.819 11.681C208.804 12.1131 213.565 11.7172 216.808 11.4743C217.182 11.4462 217.186 11.351 217.683 11.3072C218.901 11.2012 222.006 11.2332 221.891 10.9298C222.966 10.9873 224.04 11.0448 225.112 11.1024C225.985 11.0212 226.856 10.9401 227.727 10.859C227.72 10.7635 227.713 10.668 227.706 10.5724C229.464 10.8476 232.241 10.6415 233.622 10.6794C233.896 10.6873 233.959 10.8175 234.809 10.8288C235.804 10.8427 237.65 10.75 238.829 10.757C239.283 10.5975 239.737 10.438 240.19 10.2785C242.292 10.1381 243.04 10.5025 244.273 10.4967C244.492 10.4956 248.542 10.3503 248.774 10.3353C250.574 10.2177 250.064 9.90349 255.257 9.8232C256.181 9.80914 256.93 9.90123 257.763 9.88164C259.242 9.84698 263.627 9.46156 263.992 9.2124C265.808 9.45831 270.605 9.19711 272.013 9.24256C272.439 9.25674 272.541 9.44396 273.846 9.44659C274.905 9.44889 277.615 9.218 278.947 9.20487C280.382 9.19104 280.904 9.33565 281.547 9.3283C282.156 9.32116 282.712 9.17606 283.539 9.15283C286.12 9.0825 288.451 9.22252 290.474 9.16772C293.391 9.08916 295.97 8.63255 298.447 8.39124C299.061 8.3982 299.665 8.46265 300.307 8.4448C308.184 8.22853 317.204 8.03753 325.048 7.89198C328.798 7.82088 337.938 8.07431 335.475 7.28084C336.706 7.09372 346.095 7.17025 347.85 7.12461C349.617 7.07858 351.006 6.88323 352.383 6.841C356.56 6.71312 359.605 6.73657 364.665 6.45469C365.978 6.38129 367.355 6.15761 368.147 6.13678C369.101 6.11207 370.131 6.25986 371.36 6.23547C374.309 6.17538 379.647 5.96191 382.455 5.91105C382.971 5.90206 383.156 6.05268 383.893 6.08002C386.766 6.18708 389.93 6.07855 389.355 5.59715C392.963 5.77503 396.334 5.41898 399.727 5.30437C406.79 5.06656 419.766 4.80424 426.037 4.41132C429.937 4.16514 429.76 3.94699 435.609 3.96829C436.894 3.97335 438.167 3.99367 439.703 3.99958C443.215 4.01648 446.763 4.32484 449.46 3.74802C453.397 3.76103 456.761 3.5702 459.728 3.90774C460.076 3.79544 460.423 3.68315 460.769 3.57089C461.259 3.55389 461.746 3.53693 462.232 3.52002C462.386 3.61274 462.541 3.70546 462.695 3.79819C466.285 3.71804 470.781 3.18454 473.728 3.09956C475.787 3.03999 479.087 2.96717 482.482 2.90389C487.925 2.799 493.648 2.71367 496.555 2.70435C499.063 2.69788 499.141 2.48708 500.661 2.86912C501.239 2.82168 501.814 2.77435 502.384 2.72714C502.738 2.62251 503.091 2.51794 503.442 2.4134C506.594 2.31328 510.624 2.335 513.605 2.2411C519.327 2.06115 527.75 1.53837 533.39 1.52626C534.859 1.52183 536.633 1.65791 537.969 1.61226C540.045 1.5416 540.552 1.20412 543.043 1.1159C547.504 0.959748 555.749 1.05169 559.949 0.869205C561.217 0.814901 561.693 0.677867 562.617 0.630806C566.196 0.442156 569.181 0.336662 572.594 7.11137e-06C576.284 0.137655 576.012 0.538888 577.167 0.876639C578.066 1.12776 580.702 1.66946 581.275 1.73285C581.426 1.78994 581.284 1.93894 581.101 2.08968C580.931 2.23692 580.737 2.38008 580.998 2.43842C576.222 3.12465 574.558 2.86916 570.903 2.77396C564.275 3.06456 557.549 3.31036 550.922 3.54949C550.329 3.45794 549.724 3.36671 549.107 3.2758C549.107 3.27555 549.107 3.27531 549.107 3.27507C546.44 3.23619 545.527 3.55427 544.084 3.66759C530.842 4.737 504.982 5.04629 490.338 5.41572C488.869 5.45283 485.763 5.57764 482.565 5.68754C479.335 5.79954 476.015 5.89386 474.872 5.83377C474.303 5.80347 474.139 5.63598 473.531 5.64662C468.383 5.90255 462.929 6.16682 457.725 6.42316C446.847 6.47685 435.522 7.03044 424.629 7.39029C394.961 8.36958 365.605 9.35644 336.412 10.1614C330.817 10.3153 323.582 10.6541 318.111 10.7294C315.806 10.7616 314.837 10.5129 311.793 10.8074C311.759 10.7338 311.725 10.6602 311.69 10.5867C309.013 10.7543 307.393 10.9709 304.431 11.074C301.964 11.1597 295.28 11.3645 293.114 11.3988C291.979 11.4174 292.398 11.2659 291.339 11.2973C289.527 11.3521 285.639 11.6575 283.108 11.7309C280.804 11.7976 276.964 11.7485 275.226 11.8221C268.945 12.0868 262.012 12.5259 255.322 12.6563C253.464 12.6922 251.059 12.5813 250.473 12.6033C249.331 12.647 248.995 12.8323 248.227 12.8771C244.352 13.1037 238.338 13.0698 234.51 13.1727C222.119 13.5058 209.029 13.9632 196.639 14.292C188.896 14.4973 175.897 14.9074 168.713 14.9853C167.158 15.0022 167.567 14.798 166.26 14.8361C164.811 14.8785 164.028 15.0313 163.35 15.0616C158.699 15.2711 148.381 15.7042 143.951 15.7012C143.114 15.7002 142.502 15.5675 142 15.5828C141.746 15.5902 141.175 15.7097 140.378 15.7436C133.343 16.0428 128.138 16.1354 121.254 16.3023C107.983 16.6251 92.6464 17.2678 78.7346 17.5751C75.6981 17.6422 73.6017 17.4062 73.176 17.4217C72.2428 17.4553 71.6516 17.6732 69.7611 17.7786C63.4813 18.127 54.9539 18.1655 48.984 18.4431C46.027 18.5802 41.9636 18.9553 39.0465 19.0982C36.7086 19.2126 31.2282 19.2757 30.1969 19.4181C29.5716 19.5042 29.2879 19.7294 28.5372 19.7789ZM106.838 14.0888C106.435 14.4473 110.77 14.0317 109.135 13.8938C108.767 13.8627 106.942 13.9958 106.838 14.0888ZM310.884 8.74522C310.841 8.64747 310.798 8.54972 310.755 8.45197C310.174 8.50999 309.611 8.56752 309.045 8.6251C309.366 8.67533 309.686 8.72557 310.005 8.77582C310.296 8.76568 310.592 8.75541 310.884 8.74522Z" fill="black"/>
</svg>
