<svg width="90" height="74" viewBox="0 0 90 74" fill="none" xmlns="http://www.w3.org/2000/svg">
<path d="M52.4919 56.8107C54.1488 57.1399 56.2276 57.5033 58.2912 57.9628C60.9216 58.5779 63.4946 59.348 65.8849 60.6465C66.5815 61.0196 67.268 61.4568 67.9225 61.8888C68.1586 62.0576 68.3896 62.2583 68.5515 62.4808C68.8263 62.8197 68.8614 63.2188 68.635 63.6091C68.4136 63.9675 68.0945 64.1135 67.6727 64.0792C67.4162 64.0384 67.1648 63.9656 66.9134 63.8928C66.635 63.7829 66.3618 63.6411 66.0936 63.4672C64.4254 62.382 62.568 61.6602 60.6902 61.0664C56.9986 59.8888 53.2207 59.2551 49.3801 58.8081C47.4412 58.5981 45.5293 58.4252 43.6072 58.3162C40.5478 58.1247 37.5118 58.1993 34.4605 58.3698C28.1605 58.7123 21.9343 59.624 15.8307 61.2112C14.4618 61.5509 13.1097 61.9917 11.7307 62.3955C11.3526 62.4993 10.9694 62.6351 10.5643 62.7019C10.3567 62.7672 10.1221 62.7955 9.89259 62.7918C9.23612 62.7858 8.90075 62.2077 9.18978 61.6306C9.28443 61.4488 9.44829 61.2453 9.62894 61.1429C9.88897 60.9547 10.1811 60.7716 10.4951 60.6576C11.5433 60.2668 12.5647 59.8389 13.6349 59.5172C18.0911 58.16 22.6635 57.3132 27.2643 56.7004C31.4229 56.1813 35.578 55.8912 39.7834 55.9042C42.5105 55.9117 45.2173 56.0471 47.8986 56.3424C49.2976 56.4338 50.6863 56.5891 52.4919 56.8107Z" fill="black"/>
<path d="M9.76183 39.8469C9.67227 39.9967 9.54556 40.1733 9.456 40.323C7.91313 42.9964 6.37026 45.6697 4.85945 48.3482C4.59077 48.7973 4.35415 49.2516 4.09056 49.6688C3.77456 50.2089 3.34405 50.4356 2.90029 50.3322C2.42448 50.2237 2.09573 49.8107 2.06416 49.1825C2.03566 48.9484 2.07636 48.6925 2.07992 48.4635C2.2534 46.753 2.58718 45.0679 2.94793 43.42C3.44759 41.1054 3.97423 38.8279 4.53292 36.5555C4.80209 35.4833 5.13538 34.4213 5.43661 33.3542C5.50429 33.1354 5.60402 32.9217 5.69867 32.7399C5.92511 32.3496 6.34545 32.1869 6.72508 32.2801C7.10472 32.3733 7.38461 32.6802 7.44162 33.1484C7.47013 33.3825 7.43451 33.6064 7.40398 33.7983C7.22946 34.6888 7.02288 35.5742 6.84835 36.4647C6.29119 38.9341 5.73403 41.4035 5.20893 43.878C5.08529 44.4486 4.95656 45.0513 4.86497 45.627C4.84971 45.723 4.8665 45.824 4.8258 46.0799C4.9576 45.8713 4.99983 45.8125 5.04207 45.7536C6.53608 42.9741 8.06724 40.1677 9.56126 37.3882C9.83502 36.907 9.98564 36.3734 10.2324 35.8552C10.3373 35.6095 10.4421 35.3638 10.5739 35.1552C11.0283 34.5716 11.84 34.6351 12.1652 35.2771C12.2949 35.4946 12.3453 35.7977 12.3367 36.0587C12.3006 36.9056 12.2324 37.7475 12.1642 38.5893C12.0503 39.719 11.9043 40.8436 11.7903 41.9733C11.77 42.1013 11.7817 42.2343 11.8524 42.4095C11.8997 42.3187 11.9842 42.2009 12.0315 42.1101C12.7856 40.2623 13.5077 38.4095 14.2939 36.5668C14.5086 36.0435 14.8195 35.5354 15.0933 35.0542C15.2251 34.8456 15.389 34.6421 15.5477 34.4706C15.7436 34.2722 15.9884 34.18 16.2668 34.2898C16.5451 34.3997 16.6698 34.6491 16.6459 35.006C16.6205 35.166 16.5899 35.3579 16.5324 35.5127C16.0623 36.8153 15.5972 38.0859 15.127 39.3886C14.1241 42.1806 13.1211 44.9726 12.0861 47.7595C11.8511 48.4109 11.5468 49.0839 11.2796 49.7301C11.2221 49.885 11.1275 50.0667 11.0109 50.1793C10.7575 50.5326 10.4166 50.6095 9.99978 50.5432C9.583 50.4769 9.29802 50.202 9.23083 49.7978C9.17382 49.3296 9.11682 48.8614 9.12393 48.4034C9.16512 47.5245 9.20632 46.6456 9.28466 45.7398C9.45152 43.8642 9.65044 41.9937 9.84936 40.1232C9.86463 40.0273 9.84274 39.9582 9.85801 39.8622C9.82086 39.8891 9.7888 39.884 9.76183 39.8469Z" fill="black"/>
<path d="M66.5043 40.8381C66.3725 41.0467 66.2356 41.2873 66.1038 41.4959C64.9243 43.5384 63.9269 45.6754 62.9346 47.7804C62.7352 48.2078 62.5306 48.6672 62.2991 49.0895C62.2044 49.2712 62.0726 49.4798 61.9459 49.6564C61.6925 50.0097 61.3414 50.1506 60.8976 50.0472C60.4539 49.9438 60.206 49.642 60.1439 49.2058C60.1103 49.0037 60.0767 48.8016 60.1073 48.6097C60.1775 47.3418 60.2156 46.0689 60.3178 44.8061C60.3911 43.9323 60.4694 43.0265 60.5427 42.1527C60.558 42.0567 60.5412 41.9557 60.4333 41.8073C60.3859 41.8982 60.3437 41.9571 60.2964 42.0479C59.3881 44.6582 58.4849 47.2366 57.5766 49.8469C57.5089 50.0657 57.4041 50.3114 57.2723 50.52C57.0036 50.9692 56.5192 51.1217 56.0805 50.9863C55.6419 50.8509 55.3502 50.411 55.3996 49.8941C55.4133 49.6012 55.4963 49.2864 55.6113 48.9767C56.9322 45.2186 58.2853 41.4656 59.7986 37.7381C60.0031 37.2788 60.2077 36.8194 60.4443 36.3651C60.544 36.1514 60.7079 35.9479 60.8936 35.8135C61.2702 35.5126 61.746 35.6211 61.9786 36.0188C62.5786 36.9997 62.7267 37.5152 62.7206 38.7933C62.6978 39.9703 62.6428 41.1422 62.5879 42.314C62.5365 43.2569 62.448 44.2267 62.4084 45.3026C62.5773 45.0672 62.6567 44.9814 62.7412 44.8637C63.9411 42.6933 65.286 40.6443 66.6899 38.6376C67.1123 38.0489 67.4975 37.487 67.7107 36.7667C67.8038 36.3879 68.1651 36.183 68.5229 36.2071C68.8806 36.2313 69.1758 36.4422 69.3122 36.8246C69.3829 36.9999 69.4114 37.234 69.3809 37.4259C69.3112 38.0707 69.2736 38.7206 69.1077 39.3501C68.6014 41.4997 68.058 43.6761 67.5196 45.8205C67.2403 46.9567 66.966 48.0609 66.6918 49.1651C66.5987 49.5439 66.4465 49.8804 66.2944 50.217C66.242 50.3398 66.1575 50.4575 66.0781 50.5433C65.872 50.8057 65.585 50.9568 65.2695 50.8738C64.9219 50.7857 64.6639 50.5479 64.6237 50.1808C64.5987 49.7177 64.6059 49.2597 64.6822 48.7799C64.877 47.7614 65.104 46.7481 65.363 45.7398C65.7202 44.3209 66.1094 42.907 66.4987 41.4931C66.5664 41.2743 66.6071 41.0184 66.6427 40.7945C66.5633 40.8803 66.5312 40.8752 66.5043 40.8381Z" fill="black"/>
<path d="M36.5828 11.5482C35.7498 14.9248 34.6014 18.2184 33.0514 21.3497C32.568 22.3223 32.0255 23.2526 31.3599 24.1306C30.821 24.832 30.1911 25.4861 29.4532 25.9918C28.9331 26.3682 28.3423 26.5694 27.7128 26.6004C26.8538 26.6278 26.152 26.2866 25.6767 25.555C25.2553 24.8977 25.0467 24.143 25.0085 23.3499C24.9907 22.4288 25.1331 21.5331 25.3718 20.6528C25.8592 18.8283 26.534 17.0663 27.2087 15.3043C27.7837 13.756 28.3958 12.1808 29.2171 10.7373C29.638 9.95153 30.1499 9.21308 30.6567 8.50661C31.0419 7.94478 31.5773 7.47242 32.1884 7.14329C32.7996 6.81417 33.4174 6.65008 34.1008 6.69321C34.5868 6.73772 35.0575 6.87818 35.4285 7.23235C35.5145 7.31162 35.6275 7.42798 35.7506 7.48037C36.4254 7.78448 36.6595 8.37923 36.7552 9.01756C36.8474 9.8849 36.7471 10.7216 36.5828 11.5482ZM34.6327 8.51595C34.2042 8.31661 33.821 8.45243 33.4917 8.66242C33.0561 8.92108 32.7656 9.3012 32.4699 9.7133C31.7097 10.773 31.1265 11.9592 30.5754 13.1506C29.6 15.3567 28.8067 17.6573 27.9864 19.9209C27.6312 20.9139 27.3351 21.949 27.2313 23.0147C27.182 23.5316 27.1698 24.0216 27.3179 24.5371C27.471 25.0206 27.7443 25.1624 28.2339 24.978C28.4094 24.9075 28.6221 24.8101 28.7387 24.6975C29.0511 24.3865 29.3956 24.0805 29.649 23.7273C30.2302 22.967 30.6612 22.1173 31.0331 21.2254C32.2116 18.363 33.267 15.4481 34.1402 12.4386C34.504 11.1847 34.7767 9.88347 34.6327 8.51595Z" fill="black"/>
<path d="M37.5822 22.6274C38.0223 20.8936 38.4675 19.1279 38.9718 17.4044C39.6318 15.1153 40.3879 12.8416 41.1171 10.5307C41.315 9.90628 41.5399 9.31895 41.7648 8.73162C41.8646 8.51792 41.9694 8.27223 42.1282 8.10071C42.4085 7.78457 42.7816 7.71272 43.1561 7.83789C43.5627 7.96816 43.7785 8.26484 43.8085 8.69596C43.8319 8.96204 43.7912 9.21793 43.7185 9.46872C43.4696 10.413 43.1888 11.3522 42.9079 12.2913C41.9146 15.6424 40.8944 18.9564 39.9332 22.3126C39.7149 23.065 39.5557 23.8595 39.3964 24.6541C39.3033 25.0328 39.3333 25.4639 39.4697 25.8464C39.655 26.335 39.9975 26.4551 40.4163 26.0953C40.6814 25.8751 40.9246 25.5859 41.1307 25.3235C41.5953 24.6759 41.9368 23.9759 42.182 23.2607C42.73 21.6753 43.2511 20.0528 43.735 18.4572C44.5049 15.8905 45.2427 13.3186 45.9856 10.7148C46.1937 10.0264 46.4069 9.30605 46.6471 8.62276C46.7148 8.40396 46.8786 8.20046 47.0104 7.99186C47.2537 7.7026 47.5625 7.62055 47.9101 7.70863C48.2256 7.79162 48.4144 8.05122 48.4969 8.35949C48.5305 8.5616 48.5641 8.76372 48.5335 8.95563C48.4216 9.65932 48.3097 10.363 48.1336 11.0565C47.4228 13.6654 46.6799 16.2693 45.9049 18.868C45.4785 20.3087 44.988 21.7393 44.4654 23.1647C44.1677 24.0029 43.779 24.7937 43.267 25.5322C42.7923 26.2437 42.2315 26.876 41.5038 27.3178C41.2117 27.5009 40.8875 27.6789 40.5466 27.7558C39.4494 28.0404 38.4103 27.5472 37.8846 26.5125C37.4835 25.7272 37.3492 24.9188 37.4545 24.05C37.4987 23.5651 37.6071 23.0905 37.6834 22.6107C37.6463 22.6376 37.6142 22.6325 37.5822 22.6274Z" fill="black"/>
<path d="M58.4813 19.3602C58.3485 20.8149 58.231 22.1736 58.0763 23.5592C57.9726 24.6249 57.8367 25.6855 57.7009 26.7462C57.6449 27.098 57.5889 27.4499 57.4689 27.7915C57.3284 28.2611 56.9992 28.4711 56.6043 28.4739C56.1773 28.4715 55.8282 28.1864 55.7442 27.6811C55.6821 27.2449 55.62 26.8087 55.6592 26.3558C55.7258 25.317 55.8245 24.2832 55.9232 23.2495C56.0153 22.0507 56.1394 20.857 56.2636 19.6633C56.2824 19.3384 56.3384 18.9865 56.4534 18.6769C56.6986 17.9616 57.2574 17.7553 57.9322 18.0594C58.1785 18.1642 58.4029 18.1999 58.6426 18.1396C59.122 18.0191 59.6013 17.8986 60.0537 17.741C60.8201 17.4694 61.4297 16.9432 61.8134 16.1844C62.2816 15.3078 62.5624 14.3686 62.4906 13.3733C62.3868 12.373 61.9268 11.5455 61.1374 10.928C60.4072 10.3527 59.5212 10.343 58.6419 10.4982C58.5945 10.5891 58.5421 10.7119 58.4948 10.8028C57.1112 14.7477 55.7226 18.7246 54.3391 22.6695C53.9162 23.8813 53.4613 25.0879 53.0064 26.2946C52.8965 26.5723 52.7494 26.8768 52.6125 27.1174C52.3067 27.5935 51.8543 27.7511 51.4207 27.5837C50.9871 27.4164 50.7225 27.0135 50.8462 26.4429C50.9276 25.9311 51.0782 25.3975 51.2558 24.9011C52.5447 21.1379 53.8707 17.3478 55.1917 13.5897C55.557 12.5328 55.9865 11.4861 56.4801 10.4495C56.9839 9.34904 57.9075 8.70888 59.1395 8.60969C60.4407 8.48872 61.5643 8.86423 62.4682 9.79508C63.5389 10.9165 64.056 12.2121 63.972 13.773C63.909 14.5828 63.7446 15.4093 63.4571 16.1835C62.6775 18.1912 61.1748 19.1656 59.0787 19.3241C58.8121 19.3472 58.6467 19.3537 58.4813 19.3602Z" fill="black"/>
<path d="M21.9085 11.0174C22.0031 10.8356 22.1029 10.6219 22.1975 10.4402C23.1287 8.71903 24.065 6.96584 25.0283 5.24974C25.2074 4.95028 25.4186 4.65592 25.5977 4.35646C25.6822 4.23872 25.7987 4.12607 25.9153 4.01343C26.1483 3.78814 26.3931 3.69589 26.6984 3.84285C26.9717 3.9847 27.0913 4.26609 26.9982 4.64482C26.9153 4.95958 26.8003 5.26924 26.6532 5.5738C25.8655 7.21944 25.0727 8.89707 24.2209 10.5325C23.3588 12.2319 22.4378 13.8891 21.3346 15.4518C21.2079 15.6284 21.1081 15.8421 21.0725 16.066C20.9117 16.6636 20.8471 17.2764 20.6863 17.8739C19.9246 20.8027 19.1578 23.7635 18.364 26.6872C18.1457 27.4395 17.9005 28.1548 17.6501 28.9021C17.5774 29.1529 17.4084 29.3883 17.2176 29.5548C16.7143 30.0322 15.9601 29.8139 15.8375 29.1385C15.782 28.8673 15.7637 28.5692 15.8415 28.2864C16.0873 26.9481 16.333 25.6098 16.6699 24.3188C17.1253 22.4891 17.6448 20.6696 18.1643 18.8501C18.3928 18.0338 18.7225 17.2008 19.0151 16.3947C19.125 16.117 19.208 15.8022 19.2217 15.5093C19.3661 12.1215 19.9273 8.80009 20.4565 5.47356C20.5226 5.05775 20.6208 4.64703 20.719 4.23631C20.7445 4.07639 20.834 3.92666 20.9185 3.80891C21.2986 3.27906 22.0411 3.36437 22.2431 3.95403C22.3408 4.16634 22.3322 4.42733 22.3286 4.65633C22.2671 5.66319 22.1786 6.63297 22.085 7.63473C21.9914 8.63649 21.8978 9.63825 21.7772 10.6029C21.7568 10.7309 21.7685 10.8639 21.7533 10.9599C21.8123 11.0021 21.8444 11.0072 21.9085 11.0174Z" fill="black"/>
<path d="M70.5215 11.863C69.7689 13.9078 69.0906 15.8988 68.4612 17.9959C69.1294 18.135 69.7283 18.2959 70.3324 18.4248C70.8723 18.5435 71.4224 18.5982 71.9623 18.7168C72.2458 18.7947 72.5613 18.8777 72.8346 19.0196C73.231 19.2138 73.2661 19.6129 72.8677 19.8447C72.6448 20.006 72.3308 20.1201 72.0692 20.1113C71.4077 20.1372 70.7512 20.1312 70.0627 20.12C69.3101 20.0987 68.5574 20.0774 67.7407 20.0458C66.9845 22.3196 66.1963 24.5883 65.3979 26.9209C65.5852 26.9835 65.7725 27.0461 65.9328 27.0716C66.8254 27.2464 67.7129 27.4531 68.6055 27.6279C69.0492 27.7313 69.525 27.8398 69.9688 27.9431C70.1881 28.0108 70.4125 28.0465 70.5896 28.1731C70.9219 28.3571 70.9672 28.6923 70.638 28.9023C70.4523 29.0367 70.2075 29.1289 69.9729 29.1572C69.5358 29.2189 69.0767 29.2114 68.6498 29.2091C67.9292 29.1929 67.2137 29.1447 66.5303 29.1015C65.8468 29.0584 65.2056 28.9564 64.5848 28.7265C63.9639 28.4965 63.6184 27.9824 63.2357 27.4952C63.0418 27.2676 63.0606 26.9427 63.1385 26.6599C63.2418 26.2172 63.3822 25.7476 63.5496 25.3151C64.6238 22.0753 65.73 18.8405 66.8362 15.6058C67.3268 14.1752 67.9084 12.792 68.431 11.3665C68.5307 11.1528 68.6355 10.9071 68.7622 10.7305C68.9836 10.3722 69.3128 10.1622 69.7719 10.1696C69.9693 10.1682 70.1667 10.1668 70.3744 10.1015C70.9922 9.93738 71.5896 9.90124 72.2359 9.97124C73.4053 10.0589 74.534 10.4024 75.705 10.687C75.9243 10.7547 76.1386 10.8544 76.2836 10.9759C76.6327 11.261 76.6307 11.687 76.2592 11.9558C76.0735 12.0903 75.8607 12.1876 75.6582 12.221C75.3865 12.2761 75.0877 12.2942 74.7992 12.2483C73.7952 12.1542 72.7642 12.023 71.7601 11.9289C71.3383 11.8946 70.9434 11.8973 70.5215 11.863Z" fill="black"/>
<path d="M55.6213 40.6484C55.3908 41.8908 54.8819 43.0233 54.314 44.1136C53.3421 46.0907 52.2201 47.9783 50.7118 49.6077C50.2355 50.1222 49.7103 50.5306 49.0941 50.8917C48.0473 51.4795 46.998 51.0502 46.401 50.4633C45.8682 49.8867 45.6173 49.1908 45.5791 48.3977C45.5562 47.5086 45.7526 46.6871 46.0182 45.8439C46.7795 43.5382 47.6048 41.2426 48.8317 39.1093C49.2845 38.3287 49.7965 37.5902 50.3725 36.862C50.7053 36.423 51.1562 36.0684 51.6019 35.7457C52.8869 34.9007 54.3057 35.4871 54.9275 36.5371C55.4466 37.4067 55.6568 38.3584 55.6324 39.3384C55.6894 39.8066 55.6554 40.2275 55.6213 40.6484ZM53.2141 37.1828C52.7719 37.2764 52.4966 37.5606 52.3175 37.86C51.8056 38.5985 51.3257 39.342 50.91 40.0958C49.847 42.0256 49.0623 44.0653 48.3367 46.1471C48.0915 46.8624 47.9103 47.5879 47.7292 48.3134C47.6513 48.5961 47.7017 48.8993 47.7572 49.1705C47.8783 49.6489 48.2478 49.806 48.6834 49.5474C48.9383 49.3912 49.1663 49.1979 49.3622 48.9995C49.9449 48.4362 50.3774 47.7835 50.756 47.0567C51.6501 45.3624 52.4479 43.6528 53.1598 41.8639C53.542 40.908 53.7638 39.9266 53.7022 38.8674C53.5963 38.293 53.4905 37.7187 53.2141 37.1828Z" fill="black"/>
<path d="M36.6167 45.4305C36.9551 44.3365 37.2767 43.1415 37.6624 41.9566C37.9957 40.8946 38.388 39.8747 38.9086 38.8753C39.708 37.3627 40.7654 36.0879 42.231 35.1404C42.4859 34.9842 42.778 34.8011 43.0548 34.714C43.8212 34.4423 44.5215 34.5865 45.0914 35.1363C45.3764 35.4112 45.609 35.8089 45.8517 36.1427C45.9057 36.2169 45.9225 36.3179 45.9123 36.3819C45.8731 36.8348 45.7968 37.3146 45.5062 37.6947C45.4218 37.8125 45.2732 37.92 45.1668 37.9687C44.7042 38.1903 44.1999 37.8477 44.1801 37.3526C44.1735 37.1876 44.231 37.0327 44.2513 36.9048C44.3444 36.5261 44.2569 36.2498 43.9297 36.0337C43.6345 35.8228 43.3205 35.9368 43.0605 36.1251C42.7582 36.3721 42.4509 36.6512 42.2025 36.9724C41.9542 37.2937 41.7598 37.6891 41.5975 38.0896C40.7253 39.853 40.0994 41.7212 39.5005 43.6264C39.2298 44.5016 38.9861 45.4139 38.7744 46.3313C38.6559 46.8699 38.6386 47.3919 38.7546 47.9023C38.832 48.2426 38.9414 48.5879 39.289 48.676C39.6686 48.7692 39.8849 48.4428 40.091 48.1805C40.2548 47.977 40.3546 47.7633 40.4863 47.5547C40.6232 47.3141 40.7331 47.0364 40.9021 46.8009C41.1184 46.4746 41.2975 46.1751 41.5728 45.8909C41.9325 45.489 42.3056 45.4172 42.6379 45.6012C42.9753 45.7533 43.0796 46.1306 42.9982 46.6424C42.9626 46.8663 42.8949 47.0851 42.8323 47.2719C42.4756 48.0679 42.0329 48.7845 41.408 49.4066C41.0956 49.7177 40.7241 49.9865 40.3037 50.1492C39.3196 50.5502 38.3038 50.323 37.5771 49.5187C36.9043 48.7886 36.6468 47.9278 36.602 46.9696C36.5501 46.4694 36.5892 46.0165 36.6167 45.4305Z" fill="black"/>
<path d="M20.3203 43.5272C19.845 44.8618 19.412 46.1376 18.9586 47.5412C19.5728 47.6061 20.1229 47.6608 20.6781 47.6836C21.0679 47.7128 21.4898 47.7471 21.8796 47.7763C22.0399 47.8018 22.2272 47.8644 22.3773 47.9539C22.5595 48.0484 22.588 48.2825 22.4343 48.422C22.2486 48.5565 22.0257 48.7178 21.8181 48.7832C21.5092 48.8652 21.1682 48.9422 20.8374 48.9551C20.267 49.0284 19.7016 49.0696 19.1042 49.1058C18.6721 49.1354 18.2131 49.128 17.837 48.8058C17.751 48.7265 17.5907 48.701 17.4676 48.6487C17.0019 48.4762 16.8335 48.0887 16.8406 47.6307C16.8442 47.4017 16.8849 47.1458 16.9846 46.9321C18.0776 43.3673 19.2937 39.8549 20.633 36.3948C20.7903 36.0263 20.9475 35.6578 21.1368 35.2943C21.3312 34.8989 21.6334 34.6519 22.0807 34.5262C22.7677 34.3404 23.4395 34.2504 24.1076 34.3895C24.7117 34.5184 25.3259 34.5833 25.93 34.7122C26.2134 34.7901 26.4918 34.8999 26.733 35.0367C27.2373 35.3793 27.161 35.8591 26.5972 36.0973C26.3895 36.1627 26.1549 36.191 25.9524 36.2243C25.0883 36.2837 24.2293 36.311 23.3703 36.3383C23.1729 36.3397 22.9703 36.3731 22.7729 36.3745C22.5464 36.7648 21.0967 41.1255 20.9528 41.8241C21.1772 41.8598 21.3695 41.8904 21.594 41.9261C22.2723 42.0012 22.9186 42.0712 23.5918 42.1783C23.8483 42.2191 24.1165 42.393 24.3577 42.5297C24.5669 42.6614 24.5532 42.9543 24.3033 43.0786C24.0214 43.1977 23.7125 43.2798 23.4087 43.3298C22.4164 43.3687 21.3869 43.4345 20.3203 43.5272Z" fill="black"/>
<path d="M73.4245 45.4811C73.7079 45.559 73.9273 45.6266 74.1466 45.6943C74.4942 45.7824 74.8417 45.8705 75.1842 45.9906C75.3394 46.048 75.4626 46.1004 75.6127 46.1899C75.9349 46.4379 75.9109 46.7949 75.5176 46.9947C75.3369 47.0971 75.1023 47.1254 74.8677 47.1536C74.4678 47.1884 74.0779 47.1592 73.6831 47.162C73.3894 47.1481 73.1228 47.1712 72.7971 47.1522C72.2948 48.4497 71.7977 49.7152 71.2904 51.0447C71.6329 51.1648 71.9163 51.2427 72.1998 51.3206C72.5422 51.4406 72.8949 51.4967 73.2002 51.6437C73.5697 51.8009 73.7906 52.0656 73.7499 52.3214C73.6618 52.6682 73.4069 52.8244 73.071 52.8694C72.266 52.9709 71.4711 53.0084 70.6696 52.8809C70.1887 52.8044 69.8024 52.5462 69.6172 52.0576C69.5953 51.9885 69.5464 51.8824 69.4925 51.8082C69.0136 51.3057 69.1001 50.7619 69.2879 50.2015C69.6634 49.0806 70.0389 47.9597 70.4414 46.8759C71.2887 44.6494 72.0988 42.4498 72.978 40.2284C73.1979 39.6731 73.4818 39.1279 73.7607 38.6148C73.8604 38.4011 74.0243 38.1976 74.183 38.026C74.3688 37.8916 74.6237 37.7354 74.8212 37.734C75.7392 37.7489 76.6776 37.6358 77.587 37.9116C77.8704 37.9895 78.1539 38.0674 78.4053 38.1402C78.5605 38.1976 78.6836 38.25 78.8338 38.3395C79.1019 38.5133 79.3279 38.746 79.2348 39.1248C79.1468 39.4715 78.8328 39.5856 78.529 39.6356C77.6649 39.6949 76.8008 39.7543 75.9469 39.7496C75.5199 39.7473 75.3291 39.9137 75.1988 40.3193C74.6137 41.9316 74.0234 43.5758 73.4382 45.1881C73.4601 45.2572 73.4499 45.3211 73.4245 45.4811Z" fill="black"/>
<path d="M28.8324 49.1119C29.1209 49.1578 29.4044 49.2357 29.6929 49.2816C30.2329 49.4003 30.7677 49.5509 31.3026 49.7016C31.7412 49.837 31.93 50.0966 31.9061 50.4535C31.8822 50.8104 31.639 51.0997 31.2609 51.2035C31.0212 51.2638 30.7866 51.2921 30.525 51.2833C29.6223 51.1725 28.7246 51.0297 27.8269 50.8869C27.7307 50.8716 27.6076 50.8192 27.5114 50.8039C26.7944 50.5586 26.3949 49.9704 26.4849 49.1976C26.4885 48.9686 26.5561 48.7498 26.6187 48.563C27.8115 44.7845 29.0362 41.0111 30.6676 37.368C30.9719 36.6949 31.3134 35.9949 31.6818 35.332C31.8187 35.0914 31.9876 34.8559 32.1835 34.6575C32.4909 34.3785 32.896 34.3117 33.2232 34.5278C33.5504 34.7438 33.7021 35.0303 33.6731 35.4192C33.6374 35.6431 33.5698 35.8619 33.5072 36.0487C32.9322 37.597 32.2981 39.1031 31.7552 40.6565C30.7945 43.3897 29.8287 46.1548 28.9001 48.8931C28.8309 48.9149 28.8207 48.9789 28.8324 49.1119Z" fill="black"/>
<path d="M80.4451 47.8441C80.7717 46.617 81.0714 45.3529 81.4943 44.1411C82.0306 42.4227 82.658 40.7516 83.2585 39.0433C83.3735 38.7337 83.5205 38.4291 83.6676 38.1246C83.7622 37.9429 83.8569 37.7611 84.0106 37.6216C84.2859 37.3374 84.6268 37.2605 85.0014 37.3857C85.3759 37.5108 85.5968 37.7755 85.6319 38.1747C85.6553 38.4408 85.6044 38.7606 85.5317 39.0114C85.1205 40.3562 84.7145 41.669 84.2713 43.0087C83.7232 44.5941 83.1482 46.1424 82.6053 47.6958C82.4801 48.0694 82.2908 48.4328 82.1066 48.7643C82.012 48.946 81.8481 49.1495 81.6944 49.289C81.1693 49.6974 80.5215 49.4304 80.4629 48.7652C80.4446 48.4671 80.5275 48.1523 80.5463 47.8274C80.4451 47.8441 80.4451 47.8441 80.4451 47.8441Z" fill="black"/>
<path d="M51.7253 9.75892C51.8082 9.44416 51.8642 9.09232 51.9792 8.78266C52.052 8.53187 52.1889 8.29129 52.3527 8.08778C52.6331 7.77164 53.0061 7.69979 53.3756 7.85695C53.745 8.0141 53.9236 8.33767 53.8626 8.7215C53.8168 9.00938 53.771 9.29725 53.6341 9.53784C53.3721 10.1521 53.051 10.7241 52.7889 11.3383C52.7467 11.3972 52.7365 11.4612 52.6943 11.52C52.5625 11.7286 52.3986 11.9321 52.1101 11.8862C51.8215 11.8403 51.6918 11.6229 51.6312 11.3837C51.5874 11.2456 51.5808 11.0805 51.5742 10.9155C51.6302 10.5637 51.6592 10.1747 51.7253 9.75892C51.7253 9.75892 51.6932 9.75382 51.7253 9.75892Z" fill="black"/>
<path d="M81.0185 52.9199C80.9712 53.0108 80.9086 53.1976 80.7549 53.3371C80.4374 53.6802 80.0171 53.8429 79.5581 53.8354C78.9657 53.8396 78.6471 53.3626 78.8028 52.797C79.0211 52.0447 79.6374 51.6836 80.3697 51.8328C80.8506 51.9093 81.1101 52.3442 81.0185 52.9199Z" fill="black"/>
</svg>
