<svg width="128" height="140" viewBox="0 0 128 140" fill="none" xmlns="http://www.w3.org/2000/svg">
<path d="M75.3457 0.75C79.4365 0.75 82.9412 1.95472 85.5977 4.22363C88.2536 6.49211 90.0051 9.77576 90.6787 13.832L90.8232 14.7051L83.9971 14.7051L83.877 14.1006C83.4297 11.8435 82.3931 10.0698 80.9443 8.86035C79.4964 7.65166 77.5923 6.96973 75.3457 6.96973C72.4808 6.96981 70.2157 7.97827 68.6592 9.73242C67.0936 11.4968 66.1797 14.0901 66.1797 17.3633C66.1797 20.7282 67.0965 23.3536 68.6611 25.127C70.216 26.8891 72.4789 27.8886 75.3457 27.8887C77.6435 27.8887 79.5451 27.2232 80.9775 26.0342C82.4105 24.8447 83.4285 23.086 83.877 20.8027L83.9961 20.1973H90.8311L90.6777 21.0752C89.9611 25.1887 88.2235 28.4733 85.5811 30.7275C82.9375 32.9827 79.4529 34.1514 75.3457 34.1514C70.5097 34.1513 66.4927 32.4669 63.6875 29.4854C60.8869 26.5086 59.3535 22.3032 59.3535 17.3633C59.3535 12.5752 60.855 8.41443 63.6377 5.44434C66.4257 2.4686 70.4429 0.750083 75.3457 0.75ZM31.3711 1.40527V7.625L21.2822 7.625V33.4961H14.5859L14.5859 7.625L4.45312 7.625V1.40527L31.3711 1.40527ZM56.9854 1.40527V7.625L40.9209 7.625V13.9912L55.4697 13.9912V20.0801H40.9209V27.2764H57.375V33.4961H34.2676V1.40527L56.9854 1.40527ZM100.843 1.40527V13.9912H115.971V1.40527L122.667 1.40527V33.4961H115.971V20.2109L100.843 20.2109V33.4961H94.1465V1.40527L100.843 1.40527Z" fill="black" stroke="black" stroke-width="1.5"/>
<path d="M106.931 27.9017L102.073 32.262C95.1374 38.4879 88.2005 44.7129 81.2646 50.9388L102.266 39.7025L105.945 37.7327V71.2581H113.457V96.5091H105.945V104.211H61.8682V96.5091H13.6631V65.1155L14.3955 64.3841C16.7249 62.0547 19.0226 59.6934 21.2891 57.3011L21.3008 57.2884L21.3125 57.2767C23.6576 54.8682 25.9713 52.4909 28.2529 50.1458H28.2539C30.6068 47.7293 32.9593 45.3438 35.3125 42.9905C37.642 40.5979 39.9397 38.2051 42.2061 35.8128L42.2305 35.7884C44.5832 33.372 46.936 30.9872 49.2891 28.6341L50.0215 27.9017H106.931ZM61.6826 68.4339C60.6315 69.3747 59.5804 70.3162 58.5293 71.2581H61.7539C61.739 70.3074 61.7152 69.366 61.6826 68.4339Z" fill="#00BBF9" stroke="white" stroke-width="5"/>
<mask id="path-3-outside-1_289_882" maskUnits="userSpaceOnUse" x="-2.21529" y="84.0158" width="131.079" height="57.2201" fill="black">
<rect fill="white" x="-2.21529" y="84.0158" width="131.079" height="57.2201"/>
<path d="M4.03058 128.942C3.54644 128.998 3.27654 128.783 3.2209 128.299C3.16852 127.844 3.41289 127.585 3.95399 127.522C4.43814 127.467 5.03293 127.37 5.73836 127.231C6.44052 127.064 7.06052 126.935 7.59835 126.844C7.62159 126.293 7.81473 125.463 8.17777 124.353C8.5408 123.244 9.04411 121.974 9.68768 120.544C10.3313 119.114 11.0696 117.63 11.9027 116.091L17.8682 105.104C18.1258 104.584 18.4761 103.866 18.919 102.949C19.3871 102.001 19.9336 100.856 20.5585 99.5143C19.7107 99.6695 18.9357 99.8307 18.2335 99.9979C17.5599 100.162 16.9574 100.318 16.4261 100.465C15.6418 100.671 15.1247 100.817 14.875 100.903C14.6252 100.99 14.4291 101.041 14.2867 101.058C13.8026 101.113 13.5294 100.87 13.4672 100.329C13.4312 100.016 13.6076 99.7938 13.9965 99.6625C15.6408 99.1561 17.2505 98.7259 18.8257 98.3717C20.4294 98.0142 22.0144 97.7455 23.5808 97.5655C25.1186 97.3887 26.3864 97.3728 27.3842 97.5179C27.8562 97.6079 28.1716 97.7159 28.3304 97.8419C28.5176 97.9647 28.6243 98.14 28.6505 98.3678C28.7029 98.8235 28.5155 99.0759 28.0883 99.125C27.9459 99.1413 27.74 99.1073 27.4706 99.0228C27.2012 98.9384 26.791 98.8845 26.2401 98.8613C25.7144 98.8063 24.9247 98.8393 23.8709 98.9604C23.4722 99.0063 23.1162 99.0472 22.803 99.0832C22.5182 99.1159 22.2777 99.158 22.0817 99.2094C22.1219 99.8107 21.7019 100.927 20.8217 102.557L19.0343 105.836L14.4845 114.453C13.6295 116.051 12.8533 117.583 12.156 119.048C11.4588 120.514 10.8087 121.887 10.2057 123.168C9.86033 123.929 9.5099 125.023 9.15439 126.449C10.2235 126.21 11.1124 126.036 11.8211 125.926C12.5266 125.787 13.0359 125.7 13.3492 125.664C13.9757 125.591 14.5343 125.556 15.025 125.557C15.5409 125.527 15.9873 125.519 16.364 125.533C16.8011 125.57 17.0392 125.759 17.0785 126.101C17.1308 126.556 16.9007 126.814 16.3881 126.872C16.0463 126.912 15.6016 126.934 15.054 126.939C14.5381 126.97 14.0808 127.008 13.6821 127.054C12.4005 127.201 10.8489 127.509 9.02721 127.978C8.911 128.222 8.72474 128.359 8.46842 128.389C8.24059 128.415 8.05826 128.335 7.92143 128.149C7.08015 128.361 6.33527 128.533 5.6868 128.665C5.03832 128.797 4.48625 128.89 4.03058 128.942Z"/>
<path d="M24.5317 126.975C24.0476 127.031 23.7793 126.831 23.7269 126.375C23.7237 126.347 23.8536 125.971 24.1168 125.248C24.38 124.526 24.748 123.459 25.2207 122.048L26.874 117.227C27.544 115.274 28.002 113.736 28.2479 112.611C28.5222 111.483 28.6413 110.762 28.6053 110.449C28.553 109.993 28.7546 109.739 29.2103 109.687C29.6659 109.635 29.92 109.836 29.9723 110.292C30.0149 110.662 29.9538 111.261 29.7892 112.088C29.6497 112.883 29.3798 113.924 28.9795 115.21L27.3704 120.416C32.4584 112.214 36.5118 107.939 39.5306 107.592C40.1001 107.526 40.5694 107.718 40.9383 108.166C41.3039 108.586 41.5195 109.08 41.585 109.65C41.7421 111.017 41.0329 113.508 39.4573 117.123C40.79 115.411 42.1368 113.698 43.498 111.984C44.8843 110.237 46.2739 108.519 47.6668 106.83C48.0229 106.414 48.3291 106.191 48.5855 106.162C48.9272 106.122 49.2316 106.26 49.4987 106.576C49.7626 106.863 49.9158 107.192 49.9583 107.562C49.9911 107.847 49.9038 108.217 49.6966 108.674C49.3984 109.343 49.1434 110.137 48.9316 111.056C48.7165 111.946 48.4718 112.956 48.1975 114.084C47.8826 115.361 47.6778 116.466 47.5832 117.4C47.4886 118.335 47.474 119.087 47.5395 119.656C47.6213 120.368 47.8528 120.875 48.2338 121.178C48.6115 121.452 48.9713 121.569 49.313 121.53C49.9111 121.461 50.5481 121.229 51.2241 120.834C51.9001 120.439 52.4479 120.059 52.8675 119.693C53.7101 118.99 54.5791 118.14 55.4744 117.143C56.3664 116.117 57.2157 115.096 58.0223 114.08C58.1231 113.953 58.2875 113.876 58.5153 113.85C58.9425 113.801 59.1757 113.947 59.215 114.289C59.251 114.602 59.0926 114.981 58.7397 115.426C57.7315 116.696 56.8191 117.796 56.0027 118.727C55.183 119.629 54.3897 120.384 53.6227 120.991C53.1176 121.367 52.5003 121.77 51.7706 122.2C51.0409 122.63 50.2347 122.896 49.3518 122.997C48.5259 123.092 47.7987 122.916 47.1702 122.469C46.5702 122.018 46.1736 120.953 45.9805 119.273C45.9052 118.618 45.9308 117.836 46.0571 116.927C46.1802 115.989 46.4058 114.939 46.7338 113.776L48.3792 108.133L42.9775 114.987C42.3473 115.78 41.8322 116.446 41.4322 116.982C41.0322 117.519 40.7078 117.96 40.459 118.306C39.9834 118.938 39.563 119.549 39.198 120.139C38.8615 120.726 38.5738 121.235 38.3348 121.666C38.1715 122.003 37.9616 122.185 37.7053 122.215C37.2212 122.271 36.9562 122.099 36.9104 121.7C36.8089 120.817 37.3723 118.69 38.6005 115.317C39.8287 111.944 40.4068 109.944 40.3348 109.317C40.3021 109.032 39.9725 108.926 39.3459 108.998C36.8113 109.289 32.7736 113.952 27.2328 122.986C26.7801 123.817 26.0156 125.073 24.9393 126.755C24.8669 126.879 24.7311 126.952 24.5317 126.975Z"/>
<path d="M56.5719 133.767C55.2334 133.921 54.4544 133.044 54.2351 131.136C53.9471 128.63 54.5853 124.517 56.1497 118.796C56.4152 117.843 56.747 116.838 57.145 115.782C57.5431 114.726 58.02 113.604 58.5759 112.415C59.1504 111.137 59.7002 110.02 60.2252 109.065C60.7788 108.107 61.2665 107.33 61.6885 106.733C61.8397 106.543 61.969 106.412 62.0764 106.342C62.2122 106.269 62.3229 106.227 62.4083 106.218C63.1488 106.132 64.0135 106.249 65.0024 106.569C65.9913 106.888 66.8936 107.332 67.7094 107.902C68.4583 108.393 69.0922 109.013 69.6111 109.761C70.1299 110.51 70.4384 111.311 70.5366 112.165C70.6086 112.792 70.5541 113.447 70.3731 114.132C70.2173 114.785 69.976 115.447 69.6493 116.12C70.3734 115.892 71.2329 115.461 72.2277 114.828C73.251 114.191 74.2574 113.281 75.247 112.1C75.3478 111.973 75.4979 111.898 75.6973 111.875C76.1244 111.826 76.3577 111.972 76.397 112.314C76.4133 112.457 76.3634 112.65 76.2472 112.894C76.1562 113.107 75.9721 113.387 75.6948 113.737C73.8099 115.915 71.4029 117.317 68.4738 117.943C68.099 118.447 67.6798 118.943 67.2163 119.429C66.778 119.883 66.3079 120.312 65.8061 120.716C64.2689 121.903 62.9164 122.563 61.7488 122.698C61.2646 122.753 60.8479 122.643 60.4986 122.365C60.1494 122.088 59.9518 121.75 59.906 121.351C59.7554 120.041 60.78 118.914 62.9798 117.968C63.7795 117.645 64.5825 117.351 65.3887 117.085C66.195 116.82 66.9854 116.541 67.7599 116.25C68.228 115.302 68.5526 114.485 68.7336 113.801C68.9431 113.113 69.0217 112.541 68.9693 112.086C68.7958 110.576 67.5056 109.267 65.0986 108.159C64.1536 107.719 63.4264 107.543 62.917 107.631C60.8763 110.462 59.0816 114.304 57.5329 119.157C55.9151 124.162 55.2633 128.031 55.5776 130.765C55.6529 131.42 55.7606 131.855 55.9007 132.07C56.0408 132.284 56.2532 132.375 56.538 132.343C56.6234 132.333 56.693 132.31 56.7467 132.275C56.8036 132.269 56.8606 132.262 56.9176 132.256C57.2878 132.213 57.4991 132.42 57.5515 132.875C57.6104 133.388 57.2839 133.685 56.5719 133.767ZM61.8907 121.296C62.9444 121.175 64.3731 120.174 66.1768 118.293C65.7277 118.403 65.2945 118.525 64.8771 118.659C64.4882 118.79 63.9224 119.014 63.1796 119.33C61.9406 119.848 61.3538 120.391 61.4193 120.961C61.4488 121.217 61.6059 121.329 61.8907 121.296Z"/>
<path d="M76.7631 119.933C75.1113 120.123 74.1954 119.435 74.0153 117.868C73.8975 116.843 74.0135 115.719 74.3635 114.496C74.7386 113.241 75.2896 112.009 76.0163 110.8C76.7397 109.562 77.5759 108.427 78.5249 107.395C79.4706 106.334 80.4677 105.469 81.5162 104.8C82.5615 104.103 83.5967 103.696 84.6219 103.578C86.4446 103.368 87.4591 104.161 87.6653 105.955C87.7995 107.123 87.5818 107.739 87.0122 107.805C86.4996 107.864 86.2154 107.651 86.1598 107.167C86.1369 106.967 86.1567 106.763 86.2192 106.554C86.3069 106.313 86.3361 106.064 86.3066 105.808C86.215 105.011 85.628 104.674 84.5458 104.799C82.8086 104.998 80.7822 106.573 78.4665 109.523C77.9152 110.25 77.3913 111.089 76.8947 112.041C76.3981 112.992 76.0028 113.947 75.7089 114.904C75.4401 115.829 75.3516 116.69 75.4432 117.488C75.5316 118.257 76.003 118.592 76.8573 118.494C77.5978 118.409 78.3548 118.091 79.1283 117.54C79.9303 116.987 80.6168 116.432 81.1877 115.875C82.3327 114.792 83.467 113.363 84.5905 111.589C84.7636 111.338 84.9856 111.01 85.2563 110.603C85.527 110.197 85.8355 109.743 86.1819 109.242C86.3079 109.083 86.4706 108.992 86.67 108.969C87.1256 108.917 87.3796 109.119 87.432 109.574L86.0886 112.196C85.1897 113.915 84.7991 115.287 84.917 116.312C85.0021 117.053 85.4006 117.382 86.1126 117.3C86.7107 117.232 87.3477 117 88.0236 116.605C88.6996 116.21 89.2474 115.829 89.6671 115.464C90.5097 114.761 91.3786 113.911 92.2739 112.913C93.166 111.887 94.0153 110.866 94.8219 109.85C94.9227 109.723 95.087 109.647 95.3148 109.62C95.742 109.571 95.9753 109.718 96.0145 110.059C96.0506 110.373 95.8921 110.752 95.5392 111.196C94.531 112.466 93.6187 113.567 92.8023 114.497C91.9826 115.399 91.1893 116.154 90.4223 116.762C89.9172 117.137 89.2856 117.542 88.5274 117.975C87.7693 118.408 86.8776 118.684 85.8523 118.802C84.4569 118.962 83.674 118.302 83.5038 116.821C83.4383 116.252 83.4555 115.773 83.5554 115.387C81.2485 118.162 78.9844 119.678 76.7631 119.933Z"/>
<path d="M99.5989 117.482C98.0895 117.655 96.8568 117.35 95.901 116.565C94.9451 115.78 94.3821 114.647 94.2119 113.167C93.9173 110.603 94.8069 107.673 96.8807 104.376C97.957 102.694 99.0901 101.381 100.28 100.436C101.495 99.46 102.672 98.9063 103.811 98.7753C104.808 98.6608 105.616 98.9141 106.236 99.5354C106.856 100.157 107.225 100.98 107.342 102.005C107.414 102.632 107.403 103.282 107.307 103.957C107.245 104.426 107.044 104.68 106.702 104.719C106.161 104.781 105.856 104.513 105.787 103.915C105.758 103.659 105.763 103.327 105.803 102.918C105.867 102.478 105.877 102.058 105.831 101.66C105.7 100.52 105.079 100.015 103.969 100.142C103.37 100.211 102.669 100.508 101.864 101.034C101.087 101.556 100.326 102.22 99.5823 103.027C98.8349 103.805 98.1987 104.672 97.6737 105.627C96.0634 108.438 95.3761 110.869 95.6118 112.919C95.8835 115.283 97.0873 116.342 99.2232 116.097C100.562 115.943 101.82 115.596 102.999 115.057C104.175 114.489 105.513 113.455 107.014 111.955C107.948 111.04 108.643 110.31 109.1 109.767C109.557 109.224 110.054 108.648 110.589 108.038C110.747 107.904 110.897 107.829 111.04 107.813C111.182 107.797 111.329 107.823 111.482 107.892C111.634 107.961 111.72 108.081 111.739 108.252C111.775 108.565 111.541 109.039 111.037 109.675C110.605 110.186 110.148 110.729 109.666 111.304C109.181 111.85 108.405 112.632 107.339 113.649C106.197 114.761 104.942 115.641 103.574 116.289C102.234 116.934 100.909 117.331 99.5989 117.482Z"/>
<path d="M110.51 118.608C109.969 118.67 109.649 118.274 109.551 117.42C109.407 116.167 109.853 113.894 110.888 110.601C111.952 107.304 113.588 102.961 115.796 97.571C114.714 97.6954 113.705 97.9556 112.77 98.3517C111.859 98.716 111.399 99.1008 111.387 99.5061C111.372 99.6232 111.314 99.7453 111.213 99.8724C111.138 99.9676 111 100.027 110.801 100.05C110.345 100.102 110.091 99.9003 110.039 99.4447C109.954 98.7042 110.467 98.0248 111.579 97.4065C112.691 96.7881 114.301 96.3578 116.408 96.1156L118.796 90.9069C118.959 90.5707 119.134 90.2044 119.319 89.808C119.501 89.3831 119.708 88.9264 119.941 88.438C120.18 88.0066 120.484 87.7696 120.854 87.727C121.082 87.7009 121.261 87.7524 121.392 87.8817C121.519 87.9825 121.59 88.1041 121.607 88.2465C121.656 88.6737 121.16 89.8849 120.12 91.8801C118.819 94.3669 118.122 95.7166 118.031 95.929C118.459 95.8799 119.104 95.849 119.969 95.8362C120.829 95.795 121.852 95.7785 123.036 95.7867C123.466 95.766 123.705 95.9551 123.75 96.3538C123.803 96.8095 123.573 97.0667 123.06 97.1257C122.861 97.1486 122.459 97.1659 121.854 97.1777C121.246 97.161 120.597 97.1635 119.907 97.1851C119.217 97.2067 118.632 97.2595 118.151 97.3436L117.515 97.46C112.902 108.292 110.752 114.945 111.066 117.419L111.148 117.756L111.158 117.841C111.21 118.297 110.994 118.553 110.51 118.608Z"/>
</mask>
<path d="M4.03058 128.942C3.54644 128.998 3.27654 128.783 3.2209 128.299C3.16852 127.844 3.41289 127.585 3.95399 127.522C4.43814 127.467 5.03293 127.37 5.73836 127.231C6.44052 127.064 7.06052 126.935 7.59835 126.844C7.62159 126.293 7.81473 125.463 8.17777 124.353C8.5408 123.244 9.04411 121.974 9.68768 120.544C10.3313 119.114 11.0696 117.63 11.9027 116.091L17.8682 105.104C18.1258 104.584 18.4761 103.866 18.919 102.949C19.3871 102.001 19.9336 100.856 20.5585 99.5143C19.7107 99.6695 18.9357 99.8307 18.2335 99.9979C17.5599 100.162 16.9574 100.318 16.4261 100.465C15.6418 100.671 15.1247 100.817 14.875 100.903C14.6252 100.99 14.4291 101.041 14.2867 101.058C13.8026 101.113 13.5294 100.87 13.4672 100.329C13.4312 100.016 13.6076 99.7938 13.9965 99.6625C15.6408 99.1561 17.2505 98.7259 18.8257 98.3717C20.4294 98.0142 22.0144 97.7455 23.5808 97.5655C25.1186 97.3887 26.3864 97.3728 27.3842 97.5179C27.8562 97.6079 28.1716 97.7159 28.3304 97.8419C28.5176 97.9647 28.6243 98.14 28.6505 98.3678C28.7029 98.8235 28.5155 99.0759 28.0883 99.125C27.9459 99.1413 27.74 99.1073 27.4706 99.0228C27.2012 98.9384 26.791 98.8845 26.2401 98.8613C25.7144 98.8063 24.9247 98.8393 23.8709 98.9604C23.4722 99.0063 23.1162 99.0472 22.803 99.0832C22.5182 99.1159 22.2777 99.158 22.0817 99.2094C22.1219 99.8107 21.7019 100.927 20.8217 102.557L19.0343 105.836L14.4845 114.453C13.6295 116.051 12.8533 117.583 12.156 119.048C11.4588 120.514 10.8087 121.887 10.2057 123.168C9.86033 123.929 9.5099 125.023 9.15439 126.449C10.2235 126.21 11.1124 126.036 11.8211 125.926C12.5266 125.787 13.0359 125.7 13.3492 125.664C13.9757 125.591 14.5343 125.556 15.025 125.557C15.5409 125.527 15.9873 125.519 16.364 125.533C16.8011 125.57 17.0392 125.759 17.0785 126.101C17.1308 126.556 16.9007 126.814 16.3881 126.872C16.0463 126.912 15.6016 126.934 15.054 126.939C14.5381 126.97 14.0808 127.008 13.6821 127.054C12.4005 127.201 10.8489 127.509 9.02721 127.978C8.911 128.222 8.72474 128.359 8.46842 128.389C8.24059 128.415 8.05826 128.335 7.92143 128.149C7.08015 128.361 6.33527 128.533 5.6868 128.665C5.03832 128.797 4.48625 128.89 4.03058 128.942Z" fill="black"/>
<path d="M24.5317 126.975C24.0476 127.031 23.7793 126.831 23.7269 126.375C23.7237 126.347 23.8536 125.971 24.1168 125.248C24.38 124.526 24.748 123.459 25.2207 122.048L26.874 117.227C27.544 115.274 28.002 113.736 28.2479 112.611C28.5222 111.483 28.6413 110.762 28.6053 110.449C28.553 109.993 28.7546 109.739 29.2103 109.687C29.6659 109.635 29.92 109.836 29.9723 110.292C30.0149 110.662 29.9538 111.261 29.7892 112.088C29.6497 112.883 29.3798 113.924 28.9795 115.21L27.3704 120.416C32.4584 112.214 36.5118 107.939 39.5306 107.592C40.1001 107.526 40.5694 107.718 40.9383 108.166C41.3039 108.586 41.5195 109.08 41.585 109.65C41.7421 111.017 41.0329 113.508 39.4573 117.123C40.79 115.411 42.1368 113.698 43.498 111.984C44.8843 110.237 46.2739 108.519 47.6668 106.83C48.0229 106.414 48.3291 106.191 48.5855 106.162C48.9272 106.122 49.2316 106.26 49.4987 106.576C49.7626 106.863 49.9158 107.192 49.9583 107.562C49.9911 107.847 49.9038 108.217 49.6966 108.674C49.3984 109.343 49.1434 110.137 48.9316 111.056C48.7165 111.946 48.4718 112.956 48.1975 114.084C47.8826 115.361 47.6778 116.466 47.5832 117.4C47.4886 118.335 47.474 119.087 47.5395 119.656C47.6213 120.368 47.8528 120.875 48.2338 121.178C48.6115 121.452 48.9713 121.569 49.313 121.53C49.9111 121.461 50.5481 121.229 51.2241 120.834C51.9001 120.439 52.4479 120.059 52.8675 119.693C53.7101 118.99 54.5791 118.14 55.4744 117.143C56.3664 116.117 57.2157 115.096 58.0223 114.08C58.1231 113.953 58.2875 113.876 58.5153 113.85C58.9425 113.801 59.1757 113.947 59.215 114.289C59.251 114.602 59.0926 114.981 58.7397 115.426C57.7315 116.696 56.8191 117.796 56.0027 118.727C55.183 119.629 54.3897 120.384 53.6227 120.991C53.1176 121.367 52.5003 121.77 51.7706 122.2C51.0409 122.63 50.2347 122.896 49.3518 122.997C48.5259 123.092 47.7987 122.916 47.1702 122.469C46.5702 122.018 46.1736 120.953 45.9805 119.273C45.9052 118.618 45.9308 117.836 46.0571 116.927C46.1802 115.989 46.4058 114.939 46.7338 113.776L48.3792 108.133L42.9775 114.987C42.3473 115.78 41.8322 116.446 41.4322 116.982C41.0322 117.519 40.7078 117.96 40.459 118.306C39.9834 118.938 39.563 119.549 39.198 120.139C38.8615 120.726 38.5738 121.235 38.3348 121.666C38.1715 122.003 37.9616 122.185 37.7053 122.215C37.2212 122.271 36.9562 122.099 36.9104 121.7C36.8089 120.817 37.3723 118.69 38.6005 115.317C39.8287 111.944 40.4068 109.944 40.3348 109.317C40.3021 109.032 39.9725 108.926 39.3459 108.998C36.8113 109.289 32.7736 113.952 27.2328 122.986C26.7801 123.817 26.0156 125.073 24.9393 126.755C24.8669 126.879 24.7311 126.952 24.5317 126.975Z" fill="black"/>
<path d="M56.5719 133.767C55.2334 133.921 54.4544 133.044 54.2351 131.136C53.9471 128.63 54.5853 124.517 56.1497 118.796C56.4152 117.843 56.747 116.838 57.145 115.782C57.5431 114.726 58.02 113.604 58.5759 112.415C59.1504 111.137 59.7002 110.02 60.2252 109.065C60.7788 108.107 61.2665 107.33 61.6885 106.733C61.8397 106.543 61.969 106.412 62.0764 106.342C62.2122 106.269 62.3229 106.227 62.4083 106.218C63.1488 106.132 64.0135 106.249 65.0024 106.569C65.9913 106.888 66.8936 107.332 67.7094 107.902C68.4583 108.393 69.0922 109.013 69.6111 109.761C70.1299 110.51 70.4384 111.311 70.5366 112.165C70.6086 112.792 70.5541 113.447 70.3731 114.132C70.2173 114.785 69.976 115.447 69.6493 116.12C70.3734 115.892 71.2329 115.461 72.2277 114.828C73.251 114.191 74.2574 113.281 75.247 112.1C75.3478 111.973 75.4979 111.898 75.6973 111.875C76.1244 111.826 76.3577 111.972 76.397 112.314C76.4133 112.457 76.3634 112.65 76.2472 112.894C76.1562 113.107 75.9721 113.387 75.6948 113.737C73.8099 115.915 71.4029 117.317 68.4738 117.943C68.099 118.447 67.6798 118.943 67.2163 119.429C66.778 119.883 66.3079 120.312 65.8061 120.716C64.2689 121.903 62.9164 122.563 61.7488 122.698C61.2646 122.753 60.8479 122.643 60.4986 122.365C60.1494 122.088 59.9518 121.75 59.906 121.351C59.7554 120.041 60.78 118.914 62.9798 117.968C63.7795 117.645 64.5825 117.351 65.3887 117.085C66.195 116.82 66.9854 116.541 67.7599 116.25C68.228 115.302 68.5526 114.485 68.7336 113.801C68.9431 113.113 69.0217 112.541 68.9693 112.086C68.7958 110.576 67.5056 109.267 65.0986 108.159C64.1536 107.719 63.4264 107.543 62.917 107.631C60.8763 110.462 59.0816 114.304 57.5329 119.157C55.9151 124.162 55.2633 128.031 55.5776 130.765C55.6529 131.42 55.7606 131.855 55.9007 132.07C56.0408 132.284 56.2532 132.375 56.538 132.343C56.6234 132.333 56.693 132.31 56.7467 132.275C56.8036 132.269 56.8606 132.262 56.9176 132.256C57.2878 132.213 57.4991 132.42 57.5515 132.875C57.6104 133.388 57.2839 133.685 56.5719 133.767ZM61.8907 121.296C62.9444 121.175 64.3731 120.174 66.1768 118.293C65.7277 118.403 65.2945 118.525 64.8771 118.659C64.4882 118.79 63.9224 119.014 63.1796 119.33C61.9406 119.848 61.3538 120.391 61.4193 120.961C61.4488 121.217 61.6059 121.329 61.8907 121.296Z" fill="black"/>
<path d="M76.7631 119.933C75.1113 120.123 74.1954 119.435 74.0153 117.868C73.8975 116.843 74.0135 115.719 74.3635 114.496C74.7386 113.241 75.2896 112.009 76.0163 110.8C76.7397 109.562 77.5759 108.427 78.5249 107.395C79.4706 106.334 80.4677 105.469 81.5162 104.8C82.5615 104.103 83.5967 103.696 84.6219 103.578C86.4446 103.368 87.4591 104.161 87.6653 105.955C87.7995 107.123 87.5818 107.739 87.0122 107.805C86.4996 107.864 86.2154 107.651 86.1598 107.167C86.1369 106.967 86.1567 106.763 86.2192 106.554C86.3069 106.313 86.3361 106.064 86.3066 105.808C86.215 105.011 85.628 104.674 84.5458 104.799C82.8086 104.998 80.7822 106.573 78.4665 109.523C77.9152 110.25 77.3913 111.089 76.8947 112.041C76.3981 112.992 76.0028 113.947 75.7089 114.904C75.4401 115.829 75.3516 116.69 75.4432 117.488C75.5316 118.257 76.003 118.592 76.8573 118.494C77.5978 118.409 78.3548 118.091 79.1283 117.54C79.9303 116.987 80.6168 116.432 81.1877 115.875C82.3327 114.792 83.467 113.363 84.5905 111.589C84.7636 111.338 84.9856 111.01 85.2563 110.603C85.527 110.197 85.8355 109.743 86.1819 109.242C86.3079 109.083 86.4706 108.992 86.67 108.969C87.1256 108.917 87.3796 109.119 87.432 109.574L86.0886 112.196C85.1897 113.915 84.7991 115.287 84.917 116.312C85.0021 117.053 85.4006 117.382 86.1126 117.3C86.7107 117.232 87.3477 117 88.0236 116.605C88.6996 116.21 89.2474 115.829 89.6671 115.464C90.5097 114.761 91.3786 113.911 92.2739 112.913C93.166 111.887 94.0153 110.866 94.8219 109.85C94.9227 109.723 95.087 109.647 95.3148 109.62C95.742 109.571 95.9753 109.718 96.0145 110.059C96.0506 110.373 95.8921 110.752 95.5392 111.196C94.531 112.466 93.6187 113.567 92.8023 114.497C91.9826 115.399 91.1893 116.154 90.4223 116.762C89.9172 117.137 89.2856 117.542 88.5274 117.975C87.7693 118.408 86.8776 118.684 85.8523 118.802C84.4569 118.962 83.674 118.302 83.5038 116.821C83.4383 116.252 83.4555 115.773 83.5554 115.387C81.2485 118.162 78.9844 119.678 76.7631 119.933Z" fill="black"/>
<path d="M99.5989 117.482C98.0895 117.655 96.8568 117.35 95.901 116.565C94.9451 115.78 94.3821 114.647 94.2119 113.167C93.9173 110.603 94.8069 107.673 96.8807 104.376C97.957 102.694 99.0901 101.381 100.28 100.436C101.495 99.46 102.672 98.9063 103.811 98.7753C104.808 98.6608 105.616 98.9141 106.236 99.5354C106.856 100.157 107.225 100.98 107.342 102.005C107.414 102.632 107.403 103.282 107.307 103.957C107.245 104.426 107.044 104.68 106.702 104.719C106.161 104.781 105.856 104.513 105.787 103.915C105.758 103.659 105.763 103.327 105.803 102.918C105.867 102.478 105.877 102.058 105.831 101.66C105.7 100.52 105.079 100.015 103.969 100.142C103.37 100.211 102.669 100.508 101.864 101.034C101.087 101.556 100.326 102.22 99.5823 103.027C98.8349 103.805 98.1987 104.672 97.6737 105.627C96.0634 108.438 95.3761 110.869 95.6118 112.919C95.8835 115.283 97.0873 116.342 99.2232 116.097C100.562 115.943 101.82 115.596 102.999 115.057C104.175 114.489 105.513 113.455 107.014 111.955C107.948 111.04 108.643 110.31 109.1 109.767C109.557 109.224 110.054 108.648 110.589 108.038C110.747 107.904 110.897 107.829 111.04 107.813C111.182 107.797 111.329 107.823 111.482 107.892C111.634 107.961 111.72 108.081 111.739 108.252C111.775 108.565 111.541 109.039 111.037 109.675C110.605 110.186 110.148 110.729 109.666 111.304C109.181 111.85 108.405 112.632 107.339 113.649C106.197 114.761 104.942 115.641 103.574 116.289C102.234 116.934 100.909 117.331 99.5989 117.482Z" fill="black"/>
<path d="M110.51 118.608C109.969 118.67 109.649 118.274 109.551 117.42C109.407 116.167 109.853 113.894 110.888 110.601C111.952 107.304 113.588 102.961 115.796 97.571C114.714 97.6954 113.705 97.9556 112.77 98.3517C111.859 98.716 111.399 99.1008 111.387 99.5061C111.372 99.6232 111.314 99.7453 111.213 99.8724C111.138 99.9676 111 100.027 110.801 100.05C110.345 100.102 110.091 99.9003 110.039 99.4447C109.954 98.7042 110.467 98.0248 111.579 97.4065C112.691 96.7881 114.301 96.3578 116.408 96.1156L118.796 90.9069C118.959 90.5707 119.134 90.2044 119.319 89.808C119.501 89.3831 119.708 88.9264 119.941 88.438C120.18 88.0066 120.484 87.7696 120.854 87.727C121.082 87.7009 121.261 87.7524 121.392 87.8817C121.519 87.9825 121.59 88.1041 121.607 88.2465C121.656 88.6737 121.16 89.8849 120.12 91.8801C118.819 94.3669 118.122 95.7166 118.031 95.929C118.459 95.8799 119.104 95.849 119.969 95.8362C120.829 95.795 121.852 95.7785 123.036 95.7867C123.466 95.766 123.705 95.9551 123.75 96.3538C123.803 96.8095 123.573 97.0667 123.06 97.1257C122.861 97.1486 122.459 97.1659 121.854 97.1777C121.246 97.161 120.597 97.1635 119.907 97.1851C119.217 97.2067 118.632 97.2595 118.151 97.3436L117.515 97.46C112.902 108.292 110.752 114.945 111.066 117.419L111.148 117.756L111.158 117.841C111.21 118.297 110.994 118.553 110.51 118.608Z" fill="black"/>
<path d="M4.03058 128.942C3.54644 128.998 3.27654 128.783 3.2209 128.299C3.16852 127.844 3.41289 127.585 3.95399 127.522C4.43814 127.467 5.03293 127.37 5.73836 127.231C6.44052 127.064 7.06052 126.935 7.59835 126.844C7.62159 126.293 7.81473 125.463 8.17777 124.353C8.5408 123.244 9.04411 121.974 9.68768 120.544C10.3313 119.114 11.0696 117.63 11.9027 116.091L17.8682 105.104C18.1258 104.584 18.4761 103.866 18.919 102.949C19.3871 102.001 19.9336 100.856 20.5585 99.5143C19.7107 99.6695 18.9357 99.8307 18.2335 99.9979C17.5599 100.162 16.9574 100.318 16.4261 100.465C15.6418 100.671 15.1247 100.817 14.875 100.903C14.6252 100.99 14.4291 101.041 14.2867 101.058C13.8026 101.113 13.5294 100.87 13.4672 100.329C13.4312 100.016 13.6076 99.7938 13.9965 99.6625C15.6408 99.1561 17.2505 98.7259 18.8257 98.3717C20.4294 98.0142 22.0144 97.7455 23.5808 97.5655C25.1186 97.3887 26.3864 97.3728 27.3842 97.5179C27.8562 97.6079 28.1716 97.7159 28.3304 97.8419C28.5176 97.9647 28.6243 98.14 28.6505 98.3678C28.7029 98.8235 28.5155 99.0759 28.0883 99.125C27.9459 99.1413 27.74 99.1073 27.4706 99.0228C27.2012 98.9384 26.791 98.8845 26.2401 98.8613C25.7144 98.8063 24.9247 98.8393 23.8709 98.9604C23.4722 99.0063 23.1162 99.0472 22.803 99.0832C22.5182 99.1159 22.2777 99.158 22.0817 99.2094C22.1219 99.8107 21.7019 100.927 20.8217 102.557L19.0343 105.836L14.4845 114.453C13.6295 116.051 12.8533 117.583 12.156 119.048C11.4588 120.514 10.8087 121.887 10.2057 123.168C9.86033 123.929 9.5099 125.023 9.15439 126.449C10.2235 126.21 11.1124 126.036 11.8211 125.926C12.5266 125.787 13.0359 125.7 13.3492 125.664C13.9757 125.591 14.5343 125.556 15.025 125.557C15.5409 125.527 15.9873 125.519 16.364 125.533C16.8011 125.57 17.0392 125.759 17.0785 126.101C17.1308 126.556 16.9007 126.814 16.3881 126.872C16.0463 126.912 15.6016 126.934 15.054 126.939C14.5381 126.97 14.0808 127.008 13.6821 127.054C12.4005 127.201 10.8489 127.509 9.02721 127.978C8.911 128.222 8.72474 128.359 8.46842 128.389C8.24059 128.415 8.05826 128.335 7.92143 128.149C7.08015 128.361 6.33527 128.533 5.6868 128.665C5.03832 128.797 4.48625 128.89 4.03058 128.942Z" stroke="black" stroke-width="2.4" mask="url(#path-3-outside-1_289_882)"/>
<path d="M24.5317 126.975C24.0476 127.031 23.7793 126.831 23.7269 126.375C23.7237 126.347 23.8536 125.971 24.1168 125.248C24.38 124.526 24.748 123.459 25.2207 122.048L26.874 117.227C27.544 115.274 28.002 113.736 28.2479 112.611C28.5222 111.483 28.6413 110.762 28.6053 110.449C28.553 109.993 28.7546 109.739 29.2103 109.687C29.6659 109.635 29.92 109.836 29.9723 110.292C30.0149 110.662 29.9538 111.261 29.7892 112.088C29.6497 112.883 29.3798 113.924 28.9795 115.21L27.3704 120.416C32.4584 112.214 36.5118 107.939 39.5306 107.592C40.1001 107.526 40.5694 107.718 40.9383 108.166C41.3039 108.586 41.5195 109.08 41.585 109.65C41.7421 111.017 41.0329 113.508 39.4573 117.123C40.79 115.411 42.1368 113.698 43.498 111.984C44.8843 110.237 46.2739 108.519 47.6668 106.83C48.0229 106.414 48.3291 106.191 48.5855 106.162C48.9272 106.122 49.2316 106.26 49.4987 106.576C49.7626 106.863 49.9158 107.192 49.9583 107.562C49.9911 107.847 49.9038 108.217 49.6966 108.674C49.3984 109.343 49.1434 110.137 48.9316 111.056C48.7165 111.946 48.4718 112.956 48.1975 114.084C47.8826 115.361 47.6778 116.466 47.5832 117.4C47.4886 118.335 47.474 119.087 47.5395 119.656C47.6213 120.368 47.8528 120.875 48.2338 121.178C48.6115 121.452 48.9713 121.569 49.313 121.53C49.9111 121.461 50.5481 121.229 51.2241 120.834C51.9001 120.439 52.4479 120.059 52.8675 119.693C53.7101 118.99 54.5791 118.14 55.4744 117.143C56.3664 116.117 57.2157 115.096 58.0223 114.08C58.1231 113.953 58.2875 113.876 58.5153 113.85C58.9425 113.801 59.1757 113.947 59.215 114.289C59.251 114.602 59.0926 114.981 58.7397 115.426C57.7315 116.696 56.8191 117.796 56.0027 118.727C55.183 119.629 54.3897 120.384 53.6227 120.991C53.1176 121.367 52.5003 121.77 51.7706 122.2C51.0409 122.63 50.2347 122.896 49.3518 122.997C48.5259 123.092 47.7987 122.916 47.1702 122.469C46.5702 122.018 46.1736 120.953 45.9805 119.273C45.9052 118.618 45.9308 117.836 46.0571 116.927C46.1802 115.989 46.4058 114.939 46.7338 113.776L48.3792 108.133L42.9775 114.987C42.3473 115.78 41.8322 116.446 41.4322 116.982C41.0322 117.519 40.7078 117.96 40.459 118.306C39.9834 118.938 39.563 119.549 39.198 120.139C38.8615 120.726 38.5738 121.235 38.3348 121.666C38.1715 122.003 37.9616 122.185 37.7053 122.215C37.2212 122.271 36.9562 122.099 36.9104 121.7C36.8089 120.817 37.3723 118.69 38.6005 115.317C39.8287 111.944 40.4068 109.944 40.3348 109.317C40.3021 109.032 39.9725 108.926 39.3459 108.998C36.8113 109.289 32.7736 113.952 27.2328 122.986C26.7801 123.817 26.0156 125.073 24.9393 126.755C24.8669 126.879 24.7311 126.952 24.5317 126.975Z" stroke="black" stroke-width="2.4" mask="url(#path-3-outside-1_289_882)"/>
<path d="M56.5719 133.767C55.2334 133.921 54.4544 133.044 54.2351 131.136C53.9471 128.63 54.5853 124.517 56.1497 118.796C56.4152 117.843 56.747 116.838 57.145 115.782C57.5431 114.726 58.02 113.604 58.5759 112.415C59.1504 111.137 59.7002 110.02 60.2252 109.065C60.7788 108.107 61.2665 107.33 61.6885 106.733C61.8397 106.543 61.969 106.412 62.0764 106.342C62.2122 106.269 62.3229 106.227 62.4083 106.218C63.1488 106.132 64.0135 106.249 65.0024 106.569C65.9913 106.888 66.8936 107.332 67.7094 107.902C68.4583 108.393 69.0922 109.013 69.6111 109.761C70.1299 110.51 70.4384 111.311 70.5366 112.165C70.6086 112.792 70.5541 113.447 70.3731 114.132C70.2173 114.785 69.976 115.447 69.6493 116.12C70.3734 115.892 71.2329 115.461 72.2277 114.828C73.251 114.191 74.2574 113.281 75.247 112.1C75.3478 111.973 75.4979 111.898 75.6973 111.875C76.1244 111.826 76.3577 111.972 76.397 112.314C76.4133 112.457 76.3634 112.65 76.2472 112.894C76.1562 113.107 75.9721 113.387 75.6948 113.737C73.8099 115.915 71.4029 117.317 68.4738 117.943C68.099 118.447 67.6798 118.943 67.2163 119.429C66.778 119.883 66.3079 120.312 65.8061 120.716C64.2689 121.903 62.9164 122.563 61.7488 122.698C61.2646 122.753 60.8479 122.643 60.4986 122.365C60.1494 122.088 59.9518 121.75 59.906 121.351C59.7554 120.041 60.78 118.914 62.9798 117.968C63.7795 117.645 64.5825 117.351 65.3887 117.085C66.195 116.82 66.9854 116.541 67.7599 116.25C68.228 115.302 68.5526 114.485 68.7336 113.801C68.9431 113.113 69.0217 112.541 68.9693 112.086C68.7958 110.576 67.5056 109.267 65.0986 108.159C64.1536 107.719 63.4264 107.543 62.917 107.631C60.8763 110.462 59.0816 114.304 57.5329 119.157C55.9151 124.162 55.2633 128.031 55.5776 130.765C55.6529 131.42 55.7606 131.855 55.9007 132.07C56.0408 132.284 56.2532 132.375 56.538 132.343C56.6234 132.333 56.693 132.31 56.7467 132.275C56.8036 132.269 56.8606 132.262 56.9176 132.256C57.2878 132.213 57.4991 132.42 57.5515 132.875C57.6104 133.388 57.2839 133.685 56.5719 133.767ZM61.8907 121.296C62.9444 121.175 64.3731 120.174 66.1768 118.293C65.7277 118.403 65.2945 118.525 64.8771 118.659C64.4882 118.79 63.9224 119.014 63.1796 119.33C61.9406 119.848 61.3538 120.391 61.4193 120.961C61.4488 121.217 61.6059 121.329 61.8907 121.296Z" stroke="black" stroke-width="2.4" mask="url(#path-3-outside-1_289_882)"/>
<path d="M76.7631 119.933C75.1113 120.123 74.1954 119.435 74.0153 117.868C73.8975 116.843 74.0135 115.719 74.3635 114.496C74.7386 113.241 75.2896 112.009 76.0163 110.8C76.7397 109.562 77.5759 108.427 78.5249 107.395C79.4706 106.334 80.4677 105.469 81.5162 104.8C82.5615 104.103 83.5967 103.696 84.6219 103.578C86.4446 103.368 87.4591 104.161 87.6653 105.955C87.7995 107.123 87.5818 107.739 87.0122 107.805C86.4996 107.864 86.2154 107.651 86.1598 107.167C86.1369 106.967 86.1567 106.763 86.2192 106.554C86.3069 106.313 86.3361 106.064 86.3066 105.808C86.215 105.011 85.628 104.674 84.5458 104.799C82.8086 104.998 80.7822 106.573 78.4665 109.523C77.9152 110.25 77.3913 111.089 76.8947 112.041C76.3981 112.992 76.0028 113.947 75.7089 114.904C75.4401 115.829 75.3516 116.69 75.4432 117.488C75.5316 118.257 76.003 118.592 76.8573 118.494C77.5978 118.409 78.3548 118.091 79.1283 117.54C79.9303 116.987 80.6168 116.432 81.1877 115.875C82.3327 114.792 83.467 113.363 84.5905 111.589C84.7636 111.338 84.9856 111.01 85.2563 110.603C85.527 110.197 85.8355 109.743 86.1819 109.242C86.3079 109.083 86.4706 108.992 86.67 108.969C87.1256 108.917 87.3796 109.119 87.432 109.574L86.0886 112.196C85.1897 113.915 84.7991 115.287 84.917 116.312C85.0021 117.053 85.4006 117.382 86.1126 117.3C86.7107 117.232 87.3477 117 88.0236 116.605C88.6996 116.21 89.2474 115.829 89.6671 115.464C90.5097 114.761 91.3786 113.911 92.2739 112.913C93.166 111.887 94.0153 110.866 94.8219 109.85C94.9227 109.723 95.087 109.647 95.3148 109.62C95.742 109.571 95.9753 109.718 96.0145 110.059C96.0506 110.373 95.8921 110.752 95.5392 111.196C94.531 112.466 93.6187 113.567 92.8023 114.497C91.9826 115.399 91.1893 116.154 90.4223 116.762C89.9172 117.137 89.2856 117.542 88.5274 117.975C87.7693 118.408 86.8776 118.684 85.8523 118.802C84.4569 118.962 83.674 118.302 83.5038 116.821C83.4383 116.252 83.4555 115.773 83.5554 115.387C81.2485 118.162 78.9844 119.678 76.7631 119.933Z" stroke="black" stroke-width="2.4" mask="url(#path-3-outside-1_289_882)"/>
<path d="M99.5989 117.482C98.0895 117.655 96.8568 117.35 95.901 116.565C94.9451 115.78 94.3821 114.647 94.2119 113.167C93.9173 110.603 94.8069 107.673 96.8807 104.376C97.957 102.694 99.0901 101.381 100.28 100.436C101.495 99.46 102.672 98.9063 103.811 98.7753C104.808 98.6608 105.616 98.9141 106.236 99.5354C106.856 100.157 107.225 100.98 107.342 102.005C107.414 102.632 107.403 103.282 107.307 103.957C107.245 104.426 107.044 104.68 106.702 104.719C106.161 104.781 105.856 104.513 105.787 103.915C105.758 103.659 105.763 103.327 105.803 102.918C105.867 102.478 105.877 102.058 105.831 101.66C105.7 100.52 105.079 100.015 103.969 100.142C103.37 100.211 102.669 100.508 101.864 101.034C101.087 101.556 100.326 102.22 99.5823 103.027C98.8349 103.805 98.1987 104.672 97.6737 105.627C96.0634 108.438 95.3761 110.869 95.6118 112.919C95.8835 115.283 97.0873 116.342 99.2232 116.097C100.562 115.943 101.82 115.596 102.999 115.057C104.175 114.489 105.513 113.455 107.014 111.955C107.948 111.04 108.643 110.31 109.1 109.767C109.557 109.224 110.054 108.648 110.589 108.038C110.747 107.904 110.897 107.829 111.04 107.813C111.182 107.797 111.329 107.823 111.482 107.892C111.634 107.961 111.72 108.081 111.739 108.252C111.775 108.565 111.541 109.039 111.037 109.675C110.605 110.186 110.148 110.729 109.666 111.304C109.181 111.85 108.405 112.632 107.339 113.649C106.197 114.761 104.942 115.641 103.574 116.289C102.234 116.934 100.909 117.331 99.5989 117.482Z" stroke="black" stroke-width="2.4" mask="url(#path-3-outside-1_289_882)"/>
<path d="M110.51 118.608C109.969 118.67 109.649 118.274 109.551 117.42C109.407 116.167 109.853 113.894 110.888 110.601C111.952 107.304 113.588 102.961 115.796 97.571C114.714 97.6954 113.705 97.9556 112.77 98.3517C111.859 98.716 111.399 99.1008 111.387 99.5061C111.372 99.6232 111.314 99.7453 111.213 99.8724C111.138 99.9676 111 100.027 110.801 100.05C110.345 100.102 110.091 99.9003 110.039 99.4447C109.954 98.7042 110.467 98.0248 111.579 97.4065C112.691 96.7881 114.301 96.3578 116.408 96.1156L118.796 90.9069C118.959 90.5707 119.134 90.2044 119.319 89.808C119.501 89.3831 119.708 88.9264 119.941 88.438C120.18 88.0066 120.484 87.7696 120.854 87.727C121.082 87.7009 121.261 87.7524 121.392 87.8817C121.519 87.9825 121.59 88.1041 121.607 88.2465C121.656 88.6737 121.16 89.8849 120.12 91.8801C118.819 94.3669 118.122 95.7166 118.031 95.929C118.459 95.8799 119.104 95.849 119.969 95.8362C120.829 95.795 121.852 95.7785 123.036 95.7867C123.466 95.766 123.705 95.9551 123.75 96.3538C123.803 96.8095 123.573 97.0667 123.06 97.1257C122.861 97.1486 122.459 97.1659 121.854 97.1777C121.246 97.161 120.597 97.1635 119.907 97.1851C119.217 97.2067 118.632 97.2595 118.151 97.3436L117.515 97.46C112.902 108.292 110.752 114.945 111.066 117.419L111.148 117.756L111.158 117.841C111.21 118.297 110.994 118.553 110.51 118.608Z" stroke="black" stroke-width="2.4" mask="url(#path-3-outside-1_289_882)"/>
</svg>
